<svg width="818" height="380" viewBox="0 0 818 380" fill="none" xmlns="http://www.w3.org/2000/svg">
<g opacity="0.3" clip-path="url(#clip0_158_1258)">
<path opacity="0.8516" d="M812.72 0H813.852L804.535 5.40138V129.89L819 138.275V138.944L804.123 130.302L803.969 130.199V5.09273L812.72 0Z" fill="#3C3C3B"/>
<path opacity="0.9669" d="M804.278 145.992L817.971 138.018V122.071L804.278 114.098L790.585 122.071V138.018L804.278 145.992ZM817.404 137.709L804.278 145.323L791.151 137.709V122.431L804.278 114.818L817.404 122.431V137.709Z" fill="#3C3C3B"/>
<path opacity="0.716" d="M795.836 0L804.278 4.93841L812.72 0H813.853L804.278 5.60715L794.703 0H795.836Z" fill="#3C3C3B"/>
<path opacity="0.8412" d="M804.278 4.93842L819 13.4777V14.1465L804.278 5.60716L750.947 36.6265V98.6652L804.278 129.736L819 121.145V121.814L804.432 130.302L804.278 130.405L750.536 99.1282L750.381 99.0253V36.2664L804.278 4.93842Z" fill="#3C3C3B"/>
<path opacity="0.994" d="M697.051 192.804L750.947 161.424V98.6652L697.051 67.2858L643.154 98.6652V161.424L697.051 192.804ZM750.381 161.064L697.051 192.083L643.721 161.064V99.0253L697.051 68.0059L750.381 99.0253V161.064Z" fill="#3C3C3B"/>
<path opacity="0.9394" d="M697.051 192.804L750.947 161.424V98.6652L697.051 67.2858L643.154 98.6652V161.424L697.051 192.804ZM750.381 161.064L697.051 192.083L643.721 161.064V99.0253L697.051 68.0059L750.381 99.0253V161.064Z" fill="#3C3C3B"/>
<path opacity="0.9775" d="M688.608 0L697.051 4.93841L705.544 0H706.677L697.051 5.60715L687.476 0H688.608Z" fill="#3C3C3B"/>
<path opacity="0.7716" d="M697.051 130.405L697.205 130.302L750.947 99.0253V36.2664L697.051 4.88696L643.154 36.2664V99.0253L643.309 99.1282L697.051 130.405ZM750.381 98.6652L697.051 129.685L643.721 98.6652V36.6265L697.051 5.60715L750.381 36.6265V98.6652Z" fill="#3C3C3B"/>
<path opacity="0.6343" d="M688.608 0L697.051 4.93841L705.544 0H706.677L697.051 5.60715L687.476 0H688.608Z" fill="#3C3C3B"/>
<path opacity="0.6715" d="M563.365 0V20.6796L589.875 36.1121L616.386 20.6796V0H616.952V21.0397L589.875 36.7808L562.798 21.0397V0H563.365Z" fill="#3C3C3B"/>
<path opacity="0.9459" d="M536.546 0V36.2664L589.876 67.3372L643.206 36.2664V0H643.772V36.6265L589.876 68.006L535.98 36.6265V0H536.546Z" fill="#3C3C3B"/>
<path opacity="0.5261" d="M589.875 145.992L603.568 138.018V122.071L589.875 114.098L576.183 122.071V138.018L589.875 145.992ZM603.002 137.709L589.875 145.323L576.749 137.709V122.431L589.875 114.818L603.002 122.431V137.709Z" fill="#3C3C3B"/>
<path opacity="0.5223" d="M697.051 130.405L697.205 130.302L750.947 99.0253V36.2664L697.051 4.88696L643.154 36.2664V99.0253L643.309 99.1282L697.051 130.405ZM750.381 98.6652L697.051 129.685L643.721 98.6652V36.6265L697.051 5.60715L750.381 36.6265V98.6652Z" fill="#3C3C3B"/>
<path opacity="0.8962" d="M469.574 0V12.8604L482.7 20.5252L495.776 12.8604V0H496.342V13.2205L482.7 21.194L469.007 13.2205V0H469.574Z" fill="#3C3C3B"/>
<path opacity="0.5211" d="M482.701 145.992L496.394 138.018V122.071L482.701 114.098L469.008 122.071V138.018L482.701 145.992ZM495.776 137.709L482.649 145.323L469.523 137.709V122.431L482.649 114.818L495.776 122.431V137.709Z" fill="#3C3C3B"/>
<path opacity="0.6374" d="M589.875 317.601L590.03 317.498L697.359 255.048V129.89L697.205 129.787L589.875 67.2858L589.721 67.3886L482.391 129.89V255.048L482.546 255.151L589.875 317.601ZM696.793 254.688L589.875 316.932L482.957 254.688V130.199L589.875 67.9545L696.793 130.199V254.688Z" fill="#3C3C3B"/>
<path opacity="0.5189" d="M589.876 130.405L590.03 130.302L643.772 99.0253V36.2664L589.876 4.88696L535.98 36.2664V99.0253L536.134 99.1282L589.876 130.405ZM643.206 98.6652L589.876 129.685L536.546 98.6652V36.6265L589.876 5.60715L643.206 36.6265V98.6652Z" fill="#3C3C3B"/>
<path opacity="0.5082" d="M482.7 161.578L509.777 145.837V114.303L482.7 98.5109L455.623 114.303V145.837L482.7 161.578ZM509.211 145.477L482.7 160.91L456.19 145.477V114.612L482.7 99.1796L509.211 114.612V145.477Z" fill="#3C3C3B"/>
<path opacity="0.5792" d="M322.143 0V36.2664L375.474 67.3372L428.804 36.2664V0H429.37V36.6265L375.474 68.006L321.732 36.6779L321.577 36.6265V0H322.143Z" fill="#3C3C3B"/>
<path opacity="0.9861" d="M482.7 130.405L482.855 130.302L536.597 99.0253V36.2664L482.7 4.88696L428.804 36.2664V99.0253L428.958 99.1282L482.7 130.405ZM535.979 98.6652L482.649 129.685L429.318 98.6652V36.6265L482.7 5.60715L535.979 36.6265V98.6652Z" fill="#3C3C3B"/>
<path opacity="0.9808" d="M576.749 0V12.8604L589.875 20.5252L603.002 12.8604V0H603.568V13.2205L589.875 21.194L576.183 13.2205V0H576.749Z" fill="#3C3C3B"/>
<path opacity="0.9699" d="M322.143 0V36.2664L375.474 67.3372L428.804 36.2664V0H429.37V36.6265L375.474 68.006L321.732 36.6779L321.577 36.6265V0H322.143Z" fill="#3C3C3B"/>
<path opacity="0.9622" d="M589.876 192.804L643.772 161.424V98.6652L589.876 67.2858L535.98 98.6652V161.424L589.876 192.804ZM643.206 161.064L589.876 192.083L536.546 161.064V99.0253L589.876 68.0059L643.206 99.0253V161.064Z" fill="#3C3C3B"/>
<path opacity="0.6304" d="M589.876 192.804L643.772 161.424V98.6652L589.876 67.2858L535.98 98.6652V161.424L589.876 192.804ZM643.206 161.064L589.876 192.083L536.546 161.064V99.0253L589.876 68.0059L643.206 99.0253V161.064Z" fill="#3C3C3B"/>
<path opacity="0.8387" d="M482.7 348.826L509.777 333.034V301.5L482.7 285.759L455.623 301.5V333.034L482.7 348.826ZM509.211 332.725L482.7 348.158L456.19 332.725V301.86L482.7 286.428L509.211 301.86V332.725Z" fill="#3C3C3B"/>
<path opacity="0.9051" d="M482.7 380L536.597 348.621V285.862L482.7 254.482L428.804 285.862V348.621L482.7 380ZM535.979 348.312L482.649 379.331L429.318 348.312V286.222L482.649 255.202L535.979 286.222V348.312Z" fill="#3C3C3B"/>
<path opacity="0.6545" d="M429.37 0V36.2664L482.7 67.3372L535.979 36.2664V0H536.545V36.6265L482.7 68.006L428.803 36.6265V0H429.37Z" fill="#3C3C3B"/>
<path opacity="0.9574" d="M367.032 0L375.474 4.93841L383.916 0H385.049L375.474 5.60715L365.899 0H367.032Z" fill="#3C3C3B"/>
<path opacity="0.9474" d="M375.474 317.601L375.628 317.498L482.958 255.048V129.89L482.804 129.787L375.474 67.2858L375.319 67.3886L267.99 129.89V255.048L268.144 255.151L375.474 317.601ZM482.392 254.688L375.474 316.932L268.556 254.688V130.199L375.474 67.9545L482.392 130.199V254.688Z" fill="#3C3C3B"/>
<path opacity="0.8086" d="M268.299 161.578L295.375 145.837V114.303L268.299 98.5109L241.222 114.303V145.837L268.299 161.578ZM294.809 145.477L268.299 160.91L241.788 145.477V114.612L268.299 99.1796L294.809 114.612V145.477Z" fill="#3C3C3B"/>
<path opacity="0.5531" d="M375.474 348.826L402.551 333.034V301.5L375.474 285.759L348.397 301.5V333.034L375.474 348.826ZM401.985 332.725L375.474 348.158L348.963 332.725V301.86L375.474 286.428L401.985 301.86V332.725Z" fill="#3C3C3B"/>
<path opacity="0.9538" d="M259.856 0L268.298 4.93841L276.741 0H277.873L268.298 5.60715L258.672 0H259.856Z" fill="#3C3C3B"/>
<path opacity="0.8754" d="M107.793 0V36.2664L161.072 67.3372L214.402 36.2664V0H214.968V36.6265L161.072 68.006L107.175 36.6265V0H107.793Z" fill="#3C3C3B"/>
<path opacity="0.5051" d="M322.143 0V36.2664L375.474 67.3372L428.804 36.2664V0H429.37V36.6265L375.474 68.006L321.732 36.6779L321.577 36.6265V0H322.143Z" fill="#3C3C3B"/>
<path opacity="0.8517" d="M170.698 0L161.38 5.40138V129.89L268.298 192.135L375.216 129.89V5.40138L365.899 0H367.031L375.628 4.98985L375.782 5.09273V130.199L268.401 192.701L268.298 192.804L160.968 130.302L160.814 130.199V5.09273L169.514 0H170.698Z" fill="#3C3C3B"/>
<path opacity="0.61" d="M161.072 145.992L174.765 138.018V122.071L161.072 114.098L147.379 122.071V138.018L161.072 145.992ZM174.198 137.709L161.072 145.323L147.945 137.709V122.431L161.072 114.818L174.198 122.431V137.709Z" fill="#3C3C3B"/>
<path opacity="0.6181" d="M375.474 192.804L429.37 161.424V98.6652L375.474 67.2858L375.319 67.3886L321.577 98.6652V161.424L321.732 161.527L375.474 192.804ZM428.804 161.064L375.474 192.083L322.143 161.064V99.0253L375.474 68.0059L428.804 99.0253V161.064Z" fill="#3C3C3B"/>
<path opacity="0.876" d="M268.298 317.601L268.453 317.498L375.782 255.048V129.89L375.628 129.787L268.298 67.2858L268.144 67.3886L160.814 129.89V255.048L160.968 255.151L268.298 317.601ZM375.216 254.688L268.298 316.932L161.38 254.688V130.199L268.298 67.9545L375.216 130.199V254.688Z" fill="#3C3C3B"/>
<path opacity="0.5845" d="M268.299 348.826L295.375 333.034V301.5L268.299 285.759L241.222 301.5V333.034L268.299 348.826ZM294.809 332.725L268.299 348.158L241.788 332.725V301.86L268.299 286.428L294.809 301.86V332.725Z" fill="#3C3C3B"/>
<path opacity="0.5432" d="M375.474 317.601L375.628 317.498L429.37 286.222V223.463L375.474 192.083L375.319 192.186L321.577 223.463V286.222L321.732 286.325L375.474 317.601ZM428.804 285.913L375.474 316.932L322.143 285.913V223.823L375.474 192.804L428.804 223.823V285.913Z" fill="#3C3C3B"/>
<path opacity="0.8471" d="M0.566223 0V36.2664L53.8964 67.3372L107.175 36.2664V0H107.793V36.6265L53.8964 68.006L-1.52588e-05 36.6265V0H0.566223Z" fill="#3C3C3B"/>
<path opacity="0.7774" d="M161.072 99.1797L188.148 83.3871V51.8533L161.072 36.0607L133.995 51.8533V83.3871L161.072 99.1797ZM187.582 83.0784L161.072 98.5109L134.561 83.0784V52.2134L161.072 36.7809L187.582 52.2134V83.0784Z" fill="#3C3C3B"/>
<path opacity="0.6187" d="M152.629 0L161.072 4.93841L169.514 0H170.698L161.072 5.60715L151.497 0H152.629Z" fill="#3C3C3B"/>
<path opacity="0.6525" d="M27.386 0V20.6796L53.8967 36.1121L80.4073 20.6796V0H80.9736V21.0397L53.8967 36.7808L26.8197 21.0397V0H27.386Z" fill="#3C3C3B"/>
<path opacity="0.6134" d="M0.566223 0V36.2664L53.8964 67.3372L107.175 36.2664V0H107.793V36.6265L53.8964 68.006L-1.52588e-05 36.6265V0H0.566223Z" fill="#3C3C3B"/>
<path opacity="0.951" d="M268.298 192.804L322.195 161.424V98.6652L268.298 67.2858L268.144 67.3886L214.402 98.6652V161.424L214.556 161.527L268.298 192.804ZM321.577 161.064L268.247 192.083L214.917 161.064V99.0253L268.247 68.0059L321.577 99.0253V161.064Z" fill="#3C3C3B"/>
<path opacity="0.6256" d="M53.8964 317.601L54.0509 317.498L107.793 286.222V223.463L53.8964 192.083L-1.52588e-05 223.463V286.222L0.154442 286.325L53.8964 317.601ZM107.175 285.913L53.845 316.932L0.514755 285.913V223.823L53.845 192.804L107.175 223.823V285.913Z" fill="#3C3C3B"/>
<path opacity="0.6699" d="M268.298 317.601L268.453 317.498L322.195 286.222V223.463L268.298 192.083L268.144 192.186L214.402 223.463V286.222L214.556 286.325L268.298 317.601ZM321.577 285.913L268.247 316.932L214.917 285.913V223.823L268.247 192.804L321.577 223.823V285.913Z" fill="#3C3C3B"/>
<path opacity="0.6867" d="M800.829 145.683C800.829 147.586 802.373 149.13 804.227 149.13C806.131 149.13 807.624 147.586 807.624 145.683C807.624 143.78 806.08 142.236 804.227 142.236C802.373 142.185 800.829 143.78 800.829 145.683Z" fill="#3C3C3B"/>
<path opacity="0.975" d="M747.241 98.871C747.241 100.774 748.786 102.318 750.639 102.318C752.544 102.318 754.088 100.774 754.088 98.871C754.088 96.9676 752.544 95.4244 750.639 95.4244C748.786 95.4244 747.241 96.9676 747.241 98.871Z" fill="#3C3C3B"/>
<path opacity="0.9056" d="M693.654 5.24707C693.654 7.15042 695.198 8.69367 697.103 8.69367C699.007 8.69367 700.5 7.15042 700.5 5.24707C700.5 3.34373 698.956 1.80048 697.103 1.80048C695.198 1.80048 693.654 3.34373 693.654 5.24707Z" fill="#3C3C3B"/>
<path opacity="0.862" d="M693.654 130.045C693.654 131.948 695.198 133.491 697.103 133.491C699.007 133.491 700.5 131.948 700.5 130.045C700.5 128.141 698.956 126.598 697.103 126.598C695.198 126.598 693.654 128.141 693.654 130.045Z" fill="#3C3C3B"/>
<path opacity="0.7249" d="M613.246 20.8339C613.246 22.7373 614.791 24.2805 616.644 24.2805C618.548 24.2805 620.093 22.7373 620.093 20.8339C620.093 18.9306 618.548 17.3873 616.644 17.3873C614.791 17.3873 613.246 18.9306 613.246 20.8339Z" fill="#3C3C3B"/>
<path opacity="0.5437" d="M559.658 20.8339C559.658 22.7373 561.203 24.2805 563.107 24.2805C565.012 24.2805 566.505 22.7373 566.505 20.8339C566.505 18.9306 564.961 17.3873 563.107 17.3873C561.203 17.3873 559.658 18.9306 559.658 20.8339Z" fill="#3C3C3B"/>
<path opacity="0.8559" d="M640.065 36.4722C640.065 38.3755 641.61 39.9188 643.463 39.9188C645.368 39.9188 646.86 38.3755 646.86 36.4722C646.86 34.5688 645.316 33.0256 643.463 33.0256C641.558 33.0256 640.065 34.5688 640.065 36.4722Z" fill="#3C3C3B"/>
<path opacity="0.691" d="M586.478 145.683C586.478 147.586 588.022 149.13 589.875 149.13C591.78 149.13 593.324 147.586 593.324 145.683C593.324 143.78 591.78 142.236 589.875 142.236C587.971 142.185 586.478 143.78 586.478 145.683Z" fill="#3C3C3B"/>
<path opacity="0.6169" d="M693.654 130.045C693.654 131.948 695.198 133.491 697.103 133.491C699.007 133.491 700.5 131.948 700.5 130.045C700.5 128.141 698.956 126.598 697.103 126.598C695.198 126.598 693.654 128.141 693.654 130.045Z" fill="#3C3C3B"/>
<path opacity="0.5121" d="M640.066 98.871C640.066 100.774 641.61 102.318 643.463 102.318C645.368 102.318 646.912 100.774 646.912 98.871C646.912 96.9676 645.368 95.4244 643.463 95.4244C641.61 95.4244 640.066 96.9676 640.066 98.871Z" fill="#3C3C3B"/>
<path opacity="0.8706" d="M479.251 20.8339C479.251 22.7373 480.796 24.2805 482.649 24.2805C484.553 24.2805 486.098 22.7373 486.098 20.8339C486.098 18.9306 484.553 17.3873 482.649 17.3873C480.796 17.3873 479.251 18.9306 479.251 20.8339Z" fill="#3C3C3B"/>
<path opacity="0.6625" d="M465.867 122.277C465.867 124.18 467.412 125.724 469.316 125.724C471.221 125.724 472.714 124.18 472.714 122.277C472.714 120.374 471.17 118.83 469.316 118.83C467.412 118.83 465.867 120.374 465.867 122.277Z" fill="#3C3C3B"/>
<path opacity="0.6645" d="M586.478 317.241C586.478 319.144 588.022 320.688 589.875 320.688C591.78 320.688 593.324 319.144 593.324 317.241C593.324 315.338 591.78 313.794 589.875 313.794C587.971 313.794 586.478 315.338 586.478 317.241Z" fill="#3C3C3B"/>
<path opacity="0.9538" d="M479.251 254.842C479.251 256.746 480.796 258.289 482.649 258.289C484.553 258.289 486.098 256.746 486.098 254.842C486.098 252.939 484.553 251.396 482.649 251.396C480.796 251.396 479.251 252.939 479.251 254.842Z" fill="#3C3C3B"/>
<path opacity="0.6405" d="M693.654 130.045C693.654 131.948 695.198 133.491 697.103 133.491C699.007 133.491 700.5 131.948 700.5 130.045C700.5 128.141 698.956 126.598 697.103 126.598C695.198 126.598 693.654 128.141 693.654 130.045Z" fill="#3C3C3B"/>
<path opacity="0.5246" d="M586.478 130.045C586.478 131.948 588.022 133.491 589.875 133.491C591.78 133.491 593.324 131.948 593.324 130.045C593.324 128.141 591.78 126.598 589.875 126.598C587.971 126.598 586.478 128.141 586.478 130.045Z" fill="#3C3C3B"/>
<path opacity="0.7605" d="M532.839 98.871C532.839 100.774 534.383 102.318 536.288 102.318C538.193 102.318 539.686 100.774 539.686 98.871C539.686 96.9676 538.141 95.4244 536.288 95.4244C534.383 95.4244 532.839 96.9676 532.839 98.871Z" fill="#3C3C3B"/>
<path opacity="0.6166" d="M532.839 36.4722C532.839 38.3755 534.383 39.9188 536.288 39.9188C538.193 39.9188 539.686 38.3755 539.686 36.4722C539.686 34.5688 538.141 33.0256 536.288 33.0256C534.383 33.0256 532.839 34.5688 532.839 36.4722Z" fill="#3C3C3B"/>
<path opacity="0.5032" d="M452.484 114.458C452.484 116.361 454.028 117.904 455.881 117.904C457.786 117.904 459.33 116.361 459.33 114.458C459.33 112.554 457.786 111.011 455.881 111.011C453.976 111.011 452.484 112.554 452.484 114.458Z" fill="#3C3C3B"/>
<path opacity="0.9074" d="M318.489 36.4722C318.489 38.3755 320.033 39.9188 321.886 39.9188C323.791 39.9188 325.284 38.3755 325.284 36.4722C325.284 34.5688 323.739 33.0256 321.886 33.0256C319.982 33.0256 318.489 34.5688 318.489 36.4722Z" fill="#3C3C3B"/>
<path opacity="0.6002" d="M605.576 0C604.958 0.565859 604.186 0.874509 603.311 0.874509C602.436 0.874509 601.612 0.514417 601.046 0H605.576Z" fill="#3C3C3B"/>
<path opacity="0.6002" d="M372.076 67.6459C372.076 69.5492 373.62 71.0925 375.474 71.0925C377.327 71.0925 378.871 69.5492 378.871 67.6459C378.871 65.7425 377.327 64.1993 375.474 64.1993C373.62 64.1993 372.076 65.7425 372.076 67.6459Z" fill="#3C3C3B"/>
<path opacity="0.6607" d="M532.839 98.871C532.839 100.774 534.383 102.318 536.288 102.318C538.193 102.318 539.686 100.774 539.686 98.871C539.686 96.9676 538.141 95.4244 536.288 95.4244C534.383 95.4244 532.839 96.9676 532.839 98.871Z" fill="#3C3C3B"/>
<path opacity="0.5786" d="M452.484 332.879C452.484 334.783 454.028 336.326 455.881 336.326C457.786 336.326 459.33 334.783 459.33 332.879C459.33 330.976 457.786 329.433 455.881 329.433C453.976 329.433 452.484 330.976 452.484 332.879Z" fill="#3C3C3B"/>
<path opacity="0.9283" d="M479.251 286.067C479.251 287.971 480.796 289.514 482.649 289.514C484.553 289.514 486.098 287.971 486.098 286.067C486.098 284.164 484.553 282.621 482.649 282.621C480.796 282.621 479.251 284.164 479.251 286.067Z" fill="#3C3C3B"/>
<path opacity="0.6334" d="M506.071 301.654C506.071 303.558 507.616 305.101 509.469 305.101C511.373 305.101 512.866 303.558 512.866 301.654C512.866 299.751 511.322 298.208 509.469 298.208C507.564 298.208 506.071 299.751 506.071 301.654Z" fill="#3C3C3B"/>
<path opacity="0.6939" d="M532.839 348.466C532.839 350.37 534.383 351.913 536.288 351.913C538.193 351.913 539.686 350.37 539.686 348.466C539.686 346.563 538.141 345.02 536.288 345.02C534.383 345.02 532.839 346.563 532.839 348.466Z" fill="#3C3C3B"/>
<path opacity="0.7705" d="M479.251 67.6459C479.251 69.5492 480.796 71.0925 482.649 71.0925C484.553 71.0925 486.098 69.5492 486.098 67.6459C486.098 65.7425 484.553 64.1993 482.649 64.1993C480.796 64.1993 479.251 65.7425 479.251 67.6459Z" fill="#3C3C3B"/>
<path opacity="0.8428" d="M425.663 36.4722C425.663 38.3755 427.208 39.9188 429.112 39.9188C431.017 39.9188 432.51 38.3755 432.51 36.4722C432.51 34.5688 430.965 33.0256 429.112 33.0256C427.208 33.0256 425.663 34.5688 425.663 36.4722Z" fill="#3C3C3B"/>
<path opacity="0.9917" d="M238.081 145.683C238.081 147.586 239.626 149.13 241.53 149.13C243.435 149.13 244.928 147.586 244.928 145.683C244.928 143.78 243.383 142.236 241.53 142.236C239.574 142.185 238.081 143.78 238.081 145.683Z" fill="#3C3C3B"/>
<path opacity="0.9612" d="M238.081 114.458C238.081 116.361 239.626 117.904 241.53 117.904C243.435 117.904 244.928 116.361 244.928 114.458C244.928 112.554 243.383 111.011 241.53 111.011C239.574 111.011 238.081 112.554 238.081 114.458Z" fill="#3C3C3B"/>
<path opacity="0.6836" d="M104.087 36.4722C104.087 38.3755 105.631 39.9188 107.536 39.9188C109.44 39.9188 110.933 38.3755 110.933 36.4722C110.933 34.5688 109.389 33.0256 107.536 33.0256C105.58 33.0256 104.087 34.5688 104.087 36.4722Z" fill="#3C3C3B"/>
<path opacity="0.9087" d="M425.663 36.4722C425.663 38.3755 427.208 39.9188 429.061 39.9188C430.965 39.9188 432.51 38.3755 432.51 36.4722C432.51 34.5688 430.965 33.0256 429.061 33.0256C427.208 33.0256 425.663 34.5688 425.663 36.4722Z" fill="#3C3C3B"/>
<path opacity="0.7254" d="M318.489 36.4722C318.489 38.3755 320.033 39.9188 321.886 39.9188C323.791 39.9188 325.284 38.3755 325.284 36.4722C325.284 34.5688 323.739 33.0256 321.886 33.0256C319.982 33.0256 318.489 34.5688 318.489 36.4722Z" fill="#3C3C3B"/>
<path opacity="0.5217" d="M372.076 130.045C372.076 131.948 373.62 133.491 375.474 133.491C377.327 133.491 378.871 131.948 378.871 130.045C378.871 128.141 377.327 126.598 375.474 126.598C373.62 126.598 372.076 128.141 372.076 130.045Z" fill="#3C3C3B"/>
<path opacity="0.758" d="M372.076 5.24707C372.076 7.15042 373.62 8.69367 375.474 8.69367C377.327 8.69367 378.871 7.15042 378.871 5.24707C378.871 3.34373 377.327 1.80048 375.474 1.80048C373.62 1.80048 372.076 3.34373 372.076 5.24707Z" fill="#3C3C3B"/>
<path opacity="0.5672" d="M171.058 137.864C171.058 139.767 172.603 141.31 174.507 141.31C176.412 141.31 177.905 139.767 177.905 137.864C177.905 135.96 176.36 134.417 174.507 134.417C172.603 134.417 171.058 135.96 171.058 137.864Z" fill="#3C3C3B"/>
<path opacity="0.6639" d="M144.238 122.277C144.238 124.18 145.783 125.724 147.687 125.724C149.592 125.724 151.085 124.18 151.085 122.277C151.085 120.374 149.541 118.83 147.687 118.83C145.783 118.83 144.238 120.374 144.238 122.277Z" fill="#3C3C3B"/>
<path opacity="0.7845" d="M157.674 114.458C157.674 116.361 159.219 117.904 161.072 117.904C162.976 117.904 164.469 116.361 164.469 114.458C164.469 112.554 162.925 111.011 161.072 111.011C159.219 111.011 157.674 112.554 157.674 114.458Z" fill="#3C3C3B"/>
<path opacity="0.8686" d="M264.849 348.466C264.849 350.37 266.394 351.913 268.298 351.913C270.203 351.913 271.696 350.37 271.696 348.466C271.696 346.563 270.151 345.02 268.298 345.02C266.394 345.02 264.849 346.563 264.849 348.466Z" fill="#3C3C3B"/>
<path opacity="0.9438" d="M318.489 223.669C318.489 225.572 320.033 227.115 321.886 227.115C323.791 227.115 325.284 225.572 325.284 223.669C325.284 221.765 323.739 220.222 321.886 220.222C319.982 220.222 318.489 221.765 318.489 223.669Z" fill="#3C3C3B"/>
<path opacity="0.8488" d="M372.076 192.443C372.076 194.347 373.62 195.89 375.474 195.89C377.327 195.89 378.871 194.347 378.871 192.443C378.871 190.54 377.327 188.997 375.474 188.997C373.62 188.997 372.076 190.54 372.076 192.443Z" fill="#3C3C3B"/>
<path opacity="0.5604" d="M104.087 36.4722C104.087 38.3755 105.631 39.9188 107.484 39.9188C109.389 39.9188 110.933 38.3755 110.933 36.4722C110.933 34.5688 109.389 33.0256 107.484 33.0256C105.58 33.0256 104.087 34.5688 104.087 36.4722Z" fill="#3C3C3B"/>
<path opacity="0.8646" d="M50.4477 67.6459C50.4477 69.5492 51.992 71.0925 53.8452 71.0925C55.7499 71.0925 57.2427 69.5492 57.2427 67.6459C57.2427 65.7425 55.6984 64.1993 53.8452 64.1993C51.992 64.1993 50.4477 65.7425 50.4477 67.6459Z" fill="#3C3C3B"/>
<path opacity="0.5312" d="M157.674 98.871C157.674 100.774 159.219 102.318 161.072 102.318C162.976 102.318 164.469 100.774 164.469 98.871C164.469 96.9676 162.925 95.4244 161.072 95.4244C159.219 95.4244 157.674 96.9676 157.674 98.871Z" fill="#3C3C3B"/>
<path opacity="0.7235" d="M77.2668 20.8339C77.2668 22.7373 78.8112 24.2805 80.7158 24.2805C82.6205 24.2805 84.1133 22.7373 84.1133 20.8339C84.1133 18.9306 82.569 17.3873 80.7158 17.3873C78.8112 17.3873 77.2668 18.9306 77.2668 20.8339Z" fill="#3C3C3B"/>
<path opacity="0.5885" d="M23.6797 20.8339C23.6797 22.7373 25.224 24.2805 27.0771 24.2805C28.9818 24.2805 30.4746 22.7373 30.4746 20.8339C30.4746 18.9306 28.9303 17.3873 27.0771 17.3873C25.224 17.3873 23.6797 18.9306 23.6797 20.8339Z" fill="#3C3C3B"/>
<path opacity="0.8858" d="M318.489 161.27C318.489 163.173 320.033 164.716 321.886 164.716C323.791 164.716 325.284 163.173 325.284 161.27C325.284 159.366 323.739 157.823 321.886 157.823C319.982 157.823 318.489 159.366 318.489 161.27Z" fill="#3C3C3B"/>
<path opacity="0.5875" d="M211.262 161.27C211.262 163.173 212.806 164.716 214.659 164.716C216.564 164.716 218.057 163.173 218.057 161.27C218.057 159.366 216.512 157.823 214.659 157.823C212.806 157.823 211.262 159.366 211.262 161.27Z" fill="#3C3C3B"/>
<path opacity="0.9745" d="M50.4477 192.443C50.4477 194.347 51.992 195.89 53.8452 195.89C55.7499 195.89 57.2427 194.347 57.2427 192.443C57.2427 190.54 55.6984 188.997 53.8452 188.997C51.992 188.997 50.4477 190.54 50.4477 192.443Z" fill="#3C3C3B"/>
<path opacity="0.6677" d="M264.849 317.241C264.849 319.144 266.394 320.688 268.298 320.688C270.203 320.688 271.696 319.144 271.696 317.241C271.696 315.338 270.151 313.794 268.298 313.794C266.394 313.794 264.849 315.338 264.849 317.241Z" fill="#3C3C3B"/>
<path opacity="0.779" d="M264.849 192.443C264.849 194.347 266.394 195.89 268.298 195.89C270.203 195.89 271.696 194.347 271.696 192.443C271.696 190.54 270.151 188.997 268.298 188.997C266.394 188.997 264.849 190.54 264.849 192.443Z" fill="#3C3C3B"/>
</g>
<defs>
<clipPath id="clip0_158_1258">
<rect width="819" height="380" fill="white" transform="matrix(-1 0 0 1 819 0)"/>
</clipPath>
</defs>
</svg>
