<svg width="1920" height="930" viewBox="0 0 1920 930" fill="none" xmlns="http://www.w3.org/2000/svg">
<rect width="1920" height="930" fill="#F8FAF7"/>
<g clip-path="url(#clip0_2002_1231)">
<path opacity="0.5653" d="M795.02 651.08L810.024 642.337V624.852L809.855 624.795L795.02 616.165L780.017 624.908V642.393L780.186 642.45L795.02 651.08ZM809.403 641.999L795.02 650.347L780.637 641.999V625.247L795.02 616.899L809.403 625.247V641.999Z" fill="#E9EFE3"/>
<path opacity="0.7657" d="M1029.94 702.408L1030.11 702.295L1089 668.001V599.244L1088.83 599.131L1029.94 564.837L1029.78 564.95L970.889 599.244V668.001L971.058 668.114L1029.94 702.408ZM1088.38 667.663L1029.94 701.675L971.51 667.663V599.582L1029.94 565.571L1088.38 599.582V667.663Z" fill="#E9EFE3"/>
<path opacity="0.5793" d="M1029.94 651.08L1044.95 642.337V624.852L1044.78 624.795L1029.94 616.165L1014.94 624.908V642.393L1015.11 642.45L1029.94 651.08ZM1044.33 641.999L1029.94 650.347L1015.56 641.999V625.247L1029.94 616.899L1044.33 625.247V641.999Z" fill="#E9EFE3"/>
<path opacity="0.901" d="M912.511 873.483L942.179 856.167V821.591L942.01 821.478L912.511 804.274L882.842 821.591V856.167L883.011 856.279L912.511 873.483ZM941.559 855.828L912.511 872.749L883.462 855.828V821.985L912.511 805.064L941.559 821.985V855.828Z" fill="#E9EFE3"/>
<path opacity="0.8562" d="M912.511 907.72L971.566 873.313V804.5L971.397 804.444L912.511 770.15L853.455 804.556V873.37L853.624 873.426L912.511 907.72ZM970.889 872.919L912.454 906.931L854.019 872.919V804.895L912.454 770.883L970.889 804.895V872.919Z" fill="#E9EFE3"/>
<path opacity="0.9361" d="M795.02 702.408L795.189 702.295L912.793 633.82V496.588L912.623 496.475L795.02 428L794.851 428.113L677.248 496.588V633.82L677.417 633.876L795.02 702.408ZM912.172 633.425L795.02 701.675L677.868 633.425V496.926L795.02 428.733L912.172 496.983V633.425Z" fill="#E9EFE3"/>
<path opacity="0.6204" d="M912.511 565.571L912.68 565.458L971.566 531.164V462.407L971.397 462.294L912.511 428L912.341 428.113L853.455 462.407V531.164L853.624 531.277L912.511 565.571ZM970.889 530.825L912.454 564.837L854.019 530.825V462.745L912.511 428.733L970.889 462.745V530.825Z" fill="#E9EFE3"/>
<path opacity="0.9207" d="M677.586 702.408L677.755 702.295L736.642 668.001V599.244L736.472 599.131L677.586 564.837L677.417 564.95L618.531 599.244V668.001L618.7 668.114L677.586 702.408ZM736.021 667.663L677.586 701.675L619.151 667.663V599.582L677.586 565.571L736.021 599.582V667.663Z" fill="#E9EFE3"/>
<path opacity="0.7779" d="M795.02 736.645L824.689 719.386V684.81L824.52 684.697L795.02 667.494L765.351 684.81V719.386L765.521 719.442L795.02 736.645ZM824.068 718.991L795.02 735.912L765.972 718.991V685.148L795.02 668.227L824.068 685.148V718.991Z" fill="#E9EFE3"/>
<path opacity="0.6118" d="M912.511 651.08L927.514 642.337V624.852L927.345 624.795L912.511 616.165L897.507 624.908V642.393L897.676 642.45L912.511 651.08ZM926.894 641.999L912.511 650.347L898.127 641.999V625.247L912.511 616.899L926.894 625.247V641.999Z" fill="#E9EFE3"/>
<path opacity="0.6984" d="M677.586 668.227L707.255 650.967V616.391L707.086 616.335L677.586 599.131L647.917 616.391V650.967L648.087 651.08L677.586 668.227ZM706.634 650.572L677.586 667.493L648.538 650.572V616.729L677.586 599.808L706.634 616.729V650.572Z" fill="#E9EFE3"/>
<path opacity="0.8157" d="M677.586 839.302L677.755 839.189L736.642 804.895V736.081L736.472 735.968L677.586 701.675L677.417 701.787L618.531 736.081V804.838L618.7 804.895L677.586 839.302ZM736.021 804.5L677.586 838.568L619.151 804.5V736.476L677.586 702.464L736.021 736.476V804.5Z" fill="#E9EFE3"/>
<path opacity="0.5715" d="M873.027 930L912.172 907.156V770.657L795.02 702.408L677.925 770.657V907.156L717.069 930H715.828L677.417 907.607L677.248 907.495V770.319L794.907 701.787L795.02 701.675L912.68 770.206L912.793 770.319V907.495L874.268 930H873.027Z" fill="#E9EFE3"/>
<path opacity="0.8677" d="M833.262 930L795.02 907.72L756.778 930H755.537L795.02 906.987L834.56 930H833.262Z" fill="#E9EFE3"/>
<path opacity="0.5475" d="M912.172 930V907.495L795.02 839.302L677.925 907.495V930H677.248V907.156L794.907 838.625L795.02 838.568L912.68 907.043L912.793 907.156V930H912.172Z" fill="#E9EFE3"/>
<path opacity="0.8834" d="M795.02 907.72L854.076 873.313V804.5L853.906 804.444L795.02 770.15L735.965 804.556V873.37L736.134 873.426L795.02 907.72ZM853.455 872.919L795.02 906.931L736.585 872.919V804.895L795.02 770.883L853.455 804.895V872.919Z" fill="#E9EFE3"/>
<path opacity="0.5245" d="M696.82 930L706.634 924.247V890.404L677.586 873.483L648.538 890.404V924.247L658.352 930H657.111L647.917 924.642V890.066L677.586 872.75L707.255 890.066V924.642L698.061 930H696.82Z" fill="#E9EFE3"/>
<path opacity="0.7529" d="M833.262 930L795.02 907.72L756.778 930H755.537L795.02 906.987L834.56 930H833.262Z" fill="#E9EFE3"/>
<path opacity="0.8927" d="M795.02 514.243L810.024 505.5V488.014L809.855 487.902L795.02 479.328L780.017 488.071V505.556L780.186 505.669L795.02 514.243ZM809.403 505.161L795.02 513.509L780.637 505.161V488.409L795.02 480.061L809.403 488.409V505.161Z" fill="#E9EFE3"/>
<path opacity="0.8384" d="M560.096 531.389L589.821 514.073V479.497L589.652 479.385L560.152 462.181L530.483 479.497V514.073L530.653 514.186L560.096 531.389ZM589.2 513.735L560.152 530.656L531.104 513.735V479.892L560.152 462.971L589.2 479.892V513.735Z" fill="#E9EFE3"/>
<path opacity="0.6654" d="M677.586 736.645L707.255 719.386V684.81L707.086 684.697L677.586 667.494L647.917 684.81V719.386L648.087 719.442L677.586 736.645ZM706.634 718.991L677.586 735.912L648.538 718.991V685.148L677.586 668.227L706.634 685.148V718.991Z" fill="#E9EFE3"/>
<path opacity="0.6262" d="M795.02 651.08L810.024 642.337V624.852L809.855 624.795L795.02 616.165L780.017 624.908V642.393L780.186 642.45L795.02 651.08ZM809.403 641.999L795.02 650.347L780.637 641.999V625.247L795.02 616.899L809.403 625.247V641.999Z" fill="#E9EFE3"/>
<path opacity="0.5193" d="M795.02 787.973L810.024 779.231V761.745L809.855 761.633L795.02 753.003L780.017 761.745V779.231L780.186 779.344L795.02 787.973ZM809.403 778.836L795.02 787.184L780.637 778.836V762.084L795.02 753.736L809.403 762.084V778.836Z" fill="#E9EFE3"/>
<path opacity="0.9905" d="M560.096 839.302L560.265 839.189L619.151 804.895V736.081L618.982 735.968L560.096 701.675L559.927 701.787L501.04 736.081V804.838L501.21 804.895L560.096 839.302ZM618.531 804.5L560.096 838.568L501.661 804.5V736.476L560.096 702.464L618.531 736.476V804.5Z" fill="#E9EFE3"/>
<path opacity="0.517" d="M560.096 924.811L575.099 916.068V898.583L560.096 889.84L545.092 898.583V916.068L560.096 924.811ZM574.479 915.73L560.096 924.078L545.713 915.73V898.978L560.096 890.63L574.479 898.978V915.73Z" fill="#E9EFE3"/>
<path opacity="0.6479" d="M618.531 930V873.314L560.096 839.302L501.717 873.314V930H501.097V872.919L559.983 838.625L560.096 838.568L619.038 872.862L619.151 872.919V930H618.531Z" fill="#E9EFE3"/>
<path opacity="0.9857" d="M442.662 531.389L472.331 514.073V479.497L472.161 479.385L442.662 462.181L412.993 479.497V514.073L413.162 514.186L442.662 531.389ZM471.71 513.735L442.662 530.656L413.614 513.735V479.892L442.662 462.971L471.71 479.892V513.735Z" fill="#E9EFE3"/>
<path opacity="0.7696" d="M442.662 839.302L442.831 839.189L501.717 804.895V736.081L501.548 735.968L442.662 701.675L442.493 701.787L383.606 736.081V804.838L383.776 804.895L442.662 839.302ZM501.097 804.5L442.662 838.568L384.227 804.5V736.476L442.662 702.464L501.097 736.476V804.5Z" fill="#E9EFE3"/>
<path opacity="0.8062" d="M638.103 930L677.248 907.156V770.657L560.096 702.408L443 770.657V907.156L482.145 930H480.904L442.493 907.607L442.38 907.495V770.319L559.983 701.787L560.096 701.675L677.755 770.206L677.925 770.319V907.495L639.344 930H638.103Z" fill="#E9EFE3"/>
<path opacity="0.9977" d="M442.662 924.811L457.665 916.068V898.583L442.662 889.84L427.658 898.583V916.068L442.662 924.811ZM457.045 915.73L442.662 924.078L428.279 915.73V898.978L442.662 890.63L457.045 898.978V915.73Z" fill="#E9EFE3"/>
<path opacity="0.6323" d="M736.021 930V873.314L677.586 839.302L619.151 873.314V930H618.531V872.919L677.417 838.625L677.586 838.568L736.472 872.862L736.642 872.919V930H736.021Z" fill="#E9EFE3"/>
<path opacity="0.5774" d="M677.586 924.811L692.59 916.068V898.583L677.586 889.84L662.583 898.583V916.068L677.586 924.811ZM691.969 915.73L677.586 924.078L663.203 915.73V898.978L677.586 890.63L691.969 898.978V915.73Z" fill="#E9EFE3"/>
<path opacity="0.6004" d="M736.021 930V873.314L677.586 839.302L619.151 873.314V930H618.531V872.919L677.417 838.625L677.586 838.568L736.472 872.862L736.642 872.919V930H736.021Z" fill="#E9EFE3"/>
<path opacity="0.6006" d="M598.338 930L560.096 907.72L521.91 930H520.613L560.096 906.987L599.635 930H598.338Z" fill="#E9EFE3"/>
<path opacity="0.6198" d="M560.096 514.243L575.099 505.5V488.014L574.93 487.902L560.096 479.328L545.092 488.071V505.556L545.261 505.669L560.096 514.243ZM574.479 505.161L560.096 513.509L545.713 505.161V488.409L560.096 480.061L574.479 488.409V505.161Z" fill="#E9EFE3"/>
<path opacity="0.9164" d="M560.096 651.08L575.099 642.337V624.852L574.93 624.795L560.096 616.165L545.092 624.908V642.393L545.261 642.45L560.096 651.08ZM574.479 641.999L560.096 650.347L545.713 641.999V625.247L560.096 616.899L574.479 625.247V641.999Z" fill="#E9EFE3"/>
<path opacity="0.5577" d="M560.096 839.302L560.265 839.189L619.151 804.895V736.081L618.982 735.968L560.096 701.675L559.927 701.787L501.04 736.081V804.838L501.21 804.895L560.096 839.302ZM618.531 804.5L560.096 838.568L501.661 804.5V736.476L560.096 702.464L618.531 736.476V804.5Z" fill="#E9EFE3"/>
<path opacity="0.6643" d="M325.228 805.064L354.897 787.804V753.228L354.727 753.115L325.228 735.912L295.559 753.228V787.804L295.728 787.861L325.228 805.064ZM354.276 787.409L325.228 804.331L296.18 787.409V753.567L325.228 736.645L354.276 753.567V787.409Z" fill="#E9EFE3"/>
<path opacity="0.9482" d="M442.662 907.72L501.717 873.313V804.5L501.548 804.444L442.662 770.15L383.606 804.556V873.37L383.776 873.426L442.662 907.72ZM501.097 872.919L442.662 906.931L384.227 872.919V804.895L442.662 770.883L501.097 804.895V872.919Z" fill="#E9EFE3"/>
<path opacity="0.8287" d="M325.228 839.302L325.397 839.189L443 770.657V633.425L442.831 633.369L325.228 564.837L325.059 564.95L207.455 633.482V770.714L207.625 770.826L325.228 839.302ZM442.38 770.319L325.228 838.568L208.076 770.319V633.82L325.228 565.571L442.38 633.82V770.319Z" fill="#E9EFE3"/>
<path opacity="0.9627" d="M442.662 651.08L457.665 642.337V624.852L457.496 624.795L442.662 616.165L427.658 624.908V642.393L427.827 642.45L442.662 651.08ZM457.045 641.999L442.662 650.347L428.279 641.999V625.247L442.662 616.899L457.045 625.247V641.999Z" fill="#E9EFE3"/>
<path opacity="0.6877" d="M207.737 702.408L207.907 702.295L266.793 668.001V599.244L266.624 599.131L207.737 564.837L207.568 564.95L148.682 599.244V668.001L148.851 668.114L207.737 702.408ZM266.172 667.663L207.737 701.675L149.302 667.663V599.582L207.737 565.571L266.172 599.582V667.663Z" fill="#E9EFE3"/>
<path opacity="0.5544" d="M325.228 873.483L354.897 856.167V821.591L354.727 821.478L325.228 804.274L295.559 821.591V856.167L295.728 856.279L325.228 873.483ZM354.276 855.828L325.228 872.749L296.18 855.828V821.985L325.228 805.064L354.276 821.985V855.828Z" fill="#E9EFE3"/>
<path opacity="0.8016" d="M325.228 770.827L325.397 770.714L384.283 736.42V667.663L384.114 667.55L325.228 633.256L325.059 633.369L266.172 667.663V736.42L266.342 736.533L325.228 770.827ZM383.606 736.081L325.171 770.093L266.736 736.081V668.001L325.171 633.989L383.606 668.001V736.081Z" fill="#E9EFE3"/>
<path opacity="0.5003" d="M363.47 930L325.228 907.72L286.986 930H285.688L325.228 906.987L364.711 930H363.47Z" fill="#E9EFE3"/>
<path opacity="0.7569" d="M501.097 930V873.314L442.662 839.302L384.283 873.314V930H383.606V872.919L442.493 838.625L442.662 838.568L501.548 872.862L501.717 872.919V930H501.097Z" fill="#E9EFE3"/>
<path opacity="0.9339" d="M325.228 907.72L384.283 873.313V804.5L384.114 804.444L325.228 770.15L266.172 804.556V873.37L266.342 873.426L325.228 907.72ZM383.606 872.919L325.171 906.931L266.736 872.919V804.895L325.171 770.883L383.606 804.895V872.919Z" fill="#E9EFE3"/>
<path opacity="0.6722" d="M226.971 930L236.786 924.247V890.404L207.737 873.483L178.689 890.404V924.247L188.504 930H187.263L178.069 924.642V890.066L207.737 872.75L237.406 890.066V924.642L228.212 930H226.971Z" fill="#E9EFE3"/>
<path opacity="0.5645" d="M363.47 930L325.228 907.72L286.986 930H285.688L325.228 906.987L364.711 930H363.47Z" fill="#E9EFE3"/>
<path opacity="0.7115" d="M325.228 514.243L340.231 505.5V488.014L340.062 487.902L325.228 479.272L310.224 488.014V505.5L310.393 505.613L325.228 514.243ZM339.555 505.161L325.171 513.509L310.788 505.161V488.409L325.171 480.061L339.555 488.409V505.161Z" fill="#E9EFE3"/>
<path opacity="0.6307" d="M325.228 565.571L325.397 565.458L384.283 531.164V462.407L384.114 462.294L325.228 428L325.059 428.113L266.172 462.407V531.164L266.342 531.277L325.228 565.571ZM383.606 530.825L325.171 564.837L266.736 530.825V462.745L325.228 428.733L383.663 462.745V530.825H383.606Z" fill="#E9EFE3"/>
<path opacity="0.9278" d="M90.3035 565.571L90.4727 565.458L149.302 531.164V462.407L149.133 462.294L90.3035 428L31.248 462.407V531.164L31.4173 531.277L90.3035 565.571ZM148.682 530.825L90.2471 564.837L31.8121 530.825V462.745L90.3035 428.733L148.738 462.745V530.825H148.682Z" fill="#E9EFE3"/>
<path opacity="0.6392" d="M90.3035 702.408L149.359 668.001V599.244L149.19 599.131L90.3035 564.837L31.248 599.244V668.001L31.4173 668.114L90.3035 702.408ZM148.682 667.663L90.2471 701.675L31.8121 667.663V599.582L90.2471 565.571L148.682 599.582V667.663Z" fill="#E9EFE3"/>
<path opacity="0.8937" d="M207.737 839.302L207.907 839.189L325.51 770.657V633.425L325.341 633.369L207.737 564.837L207.568 564.95L89.9651 633.482V770.714L90.1342 770.826L207.737 839.302ZM324.889 770.319L207.737 838.568L90.5855 770.319V633.82L207.737 565.571L324.889 633.82V770.319Z" fill="#E9EFE3"/>
<path opacity="0.6526" d="M325.228 651.08L340.231 642.337V624.852L340.062 624.795L325.228 616.165L310.224 624.908V642.393L310.393 642.45L325.228 651.08ZM339.555 641.999L325.171 650.347L310.788 641.999V625.247L325.171 616.899L339.555 625.247V641.999Z" fill="#E9EFE3"/>
<path opacity="0.6213" d="M325.228 787.973L340.231 779.231V761.745L340.062 761.633L325.228 753.003L310.224 761.745V779.231L310.393 779.344L325.228 787.973ZM339.555 778.836L325.171 787.184L310.788 778.836V762.084L325.171 753.736L339.555 762.084V778.836Z" fill="#E9EFE3"/>
<path opacity="0.9916" d="M90.3034 924.811L105.307 916.068V898.583L90.3034 889.84L75.2999 898.583V916.068L90.3034 924.811ZM104.63 915.73L90.2471 924.078L75.8639 915.73V898.978L90.2471 890.63L104.63 898.978V915.73Z" fill="#E9EFE3"/>
<path opacity="0.5206" d="M207.737 651.08L222.741 642.337V624.852L222.572 624.795L207.737 616.165L192.734 624.908V642.393L192.903 642.45L207.737 651.08ZM222.121 641.999L207.737 650.347L193.354 641.999V625.247L207.737 616.899L222.121 625.247V641.999Z" fill="#E9EFE3"/>
<path opacity="0.5092" d="M207.737 702.408L207.907 702.295L266.793 668.001V599.244L266.624 599.131L207.737 564.837L207.568 564.95L148.682 599.244V668.001L148.851 668.114L207.737 702.408ZM266.172 667.663L207.737 701.675L149.302 667.663V599.582L207.737 565.571L266.172 599.582V667.663Z" fill="#E9EFE3"/>
<path opacity="0.6455" d="M3.8147e-05 822.719L31.248 804.5V736.476L3.8147e-05 718.258V717.524L31.6993 736.025L31.8685 736.081V804.895L3.8147e-05 823.452V822.719Z" fill="#E9EFE3"/>
<path opacity="0.5075" d="M90.3035 907.72L149.359 873.313V804.5L149.19 804.444L90.3035 770.15L31.248 804.556V873.37L31.4173 873.426L90.3035 907.72ZM148.682 872.919L90.2471 906.931L31.8121 872.919V804.895L90.2471 770.883L148.682 804.895V872.919Z" fill="#E9EFE3"/>
<path opacity="0.6536" d="M-4.95911e-05 788.481L1.86125 787.409V753.567L-4.95911e-05 752.439V751.705L2.36891 753.116L2.48169 753.172V787.804L-4.95911e-05 789.214V788.481Z" fill="#E9EFE3"/>
<path opacity="0.716" d="M128.546 930L90.3035 907.72L52.0613 930H50.8204L90.3035 906.987L129.787 930H128.546Z" fill="#E9EFE3"/>
<path opacity="0.6878" d="M266.172 930V873.314L207.737 839.302L149.302 873.314V930H148.682V872.919L207.568 838.625L207.737 838.568L266.624 872.862L266.793 872.919V930H266.172Z" fill="#E9EFE3"/>
<path opacity="0.8538" d="M90.3035 907.72L149.359 873.313V804.5L149.19 804.444L90.3035 770.15L31.248 804.556V873.37L31.4173 873.426L90.3035 907.72ZM148.682 872.919L90.2471 906.931L31.8121 872.919V804.895L90.2471 770.883L148.682 804.895V872.919Z" fill="#E9EFE3"/>
<path opacity="0.811" d="M-2.28882e-05 822.719L89.965 770.319V633.82L-2.28882e-05 581.42V580.687L90.4726 633.369L90.5854 633.425V770.657L-2.28882e-05 823.452V822.719Z" fill="#E9EFE3"/>
<path opacity="0.6353" d="M50.8203 930L89.965 907.156V770.657L-2.28882e-05 718.258V717.524L90.4726 770.206L90.5854 770.319V907.495L52.0612 930H50.8203Z" fill="#E9EFE3"/>
<path opacity="0.9972" d="M3.8147e-05 754.3L31.248 736.081V668.001L3.8147e-05 649.839V649.106L31.6993 667.55L31.8685 667.663V736.476L3.8147e-05 755.033V754.3Z" fill="#E9EFE3"/>
<path opacity="0.9775" d="M11.0553 930L2.76566e-05 923.514V922.78L12.3525 930H11.0553Z" fill="#E9EFE3"/>
<path opacity="0.6343" d="M11.0553 930L2.76566e-05 923.514V922.78L12.3525 930H11.0553Z" fill="#E9EFE3"/>
<path opacity="0.8543" d="M3.8147e-05 549.044L31.248 530.825V462.745L3.8147e-05 444.526V443.793L31.6993 462.294L31.8685 462.407V531.164L3.8147e-05 549.777V549.044Z" fill="#E9EFE3"/>
<path opacity="0.6795" d="M31.248 930V873.313L3.8147e-05 855.095V854.362L31.6993 872.862L31.8685 872.919V930H31.248Z" fill="#E9EFE3"/>
<path opacity="0.8144" d="M805.963 642.168C805.963 644.255 807.655 645.947 809.685 645.947C811.716 645.947 813.408 644.255 813.408 642.168C813.408 640.081 811.716 638.389 809.685 638.389C807.655 638.389 805.963 640.081 805.963 642.168Z" fill="#E9EFE3"/>
<path opacity="0.728" d="M791.297 650.741C791.297 652.828 792.99 654.52 795.02 654.52C797.107 654.52 798.743 652.828 798.743 650.741C798.743 648.654 797.051 646.962 795.02 646.962C792.99 646.962 791.297 648.654 791.297 650.741Z" fill="#E9EFE3"/>
<path opacity="0.7587" d="M776.632 642.168C776.632 644.255 778.325 645.947 780.411 645.947C782.498 645.947 784.134 644.255 784.134 642.168C784.134 640.081 782.442 638.389 780.411 638.389C778.268 638.389 776.632 640.081 776.632 642.168Z" fill="#E9EFE3"/>
<path opacity="0.7652" d="M1026.22 702.069C1026.22 704.156 1027.91 705.848 1029.94 705.848C1032.03 705.848 1033.67 704.156 1033.67 702.069C1033.67 699.982 1031.98 698.29 1029.94 698.29C1027.91 698.29 1026.22 699.982 1026.22 702.069Z" fill="#E9EFE3"/>
<path opacity="0.9334" d="M1040.89 625.077C1040.89 627.164 1042.58 628.856 1044.61 628.856C1046.7 628.856 1048.39 627.164 1048.39 625.077C1048.39 622.99 1046.7 621.298 1044.61 621.298C1042.58 621.298 1040.89 622.99 1040.89 625.077Z" fill="#E9EFE3"/>
<path opacity="0.6915" d="M879.401 855.997C879.401 858.084 881.093 859.776 883.124 859.776C885.211 859.776 886.847 858.084 886.847 855.997C886.847 853.91 885.154 852.218 883.124 852.218C881.037 852.218 879.401 853.91 879.401 855.997Z" fill="#E9EFE3"/>
<path opacity="0.5175" d="M967.505 873.088C967.505 875.175 969.197 876.867 971.228 876.867C973.315 876.867 975.007 875.175 975.007 873.088C975.007 871.001 973.315 869.309 971.228 869.309C969.141 869.365 967.505 871.057 967.505 873.088Z" fill="#E9EFE3"/>
<path opacity="0.7801" d="M850.015 804.726C850.015 806.813 851.707 808.505 853.737 808.505C855.824 808.505 857.46 806.813 857.46 804.726C857.46 802.639 855.768 800.947 853.737 800.947C851.707 800.89 850.015 802.582 850.015 804.726Z" fill="#E9EFE3"/>
<path opacity="0.8122" d="M967.505 804.726C967.505 806.813 969.197 808.505 971.228 808.505C973.315 808.505 975.007 806.813 975.007 804.726C975.007 802.639 973.315 800.947 971.228 800.947C969.141 800.89 967.505 802.582 967.505 804.726Z" fill="#E9EFE3"/>
<path opacity="0.7332" d="M908.731 633.651C908.731 635.738 910.424 637.43 912.511 637.43C914.598 637.43 916.233 635.738 916.233 633.651C916.233 631.564 914.541 629.872 912.511 629.872C910.424 629.872 908.731 631.564 908.731 633.651Z" fill="#E9EFE3"/>
<path opacity="0.6303" d="M908.731 496.813C908.731 498.9 910.424 500.593 912.511 500.593C914.598 500.593 916.233 498.9 916.233 496.813C916.233 494.726 914.541 493.034 912.511 493.034C910.424 492.978 908.731 494.67 908.731 496.813Z" fill="#E9EFE3"/>
<path opacity="0.5225" d="M850.015 530.995C850.015 533.082 851.707 534.774 853.737 534.774C855.824 534.774 857.46 533.082 857.46 530.995C857.46 528.908 855.768 527.215 853.737 527.215C851.707 527.215 850.015 528.908 850.015 530.995Z" fill="#E9EFE3"/>
<path opacity="0.7847" d="M967.505 462.576C967.505 464.663 969.197 466.355 971.228 466.355C973.315 466.355 975.007 464.663 975.007 462.576C975.007 460.489 973.315 458.797 971.228 458.797C969.141 458.797 967.505 460.489 967.505 462.576Z" fill="#E9EFE3"/>
<path opacity="0.9423" d="M791.297 736.251C791.297 738.338 792.99 740.03 795.02 740.03C797.107 740.03 798.743 738.338 798.743 736.251C798.743 734.164 797.051 732.471 795.02 732.471C792.99 732.471 791.297 734.164 791.297 736.251Z" fill="#E9EFE3"/>
<path opacity="0.8348" d="M761.911 684.979C761.911 687.066 763.603 688.758 765.633 688.758C767.72 688.758 769.413 687.066 769.413 684.979C769.413 682.892 767.72 681.2 765.633 681.2C763.603 681.143 761.911 682.892 761.911 684.979Z" fill="#E9EFE3"/>
<path opacity="0.6404" d="M820.684 684.979C820.684 687.066 822.376 688.758 824.407 688.758C826.494 688.758 828.13 687.066 828.13 684.979C828.13 682.892 826.437 681.2 824.407 681.2C822.32 681.143 820.684 682.892 820.684 684.979Z" fill="#E9EFE3"/>
<path opacity="0.8945" d="M703.194 650.741C703.194 652.828 704.886 654.52 706.916 654.52C709.003 654.52 710.696 652.828 710.696 650.741C710.696 648.654 709.003 646.962 706.916 646.962C704.886 646.962 703.194 648.654 703.194 650.741Z" fill="#E9EFE3"/>
<path opacity="0.8456" d="M673.864 667.832C673.864 669.919 675.556 671.611 677.586 671.611C679.673 671.611 681.309 669.919 681.309 667.832C681.309 665.745 679.617 664.053 677.586 664.053C675.499 664.053 673.864 665.745 673.864 667.832Z" fill="#E9EFE3"/>
<path opacity="0.9902" d="M732.58 804.726C732.58 806.813 734.273 808.505 736.303 808.505C738.39 808.505 740.026 806.813 740.026 804.726C740.026 802.639 738.334 800.947 736.303 800.947C734.273 800.89 732.58 802.582 732.58 804.726Z" fill="#E9EFE3"/>
<path opacity="0.7274" d="M673.864 907.325C673.864 909.412 675.556 911.104 677.586 911.104C679.673 911.104 681.309 909.412 681.309 907.325C681.309 905.238 679.617 903.546 677.586 903.546C675.499 903.546 673.864 905.238 673.864 907.325Z" fill="#E9EFE3"/>
<path opacity="0.9855" d="M791.297 838.907C791.297 840.994 792.99 842.686 795.02 842.686C797.107 842.686 798.743 840.994 798.743 838.907C798.743 836.82 797.051 835.128 795.02 835.128C792.99 835.128 791.297 836.82 791.297 838.907Z" fill="#E9EFE3"/>
<path opacity="0.5371" d="M703.194 924.416C703.194 926.503 704.886 928.195 706.916 928.195C709.003 928.195 710.696 926.503 710.696 924.416C710.696 922.329 709.003 920.637 706.916 920.637C704.886 920.637 703.194 922.329 703.194 924.416Z" fill="#E9EFE3"/>
<path opacity="0.7825" d="M795.02 483.446C792.964 483.446 791.297 481.754 791.297 479.667C791.297 477.579 792.964 475.887 795.02 475.887C797.076 475.887 798.743 477.579 798.743 479.667C798.743 481.754 797.076 483.446 795.02 483.446Z" fill="#E9EFE3"/>
<path opacity="0.5344" d="M644.477 719.16C644.477 721.247 646.169 722.939 648.256 722.939C650.343 722.939 651.979 721.247 651.979 719.16C651.979 717.073 650.286 715.381 648.256 715.381C646.169 715.381 644.477 717.073 644.477 719.16Z" fill="#E9EFE3"/>
<path opacity="0.9922" d="M703.194 684.979C703.194 687.066 704.886 688.758 706.916 688.758C709.003 688.758 710.696 687.066 710.696 684.979C710.696 682.892 709.003 681.2 706.916 681.2C704.886 681.143 703.194 682.892 703.194 684.979Z" fill="#E9EFE3"/>
<path opacity="0.6301" d="M805.963 642.168C805.963 644.255 807.655 645.947 809.685 645.947C811.716 645.947 813.408 644.255 813.408 642.168C813.408 640.081 811.716 638.389 809.685 638.389C807.655 638.389 805.963 640.081 805.963 642.168Z" fill="#E9EFE3"/>
<path opacity="0.8077" d="M776.632 761.915C776.632 764.002 778.325 765.694 780.411 765.694C782.498 765.694 784.134 764.002 784.134 761.915C784.134 759.828 782.442 758.135 780.411 758.135C778.268 758.135 776.632 759.828 776.632 761.915Z" fill="#E9EFE3"/>
<path opacity="0.7663" d="M615.09 804.726C615.09 806.813 616.782 808.505 618.813 808.505C620.9 808.505 622.536 806.813 622.536 804.726C622.536 802.639 620.843 800.947 618.813 800.947C616.782 800.89 615.09 802.582 615.09 804.726Z" fill="#E9EFE3"/>
<path opacity="0.5432" d="M556.373 838.907C556.373 840.994 558.065 842.686 560.096 842.686C562.183 842.686 563.875 840.994 563.875 838.907C563.875 836.82 562.183 835.128 560.096 835.128C558.065 835.128 556.373 836.82 556.373 838.907Z" fill="#E9EFE3"/>
<path opacity="0.8535" d="M497.656 804.726C497.656 806.813 499.348 808.505 501.435 808.505C503.522 808.505 505.158 806.813 505.158 804.726C505.158 802.639 503.466 800.947 501.435 800.947C499.348 800.89 497.656 802.582 497.656 804.726Z" fill="#E9EFE3"/>
<path opacity="0.5589" d="M497.656 736.251C497.656 738.338 499.348 740.03 501.435 740.03C503.522 740.03 505.158 738.338 505.158 736.251C505.158 734.164 503.466 732.471 501.435 732.471C499.348 732.471 497.656 734.164 497.656 736.251Z" fill="#E9EFE3"/>
<path opacity="0.8499" d="M556.373 702.069C556.373 704.156 558.065 705.848 560.096 705.848C562.183 705.848 563.875 704.156 563.875 702.069C563.875 699.982 562.183 698.29 560.096 698.29C558.065 698.29 556.373 699.982 556.373 702.069Z" fill="#E9EFE3"/>
<path opacity="0.6091" d="M571.038 898.808C571.038 900.895 572.73 902.587 574.817 902.587C576.904 902.587 578.54 900.895 578.54 898.808C578.54 896.721 576.848 895.029 574.817 895.029C572.73 894.973 571.038 896.665 571.038 898.808Z" fill="#E9EFE3"/>
<path opacity="0.5784" d="M438.939 462.576C438.939 464.663 440.631 466.355 442.662 466.355C444.749 466.355 446.384 464.663 446.384 462.576C446.384 460.489 444.692 458.797 442.662 458.797C440.575 458.797 438.939 460.489 438.939 462.576Z" fill="#E9EFE3"/>
<path opacity="0.7656" d="M438.939 838.907C438.939 840.994 440.631 842.686 442.662 842.686C444.749 842.686 446.384 840.994 446.384 838.907C446.384 836.82 444.692 835.128 442.662 835.128C440.575 835.128 438.939 836.82 438.939 838.907Z" fill="#E9EFE3"/>
<path opacity="0.5656" d="M673.864 907.325C673.864 909.412 675.556 911.104 677.586 911.104C679.673 911.104 681.309 909.412 681.309 907.325C681.309 905.238 679.617 903.546 677.586 903.546C675.499 903.546 673.864 905.238 673.864 907.325Z" fill="#E9EFE3"/>
<path opacity="0.9124" d="M453.604 915.899C453.604 917.986 455.296 919.678 457.327 919.678C459.358 919.678 461.05 917.986 461.05 915.899C461.05 913.812 459.358 912.12 457.327 912.12C455.296 912.12 453.604 913.812 453.604 915.899Z" fill="#E9EFE3"/>
<path opacity="0.9768" d="M688.529 915.899C688.529 917.986 690.221 919.678 692.251 919.678C694.338 919.678 695.974 917.986 695.974 915.899C695.974 913.812 694.282 912.12 692.251 912.12C690.221 912.12 688.529 913.812 688.529 915.899Z" fill="#E9EFE3"/>
<path opacity="0.9016" d="M571.038 505.331C571.038 507.418 572.73 509.11 574.817 509.11C576.904 509.11 578.54 507.418 578.54 505.331C578.54 503.244 576.848 501.552 574.817 501.552C572.73 501.552 571.038 503.244 571.038 505.331Z" fill="#E9EFE3"/>
<path opacity="0.6844" d="M556.373 616.504C556.373 618.591 558.065 620.283 560.096 620.283C562.183 620.283 563.875 618.591 563.875 616.504C563.875 614.417 562.183 612.725 560.096 612.725C558.065 612.725 556.373 614.473 556.373 616.504Z" fill="#E9EFE3"/>
<path opacity="0.9473" d="M321.449 804.726C321.449 806.813 323.141 808.505 325.171 808.505C327.258 808.505 328.894 806.813 328.894 804.726C328.894 802.639 327.202 800.947 325.171 800.947C323.141 800.89 321.449 802.582 321.449 804.726Z" fill="#E9EFE3"/>
<path opacity="0.9003" d="M380.166 804.726C380.166 806.813 381.858 808.505 383.888 808.505C385.975 808.505 387.611 806.813 387.611 804.726C387.611 802.639 385.919 800.947 383.888 800.947C381.858 800.89 380.166 802.582 380.166 804.726Z" fill="#E9EFE3"/>
<path opacity="0.935" d="M438.939 770.488C438.939 772.575 440.631 774.267 442.662 774.267C444.749 774.267 446.384 772.575 446.384 770.488C446.384 768.401 444.692 766.709 442.662 766.709C440.575 766.709 438.939 768.401 438.939 770.488Z" fill="#E9EFE3"/>
<path opacity="0.5725" d="M438.939 633.651C438.939 635.738 440.631 637.43 442.662 637.43C444.749 637.43 446.384 635.738 446.384 633.651C446.384 631.564 444.692 629.872 442.662 629.872C440.575 629.872 438.939 631.564 438.939 633.651Z" fill="#E9EFE3"/>
<path opacity="0.7228" d="M424.218 642.168C424.218 644.255 425.91 645.947 427.997 645.947C430.084 645.947 431.719 644.255 431.719 642.168C431.719 640.081 430.027 638.389 427.997 638.389C425.91 638.389 424.218 640.081 424.218 642.168Z" fill="#E9EFE3"/>
<path opacity="0.7894" d="M204.015 565.232C204.015 567.319 205.707 569.011 207.737 569.011C209.824 569.011 211.517 567.319 211.517 565.232C211.517 563.145 209.824 561.453 207.737 561.453C205.651 561.453 204.015 563.145 204.015 565.232Z" fill="#E9EFE3"/>
<path opacity="0.8898" d="M262.732 599.413C262.732 601.5 264.424 603.192 266.454 603.192C268.541 603.192 270.177 601.5 270.177 599.413C270.177 597.326 268.485 595.634 266.454 595.634C264.424 595.634 262.732 597.326 262.732 599.413Z" fill="#E9EFE3"/>
<path opacity="0.5427" d="M350.835 821.816C350.835 823.903 352.528 825.595 354.558 825.595C356.645 825.595 358.337 823.903 358.337 821.816C358.337 819.729 356.645 818.037 354.558 818.037C352.471 818.037 350.835 819.729 350.835 821.816Z" fill="#E9EFE3"/>
<path opacity="0.8321" d="M262.732 736.251C262.732 738.338 264.424 740.03 266.454 740.03C268.541 740.03 270.177 738.338 270.177 736.251C270.177 734.164 268.485 732.471 266.454 732.471C264.424 732.471 262.732 734.164 262.732 736.251Z" fill="#E9EFE3"/>
<path opacity="0.5515" d="M321.449 907.325C321.449 909.412 323.141 911.104 325.171 911.104C327.258 911.104 328.894 909.412 328.894 907.325C328.894 905.238 327.202 903.546 325.171 903.546C323.141 903.546 321.449 905.238 321.449 907.325Z" fill="#E9EFE3"/>
<path opacity="0.7361" d="M438.939 838.907C438.939 840.994 440.631 842.686 442.662 842.686C444.749 842.686 446.384 840.994 446.384 838.907C446.384 836.82 444.692 835.128 442.662 835.128C440.575 835.128 438.939 836.82 438.939 838.907Z" fill="#E9EFE3"/>
<path opacity="0.5694" d="M262.732 873.088C262.732 875.175 264.424 876.867 266.454 876.867C268.541 876.867 270.234 875.175 270.234 873.088C270.234 871.001 268.541 869.309 266.454 869.309C264.424 869.365 262.732 871.057 262.732 873.088Z" fill="#E9EFE3"/>
<path opacity="0.7041" d="M380.166 804.726C380.166 806.813 381.858 808.505 383.888 808.505C385.975 808.505 387.611 806.813 387.611 804.726C387.611 802.639 385.919 800.947 383.888 800.947C381.858 800.89 380.166 802.582 380.166 804.726Z" fill="#E9EFE3"/>
<path opacity="0.9472" d="M174.628 924.416C174.628 926.503 176.32 928.195 178.351 928.195C180.381 928.195 182.073 926.503 182.073 924.416C182.073 922.329 180.381 920.637 178.351 920.637C176.32 920.637 174.628 922.329 174.628 924.416Z" fill="#E9EFE3"/>
<path opacity="0.988" d="M204.015 873.088C204.015 875.175 205.707 876.867 207.737 876.867C209.824 876.867 211.517 875.175 211.517 873.088C211.517 871.001 209.824 869.309 207.737 869.309C205.651 869.365 204.015 871.057 204.015 873.088Z" fill="#E9EFE3"/>
<path opacity="0.5764" d="M325.228 483.446C323.172 483.446 321.505 481.754 321.505 479.667C321.505 477.579 323.172 475.887 325.228 475.887C327.284 475.887 328.951 477.579 328.951 479.667C328.951 481.754 327.284 483.446 325.228 483.446Z" fill="#E9EFE3"/>
<path opacity="0.6501" d="M380.166 530.995C380.166 533.082 381.858 534.774 383.888 534.774C385.975 534.774 387.611 533.082 387.611 530.995C387.611 528.908 385.919 527.215 383.888 527.215C381.858 527.215 380.166 528.908 380.166 530.995Z" fill="#E9EFE3"/>
<path opacity="0.6553" d="M145.241 530.995C145.241 533.082 146.934 534.774 149.02 534.774C151.107 534.774 152.743 533.082 152.743 530.995C152.743 528.908 151.051 527.215 149.02 527.215C146.934 527.215 145.241 528.908 145.241 530.995Z" fill="#E9EFE3"/>
<path opacity="0.6531" d="M86.5243 702.069C86.5243 704.156 88.2165 705.848 90.247 705.848C92.334 705.848 93.9697 704.156 93.9697 702.069C93.9697 699.982 92.2776 698.29 90.247 698.29C88.2165 698.29 86.5243 699.982 86.5243 702.069Z" fill="#E9EFE3"/>
<path opacity="0.7985" d="M27.8074 667.832C27.8074 669.919 29.4995 671.611 31.5301 671.611C33.617 671.611 35.2528 669.919 35.2528 667.832C35.2528 665.745 33.5606 664.053 31.5301 664.053C29.4995 664.053 27.8074 665.745 27.8074 667.832Z" fill="#E9EFE3"/>
<path opacity="0.8668" d="M336.114 642.168C336.114 644.255 337.806 645.947 339.837 645.947C341.924 645.947 343.559 644.255 343.559 642.168C343.559 640.081 341.867 638.389 339.837 638.389C337.806 638.389 336.114 640.081 336.114 642.168Z" fill="#E9EFE3"/>
<path opacity="0.8785" d="M321.449 616.504C321.449 618.591 323.141 620.283 325.171 620.283C327.258 620.283 328.894 618.591 328.894 616.504C328.894 614.417 327.202 612.725 325.171 612.725C323.141 612.725 321.449 614.473 321.449 616.504Z" fill="#E9EFE3"/>
<path opacity="0.74" d="M336.114 779.005C336.114 781.092 337.806 782.784 339.837 782.784C341.924 782.784 343.559 781.092 343.559 779.005C343.559 776.918 341.867 775.226 339.837 775.226C337.806 775.282 336.114 776.975 336.114 779.005Z" fill="#E9EFE3"/>
<path opacity="0.9974" d="M321.449 787.579C321.449 789.666 323.141 791.358 325.171 791.358C327.258 791.358 328.894 789.666 328.894 787.579C328.894 785.492 327.202 783.8 325.171 783.8C323.141 783.8 321.449 785.492 321.449 787.579Z" fill="#E9EFE3"/>
<path opacity="0.9965" d="M306.784 761.915C306.784 764.002 308.476 765.694 310.506 765.694C312.593 765.694 314.229 764.002 314.229 761.915C314.229 759.828 312.537 758.135 310.506 758.135C308.476 758.135 306.784 759.828 306.784 761.915Z" fill="#E9EFE3"/>
<path opacity="0.5958" d="M336.114 761.915C336.114 764.002 337.806 765.694 339.837 765.694C341.924 765.694 343.559 764.002 343.559 761.915C343.559 759.828 341.867 758.135 339.837 758.135C337.806 758.135 336.114 759.828 336.114 761.915Z" fill="#E9EFE3"/>
<path opacity="0.502" d="M86.5243 924.416C86.5243 926.503 88.2165 928.195 90.247 928.195C92.334 928.195 93.9697 926.503 93.9697 924.416C93.9697 922.329 92.2776 920.637 90.247 920.637C88.2165 920.637 86.5243 922.329 86.5243 924.416Z" fill="#E9EFE3"/>
<path opacity="0.8656" d="M86.5243 890.235C86.5243 892.322 88.2165 894.014 90.247 894.014C92.334 894.014 93.9697 892.322 93.9697 890.235C93.9697 888.148 92.2776 886.456 90.247 886.456C88.2165 886.456 86.5243 888.148 86.5243 890.235Z" fill="#E9EFE3"/>
<path opacity="0.6714" d="M189.293 642.168C189.293 644.255 190.985 645.947 193.016 645.947C195.103 645.947 196.739 644.255 196.739 642.168C196.739 640.081 195.046 638.389 193.016 638.389C190.985 638.389 189.293 640.081 189.293 642.168Z" fill="#E9EFE3"/>
<path opacity="0.9386" d="M218.68 625.077C218.68 627.164 220.372 628.856 222.459 628.856C224.546 628.856 226.182 627.164 226.182 625.077C226.182 622.99 224.489 621.298 222.459 621.298C220.372 621.298 218.68 622.99 218.68 625.077Z" fill="#E9EFE3"/>
<path opacity="0.8257" d="M145.241 599.413C145.241 601.5 146.934 603.192 149.02 603.192C151.107 603.192 152.743 601.5 152.743 599.413C152.743 597.326 151.051 595.634 149.02 595.634C146.934 595.634 145.241 597.326 145.241 599.413Z" fill="#E9EFE3"/>
<path opacity="0.8822" d="M204.015 565.232C204.015 567.319 205.707 569.011 207.737 569.011C209.824 569.011 211.517 567.319 211.517 565.232C211.517 563.145 209.824 561.453 207.737 561.453C205.651 561.453 204.015 563.145 204.015 565.232Z" fill="#E9EFE3"/>
<path opacity="0.7249" d="M262.732 599.413C262.732 601.5 264.424 603.192 266.454 603.192C268.541 603.192 270.177 601.5 270.177 599.413C270.177 597.326 268.485 595.634 266.454 595.634C264.424 595.634 262.732 597.326 262.732 599.413Z" fill="#E9EFE3"/>
<path opacity="0.85" d="M27.8074 804.726C27.8074 806.813 29.4995 808.505 31.5301 808.505C33.617 808.505 35.2528 806.813 35.2528 804.726C35.2528 802.639 33.5606 800.947 31.5301 800.947C29.4995 800.89 27.8074 802.582 27.8074 804.726Z" fill="#E9EFE3"/>
<path opacity="0.7173" d="M27.8074 736.251C27.8074 738.338 29.4995 740.03 31.5301 740.03C33.617 740.03 35.2528 738.338 35.2528 736.251C35.2528 734.164 33.5606 732.471 31.5301 732.471C29.4995 732.471 27.8074 734.164 27.8074 736.251Z" fill="#E9EFE3"/>
<path opacity="0.7483" d="M2.19345e-05 750.352C0.620471 749.9 1.35367 749.618 2.19974 749.618C4.2867 749.618 5.92249 751.311 5.92249 753.398C5.92249 755.484 4.2303 757.177 2.19974 757.177C1.35367 757.177 0.620471 756.895 2.19345e-05 756.443V750.352Z" fill="#E9EFE3"/>
<path opacity="0.9308" d="M262.732 873.088C262.732 875.175 264.424 876.867 266.454 876.867C268.541 876.867 270.177 875.175 270.177 873.088C270.177 871.001 268.485 869.309 266.454 869.309C264.424 869.365 262.732 871.057 262.732 873.088Z" fill="#E9EFE3"/>
<path opacity="0.9474" d="M27.8074 873.088C27.8074 875.175 29.4995 876.867 31.5301 876.867C33.617 876.867 35.2528 875.175 35.2528 873.088C35.2528 871.001 33.5606 869.309 31.5301 869.309C29.4995 869.365 27.8074 871.057 27.8074 873.088Z" fill="#E9EFE3"/>
<path opacity="0.5499" d="M86.5243 633.651C86.5243 635.738 88.2165 637.43 90.247 637.43C92.334 637.43 93.9697 635.738 93.9697 633.651C93.9697 631.564 92.2776 629.872 90.247 629.872C88.2165 629.872 86.5243 631.564 86.5243 633.651Z" fill="#E9EFE3"/>
<path opacity="0.5903" d="M86.5243 770.488C86.5243 772.575 88.2165 774.267 90.247 774.267C92.334 774.267 93.9697 772.575 93.9697 770.488C93.9697 768.401 92.2776 766.709 90.247 766.709C88.2165 766.709 86.5243 768.401 86.5243 770.488Z" fill="#E9EFE3"/>
</g>
<g opacity="0.3" clip-path="url(#clip1_2002_1231)">
<path opacity="0.994" d="M1931.05 192.804L1984.95 161.424V98.6652L1931.05 67.2858L1877.15 98.6652V161.424L1931.05 192.804ZM1984.38 161.064L1931.05 192.083L1877.72 161.064V99.0253L1931.05 68.0059L1984.38 99.0253V161.064Z" fill="#3C3C3B"/>
<path opacity="0.9394" d="M1931.05 192.804L1984.95 161.424V98.6652L1931.05 67.2858L1877.15 98.6652V161.424L1931.05 192.804ZM1984.38 161.064L1931.05 192.083L1877.72 161.064V99.0253L1931.05 68.0059L1984.38 99.0253V161.064Z" fill="#3C3C3B"/>
<path opacity="0.7716" d="M1931.05 130.405L1931.21 130.302L1984.95 99.0253V36.2664L1931.05 4.88696L1877.15 36.2664V99.0253L1877.31 99.1282L1931.05 130.405ZM1984.38 98.6652L1931.05 129.685L1877.72 98.6652V36.6265L1931.05 5.60715L1984.38 36.6265V98.6652Z" fill="#3C3C3B"/>
<path opacity="0.6715" d="M1797.36 0V20.6796L1823.88 36.1121L1850.39 20.6796V0H1850.95V21.0397L1823.88 36.7808L1796.8 21.0397V0H1797.36Z" fill="#3C3C3B"/>
<path opacity="0.9459" d="M1770.55 0V36.2664L1823.88 67.3372L1877.21 36.2664V0H1877.77V36.6265L1823.88 68.006L1769.98 36.6265V0H1770.55Z" fill="#3C3C3B"/>
<path opacity="0.5261" d="M1823.88 145.992L1837.57 138.018V122.071L1823.88 114.098L1810.18 122.071V138.018L1823.88 145.992ZM1837 137.71L1823.88 145.323L1810.75 137.71V122.431L1823.88 114.818L1837 122.431V137.71Z" fill="#3C3C3B"/>
<path opacity="0.5223" d="M1931.05 130.405L1931.21 130.302L1984.95 99.0253V36.2664L1931.05 4.88696L1877.15 36.2664V99.0253L1877.31 99.1282L1931.05 130.405ZM1984.38 98.6652L1931.05 129.685L1877.72 98.6652V36.6265L1931.05 5.60715L1984.38 36.6265V98.6652Z" fill="#3C3C3B"/>
<path opacity="0.8962" d="M1703.57 0V12.8604L1716.7 20.5252L1729.78 12.8604V0H1730.34V13.2205L1716.7 21.194L1703.01 13.2205V0H1703.57Z" fill="#3C3C3B"/>
<path opacity="0.5211" d="M1716.7 145.992L1730.39 138.018V122.071L1716.7 114.098L1703.01 122.071V138.018L1716.7 145.992ZM1729.78 137.71L1716.65 145.323L1703.52 137.71V122.431L1716.65 114.818L1729.78 122.431V137.71Z" fill="#3C3C3B"/>
<path opacity="0.6374" d="M1823.88 317.601L1824.03 317.498L1931.36 255.048V129.89L1931.21 129.787L1823.88 67.2858L1823.72 67.3886L1716.39 129.89V255.048L1716.55 255.151L1823.88 317.601ZM1930.79 254.688L1823.88 316.932L1716.96 254.688V130.199L1823.88 67.9545L1930.79 130.199V254.688Z" fill="#3C3C3B"/>
<path opacity="0.5189" d="M1823.88 130.405L1824.03 130.302L1877.77 99.0253V36.2664L1823.88 4.88696L1769.98 36.2664V99.0253L1770.13 99.1282L1823.88 130.405ZM1877.21 98.6652L1823.88 129.685L1770.55 98.6652V36.6265L1823.88 5.60715L1877.21 36.6265V98.6652Z" fill="#3C3C3B"/>
<path opacity="0.5082" d="M1716.7 161.578L1743.78 145.837V114.303L1716.7 98.5109L1689.62 114.303V145.837L1716.7 161.578ZM1743.21 145.477L1716.7 160.91L1690.19 145.477V114.612L1716.7 99.1796L1743.21 114.612V145.477Z" fill="#3C3C3B"/>
<path opacity="0.5792" d="M1556.14 0V36.2664L1609.47 67.3372L1662.8 36.2664V0H1663.37V36.6265L1609.47 68.006L1555.73 36.6779L1555.58 36.6265V0H1556.14Z" fill="#3C3C3B"/>
<path opacity="0.9861" d="M1716.7 130.405L1716.85 130.302L1770.6 99.0253V36.2664L1716.7 4.88696L1662.8 36.2664V99.0253L1662.96 99.1282L1716.7 130.405ZM1769.98 98.6652L1716.65 129.685L1663.32 98.6652V36.6265L1716.7 5.60715L1769.98 36.6265V98.6652Z" fill="#3C3C3B"/>
<path opacity="0.9808" d="M1810.75 0V12.8604L1823.88 20.5252L1837 12.8604V0H1837.57V13.2205L1823.88 21.194L1810.18 13.2205V0H1810.75Z" fill="#3C3C3B"/>
<path opacity="0.9699" d="M1556.14 0V36.2664L1609.47 67.3372L1662.8 36.2664V0H1663.37V36.6265L1609.47 68.006L1555.73 36.6779L1555.58 36.6265V0H1556.14Z" fill="#3C3C3B"/>
<path opacity="0.9622" d="M1823.88 192.804L1877.77 161.424V98.6652L1823.88 67.2858L1769.98 98.6652V161.424L1823.88 192.804ZM1877.21 161.064L1823.88 192.083L1770.55 161.064V99.0253L1823.88 68.0059L1877.21 99.0253V161.064Z" fill="#3C3C3B"/>
<path opacity="0.6304" d="M1823.88 192.804L1877.77 161.424V98.6652L1823.88 67.2858L1769.98 98.6652V161.424L1823.88 192.804ZM1877.21 161.064L1823.88 192.083L1770.55 161.064V99.0253L1823.88 68.0059L1877.21 99.0253V161.064Z" fill="#3C3C3B"/>
<path opacity="0.8387" d="M1716.7 348.826L1743.78 333.034V301.5L1716.7 285.759L1689.62 301.5V333.034L1716.7 348.826ZM1743.21 332.725L1716.7 348.158L1690.19 332.725V301.86L1716.7 286.428L1743.21 301.86V332.725Z" fill="#3C3C3B"/>
<path opacity="0.9051" d="M1716.7 380L1770.6 348.621V285.862L1716.7 254.482L1662.8 285.862V348.621L1716.7 380ZM1769.98 348.312L1716.65 379.331L1663.32 348.312V286.222L1716.65 255.202L1769.98 286.222V348.312Z" fill="#3C3C3B"/>
<path opacity="0.6545" d="M1663.37 0V36.2664L1716.7 67.3372L1769.98 36.2664V0H1770.55V36.6265L1716.7 68.006L1662.8 36.6265V0H1663.37Z" fill="#3C3C3B"/>
<path opacity="0.9574" d="M1601.03 0L1609.47 4.93841L1617.92 0H1619.05L1609.47 5.60715L1599.9 0H1601.03Z" fill="#3C3C3B"/>
<path opacity="0.9474" d="M1609.47 317.601L1609.63 317.498L1716.96 255.048V129.89L1716.8 129.787L1609.47 67.2858L1609.32 67.3886L1501.99 129.89V255.048L1502.14 255.151L1609.47 317.601ZM1716.39 254.688L1609.47 316.932L1502.56 254.688V130.199L1609.47 67.9545L1716.39 130.199V254.688Z" fill="#3C3C3B"/>
<path opacity="0.8086" d="M1502.3 161.578L1529.38 145.837V114.303L1502.3 98.5109L1475.22 114.303V145.837L1502.3 161.578ZM1528.81 145.477L1502.3 160.91L1475.79 145.477V114.612L1502.3 99.1796L1528.81 114.612V145.477Z" fill="#3C3C3B"/>
<path opacity="0.5531" d="M1609.47 348.826L1636.55 333.034V301.5L1609.47 285.759L1582.4 301.5V333.034L1609.47 348.826ZM1635.98 332.725L1609.47 348.158L1582.96 332.725V301.86L1609.47 286.428L1635.98 301.86V332.725Z" fill="#3C3C3B"/>
<path opacity="0.9538" d="M1493.86 0L1502.3 4.93841L1510.74 0H1511.87L1502.3 5.60715L1492.67 0H1493.86Z" fill="#3C3C3B"/>
<path opacity="0.8754" d="M1341.79 0V36.2664L1395.07 67.3372L1448.4 36.2664V0H1448.97V36.6265L1395.07 68.006L1341.18 36.6265V0H1341.79Z" fill="#3C3C3B"/>
<path opacity="0.5051" d="M1556.14 0V36.2664L1609.47 67.3372L1662.8 36.2664V0H1663.37V36.6265L1609.47 68.006L1555.73 36.6779L1555.58 36.6265V0H1556.14Z" fill="#3C3C3B"/>
<path opacity="0.8517" d="M1404.7 0L1395.38 5.40138V129.89L1502.3 192.135L1609.22 129.89V5.40138L1599.9 0H1601.03L1609.63 4.98985L1609.78 5.09273V130.199L1502.4 192.701L1502.3 192.804L1394.97 130.302L1394.81 130.199V5.09273L1403.51 0H1404.7Z" fill="#3C3C3B"/>
<path opacity="0.61" d="M1395.07 145.992L1408.76 138.018V122.071L1395.07 114.098L1381.38 122.071V138.018L1395.07 145.992ZM1408.2 137.71L1395.07 145.323L1381.95 137.71V122.431L1395.07 114.818L1408.2 122.431V137.71Z" fill="#3C3C3B"/>
<path opacity="0.6181" d="M1609.47 192.804L1663.37 161.424V98.6652L1609.47 67.2858L1609.32 67.3886L1555.58 98.6652V161.424L1555.73 161.527L1609.47 192.804ZM1662.8 161.064L1609.47 192.083L1556.14 161.064V99.0253L1609.47 68.0059L1662.8 99.0253V161.064Z" fill="#3C3C3B"/>
<path opacity="0.876" d="M1502.3 317.601L1502.45 317.498L1609.78 255.048V129.89L1609.63 129.787L1502.3 67.2858L1502.14 67.3886L1394.81 129.89V255.048L1394.97 255.151L1502.3 317.601ZM1609.22 254.688L1502.3 316.932L1395.38 254.688V130.199L1502.3 67.9545L1609.22 130.199V254.688Z" fill="#3C3C3B"/>
<path opacity="0.5845" d="M1502.3 348.826L1529.38 333.034V301.5L1502.3 285.759L1475.22 301.5V333.034L1502.3 348.826ZM1528.81 332.725L1502.3 348.158L1475.79 332.725V301.86L1502.3 286.428L1528.81 301.86V332.725Z" fill="#3C3C3B"/>
<path opacity="0.5432" d="M1609.47 317.601L1609.63 317.498L1663.37 286.222V223.463L1609.47 192.083L1609.32 192.186L1555.58 223.463V286.222L1555.73 286.325L1609.47 317.601ZM1662.8 285.913L1609.47 316.932L1556.14 285.913V223.823L1609.47 192.804L1662.8 223.823V285.913Z" fill="#3C3C3B"/>
<path opacity="0.8471" d="M1234.57 0V36.2664L1287.9 67.3372L1341.18 36.2664V0H1341.79V36.6265L1287.9 68.006L1234 36.6265V0H1234.57Z" fill="#3C3C3B"/>
<path opacity="0.7774" d="M1395.07 99.1797L1422.15 83.3871V51.8533L1395.07 36.0607L1367.99 51.8533V83.3871L1395.07 99.1797ZM1421.58 83.0784L1395.07 98.5109L1368.56 83.0784V52.2134L1395.07 36.7809L1421.58 52.2134V83.0784Z" fill="#3C3C3B"/>
<path opacity="0.6187" d="M1386.63 0L1395.07 4.93841L1403.51 0H1404.7L1395.07 5.60715L1385.5 0H1386.63Z" fill="#3C3C3B"/>
<path opacity="0.6525" d="M1261.39 0V20.6796L1287.9 36.1121L1314.41 20.6796V0H1314.97V21.0397L1287.9 36.7808L1260.82 21.0397V0H1261.39Z" fill="#3C3C3B"/>
<path opacity="0.6134" d="M1234.57 0V36.2664L1287.9 67.3372L1341.18 36.2664V0H1341.79V36.6265L1287.9 68.006L1234 36.6265V0H1234.57Z" fill="#3C3C3B"/>
<path opacity="0.951" d="M1502.3 192.804L1556.19 161.424V98.6652L1502.3 67.2858L1502.14 67.3886L1448.4 98.6652V161.424L1448.56 161.527L1502.3 192.804ZM1555.58 161.064L1502.25 192.083L1448.92 161.064V99.0253L1502.25 68.0059L1555.58 99.0253V161.064Z" fill="#3C3C3B"/>
<path opacity="0.6256" d="M1287.9 317.601L1288.05 317.498L1341.79 286.222V223.463L1287.9 192.083L1234 223.463V286.222L1234.15 286.325L1287.9 317.601ZM1341.18 285.913L1287.84 316.932L1234.51 285.913V223.823L1287.84 192.804L1341.18 223.823V285.913Z" fill="#3C3C3B"/>
<path opacity="0.6699" d="M1502.3 317.601L1502.45 317.498L1556.19 286.222V223.463L1502.3 192.083L1502.14 192.186L1448.4 223.463V286.222L1448.56 286.325L1502.3 317.601ZM1555.58 285.913L1502.25 316.932L1448.92 285.913V223.823L1502.25 192.804L1555.58 223.823V285.913Z" fill="#3C3C3B"/>
<path opacity="0.7249" d="M1847.25 20.8339C1847.25 22.7373 1848.79 24.2805 1850.64 24.2805C1852.55 24.2805 1854.09 22.7373 1854.09 20.8339C1854.09 18.9306 1852.55 17.3873 1850.64 17.3873C1848.79 17.3873 1847.25 18.9306 1847.25 20.8339Z" fill="#3C3C3B"/>
<path opacity="0.5437" d="M1793.66 20.8339C1793.66 22.7373 1795.2 24.2805 1797.11 24.2805C1799.01 24.2805 1800.51 22.7373 1800.51 20.8339C1800.51 18.9306 1798.96 17.3873 1797.11 17.3873C1795.2 17.3873 1793.66 18.9306 1793.66 20.8339Z" fill="#3C3C3B"/>
<path opacity="0.8559" d="M1874.07 36.4722C1874.07 38.3756 1875.61 39.9188 1877.46 39.9188C1879.37 39.9188 1880.86 38.3756 1880.86 36.4722C1880.86 34.5689 1879.32 33.0256 1877.46 33.0256C1875.56 33.0256 1874.07 34.5689 1874.07 36.4722Z" fill="#3C3C3B"/>
<path opacity="0.691" d="M1820.48 145.683C1820.48 147.586 1822.02 149.13 1823.88 149.13C1825.78 149.13 1827.32 147.586 1827.32 145.683C1827.32 143.78 1825.78 142.236 1823.88 142.236C1821.97 142.185 1820.48 143.78 1820.48 145.683Z" fill="#3C3C3B"/>
<path opacity="0.5121" d="M1874.07 98.871C1874.07 100.774 1875.61 102.318 1877.46 102.318C1879.37 102.318 1880.91 100.774 1880.91 98.871C1880.91 96.9677 1879.37 95.4244 1877.46 95.4244C1875.61 95.4244 1874.07 96.9677 1874.07 98.871Z" fill="#3C3C3B"/>
<path opacity="0.8706" d="M1713.25 20.8339C1713.25 22.7373 1714.8 24.2805 1716.65 24.2805C1718.55 24.2805 1720.1 22.7373 1720.1 20.8339C1720.1 18.9306 1718.55 17.3873 1716.65 17.3873C1714.8 17.3873 1713.25 18.9306 1713.25 20.8339Z" fill="#3C3C3B"/>
<path opacity="0.6625" d="M1699.87 122.277C1699.87 124.18 1701.41 125.724 1703.32 125.724C1705.22 125.724 1706.71 124.18 1706.71 122.277C1706.71 120.374 1705.17 118.83 1703.32 118.83C1701.41 118.83 1699.87 120.374 1699.87 122.277Z" fill="#3C3C3B"/>
<path opacity="0.6645" d="M1820.48 317.241C1820.48 319.144 1822.02 320.688 1823.88 320.688C1825.78 320.688 1827.32 319.144 1827.32 317.241C1827.32 315.338 1825.78 313.794 1823.88 313.794C1821.97 313.794 1820.48 315.338 1820.48 317.241Z" fill="#3C3C3B"/>
<path opacity="0.9538" d="M1713.25 254.842C1713.25 256.746 1714.8 258.289 1716.65 258.289C1718.55 258.289 1720.1 256.746 1720.1 254.842C1720.1 252.939 1718.55 251.396 1716.65 251.396C1714.8 251.396 1713.25 252.939 1713.25 254.842Z" fill="#3C3C3B"/>
<path opacity="0.5246" d="M1820.48 130.045C1820.48 131.948 1822.02 133.491 1823.88 133.491C1825.78 133.491 1827.32 131.948 1827.32 130.045C1827.32 128.141 1825.78 126.598 1823.88 126.598C1821.97 126.598 1820.48 128.141 1820.48 130.045Z" fill="#3C3C3B"/>
<path opacity="0.7605" d="M1766.84 98.871C1766.84 100.774 1768.38 102.318 1770.29 102.318C1772.19 102.318 1773.69 100.774 1773.69 98.871C1773.69 96.9677 1772.14 95.4244 1770.29 95.4244C1768.38 95.4244 1766.84 96.9677 1766.84 98.871Z" fill="#3C3C3B"/>
<path opacity="0.6166" d="M1766.84 36.4722C1766.84 38.3756 1768.38 39.9188 1770.29 39.9188C1772.19 39.9188 1773.69 38.3756 1773.69 36.4722C1773.69 34.5689 1772.14 33.0256 1770.29 33.0256C1768.38 33.0256 1766.84 34.5689 1766.84 36.4722Z" fill="#3C3C3B"/>
<path opacity="0.5032" d="M1686.48 114.458C1686.48 116.361 1688.03 117.904 1689.88 117.904C1691.79 117.904 1693.33 116.361 1693.33 114.458C1693.33 112.554 1691.79 111.011 1689.88 111.011C1687.98 111.011 1686.48 112.554 1686.48 114.458Z" fill="#3C3C3B"/>
<path opacity="0.9074" d="M1552.49 36.4722C1552.49 38.3756 1554.03 39.9188 1555.89 39.9188C1557.79 39.9188 1559.28 38.3756 1559.28 36.4722C1559.28 34.5689 1557.74 33.0256 1555.89 33.0256C1553.98 33.0256 1552.49 34.5689 1552.49 36.4722Z" fill="#3C3C3B"/>
<path opacity="0.6002" d="M1839.58 0C1838.96 0.565859 1838.19 0.874509 1837.31 0.874509C1836.44 0.874509 1835.61 0.514417 1835.05 0H1839.58Z" fill="#3C3C3B"/>
<path opacity="0.6002" d="M1606.08 67.6458C1606.08 69.5492 1607.62 71.0924 1609.47 71.0924C1611.33 71.0924 1612.87 69.5492 1612.87 67.6458C1612.87 65.7425 1611.33 64.1992 1609.47 64.1992C1607.62 64.1992 1606.08 65.7425 1606.08 67.6458Z" fill="#3C3C3B"/>
<path opacity="0.6607" d="M1766.84 98.871C1766.84 100.774 1768.38 102.318 1770.29 102.318C1772.19 102.318 1773.69 100.774 1773.69 98.871C1773.69 96.9677 1772.14 95.4244 1770.29 95.4244C1768.38 95.4244 1766.84 96.9677 1766.84 98.871Z" fill="#3C3C3B"/>
<path opacity="0.5786" d="M1686.48 332.879C1686.48 334.783 1688.03 336.326 1689.88 336.326C1691.79 336.326 1693.33 334.783 1693.33 332.879C1693.33 330.976 1691.79 329.433 1689.88 329.433C1687.98 329.433 1686.48 330.976 1686.48 332.879Z" fill="#3C3C3B"/>
<path opacity="0.9283" d="M1713.25 286.067C1713.25 287.971 1714.8 289.514 1716.65 289.514C1718.55 289.514 1720.1 287.971 1720.1 286.067C1720.1 284.164 1718.55 282.621 1716.65 282.621C1714.8 282.621 1713.25 284.164 1713.25 286.067Z" fill="#3C3C3B"/>
<path opacity="0.6334" d="M1740.07 301.654C1740.07 303.558 1741.62 305.101 1743.47 305.101C1745.37 305.101 1746.87 303.558 1746.87 301.654C1746.87 299.751 1745.32 298.208 1743.47 298.208C1741.56 298.208 1740.07 299.751 1740.07 301.654Z" fill="#3C3C3B"/>
<path opacity="0.6939" d="M1766.84 348.466C1766.84 350.37 1768.38 351.913 1770.29 351.913C1772.19 351.913 1773.69 350.37 1773.69 348.466C1773.69 346.563 1772.14 345.02 1770.29 345.02C1768.38 345.02 1766.84 346.563 1766.84 348.466Z" fill="#3C3C3B"/>
<path opacity="0.7705" d="M1713.25 67.6458C1713.25 69.5492 1714.8 71.0924 1716.65 71.0924C1718.55 71.0924 1720.1 69.5492 1720.1 67.6458C1720.1 65.7425 1718.55 64.1992 1716.65 64.1992C1714.8 64.1992 1713.25 65.7425 1713.25 67.6458Z" fill="#3C3C3B"/>
<path opacity="0.8428" d="M1659.66 36.4722C1659.66 38.3756 1661.21 39.9188 1663.11 39.9188C1665.02 39.9188 1666.51 38.3756 1666.51 36.4722C1666.51 34.5689 1664.97 33.0256 1663.11 33.0256C1661.21 33.0256 1659.66 34.5689 1659.66 36.4722Z" fill="#3C3C3B"/>
<path opacity="0.9917" d="M1472.08 145.683C1472.08 147.586 1473.63 149.13 1475.53 149.13C1477.43 149.13 1478.93 147.586 1478.93 145.683C1478.93 143.78 1477.38 142.236 1475.53 142.236C1473.57 142.185 1472.08 143.78 1472.08 145.683Z" fill="#3C3C3B"/>
<path opacity="0.9612" d="M1472.08 114.458C1472.08 116.361 1473.63 117.904 1475.53 117.904C1477.43 117.904 1478.93 116.361 1478.93 114.458C1478.93 112.554 1477.38 111.011 1475.53 111.011C1473.57 111.011 1472.08 112.554 1472.08 114.458Z" fill="#3C3C3B"/>
<path opacity="0.6836" d="M1338.09 36.4722C1338.09 38.3756 1339.63 39.9188 1341.54 39.9188C1343.44 39.9188 1344.93 38.3756 1344.93 36.4722C1344.93 34.5689 1343.39 33.0256 1341.54 33.0256C1339.58 33.0256 1338.09 34.5689 1338.09 36.4722Z" fill="#3C3C3B"/>
<path opacity="0.9087" d="M1659.66 36.4722C1659.66 38.3756 1661.21 39.9188 1663.06 39.9188C1664.97 39.9188 1666.51 38.3756 1666.51 36.4722C1666.51 34.5689 1664.97 33.0256 1663.06 33.0256C1661.21 33.0256 1659.66 34.5689 1659.66 36.4722Z" fill="#3C3C3B"/>
<path opacity="0.7254" d="M1552.49 36.4722C1552.49 38.3756 1554.03 39.9188 1555.89 39.9188C1557.79 39.9188 1559.28 38.3756 1559.28 36.4722C1559.28 34.5689 1557.74 33.0256 1555.89 33.0256C1553.98 33.0256 1552.49 34.5689 1552.49 36.4722Z" fill="#3C3C3B"/>
<path opacity="0.5217" d="M1606.08 130.045C1606.08 131.948 1607.62 133.491 1609.47 133.491C1611.33 133.491 1612.87 131.948 1612.87 130.045C1612.87 128.141 1611.33 126.598 1609.47 126.598C1607.62 126.598 1606.08 128.141 1606.08 130.045Z" fill="#3C3C3B"/>
<path opacity="0.758" d="M1606.08 5.24701C1606.08 7.15035 1607.62 8.69361 1609.47 8.69361C1611.33 8.69361 1612.87 7.15035 1612.87 5.24701C1612.87 3.34367 1611.33 1.80042 1609.47 1.80042C1607.62 1.80042 1606.08 3.34367 1606.08 5.24701Z" fill="#3C3C3B"/>
<path opacity="0.5672" d="M1405.06 137.864C1405.06 139.767 1406.6 141.31 1408.51 141.31C1410.41 141.31 1411.9 139.767 1411.9 137.864C1411.9 135.96 1410.36 134.417 1408.51 134.417C1406.6 134.417 1405.06 135.96 1405.06 137.864Z" fill="#3C3C3B"/>
<path opacity="0.6639" d="M1378.24 122.277C1378.24 124.18 1379.78 125.724 1381.69 125.724C1383.59 125.724 1385.09 124.18 1385.09 122.277C1385.09 120.374 1383.54 118.83 1381.69 118.83C1379.78 118.83 1378.24 120.374 1378.24 122.277Z" fill="#3C3C3B"/>
<path opacity="0.7845" d="M1391.67 114.458C1391.67 116.361 1393.22 117.904 1395.07 117.904C1396.98 117.904 1398.47 116.361 1398.47 114.458C1398.47 112.554 1396.92 111.011 1395.07 111.011C1393.22 111.011 1391.67 112.554 1391.67 114.458Z" fill="#3C3C3B"/>
<path opacity="0.8686" d="M1498.85 348.466C1498.85 350.37 1500.39 351.913 1502.3 351.913C1504.2 351.913 1505.7 350.37 1505.7 348.466C1505.7 346.563 1504.15 345.02 1502.3 345.02C1500.39 345.02 1498.85 346.563 1498.85 348.466Z" fill="#3C3C3B"/>
<path opacity="0.9438" d="M1552.49 223.669C1552.49 225.572 1554.03 227.115 1555.89 227.115C1557.79 227.115 1559.28 225.572 1559.28 223.669C1559.28 221.765 1557.74 220.222 1555.89 220.222C1553.98 220.222 1552.49 221.765 1552.49 223.669Z" fill="#3C3C3B"/>
<path opacity="0.8488" d="M1606.08 192.443C1606.08 194.347 1607.62 195.89 1609.47 195.89C1611.33 195.89 1612.87 194.347 1612.87 192.443C1612.87 190.54 1611.33 188.997 1609.47 188.997C1607.62 188.997 1606.08 190.54 1606.08 192.443Z" fill="#3C3C3B"/>
<path opacity="0.5604" d="M1338.09 36.4722C1338.09 38.3756 1339.63 39.9188 1341.48 39.9188C1343.39 39.9188 1344.93 38.3756 1344.93 36.4722C1344.93 34.5689 1343.39 33.0256 1341.48 33.0256C1339.58 33.0256 1338.09 34.5689 1338.09 36.4722Z" fill="#3C3C3B"/>
<path opacity="0.8646" d="M1284.45 67.6458C1284.45 69.5492 1285.99 71.0924 1287.85 71.0924C1289.75 71.0924 1291.24 69.5492 1291.24 67.6458C1291.24 65.7425 1289.7 64.1992 1287.85 64.1992C1285.99 64.1992 1284.45 65.7425 1284.45 67.6458Z" fill="#3C3C3B"/>
<path opacity="0.5312" d="M1391.67 98.871C1391.67 100.774 1393.22 102.318 1395.07 102.318C1396.98 102.318 1398.47 100.774 1398.47 98.871C1398.47 96.9677 1396.92 95.4244 1395.07 95.4244C1393.22 95.4244 1391.67 96.9677 1391.67 98.871Z" fill="#3C3C3B"/>
<path opacity="0.7235" d="M1311.27 20.8339C1311.27 22.7373 1312.81 24.2805 1314.72 24.2805C1316.62 24.2805 1318.11 22.7373 1318.11 20.8339C1318.11 18.9306 1316.57 17.3873 1314.72 17.3873C1312.81 17.3873 1311.27 18.9306 1311.27 20.8339Z" fill="#3C3C3B"/>
<path opacity="0.5885" d="M1257.68 20.8339C1257.68 22.7373 1259.22 24.2805 1261.08 24.2805C1262.98 24.2805 1264.47 22.7373 1264.47 20.8339C1264.47 18.9306 1262.93 17.3873 1261.08 17.3873C1259.22 17.3873 1257.68 18.9306 1257.68 20.8339Z" fill="#3C3C3B"/>
<path opacity="0.8858" d="M1552.49 161.27C1552.49 163.173 1554.03 164.716 1555.89 164.716C1557.79 164.716 1559.28 163.173 1559.28 161.27C1559.28 159.367 1557.74 157.823 1555.89 157.823C1553.98 157.823 1552.49 159.367 1552.49 161.27Z" fill="#3C3C3B"/>
<path opacity="0.5875" d="M1445.26 161.27C1445.26 163.173 1446.81 164.716 1448.66 164.716C1450.56 164.716 1452.06 163.173 1452.06 161.27C1452.06 159.367 1450.51 157.823 1448.66 157.823C1446.81 157.823 1445.26 159.367 1445.26 161.27Z" fill="#3C3C3B"/>
<path opacity="0.9745" d="M1284.45 192.443C1284.45 194.347 1285.99 195.89 1287.85 195.89C1289.75 195.89 1291.24 194.347 1291.24 192.443C1291.24 190.54 1289.7 188.997 1287.85 188.997C1285.99 188.997 1284.45 190.54 1284.45 192.443Z" fill="#3C3C3B"/>
<path opacity="0.6677" d="M1498.85 317.241C1498.85 319.144 1500.39 320.688 1502.3 320.688C1504.2 320.688 1505.7 319.144 1505.7 317.241C1505.7 315.338 1504.15 313.794 1502.3 313.794C1500.39 313.794 1498.85 315.338 1498.85 317.241Z" fill="#3C3C3B"/>
<path opacity="0.779" d="M1498.85 192.443C1498.85 194.347 1500.39 195.89 1502.3 195.89C1504.2 195.89 1505.7 194.347 1505.7 192.443C1505.7 190.54 1504.15 188.997 1502.3 188.997C1500.39 188.997 1498.85 190.54 1498.85 192.443Z" fill="#3C3C3B"/>
</g>
<defs>
<clipPath id="clip0_2002_1231">
<rect width="1089" height="502" fill="white" transform="matrix(-1 0 0 1 1089 428)"/>
</clipPath>
<clipPath id="clip1_2002_1231">
<rect width="819" height="380" fill="white" transform="matrix(-1 0 0 1 2053 0)"/>
</clipPath>
</defs>
</svg>
