<svg width="1920" height="1071" viewBox="0 0 1920 1071" fill="none" xmlns="http://www.w3.org/2000/svg">
<g opacity="0.3" clip-path="url(#clip0_2002_1230)">
<path opacity="0.8516" d="M1502.72 0H1503.85L1494.53 5.40138V129.89L1509 138.275V138.944L1494.12 130.302L1493.97 130.199V5.09273L1502.72 0Z" fill="#3C3C3B"/>
<path opacity="0.9669" d="M1494.28 145.992L1507.97 138.018V122.071L1494.28 114.098L1480.58 122.071V138.018L1494.28 145.992ZM1507.4 137.709L1494.28 145.323L1481.15 137.709V122.431L1494.28 114.818L1507.4 122.431V137.709Z" fill="#3C3C3B"/>
<path opacity="0.716" d="M1485.84 0L1494.28 4.93841L1502.72 0H1503.85L1494.28 5.60715L1484.7 0H1485.84Z" fill="#3C3C3B"/>
<path opacity="0.8412" d="M1494.28 4.9384L1509 13.4777V14.1465L1494.28 5.60715L1440.95 36.6265V98.6652L1494.28 129.736L1509 121.145V121.814L1494.43 130.302L1494.28 130.405L1440.54 99.1282L1440.38 99.0253V36.2664L1494.28 4.9384Z" fill="#3C3C3B"/>
<path opacity="0.994" d="M1387.05 192.804L1440.95 161.424V98.6652L1387.05 67.2858L1333.15 98.6652V161.424L1387.05 192.804ZM1440.38 161.064L1387.05 192.083L1333.72 161.064V99.0253L1387.05 68.006L1440.38 99.0253V161.064Z" fill="#3C3C3B"/>
<path opacity="0.9394" d="M1387.05 192.804L1440.95 161.424V98.6652L1387.05 67.2858L1333.15 98.6652V161.424L1387.05 192.804ZM1440.38 161.064L1387.05 192.083L1333.72 161.064V99.0253L1387.05 68.006L1440.38 99.0253V161.064Z" fill="#3C3C3B"/>
<path opacity="0.9775" d="M1378.61 0L1387.05 4.93841L1395.54 0H1396.68L1387.05 5.60715L1377.48 0H1378.61Z" fill="#3C3C3B"/>
<path opacity="0.7716" d="M1387.05 130.405L1387.21 130.302L1440.95 99.0253V36.2664L1387.05 4.88696L1333.15 36.2664V99.0253L1333.31 99.1282L1387.05 130.405ZM1440.38 98.6652L1387.05 129.685L1333.72 98.6652V36.6265L1387.05 5.60715L1440.38 36.6265V98.6652Z" fill="#3C3C3B"/>
<path opacity="0.6343" d="M1378.61 0L1387.05 4.93841L1395.54 0H1396.68L1387.05 5.60715L1377.48 0H1378.61Z" fill="#3C3C3B"/>
<path opacity="0.6715" d="M1253.36 0V20.6796L1279.88 36.1121L1306.39 20.6796V0H1306.95V21.0397L1279.88 36.7808L1252.8 21.0397V0H1253.36Z" fill="#3C3C3B"/>
<path opacity="0.9459" d="M1226.55 0V36.2664L1279.88 67.3372L1333.21 36.2664V0H1333.77V36.6265L1279.88 68.006L1225.98 36.6265V0H1226.55Z" fill="#3C3C3B"/>
<path opacity="0.5261" d="M1279.88 145.992L1293.57 138.018V122.071L1279.88 114.098L1266.18 122.071V138.018L1279.88 145.992ZM1293 137.709L1279.88 145.323L1266.75 137.709V122.431L1279.88 114.818L1293 122.431V137.709Z" fill="#3C3C3B"/>
<path opacity="0.5223" d="M1387.05 130.405L1387.21 130.302L1440.95 99.0253V36.2664L1387.05 4.88696L1333.15 36.2664V99.0253L1333.31 99.1282L1387.05 130.405ZM1440.38 98.6652L1387.05 129.685L1333.72 98.6652V36.6265L1387.05 5.60715L1440.38 36.6265V98.6652Z" fill="#3C3C3B"/>
<path opacity="0.8962" d="M1159.57 0V12.8604L1172.7 20.5252L1185.78 12.8604V0H1186.34V13.2205L1172.7 21.194L1159.01 13.2205V0H1159.57Z" fill="#3C3C3B"/>
<path opacity="0.5211" d="M1172.7 145.992L1186.39 138.018V122.071L1172.7 114.098L1159.01 122.071V138.018L1172.7 145.992ZM1185.78 137.709L1172.65 145.323L1159.52 137.709V122.431L1172.65 114.818L1185.78 122.431V137.709Z" fill="#3C3C3B"/>
<path opacity="0.6374" d="M1279.88 317.601L1280.03 317.498L1387.36 255.048V129.89L1387.21 129.787L1279.88 67.2858L1279.72 67.3887L1172.39 129.89V255.048L1172.55 255.151L1279.88 317.601ZM1386.79 254.688L1279.88 316.932L1172.96 254.688V130.199L1279.88 67.9545L1386.79 130.199V254.688Z" fill="#3C3C3B"/>
<path opacity="0.5189" d="M1279.88 130.405L1280.03 130.302L1333.77 99.0253V36.2664L1279.88 4.88696L1225.98 36.2664V99.0253L1226.13 99.1282L1279.88 130.405ZM1333.21 98.6652L1279.88 129.685L1226.55 98.6652V36.6265L1279.88 5.60715L1333.21 36.6265V98.6652Z" fill="#3C3C3B"/>
<path opacity="0.5082" d="M1172.7 161.578L1199.78 145.837V114.304L1172.7 98.5109L1145.62 114.304V145.837L1172.7 161.578ZM1199.21 145.477L1172.7 160.91L1146.19 145.477V114.612L1172.7 99.1796L1199.21 114.612V145.477Z" fill="#3C3C3B"/>
<path opacity="0.5792" d="M1012.14 0V36.2664L1065.47 67.3372L1118.8 36.2664V0H1119.37V36.6265L1065.47 68.006L1011.73 36.6779L1011.58 36.6265V0H1012.14Z" fill="#3C3C3B"/>
<path opacity="0.9861" d="M1172.7 130.405L1172.85 130.302L1226.6 99.0253V36.2664L1172.7 4.88696L1118.8 36.2664V99.0253L1118.96 99.1282L1172.7 130.405ZM1225.98 98.6652L1172.65 129.685L1119.32 98.6652V36.6265L1172.7 5.60715L1225.98 36.6265V98.6652Z" fill="#3C3C3B"/>
<path opacity="0.9808" d="M1266.75 0V12.8604L1279.88 20.5252L1293 12.8604V0H1293.57V13.2205L1279.88 21.194L1266.18 13.2205V0H1266.75Z" fill="#3C3C3B"/>
<path opacity="0.9699" d="M1012.14 0V36.2664L1065.47 67.3372L1118.8 36.2664V0H1119.37V36.6265L1065.47 68.006L1011.73 36.6779L1011.58 36.6265V0H1012.14Z" fill="#3C3C3B"/>
<path opacity="0.9622" d="M1279.88 192.804L1333.77 161.424V98.6652L1279.88 67.2858L1225.98 98.6652V161.424L1279.88 192.804ZM1333.21 161.064L1279.88 192.083L1226.55 161.064V99.0253L1279.88 68.006L1333.21 99.0253V161.064Z" fill="#3C3C3B"/>
<path opacity="0.6304" d="M1279.88 192.804L1333.77 161.424V98.6652L1279.88 67.2858L1225.98 98.6652V161.424L1279.88 192.804ZM1333.21 161.064L1279.88 192.083L1226.55 161.064V99.0253L1279.88 68.006L1333.21 99.0253V161.064Z" fill="#3C3C3B"/>
<path opacity="0.8387" d="M1172.7 348.826L1199.78 333.034V301.5L1172.7 285.759L1145.62 301.5V333.034L1172.7 348.826ZM1199.21 332.725L1172.7 348.158L1146.19 332.725V301.86L1172.7 286.427L1199.21 301.86V332.725Z" fill="#3C3C3B"/>
<path opacity="0.9051" d="M1172.7 380L1226.6 348.621V285.862L1172.7 254.482L1118.8 285.862V348.621L1172.7 380ZM1225.98 348.312L1172.65 379.331L1119.32 348.312V286.222L1172.65 255.202L1225.98 286.222V348.312Z" fill="#3C3C3B"/>
<path opacity="0.6545" d="M1119.37 0V36.2664L1172.7 67.3372L1225.98 36.2664V0H1226.55V36.6265L1172.7 68.006L1118.8 36.6265V0H1119.37Z" fill="#3C3C3B"/>
<path opacity="0.9574" d="M1057.03 0L1065.47 4.93841L1073.92 0H1075.05L1065.47 5.60715L1055.9 0H1057.03Z" fill="#3C3C3B"/>
<path opacity="0.9474" d="M1065.47 317.601L1065.63 317.498L1172.96 255.048V129.89L1172.8 129.787L1065.47 67.2858L1065.32 67.3887L957.99 129.89V255.048L958.144 255.151L1065.47 317.601ZM1172.39 254.688L1065.47 316.932L958.556 254.688V130.199L1065.47 67.9545L1172.39 130.199V254.688Z" fill="#3C3C3B"/>
<path opacity="0.8086" d="M958.298 161.578L985.375 145.837V114.304L958.298 98.5109L931.221 114.304V145.837L958.298 161.578ZM984.809 145.477L958.298 160.91L931.788 145.477V114.612L958.298 99.1796L984.809 114.612V145.477Z" fill="#3C3C3B"/>
<path opacity="0.5531" d="M1065.47 348.826L1092.55 333.034V301.5L1065.47 285.759L1038.4 301.5V333.034L1065.47 348.826ZM1091.98 332.725L1065.47 348.158L1038.96 332.725V301.86L1065.47 286.427L1091.98 301.86V332.725Z" fill="#3C3C3B"/>
<path opacity="0.9538" d="M949.856 0L958.298 4.93841L966.741 0H967.873L958.298 5.60715L948.672 0H949.856Z" fill="#3C3C3B"/>
<path opacity="0.8754" d="M797.793 0V36.2664L851.072 67.3372L904.402 36.2664V0H904.968V36.6265L851.072 68.006L797.175 36.6265V0H797.793Z" fill="#3C3C3B"/>
<path opacity="0.5051" d="M1012.14 0V36.2664L1065.47 67.3372L1118.8 36.2664V0H1119.37V36.6265L1065.47 68.006L1011.73 36.6779L1011.58 36.6265V0H1012.14Z" fill="#3C3C3B"/>
<path opacity="0.8517" d="M860.698 0L851.381 5.40138V129.89L958.298 192.135L1065.22 129.89V5.40138L1055.9 0H1057.03L1065.63 4.98985L1065.78 5.09273V130.199L958.401 192.701L958.298 192.804L850.969 130.302L850.814 130.199V5.09273L859.514 0H860.698Z" fill="#3C3C3B"/>
<path opacity="0.61" d="M851.072 145.992L864.765 138.018V122.071L851.072 114.098L837.379 122.071V138.018L851.072 145.992ZM864.198 137.709L851.072 145.323L837.945 137.709V122.431L851.072 114.818L864.198 122.431V137.709Z" fill="#3C3C3B"/>
<path opacity="0.6181" d="M1065.47 192.804L1119.37 161.424V98.6652L1065.47 67.2858L1065.32 67.3887L1011.58 98.6652V161.424L1011.73 161.527L1065.47 192.804ZM1118.8 161.064L1065.47 192.083L1012.14 161.064V99.0253L1065.47 68.006L1118.8 99.0253V161.064Z" fill="#3C3C3B"/>
<path opacity="0.876" d="M958.298 317.601L958.453 317.498L1065.78 255.048V129.89L1065.63 129.787L958.298 67.2858L958.144 67.3887L850.814 129.89V255.048L850.969 255.151L958.298 317.601ZM1065.22 254.688L958.298 316.932L851.381 254.688V130.199L958.298 67.9545L1065.22 130.199V254.688Z" fill="#3C3C3B"/>
<path opacity="0.5845" d="M958.298 348.826L985.375 333.034V301.5L958.298 285.759L931.221 301.5V333.034L958.298 348.826ZM984.809 332.725L958.298 348.158L931.788 332.725V301.86L958.298 286.427L984.809 301.86V332.725Z" fill="#3C3C3B"/>
<path opacity="0.5432" d="M1065.47 317.601L1065.63 317.498L1119.37 286.222V223.463L1065.47 192.083L1065.32 192.186L1011.58 223.463V286.222L1011.73 286.325L1065.47 317.601ZM1118.8 285.913L1065.47 316.932L1012.14 285.913V223.823L1065.47 192.804L1118.8 223.823V285.913Z" fill="#3C3C3B"/>
<path opacity="0.8471" d="M690.566 0V36.2664L743.896 67.3372L797.175 36.2664V0H797.793V36.6265L743.896 68.006L690 36.6265V0H690.566Z" fill="#3C3C3B"/>
<path opacity="0.7774" d="M851.072 99.1796L878.149 83.387V51.8533L851.072 36.0606L823.995 51.8533V83.387L851.072 99.1796ZM877.582 83.0784L851.072 98.5109L824.561 83.0784V52.2133L851.072 36.7808L877.582 52.2133V83.0784Z" fill="#3C3C3B"/>
<path opacity="0.6187" d="M842.63 0L851.072 4.93841L859.514 0H860.698L851.072 5.60715L841.497 0H842.63Z" fill="#3C3C3B"/>
<path opacity="0.6525" d="M717.386 0V20.6796L743.896 36.1121L770.407 20.6796V0H770.973V21.0397L743.896 36.7808L716.82 21.0397V0H717.386Z" fill="#3C3C3B"/>
<path opacity="0.6134" d="M690.566 0V36.2664L743.896 67.3372L797.175 36.2664V0H797.793V36.6265L743.896 68.006L690 36.6265V0H690.566Z" fill="#3C3C3B"/>
<path opacity="0.951" d="M958.298 192.804L1012.19 161.424V98.6652L958.298 67.2858L958.144 67.3887L904.402 98.6652V161.424L904.556 161.527L958.298 192.804ZM1011.58 161.064L958.247 192.083L904.917 161.064V99.0253L958.247 68.006L1011.58 99.0253V161.064Z" fill="#3C3C3B"/>
<path opacity="0.6256" d="M743.896 317.601L744.051 317.498L797.793 286.222V223.463L743.896 192.083L690 223.463V286.222L690.154 286.325L743.896 317.601ZM797.175 285.913L743.845 316.932L690.515 285.913V223.823L743.845 192.804L797.175 223.823V285.913Z" fill="#3C3C3B"/>
<path opacity="0.6699" d="M958.298 317.601L958.453 317.498L1012.19 286.222V223.463L958.298 192.083L958.144 192.186L904.402 223.463V286.222L904.556 286.325L958.298 317.601ZM1011.58 285.913L958.247 316.932L904.917 285.913V223.823L958.247 192.804L1011.58 223.823V285.913Z" fill="#3C3C3B"/>
<path opacity="0.6867" d="M1490.83 145.683C1490.83 147.586 1492.37 149.13 1494.23 149.13C1496.13 149.13 1497.62 147.586 1497.62 145.683C1497.62 143.78 1496.08 142.236 1494.23 142.236C1492.37 142.185 1490.83 143.78 1490.83 145.683Z" fill="#3C3C3B"/>
<path opacity="0.975" d="M1437.24 98.871C1437.24 100.774 1438.79 102.318 1440.64 102.318C1442.54 102.318 1444.09 100.774 1444.09 98.871C1444.09 96.9676 1442.54 95.4244 1440.64 95.4244C1438.79 95.4244 1437.24 96.9676 1437.24 98.871Z" fill="#3C3C3B"/>
<path opacity="0.9056" d="M1383.65 5.24706C1383.65 7.1504 1385.2 8.69365 1387.1 8.69365C1389.01 8.69365 1390.5 7.1504 1390.5 5.24706C1390.5 3.34371 1388.96 1.80046 1387.1 1.80046C1385.2 1.80046 1383.65 3.34371 1383.65 5.24706Z" fill="#3C3C3B"/>
<path opacity="0.862" d="M1383.65 130.045C1383.65 131.948 1385.2 133.491 1387.1 133.491C1389.01 133.491 1390.5 131.948 1390.5 130.045C1390.5 128.141 1388.96 126.598 1387.1 126.598C1385.2 126.598 1383.65 128.141 1383.65 130.045Z" fill="#3C3C3B"/>
<path opacity="0.7249" d="M1303.25 20.8339C1303.25 22.7372 1304.79 24.2805 1306.64 24.2805C1308.55 24.2805 1310.09 22.7372 1310.09 20.8339C1310.09 18.9306 1308.55 17.3873 1306.64 17.3873C1304.79 17.3873 1303.25 18.9306 1303.25 20.8339Z" fill="#3C3C3B"/>
<path opacity="0.5437" d="M1249.66 20.8339C1249.66 22.7372 1251.2 24.2805 1253.11 24.2805C1255.01 24.2805 1256.51 22.7372 1256.51 20.8339C1256.51 18.9306 1254.96 17.3873 1253.11 17.3873C1251.2 17.3873 1249.66 18.9306 1249.66 20.8339Z" fill="#3C3C3B"/>
<path opacity="0.8559" d="M1330.07 36.4722C1330.07 38.3755 1331.61 39.9188 1333.46 39.9188C1335.37 39.9188 1336.86 38.3755 1336.86 36.4722C1336.86 34.5688 1335.32 33.0256 1333.46 33.0256C1331.56 33.0256 1330.07 34.5688 1330.07 36.4722Z" fill="#3C3C3B"/>
<path opacity="0.691" d="M1276.48 145.683C1276.48 147.586 1278.02 149.13 1279.88 149.13C1281.78 149.13 1283.32 147.586 1283.32 145.683C1283.32 143.78 1281.78 142.236 1279.88 142.236C1277.97 142.185 1276.48 143.78 1276.48 145.683Z" fill="#3C3C3B"/>
<path opacity="0.6169" d="M1383.65 130.045C1383.65 131.948 1385.2 133.491 1387.1 133.491C1389.01 133.491 1390.5 131.948 1390.5 130.045C1390.5 128.141 1388.96 126.598 1387.1 126.598C1385.2 126.598 1383.65 128.141 1383.65 130.045Z" fill="#3C3C3B"/>
<path opacity="0.5121" d="M1330.07 98.871C1330.07 100.774 1331.61 102.318 1333.46 102.318C1335.37 102.318 1336.91 100.774 1336.91 98.871C1336.91 96.9676 1335.37 95.4244 1333.46 95.4244C1331.61 95.4244 1330.07 96.9676 1330.07 98.871Z" fill="#3C3C3B"/>
<path opacity="0.8706" d="M1169.25 20.8339C1169.25 22.7372 1170.8 24.2805 1172.65 24.2805C1174.55 24.2805 1176.1 22.7372 1176.1 20.8339C1176.1 18.9306 1174.55 17.3873 1172.65 17.3873C1170.8 17.3873 1169.25 18.9306 1169.25 20.8339Z" fill="#3C3C3B"/>
<path opacity="0.6625" d="M1155.87 122.277C1155.87 124.18 1157.41 125.724 1159.32 125.724C1161.22 125.724 1162.71 124.18 1162.71 122.277C1162.71 120.374 1161.17 118.83 1159.32 118.83C1157.41 118.83 1155.87 120.374 1155.87 122.277Z" fill="#3C3C3B"/>
<path opacity="0.6645" d="M1276.48 317.241C1276.48 319.144 1278.02 320.688 1279.88 320.688C1281.78 320.688 1283.32 319.144 1283.32 317.241C1283.32 315.338 1281.78 313.794 1279.88 313.794C1277.97 313.794 1276.48 315.338 1276.48 317.241Z" fill="#3C3C3B"/>
<path opacity="0.9538" d="M1169.25 254.842C1169.25 256.746 1170.8 258.289 1172.65 258.289C1174.55 258.289 1176.1 256.746 1176.1 254.842C1176.1 252.939 1174.55 251.396 1172.65 251.396C1170.8 251.396 1169.25 252.939 1169.25 254.842Z" fill="#3C3C3B"/>
<path opacity="0.6405" d="M1383.65 130.045C1383.65 131.948 1385.2 133.491 1387.1 133.491C1389.01 133.491 1390.5 131.948 1390.5 130.045C1390.5 128.141 1388.96 126.598 1387.1 126.598C1385.2 126.598 1383.65 128.141 1383.65 130.045Z" fill="#3C3C3B"/>
<path opacity="0.5246" d="M1276.48 130.045C1276.48 131.948 1278.02 133.491 1279.88 133.491C1281.78 133.491 1283.32 131.948 1283.32 130.045C1283.32 128.141 1281.78 126.598 1279.88 126.598C1277.97 126.598 1276.48 128.141 1276.48 130.045Z" fill="#3C3C3B"/>
<path opacity="0.7605" d="M1222.84 98.871C1222.84 100.774 1224.38 102.318 1226.29 102.318C1228.19 102.318 1229.69 100.774 1229.69 98.871C1229.69 96.9676 1228.14 95.4244 1226.29 95.4244C1224.38 95.4244 1222.84 96.9676 1222.84 98.871Z" fill="#3C3C3B"/>
<path opacity="0.6166" d="M1222.84 36.4722C1222.84 38.3755 1224.38 39.9188 1226.29 39.9188C1228.19 39.9188 1229.69 38.3755 1229.69 36.4722C1229.69 34.5688 1228.14 33.0256 1226.29 33.0256C1224.38 33.0256 1222.84 34.5688 1222.84 36.4722Z" fill="#3C3C3B"/>
<path opacity="0.5032" d="M1142.48 114.458C1142.48 116.361 1144.03 117.904 1145.88 117.904C1147.79 117.904 1149.33 116.361 1149.33 114.458C1149.33 112.554 1147.79 111.011 1145.88 111.011C1143.98 111.011 1142.48 112.554 1142.48 114.458Z" fill="#3C3C3B"/>
<path opacity="0.9074" d="M1008.49 36.4722C1008.49 38.3755 1010.03 39.9188 1011.89 39.9188C1013.79 39.9188 1015.28 38.3755 1015.28 36.4722C1015.28 34.5688 1013.74 33.0256 1011.89 33.0256C1009.98 33.0256 1008.49 34.5688 1008.49 36.4722Z" fill="#3C3C3B"/>
<path opacity="0.6002" d="M1295.58 0C1294.96 0.565859 1294.19 0.874509 1293.31 0.874509C1292.44 0.874509 1291.61 0.514417 1291.05 0H1295.58Z" fill="#3C3C3B"/>
<path opacity="0.6002" d="M1062.08 67.6459C1062.08 69.5492 1063.62 71.0925 1065.47 71.0925C1067.33 71.0925 1068.87 69.5492 1068.87 67.6459C1068.87 65.7425 1067.33 64.1993 1065.47 64.1993C1063.62 64.1993 1062.08 65.7425 1062.08 67.6459Z" fill="#3C3C3B"/>
<path opacity="0.6607" d="M1222.84 98.871C1222.84 100.774 1224.38 102.318 1226.29 102.318C1228.19 102.318 1229.69 100.774 1229.69 98.871C1229.69 96.9676 1228.14 95.4244 1226.29 95.4244C1224.38 95.4244 1222.84 96.9676 1222.84 98.871Z" fill="#3C3C3B"/>
<path opacity="0.5786" d="M1142.48 332.879C1142.48 334.783 1144.03 336.326 1145.88 336.326C1147.79 336.326 1149.33 334.783 1149.33 332.879C1149.33 330.976 1147.79 329.433 1145.88 329.433C1143.98 329.433 1142.48 330.976 1142.48 332.879Z" fill="#3C3C3B"/>
<path opacity="0.9283" d="M1169.25 286.067C1169.25 287.971 1170.8 289.514 1172.65 289.514C1174.55 289.514 1176.1 287.971 1176.1 286.067C1176.1 284.164 1174.55 282.621 1172.65 282.621C1170.8 282.621 1169.25 284.164 1169.25 286.067Z" fill="#3C3C3B"/>
<path opacity="0.6334" d="M1196.07 301.654C1196.07 303.558 1197.62 305.101 1199.47 305.101C1201.37 305.101 1202.87 303.558 1202.87 301.654C1202.87 299.751 1201.32 298.208 1199.47 298.208C1197.56 298.208 1196.07 299.751 1196.07 301.654Z" fill="#3C3C3B"/>
<path opacity="0.6939" d="M1222.84 348.466C1222.84 350.37 1224.38 351.913 1226.29 351.913C1228.19 351.913 1229.69 350.37 1229.69 348.466C1229.69 346.563 1228.14 345.02 1226.29 345.02C1224.38 345.02 1222.84 346.563 1222.84 348.466Z" fill="#3C3C3B"/>
<path opacity="0.7705" d="M1169.25 67.6459C1169.25 69.5492 1170.8 71.0925 1172.65 71.0925C1174.55 71.0925 1176.1 69.5492 1176.1 67.6459C1176.1 65.7425 1174.55 64.1993 1172.65 64.1993C1170.8 64.1993 1169.25 65.7425 1169.25 67.6459Z" fill="#3C3C3B"/>
<path opacity="0.8428" d="M1115.66 36.4722C1115.66 38.3755 1117.21 39.9188 1119.11 39.9188C1121.02 39.9188 1122.51 38.3755 1122.51 36.4722C1122.51 34.5688 1120.97 33.0256 1119.11 33.0256C1117.21 33.0256 1115.66 34.5688 1115.66 36.4722Z" fill="#3C3C3B"/>
<path opacity="0.9917" d="M928.081 145.683C928.081 147.586 929.626 149.13 931.53 149.13C933.435 149.13 934.928 147.586 934.928 145.683C934.928 143.78 933.383 142.236 931.53 142.236C929.574 142.185 928.081 143.78 928.081 145.683Z" fill="#3C3C3B"/>
<path opacity="0.9612" d="M928.081 114.458C928.081 116.361 929.626 117.904 931.53 117.904C933.435 117.904 934.928 116.361 934.928 114.458C934.928 112.554 933.383 111.011 931.53 111.011C929.574 111.011 928.081 112.554 928.081 114.458Z" fill="#3C3C3B"/>
<path opacity="0.6836" d="M794.087 36.4722C794.087 38.3755 795.631 39.9188 797.536 39.9188C799.44 39.9188 800.933 38.3755 800.933 36.4722C800.933 34.5688 799.389 33.0256 797.536 33.0256C795.579 33.0256 794.087 34.5688 794.087 36.4722Z" fill="#3C3C3B"/>
<path opacity="0.9087" d="M1115.66 36.4722C1115.66 38.3755 1117.21 39.9188 1119.06 39.9188C1120.97 39.9188 1122.51 38.3755 1122.51 36.4722C1122.51 34.5688 1120.97 33.0256 1119.06 33.0256C1117.21 33.0256 1115.66 34.5688 1115.66 36.4722Z" fill="#3C3C3B"/>
<path opacity="0.7254" d="M1008.49 36.4722C1008.49 38.3755 1010.03 39.9188 1011.89 39.9188C1013.79 39.9188 1015.28 38.3755 1015.28 36.4722C1015.28 34.5688 1013.74 33.0256 1011.89 33.0256C1009.98 33.0256 1008.49 34.5688 1008.49 36.4722Z" fill="#3C3C3B"/>
<path opacity="0.5217" d="M1062.08 130.045C1062.08 131.948 1063.62 133.491 1065.47 133.491C1067.33 133.491 1068.87 131.948 1068.87 130.045C1068.87 128.141 1067.33 126.598 1065.47 126.598C1063.62 126.598 1062.08 128.141 1062.08 130.045Z" fill="#3C3C3B"/>
<path opacity="0.758" d="M1062.08 5.24706C1062.08 7.1504 1063.62 8.69365 1065.47 8.69365C1067.33 8.69365 1068.87 7.1504 1068.87 5.24706C1068.87 3.34371 1067.33 1.80046 1065.47 1.80046C1063.62 1.80046 1062.08 3.34371 1062.08 5.24706Z" fill="#3C3C3B"/>
<path opacity="0.5672" d="M861.058 137.864C861.058 139.767 862.603 141.31 864.507 141.31C866.412 141.31 867.905 139.767 867.905 137.864C867.905 135.96 866.36 134.417 864.507 134.417C862.603 134.417 861.058 135.96 861.058 137.864Z" fill="#3C3C3B"/>
<path opacity="0.6639" d="M834.239 122.277C834.239 124.18 835.783 125.724 837.688 125.724C839.592 125.724 841.085 124.18 841.085 122.277C841.085 120.374 839.541 118.83 837.688 118.83C835.783 118.83 834.239 120.374 834.239 122.277Z" fill="#3C3C3B"/>
<path opacity="0.7845" d="M847.674 114.458C847.674 116.361 849.219 117.904 851.072 117.904C852.976 117.904 854.469 116.361 854.469 114.458C854.469 112.554 852.925 111.011 851.072 111.011C849.219 111.011 847.674 112.554 847.674 114.458Z" fill="#3C3C3B"/>
<path opacity="0.8686" d="M954.849 348.466C954.849 350.37 956.394 351.913 958.298 351.913C960.203 351.913 961.696 350.37 961.696 348.466C961.696 346.563 960.152 345.02 958.298 345.02C956.394 345.02 954.849 346.563 954.849 348.466Z" fill="#3C3C3B"/>
<path opacity="0.9438" d="M1008.49 223.669C1008.49 225.572 1010.03 227.115 1011.89 227.115C1013.79 227.115 1015.28 225.572 1015.28 223.669C1015.28 221.765 1013.74 220.222 1011.89 220.222C1009.98 220.222 1008.49 221.765 1008.49 223.669Z" fill="#3C3C3B"/>
<path opacity="0.8488" d="M1062.08 192.443C1062.08 194.347 1063.62 195.89 1065.47 195.89C1067.33 195.89 1068.87 194.347 1068.87 192.443C1068.87 190.54 1067.33 188.997 1065.47 188.997C1063.62 188.997 1062.08 190.54 1062.08 192.443Z" fill="#3C3C3B"/>
<path opacity="0.5604" d="M794.087 36.4722C794.087 38.3755 795.631 39.9188 797.484 39.9188C799.389 39.9188 800.933 38.3755 800.933 36.4722C800.933 34.5688 799.389 33.0256 797.484 33.0256C795.579 33.0256 794.087 34.5688 794.087 36.4722Z" fill="#3C3C3B"/>
<path opacity="0.8646" d="M740.448 67.6459C740.448 69.5492 741.992 71.0925 743.845 71.0925C745.75 71.0925 747.242 69.5492 747.242 67.6459C747.242 65.7425 745.698 64.1993 743.845 64.1993C741.992 64.1993 740.448 65.7425 740.448 67.6459Z" fill="#3C3C3B"/>
<path opacity="0.5312" d="M847.674 98.871C847.674 100.774 849.219 102.318 851.072 102.318C852.976 102.318 854.469 100.774 854.469 98.871C854.469 96.9676 852.925 95.4244 851.072 95.4244C849.219 95.4244 847.674 96.9676 847.674 98.871Z" fill="#3C3C3B"/>
<path opacity="0.7235" d="M767.267 20.8339C767.267 22.7372 768.811 24.2805 770.716 24.2805C772.621 24.2805 774.114 22.7372 774.114 20.8339C774.114 18.9306 772.569 17.3873 770.716 17.3873C768.811 17.3873 767.267 18.9306 767.267 20.8339Z" fill="#3C3C3B"/>
<path opacity="0.5885" d="M713.679 20.8339C713.679 22.7372 715.224 24.2805 717.077 24.2805C718.982 24.2805 720.474 22.7372 720.474 20.8339C720.474 18.9306 718.93 17.3873 717.077 17.3873C715.224 17.3873 713.679 18.9306 713.679 20.8339Z" fill="#3C3C3B"/>
<path opacity="0.8858" d="M1008.49 161.27C1008.49 163.173 1010.03 164.716 1011.89 164.716C1013.79 164.716 1015.28 163.173 1015.28 161.27C1015.28 159.366 1013.74 157.823 1011.89 157.823C1009.98 157.823 1008.49 159.366 1008.49 161.27Z" fill="#3C3C3B"/>
<path opacity="0.5875" d="M901.262 161.27C901.262 163.173 902.806 164.716 904.659 164.716C906.564 164.716 908.057 163.173 908.057 161.27C908.057 159.366 906.513 157.823 904.659 157.823C902.806 157.823 901.262 159.366 901.262 161.27Z" fill="#3C3C3B"/>
<path opacity="0.9745" d="M740.448 192.443C740.448 194.347 741.992 195.89 743.845 195.89C745.75 195.89 747.242 194.347 747.242 192.443C747.242 190.54 745.698 188.997 743.845 188.997C741.992 188.997 740.448 190.54 740.448 192.443Z" fill="#3C3C3B"/>
<path opacity="0.6677" d="M954.849 317.241C954.849 319.144 956.394 320.688 958.298 320.688C960.203 320.688 961.696 319.144 961.696 317.241C961.696 315.338 960.152 313.794 958.298 313.794C956.394 313.794 954.849 315.338 954.849 317.241Z" fill="#3C3C3B"/>
<path opacity="0.779" d="M954.849 192.443C954.849 194.347 956.394 195.89 958.298 195.89C960.203 195.89 961.696 194.347 961.696 192.443C961.696 190.54 960.152 188.997 958.298 188.997C956.394 188.997 954.849 190.54 954.849 192.443Z" fill="#3C3C3B"/>
</g>
<g opacity="0.3" clip-path="url(#clip1_2002_1230)">
<path opacity="0.8516" d="M793.72 1071H794.852L785.535 1065.6V941.11L800 932.725V932.056L785.123 940.698L784.969 940.801V1065.91L793.72 1071Z" fill="#3C3C3B"/>
<path opacity="0.9669" d="M785.278 925.008L798.97 932.982V948.929L785.278 956.902L771.585 948.929V932.982L785.278 925.008ZM798.404 933.291L785.278 925.677L772.151 933.291V948.569L785.278 956.182L798.404 948.569V933.291Z" fill="#3C3C3B"/>
<path opacity="0.716" d="M776.835 1071L785.278 1066.06L793.72 1071H794.852L785.278 1065.39L775.703 1071H776.835Z" fill="#3C3C3B"/>
<path opacity="0.8412" d="M785.278 1066.06L800 1057.52V1056.85L785.278 1065.39L731.947 1034.37V972.335L785.278 941.264L800 949.855V949.186L785.432 940.698L785.278 940.595L731.536 971.872L731.381 971.975V1034.73L785.278 1066.06Z" fill="#3C3C3B"/>
<path opacity="0.994" d="M678.051 878.196L731.947 909.576V972.335L678.051 1003.71L624.154 972.335V909.576L678.051 878.196ZM731.381 909.936L678.051 878.917L624.721 909.936V971.975L678.051 1002.99L731.381 971.975V909.936Z" fill="#3C3C3B"/>
<path opacity="0.9394" d="M678.051 878.196L731.947 909.576V972.335L678.051 1003.71L624.154 972.335V909.576L678.051 878.196ZM731.381 909.936L678.051 878.917L624.721 909.936V971.975L678.051 1002.99L731.381 971.975V909.936Z" fill="#3C3C3B"/>
<path opacity="0.9775" d="M669.609 1071L678.051 1066.06L686.545 1071H687.677L678.051 1065.39L668.476 1071H669.609Z" fill="#3C3C3B"/>
<path opacity="0.7716" d="M678.051 940.595L678.205 940.698L731.947 971.975V1034.73L678.051 1066.11L624.154 1034.73V971.975L624.309 971.872L678.051 940.595ZM731.381 972.335L678.051 941.315L624.721 972.335V1034.37L678.051 1065.39L731.381 1034.37V972.335Z" fill="#3C3C3B"/>
<path opacity="0.6343" d="M669.609 1071L678.051 1066.06L686.545 1071H687.677L678.051 1065.39L668.476 1071H669.609Z" fill="#3C3C3B"/>
<path opacity="0.6715" d="M544.365 1071V1050.32L570.876 1034.89L597.386 1050.32V1071H597.953V1049.96L570.876 1034.22L543.799 1049.96V1071H544.365Z" fill="#3C3C3B"/>
<path opacity="0.9459" d="M517.545 1071V1034.73L570.876 1003.66L624.206 1034.73V1071H624.772V1034.37L570.876 1002.99L516.979 1034.37V1071H517.545Z" fill="#3C3C3B"/>
<path opacity="0.5261" d="M570.876 925.008L584.568 932.982V948.929L570.876 956.902L557.183 948.929V932.982L570.876 925.008ZM584.002 933.291L570.876 925.677L557.749 933.291V948.569L570.876 956.182L584.002 948.569V933.291Z" fill="#3C3C3B"/>
<path opacity="0.5223" d="M678.051 940.595L678.205 940.698L731.947 971.975V1034.73L678.051 1066.11L624.154 1034.73V971.975L624.309 971.872L678.051 940.595ZM731.381 972.335L678.051 941.315L624.721 972.335V1034.37L678.051 1065.39L731.381 1034.37V972.335Z" fill="#3C3C3B"/>
<path opacity="0.8962" d="M450.574 1071V1058.14L463.7 1050.47L476.776 1058.14V1071H477.342V1057.78L463.7 1049.81L450.007 1057.78V1071H450.574Z" fill="#3C3C3B"/>
<path opacity="0.5211" d="M463.7 925.008L477.393 932.982V948.929L463.7 956.902L450.008 948.929V932.982L463.7 925.008ZM476.776 933.291L463.649 925.677L450.522 933.291V948.569L463.649 956.182L476.776 948.569V933.291Z" fill="#3C3C3B"/>
<path opacity="0.6374" d="M570.876 753.399L571.03 753.502L678.36 815.952V941.11L678.205 941.213L570.876 1003.71L570.721 1003.61L463.392 941.11V815.952L463.546 815.849L570.876 753.399ZM677.793 816.312L570.876 754.068L463.958 816.312V940.801L570.876 1003.05L677.793 940.801V816.312Z" fill="#3C3C3B"/>
<path opacity="0.5189" d="M570.876 940.595L571.03 940.698L624.772 971.975V1034.73L570.876 1066.11L516.979 1034.73V971.975L517.134 971.872L570.876 940.595ZM624.206 972.335L570.876 941.315L517.545 972.335V1034.37L570.876 1065.39L624.206 1034.37V972.335Z" fill="#3C3C3B"/>
<path opacity="0.5082" d="M463.7 909.422L490.777 925.163V956.697L463.7 972.489L436.623 956.697V925.163L463.7 909.422ZM490.211 925.523L463.7 910.09L437.19 925.523V956.388L463.7 971.82L490.211 956.388V925.523Z" fill="#3C3C3B"/>
<path opacity="0.5792" d="M303.143 1071V1034.73L356.474 1003.66L409.804 1034.73V1071H410.37V1034.37L356.474 1002.99L302.732 1034.32L302.577 1034.37V1071H303.143Z" fill="#3C3C3B"/>
<path opacity="0.9861" d="M463.7 940.595L463.855 940.698L517.597 971.975V1034.73L463.7 1066.11L409.804 1034.73V971.975L409.958 971.872L463.7 940.595ZM516.979 972.335L463.649 941.315L410.319 972.335V1034.37L463.7 1065.39L516.979 1034.37V972.335Z" fill="#3C3C3B"/>
<path opacity="0.9808" d="M557.749 1071V1058.14L570.876 1050.47L584.002 1058.14V1071H584.568V1057.78L570.876 1049.81L557.183 1057.78V1071H557.749Z" fill="#3C3C3B"/>
<path opacity="0.9699" d="M303.143 1071V1034.73L356.474 1003.66L409.804 1034.73V1071H410.37V1034.37L356.474 1002.99L302.732 1034.32L302.577 1034.37V1071H303.143Z" fill="#3C3C3B"/>
<path opacity="0.9622" d="M570.876 878.196L624.772 909.576V972.335L570.876 1003.71L516.979 972.335V909.576L570.876 878.196ZM624.206 909.936L570.876 878.917L517.545 909.936V971.975L570.876 1002.99L624.206 971.975V909.936Z" fill="#3C3C3B"/>
<path opacity="0.6304" d="M570.876 878.196L624.772 909.576V972.335L570.876 1003.71L516.979 972.335V909.576L570.876 878.196ZM624.206 909.936L570.876 878.917L517.545 909.936V971.975L570.876 1002.99L624.206 971.975V909.936Z" fill="#3C3C3B"/>
<path opacity="0.8387" d="M463.7 722.174L490.777 737.966V769.5L463.7 785.241L436.623 769.5V737.966L463.7 722.174ZM490.211 738.275L463.7 722.842L437.19 738.275V769.14L463.7 784.572L490.211 769.14V738.275Z" fill="#3C3C3B"/>
<path opacity="0.9051" d="M463.7 691L517.597 722.379V785.138L463.7 816.518L409.804 785.138V722.379L463.7 691ZM516.979 722.688L463.649 691.669L410.319 722.688V784.778L463.649 815.798L516.979 784.778V722.688Z" fill="#3C3C3B"/>
<path opacity="0.6545" d="M410.37 1071V1034.73L463.7 1003.66L516.979 1034.73V1071H517.545V1034.37L463.7 1002.99L409.804 1034.37V1071H410.37Z" fill="#3C3C3B"/>
<path opacity="0.9574" d="M348.031 1071L356.474 1066.06L364.916 1071H366.048L356.474 1065.39L346.899 1071H348.031Z" fill="#3C3C3B"/>
<path opacity="0.9474" d="M356.474 753.399L356.628 753.502L463.958 815.952V941.11L463.803 941.213L356.474 1003.71L356.319 1003.61L248.99 941.11V815.952L249.144 815.849L356.474 753.399ZM463.391 816.312L356.474 754.068L249.556 816.312V940.801L356.474 1003.05L463.391 940.801V816.312Z" fill="#3C3C3B"/>
<path opacity="0.8086" d="M249.298 909.422L276.375 925.163V956.697L249.298 972.489L222.221 956.697V925.163L249.298 909.422ZM275.809 925.523L249.298 910.09L222.788 925.523V956.388L249.298 971.82L275.809 956.388V925.523Z" fill="#3C3C3B"/>
<path opacity="0.5531" d="M356.474 722.174L383.551 737.966V769.5L356.474 785.241L329.397 769.5V737.966L356.474 722.174ZM382.984 738.275L356.474 722.842L329.963 738.275V769.14L356.474 784.572L382.984 769.14V738.275Z" fill="#3C3C3B"/>
<path opacity="0.9538" d="M240.856 1071L249.298 1066.06L257.741 1071H258.873L249.298 1065.39L239.672 1071H240.856Z" fill="#3C3C3B"/>
<path opacity="0.8754" d="M88.793 1071V1034.73L142.072 1003.66L195.402 1034.73V1071H195.968V1034.37L142.072 1002.99L88.1753 1034.37V1071H88.793Z" fill="#3C3C3B"/>
<path opacity="0.5051" d="M303.143 1071V1034.73L356.474 1003.66L409.804 1034.73V1071H410.37V1034.37L356.474 1002.99L302.732 1034.32L302.577 1034.37V1071H303.143Z" fill="#3C3C3B"/>
<path opacity="0.8517" d="M151.698 1071L142.381 1065.6V941.11L249.298 878.865L356.216 941.11V1065.6L346.899 1071H348.031L356.628 1066.01L356.783 1065.91V940.801L249.401 878.299L249.298 878.196L141.969 940.698L141.814 940.801V1065.91L150.514 1071H151.698Z" fill="#3C3C3B"/>
<path opacity="0.61" d="M142.072 925.008L155.765 932.982V948.929L142.072 956.902L128.379 948.929V932.982L142.072 925.008ZM155.198 933.291L142.072 925.677L128.945 933.291V948.569L142.072 956.182L155.198 948.569V933.291Z" fill="#3C3C3B"/>
<path opacity="0.6181" d="M356.474 878.196L410.37 909.576V972.335L356.474 1003.71L356.319 1003.61L302.577 972.335V909.576L302.732 909.473L356.474 878.196ZM409.804 909.936L356.474 878.917L303.143 909.936V971.975L356.474 1002.99L409.804 971.975V909.936Z" fill="#3C3C3B"/>
<path opacity="0.876" d="M249.298 753.399L249.453 753.502L356.783 815.952V941.11L356.628 941.213L249.298 1003.71L249.144 1003.61L141.814 941.11V815.952L141.969 815.849L249.298 753.399ZM356.216 816.312L249.298 754.068L142.381 816.312V940.801L249.298 1003.05L356.216 940.801V816.312Z" fill="#3C3C3B"/>
<path opacity="0.5845" d="M249.298 722.174L276.375 737.966V769.5L249.298 785.241L222.221 769.5V737.966L249.298 722.174ZM275.809 738.275L249.298 722.842L222.788 738.275V769.14L249.298 784.572L275.809 769.14V738.275Z" fill="#3C3C3B"/>
<path opacity="0.5432" d="M356.474 753.399L356.628 753.502L410.37 784.778V847.537L356.474 878.917L356.319 878.814L302.577 847.537V784.778L302.732 784.675L356.474 753.399ZM409.804 785.087L356.474 754.068L303.143 785.087V847.177L356.474 878.196L409.804 847.177V785.087Z" fill="#3C3C3B"/>
<path opacity="0.8471" d="M-18.4338 1071V1034.73L34.8964 1003.66L88.1752 1034.73V1071H88.793V1034.37L34.8964 1002.99L-19 1034.37V1071H-18.4338Z" fill="#3C3C3B"/>
<path opacity="0.7774" d="M142.072 971.82L169.149 987.613V1019.15L142.072 1034.94L114.995 1019.15V987.613L142.072 971.82ZM168.582 987.922L142.072 972.489L115.561 987.922V1018.79L142.072 1034.22L168.582 1018.79V987.922Z" fill="#3C3C3B"/>
<path opacity="0.6187" d="M133.63 1071L142.072 1066.06L150.514 1071H151.698L142.072 1065.39L132.497 1071H133.63Z" fill="#3C3C3B"/>
<path opacity="0.6525" d="M8.38572 1071V1050.32L34.8964 1034.89L61.4071 1050.32V1071H61.9734V1049.96L34.8964 1034.22L7.81949 1049.96V1071H8.38572Z" fill="#3C3C3B"/>
<path opacity="0.6134" d="M-18.4338 1071V1034.73L34.8964 1003.66L88.1752 1034.73V1071H88.793V1034.37L34.8964 1002.99L-19 1034.37V1071H-18.4338Z" fill="#3C3C3B"/>
<path opacity="0.951" d="M249.298 878.196L303.195 909.576V972.335L249.298 1003.71L249.144 1003.61L195.402 972.335V909.576L195.556 909.473L249.298 878.196ZM302.577 909.936L249.247 878.917L195.917 909.936V971.975L249.247 1002.99L302.577 971.975V909.936Z" fill="#3C3C3B"/>
<path opacity="0.6256" d="M34.8964 753.399L35.0509 753.502L88.793 784.778V847.537L34.8964 878.917L-19 847.537V784.778L-18.8456 784.675L34.8964 753.399ZM88.1752 785.087L34.845 754.068L-18.4852 785.087V847.177L34.845 878.196L88.1752 847.177V785.087Z" fill="#3C3C3B"/>
<path opacity="0.6699" d="M249.298 753.399L249.453 753.502L303.195 784.778V847.537L249.298 878.917L249.144 878.814L195.402 847.537V784.778L195.556 784.675L249.298 753.399ZM302.577 785.087L249.247 754.068L195.917 785.087V847.177L249.247 878.196L302.577 847.177V785.087Z" fill="#3C3C3B"/>
<path opacity="0.6867" d="M781.829 925.317C781.829 923.414 783.373 921.87 785.226 921.87C787.131 921.87 788.624 923.414 788.624 925.317C788.624 927.22 787.079 928.764 785.226 928.764C783.373 928.815 781.829 927.22 781.829 925.317Z" fill="#3C3C3B"/>
<path opacity="0.975" d="M728.241 972.129C728.241 970.226 729.785 968.682 731.638 968.682C733.543 968.682 735.087 970.226 735.087 972.129C735.087 974.032 733.543 975.576 731.638 975.576C729.785 975.576 728.241 974.032 728.241 972.129Z" fill="#3C3C3B"/>
<path opacity="0.9056" d="M674.653 1065.75C674.653 1063.85 676.198 1062.31 678.102 1062.31C680.007 1062.31 681.5 1063.85 681.5 1065.75C681.5 1067.66 679.956 1069.2 678.102 1069.2C676.198 1069.2 674.653 1067.66 674.653 1065.75Z" fill="#3C3C3B"/>
<path opacity="0.862" d="M674.653 940.955C674.653 939.052 676.198 937.509 678.102 937.509C680.007 937.509 681.5 939.052 681.5 940.955C681.5 942.859 679.956 944.402 678.102 944.402C676.198 944.402 674.653 942.859 674.653 940.955Z" fill="#3C3C3B"/>
<path opacity="0.7249" d="M594.246 1050.17C594.246 1048.26 595.791 1046.72 597.644 1046.72C599.548 1046.72 601.093 1048.26 601.093 1050.17C601.093 1052.07 599.548 1053.61 597.644 1053.61C595.791 1053.61 594.246 1052.07 594.246 1050.17Z" fill="#3C3C3B"/>
<path opacity="0.5437" d="M540.659 1050.17C540.659 1048.26 542.203 1046.72 544.108 1046.72C546.012 1046.72 547.505 1048.26 547.505 1050.17C547.505 1052.07 545.961 1053.61 544.108 1053.61C542.203 1053.61 540.659 1052.07 540.659 1050.17Z" fill="#3C3C3B"/>
<path opacity="0.8559" d="M621.066 1034.53C621.066 1032.62 622.61 1031.08 624.463 1031.08C626.368 1031.08 627.861 1032.62 627.861 1034.53C627.861 1036.43 626.316 1037.97 624.463 1037.97C622.559 1037.97 621.066 1036.43 621.066 1034.53Z" fill="#3C3C3B"/>
<path opacity="0.691" d="M567.478 925.317C567.478 923.414 569.022 921.87 570.876 921.87C572.78 921.87 574.325 923.414 574.325 925.317C574.325 927.22 572.78 928.764 570.876 928.764C568.971 928.815 567.478 927.22 567.478 925.317Z" fill="#3C3C3B"/>
<path opacity="0.6169" d="M674.653 940.955C674.653 939.052 676.198 937.509 678.102 937.509C680.007 937.509 681.5 939.052 681.5 940.955C681.5 942.859 679.956 944.402 678.102 944.402C676.198 944.402 674.653 942.859 674.653 940.955Z" fill="#3C3C3B"/>
<path opacity="0.5121" d="M621.066 972.129C621.066 970.226 622.61 968.682 624.463 968.682C626.368 968.682 627.912 970.226 627.912 972.129C627.912 974.032 626.368 975.576 624.463 975.576C622.61 975.576 621.066 974.032 621.066 972.129Z" fill="#3C3C3B"/>
<path opacity="0.8706" d="M460.251 1050.17C460.251 1048.26 461.796 1046.72 463.649 1046.72C465.554 1046.72 467.098 1048.26 467.098 1050.17C467.098 1052.07 465.554 1053.61 463.649 1053.61C461.796 1053.61 460.251 1052.07 460.251 1050.17Z" fill="#3C3C3B"/>
<path opacity="0.6625" d="M446.867 948.723C446.867 946.82 448.412 945.276 450.316 945.276C452.221 945.276 453.714 946.82 453.714 948.723C453.714 950.626 452.17 952.17 450.316 952.17C448.412 952.17 446.867 950.626 446.867 948.723Z" fill="#3C3C3B"/>
<path opacity="0.6645" d="M567.478 753.759C567.478 751.856 569.022 750.312 570.876 750.312C572.78 750.312 574.325 751.856 574.325 753.759C574.325 755.662 572.78 757.206 570.876 757.206C568.971 757.206 567.478 755.662 567.478 753.759Z" fill="#3C3C3B"/>
<path opacity="0.9538" d="M460.251 816.158C460.251 814.254 461.796 812.711 463.649 812.711C465.554 812.711 467.098 814.254 467.098 816.158C467.098 818.061 465.554 819.604 463.649 819.604C461.796 819.604 460.251 818.061 460.251 816.158Z" fill="#3C3C3B"/>
<path opacity="0.6405" d="M674.653 940.955C674.653 939.052 676.198 937.509 678.102 937.509C680.007 937.509 681.5 939.052 681.5 940.955C681.5 942.859 679.956 944.402 678.102 944.402C676.198 944.402 674.653 942.859 674.653 940.955Z" fill="#3C3C3B"/>
<path opacity="0.5246" d="M567.478 940.955C567.478 939.052 569.022 937.509 570.876 937.509C572.78 937.509 574.325 939.052 574.325 940.955C574.325 942.859 572.78 944.402 570.876 944.402C568.971 944.402 567.478 942.859 567.478 940.955Z" fill="#3C3C3B"/>
<path opacity="0.7605" d="M513.839 972.129C513.839 970.226 515.383 968.682 517.288 968.682C519.193 968.682 520.685 970.226 520.685 972.129C520.685 974.032 519.141 975.576 517.288 975.576C515.383 975.576 513.839 974.032 513.839 972.129Z" fill="#3C3C3B"/>
<path opacity="0.6166" d="M513.839 1034.53C513.839 1032.62 515.383 1031.08 517.288 1031.08C519.193 1031.08 520.685 1032.62 520.685 1034.53C520.685 1036.43 519.141 1037.97 517.288 1037.97C515.383 1037.97 513.839 1036.43 513.839 1034.53Z" fill="#3C3C3B"/>
<path opacity="0.5032" d="M433.483 956.542C433.483 954.639 435.028 953.096 436.881 953.096C438.785 953.096 440.33 954.639 440.33 956.542C440.33 958.446 438.785 959.989 436.881 959.989C434.976 959.989 433.483 958.446 433.483 956.542Z" fill="#3C3C3B"/>
<path opacity="0.9074" d="M299.489 1034.53C299.489 1032.62 301.033 1031.08 302.886 1031.08C304.791 1031.08 306.284 1032.62 306.284 1034.53C306.284 1036.43 304.739 1037.97 302.886 1037.97C300.981 1037.97 299.489 1036.43 299.489 1034.53Z" fill="#3C3C3B"/>
<path opacity="0.6002" d="M586.576 1071C585.958 1070.43 585.186 1070.13 584.311 1070.13C583.436 1070.13 582.612 1070.49 582.046 1071H586.576Z" fill="#3C3C3B"/>
<path opacity="0.6002" d="M353.076 1003.35C353.076 1001.45 354.621 999.908 356.474 999.908C358.327 999.908 359.871 1001.45 359.871 1003.35C359.871 1005.26 358.327 1006.8 356.474 1006.8C354.621 1006.8 353.076 1005.26 353.076 1003.35Z" fill="#3C3C3B"/>
<path opacity="0.6607" d="M513.839 972.129C513.839 970.226 515.383 968.682 517.288 968.682C519.193 968.682 520.685 970.226 520.685 972.129C520.685 974.032 519.141 975.576 517.288 975.576C515.383 975.576 513.839 974.032 513.839 972.129Z" fill="#3C3C3B"/>
<path opacity="0.5786" d="M433.483 738.121C433.483 736.217 435.028 734.674 436.881 734.674C438.785 734.674 440.33 736.217 440.33 738.121C440.33 740.024 438.785 741.567 436.881 741.567C434.976 741.567 433.483 740.024 433.483 738.121Z" fill="#3C3C3B"/>
<path opacity="0.9283" d="M460.251 784.933C460.251 783.029 461.796 781.486 463.649 781.486C465.554 781.486 467.098 783.029 467.098 784.933C467.098 786.836 465.554 788.379 463.649 788.379C461.796 788.379 460.251 786.836 460.251 784.933Z" fill="#3C3C3B"/>
<path opacity="0.6334" d="M487.071 769.346C487.071 767.442 488.615 765.899 490.468 765.899C492.373 765.899 493.866 767.442 493.866 769.346C493.866 771.249 492.322 772.792 490.468 772.792C488.564 772.792 487.071 771.249 487.071 769.346Z" fill="#3C3C3B"/>
<path opacity="0.6939" d="M513.839 722.534C513.839 720.63 515.383 719.087 517.288 719.087C519.193 719.087 520.685 720.63 520.685 722.534C520.685 724.437 519.141 725.98 517.288 725.98C515.383 725.98 513.839 724.437 513.839 722.534Z" fill="#3C3C3B"/>
<path opacity="0.7705" d="M460.251 1003.35C460.251 1001.45 461.796 999.908 463.649 999.908C465.554 999.908 467.098 1001.45 467.098 1003.35C467.098 1005.26 465.554 1006.8 463.649 1006.8C461.796 1006.8 460.251 1005.26 460.251 1003.35Z" fill="#3C3C3B"/>
<path opacity="0.8428" d="M406.664 1034.53C406.664 1032.62 408.208 1031.08 410.113 1031.08C412.017 1031.08 413.51 1032.62 413.51 1034.53C413.51 1036.43 411.966 1037.97 410.113 1037.97C408.208 1037.97 406.664 1036.43 406.664 1034.53Z" fill="#3C3C3B"/>
<path opacity="0.9917" d="M219.081 925.317C219.081 923.414 220.626 921.87 222.53 921.87C224.435 921.87 225.928 923.414 225.928 925.317C225.928 927.22 224.383 928.764 222.53 928.764C220.574 928.815 219.081 927.22 219.081 925.317Z" fill="#3C3C3B"/>
<path opacity="0.9612" d="M219.081 956.542C219.081 954.639 220.626 953.096 222.53 953.096C224.435 953.096 225.928 954.639 225.928 956.542C225.928 958.446 224.383 959.989 222.53 959.989C220.574 959.989 219.081 958.446 219.081 956.542Z" fill="#3C3C3B"/>
<path opacity="0.6836" d="M85.0866 1034.53C85.0866 1032.62 86.631 1031.08 88.5356 1031.08C90.4403 1031.08 91.9331 1032.62 91.9331 1034.53C91.9331 1036.43 90.3888 1037.97 88.5356 1037.97C86.5795 1037.97 85.0866 1036.43 85.0866 1034.53Z" fill="#3C3C3B"/>
<path opacity="0.9087" d="M406.664 1034.53C406.664 1032.62 408.208 1031.08 410.061 1031.08C411.966 1031.08 413.51 1032.62 413.51 1034.53C413.51 1036.43 411.966 1037.97 410.061 1037.97C408.208 1037.97 406.664 1036.43 406.664 1034.53Z" fill="#3C3C3B"/>
<path opacity="0.7254" d="M299.489 1034.53C299.489 1032.62 301.033 1031.08 302.886 1031.08C304.791 1031.08 306.284 1032.62 306.284 1034.53C306.284 1036.43 304.739 1037.97 302.886 1037.97C300.981 1037.97 299.489 1036.43 299.489 1034.53Z" fill="#3C3C3B"/>
<path opacity="0.5217" d="M353.076 940.955C353.076 939.052 354.621 937.509 356.474 937.509C358.327 937.509 359.871 939.052 359.871 940.955C359.871 942.859 358.327 944.402 356.474 944.402C354.621 944.402 353.076 942.859 353.076 940.955Z" fill="#3C3C3B"/>
<path opacity="0.758" d="M353.076 1065.75C353.076 1063.85 354.621 1062.31 356.474 1062.31C358.327 1062.31 359.871 1063.85 359.871 1065.75C359.871 1067.66 358.327 1069.2 356.474 1069.2C354.621 1069.2 353.076 1067.66 353.076 1065.75Z" fill="#3C3C3B"/>
<path opacity="0.5672" d="M152.058 933.136C152.058 931.233 153.603 929.69 155.507 929.69C157.412 929.69 158.905 931.233 158.905 933.136C158.905 935.04 157.36 936.583 155.507 936.583C153.603 936.583 152.058 935.04 152.058 933.136Z" fill="#3C3C3B"/>
<path opacity="0.6639" d="M125.239 948.723C125.239 946.82 126.783 945.276 128.688 945.276C130.592 945.276 132.085 946.82 132.085 948.723C132.085 950.626 130.541 952.17 128.688 952.17C126.783 952.17 125.239 950.626 125.239 948.723Z" fill="#3C3C3B"/>
<path opacity="0.7845" d="M138.674 956.542C138.674 954.639 140.219 953.096 142.072 953.096C143.976 953.096 145.469 954.639 145.469 956.542C145.469 958.446 143.925 959.989 142.072 959.989C140.219 959.989 138.674 958.446 138.674 956.542Z" fill="#3C3C3B"/>
<path opacity="0.8686" d="M245.849 722.534C245.849 720.63 247.394 719.087 249.298 719.087C251.203 719.087 252.696 720.63 252.696 722.534C252.696 724.437 251.152 725.98 249.298 725.98C247.394 725.98 245.849 724.437 245.849 722.534Z" fill="#3C3C3B"/>
<path opacity="0.9438" d="M299.489 847.331C299.489 845.428 301.033 843.885 302.886 843.885C304.791 843.885 306.284 845.428 306.284 847.331C306.284 849.235 304.739 850.778 302.886 850.778C300.981 850.778 299.489 849.235 299.489 847.331Z" fill="#3C3C3B"/>
<path opacity="0.8488" d="M353.076 878.557C353.076 876.653 354.621 875.11 356.474 875.11C358.327 875.11 359.871 876.653 359.871 878.557C359.871 880.46 358.327 882.003 356.474 882.003C354.621 882.003 353.076 880.46 353.076 878.557Z" fill="#3C3C3B"/>
<path opacity="0.5604" d="M85.0866 1034.53C85.0866 1032.62 86.631 1031.08 88.4842 1031.08C90.3888 1031.08 91.9331 1032.62 91.9331 1034.53C91.9331 1036.43 90.3888 1037.97 88.4842 1037.97C86.5795 1037.97 85.0866 1036.43 85.0866 1034.53Z" fill="#3C3C3B"/>
<path opacity="0.8646" d="M31.4475 1003.35C31.4475 1001.45 32.9918 999.908 34.845 999.908C36.7496 999.908 38.2424 1001.45 38.2424 1003.35C38.2424 1005.26 36.6981 1006.8 34.845 1006.8C32.9918 1006.8 31.4475 1005.26 31.4475 1003.35Z" fill="#3C3C3B"/>
<path opacity="0.5312" d="M138.674 972.129C138.674 970.226 140.219 968.682 142.072 968.682C143.976 968.682 145.469 970.226 145.469 972.129C145.469 974.032 143.925 975.576 142.072 975.576C140.219 975.576 138.674 974.032 138.674 972.129Z" fill="#3C3C3B"/>
<path opacity="0.7235" d="M58.2671 1050.17C58.2671 1048.26 59.8114 1046.72 61.7161 1046.72C63.6207 1046.72 65.1135 1048.26 65.1135 1050.17C65.1135 1052.07 63.5692 1053.61 61.7161 1053.61C59.8114 1053.61 58.2671 1052.07 58.2671 1050.17Z" fill="#3C3C3B"/>
<path opacity="0.5885" d="M4.67942 1050.17C4.67942 1048.26 6.22372 1046.72 8.07689 1046.72C9.98154 1046.72 11.4744 1048.26 11.4744 1050.17C11.4744 1052.07 9.93007 1053.61 8.07689 1053.61C6.22372 1053.61 4.67942 1052.07 4.67942 1050.17Z" fill="#3C3C3B"/>
<path opacity="0.8858" d="M299.489 909.73C299.489 907.827 301.033 906.284 302.886 906.284C304.791 906.284 306.284 907.827 306.284 909.73C306.284 911.634 304.739 913.177 302.886 913.177C300.981 913.177 299.489 911.634 299.489 909.73Z" fill="#3C3C3B"/>
<path opacity="0.5875" d="M192.262 909.73C192.262 907.827 193.806 906.284 195.659 906.284C197.564 906.284 199.057 907.827 199.057 909.73C199.057 911.634 197.513 913.177 195.659 913.177C193.806 913.177 192.262 911.634 192.262 909.73Z" fill="#3C3C3B"/>
<path opacity="0.9745" d="M31.4475 878.557C31.4475 876.653 32.9918 875.11 34.845 875.11C36.7496 875.11 38.2424 876.653 38.2424 878.557C38.2424 880.46 36.6981 882.003 34.845 882.003C32.9918 882.003 31.4475 880.46 31.4475 878.557Z" fill="#3C3C3B"/>
<path opacity="0.6677" d="M245.849 753.759C245.849 751.856 247.394 750.312 249.298 750.312C251.203 750.312 252.696 751.856 252.696 753.759C252.696 755.662 251.152 757.206 249.298 757.206C247.394 757.206 245.849 755.662 245.849 753.759Z" fill="#3C3C3B"/>
<path opacity="0.779" d="M245.849 878.557C245.849 876.653 247.394 875.11 249.298 875.11C251.203 875.11 252.696 876.653 252.696 878.557C252.696 880.46 251.152 882.003 249.298 882.003C247.394 882.003 245.849 880.46 245.849 878.557Z" fill="#3C3C3B"/>
</g>
<g opacity="0.3" clip-path="url(#clip2_2002_1230)">
<path opacity="0.9669" d="M1931.28 925.008L1944.97 932.982V948.929L1931.28 956.902L1917.58 948.929V932.982L1931.28 925.008ZM1944.4 933.291L1931.28 925.677L1918.15 933.291V948.569L1931.28 956.182L1944.4 948.569V933.291Z" fill="#3C3C3B"/>
<path opacity="0.8412" d="M1931.28 1066.06L1946 1057.52V1056.85L1931.28 1065.39L1877.95 1034.37V972.335L1931.28 941.264L1946 949.855V949.186L1931.43 940.698L1931.28 940.595L1877.54 971.872L1877.38 971.975V1034.73L1931.28 1066.06Z" fill="#3C3C3B"/>
<path opacity="0.994" d="M1824.05 878.196L1877.95 909.576V972.335L1824.05 1003.71L1770.15 972.335V909.576L1824.05 878.196ZM1877.38 909.936L1824.05 878.917L1770.72 909.936V971.975L1824.05 1002.99L1877.38 971.975V909.936Z" fill="#3C3C3B"/>
<path opacity="0.9394" d="M1824.05 878.196L1877.95 909.576V972.335L1824.05 1003.71L1770.15 972.335V909.576L1824.05 878.196ZM1877.38 909.936L1824.05 878.917L1770.72 909.936V971.975L1824.05 1002.99L1877.38 971.975V909.936Z" fill="#3C3C3B"/>
<path opacity="0.9775" d="M1815.61 1071L1824.05 1066.06L1832.54 1071H1833.68L1824.05 1065.39L1814.48 1071H1815.61Z" fill="#3C3C3B"/>
<path opacity="0.7716" d="M1824.05 940.595L1824.21 940.698L1877.95 971.975V1034.73L1824.05 1066.11L1770.15 1034.73V971.975L1770.31 971.872L1824.05 940.595ZM1877.38 972.335L1824.05 941.315L1770.72 972.335V1034.37L1824.05 1065.39L1877.38 1034.37V972.335Z" fill="#3C3C3B"/>
<path opacity="0.6343" d="M1815.61 1071L1824.05 1066.06L1832.54 1071H1833.68L1824.05 1065.39L1814.48 1071H1815.61Z" fill="#3C3C3B"/>
<path opacity="0.6715" d="M1690.36 1071V1050.32L1716.88 1034.89L1743.39 1050.32V1071H1743.95V1049.96L1716.88 1034.22L1689.8 1049.96V1071H1690.36Z" fill="#3C3C3B"/>
<path opacity="0.9459" d="M1663.55 1071V1034.73L1716.88 1003.66L1770.21 1034.73V1071H1770.77V1034.37L1716.88 1002.99L1662.98 1034.37V1071H1663.55Z" fill="#3C3C3B"/>
<path opacity="0.5261" d="M1716.88 925.008L1730.57 932.982V948.929L1716.88 956.902L1703.18 948.929V932.982L1716.88 925.008ZM1730 933.291L1716.88 925.677L1703.75 933.291V948.569L1716.88 956.182L1730 948.569V933.291Z" fill="#3C3C3B"/>
<path opacity="0.5223" d="M1824.05 940.595L1824.21 940.698L1877.95 971.975V1034.73L1824.05 1066.11L1770.15 1034.73V971.975L1770.31 971.872L1824.05 940.595ZM1877.38 972.335L1824.05 941.315L1770.72 972.335V1034.37L1824.05 1065.39L1877.38 1034.37V972.335Z" fill="#3C3C3B"/>
<path opacity="0.8962" d="M1596.57 1071V1058.14L1609.7 1050.47L1622.78 1058.14V1071H1623.34V1057.78L1609.7 1049.81L1596.01 1057.78V1071H1596.57Z" fill="#3C3C3B"/>
<path opacity="0.5211" d="M1609.7 925.008L1623.39 932.982V948.929L1609.7 956.902L1596.01 948.929V932.982L1609.7 925.008ZM1622.78 933.291L1609.65 925.677L1596.52 933.291V948.569L1609.65 956.182L1622.78 948.569V933.291Z" fill="#3C3C3B"/>
<path opacity="0.6374" d="M1716.88 753.399L1717.03 753.502L1824.36 815.952V941.11L1824.21 941.213L1716.88 1003.71L1716.72 1003.61L1609.39 941.11V815.952L1609.55 815.849L1716.88 753.399ZM1823.79 816.312L1716.88 754.068L1609.96 816.312V940.801L1716.88 1003.05L1823.79 940.801V816.312Z" fill="#3C3C3B"/>
<path opacity="0.5189" d="M1716.88 940.595L1717.03 940.698L1770.77 971.975V1034.73L1716.88 1066.11L1662.98 1034.73V971.975L1663.13 971.872L1716.88 940.595ZM1770.21 972.335L1716.88 941.315L1663.55 972.335V1034.37L1716.88 1065.39L1770.21 1034.37V972.335Z" fill="#3C3C3B"/>
<path opacity="0.5082" d="M1609.7 909.422L1636.78 925.163V956.697L1609.7 972.489L1582.62 956.697V925.163L1609.7 909.422ZM1636.21 925.523L1609.7 910.09L1583.19 925.523V956.388L1609.7 971.82L1636.21 956.388V925.523Z" fill="#3C3C3B"/>
<path opacity="0.5792" d="M1449.14 1071V1034.73L1502.47 1003.66L1555.8 1034.73V1071H1556.37V1034.37L1502.47 1002.99L1448.73 1034.32L1448.58 1034.37V1071H1449.14Z" fill="#3C3C3B"/>
<path opacity="0.9861" d="M1609.7 940.595L1609.85 940.698L1663.6 971.975V1034.73L1609.7 1066.11L1555.8 1034.73V971.975L1555.96 971.872L1609.7 940.595ZM1662.98 972.335L1609.65 941.315L1556.32 972.335V1034.37L1609.7 1065.39L1662.98 1034.37V972.335Z" fill="#3C3C3B"/>
<path opacity="0.9808" d="M1703.75 1071V1058.14L1716.88 1050.47L1730 1058.14V1071H1730.57V1057.78L1716.88 1049.81L1703.18 1057.78V1071H1703.75Z" fill="#3C3C3B"/>
<path opacity="0.9699" d="M1449.14 1071V1034.73L1502.47 1003.66L1555.8 1034.73V1071H1556.37V1034.37L1502.47 1002.99L1448.73 1034.32L1448.58 1034.37V1071H1449.14Z" fill="#3C3C3B"/>
<path opacity="0.9622" d="M1716.88 878.196L1770.77 909.576V972.335L1716.88 1003.71L1662.98 972.335V909.576L1716.88 878.196ZM1770.21 909.936L1716.88 878.917L1663.55 909.936V971.975L1716.88 1002.99L1770.21 971.975V909.936Z" fill="#3C3C3B"/>
<path opacity="0.6304" d="M1716.88 878.196L1770.77 909.576V972.335L1716.88 1003.71L1662.98 972.335V909.576L1716.88 878.196ZM1770.21 909.936L1716.88 878.917L1663.55 909.936V971.975L1716.88 1002.99L1770.21 971.975V909.936Z" fill="#3C3C3B"/>
<path opacity="0.8387" d="M1609.7 722.174L1636.78 737.966V769.5L1609.7 785.241L1582.62 769.5V737.966L1609.7 722.174ZM1636.21 738.275L1609.7 722.842L1583.19 738.275V769.14L1609.7 784.572L1636.21 769.14V738.275Z" fill="#3C3C3B"/>
<path opacity="0.9051" d="M1609.7 691L1663.6 722.379V785.138L1609.7 816.518L1555.8 785.138V722.379L1609.7 691ZM1662.98 722.688L1609.65 691.669L1556.32 722.688V784.778L1609.65 815.798L1662.98 784.778V722.688Z" fill="#3C3C3B"/>
<path opacity="0.6545" d="M1556.37 1071V1034.73L1609.7 1003.66L1662.98 1034.73V1071H1663.55V1034.37L1609.7 1002.99L1555.8 1034.37V1071H1556.37Z" fill="#3C3C3B"/>
<path opacity="0.9574" d="M1494.03 1071L1502.47 1066.06L1510.92 1071H1512.05L1502.47 1065.39L1492.9 1071H1494.03Z" fill="#3C3C3B"/>
<path opacity="0.9474" d="M1502.47 753.399L1502.63 753.502L1609.96 815.952V941.11L1609.8 941.213L1502.47 1003.71L1502.32 1003.61L1394.99 941.11V815.952L1395.14 815.849L1502.47 753.399ZM1609.39 816.312L1502.47 754.068L1395.56 816.312V940.801L1502.47 1003.05L1609.39 940.801V816.312Z" fill="#3C3C3B"/>
<path opacity="0.8086" d="M1395.3 909.422L1422.38 925.163V956.697L1395.3 972.489L1368.22 956.697V925.163L1395.3 909.422ZM1421.81 925.523L1395.3 910.09L1368.79 925.523V956.388L1395.3 971.82L1421.81 956.388V925.523Z" fill="#3C3C3B"/>
<path opacity="0.5531" d="M1502.47 722.174L1529.55 737.966V769.5L1502.47 785.241L1475.4 769.5V737.966L1502.47 722.174ZM1528.98 738.275L1502.47 722.842L1475.96 738.275V769.14L1502.47 784.572L1528.98 769.14V738.275Z" fill="#3C3C3B"/>
<path opacity="0.9538" d="M1386.86 1071L1395.3 1066.06L1403.74 1071H1404.87L1395.3 1065.39L1385.67 1071H1386.86Z" fill="#3C3C3B"/>
<path opacity="0.8754" d="M1234.79 1071V1034.73L1288.07 1003.66L1341.4 1034.73V1071H1341.97V1034.37L1288.07 1002.99L1234.18 1034.37V1071H1234.79Z" fill="#3C3C3B"/>
<path opacity="0.5051" d="M1449.14 1071V1034.73L1502.47 1003.66L1555.8 1034.73V1071H1556.37V1034.37L1502.47 1002.99L1448.73 1034.32L1448.58 1034.37V1071H1449.14Z" fill="#3C3C3B"/>
<path opacity="0.8517" d="M1297.7 1071L1288.38 1065.6V941.11L1395.3 878.865L1502.22 941.11V1065.6L1492.9 1071H1494.03L1502.63 1066.01L1502.78 1065.91V940.801L1395.4 878.299L1395.3 878.196L1287.97 940.698L1287.81 940.801V1065.91L1296.51 1071H1297.7Z" fill="#3C3C3B"/>
<path opacity="0.61" d="M1288.07 925.008L1301.76 932.982V948.929L1288.07 956.902L1274.38 948.929V932.982L1288.07 925.008ZM1301.2 933.291L1288.07 925.677L1274.95 933.291V948.569L1288.07 956.182L1301.2 948.569V933.291Z" fill="#3C3C3B"/>
<path opacity="0.6181" d="M1502.47 878.196L1556.37 909.576V972.335L1502.47 1003.71L1502.32 1003.61L1448.58 972.335V909.576L1448.73 909.473L1502.47 878.196ZM1555.8 909.936L1502.47 878.917L1449.14 909.936V971.975L1502.47 1002.99L1555.8 971.975V909.936Z" fill="#3C3C3B"/>
<path opacity="0.876" d="M1395.3 753.399L1395.45 753.502L1502.78 815.952V941.11L1502.63 941.213L1395.3 1003.71L1395.14 1003.61L1287.81 941.11V815.952L1287.97 815.849L1395.3 753.399ZM1502.22 816.312L1395.3 754.068L1288.38 816.312V940.801L1395.3 1003.05L1502.22 940.801V816.312Z" fill="#3C3C3B"/>
<path opacity="0.5845" d="M1395.3 722.174L1422.38 737.966V769.5L1395.3 785.241L1368.22 769.5V737.966L1395.3 722.174ZM1421.81 738.275L1395.3 722.842L1368.79 738.275V769.14L1395.3 784.572L1421.81 769.14V738.275Z" fill="#3C3C3B"/>
<path opacity="0.5432" d="M1502.47 753.399L1502.63 753.502L1556.37 784.778V847.537L1502.47 878.917L1502.32 878.814L1448.58 847.537V784.778L1448.73 784.675L1502.47 753.399ZM1555.8 785.087L1502.47 754.068L1449.14 785.087V847.177L1502.47 878.196L1555.8 847.177V785.087Z" fill="#3C3C3B"/>
<path opacity="0.8471" d="M1127.57 1071V1034.73L1180.9 1003.66L1234.18 1034.73V1071H1234.79V1034.37L1180.9 1002.99L1127 1034.37V1071H1127.57Z" fill="#3C3C3B"/>
<path opacity="0.7774" d="M1288.07 971.82L1315.15 987.613V1019.15L1288.07 1034.94L1260.99 1019.15V987.613L1288.07 971.82ZM1314.58 987.922L1288.07 972.489L1261.56 987.922V1018.79L1288.07 1034.22L1314.58 1018.79V987.922Z" fill="#3C3C3B"/>
<path opacity="0.6187" d="M1279.63 1071L1288.07 1066.06L1296.51 1071H1297.7L1288.07 1065.39L1278.5 1071H1279.63Z" fill="#3C3C3B"/>
<path opacity="0.6525" d="M1154.39 1071V1050.32L1180.9 1034.89L1207.41 1050.32V1071H1207.97V1049.96L1180.9 1034.22L1153.82 1049.96V1071H1154.39Z" fill="#3C3C3B"/>
<path opacity="0.6134" d="M1127.57 1071V1034.73L1180.9 1003.66L1234.18 1034.73V1071H1234.79V1034.37L1180.9 1002.99L1127 1034.37V1071H1127.57Z" fill="#3C3C3B"/>
<path opacity="0.951" d="M1395.3 878.196L1449.19 909.576V972.335L1395.3 1003.71L1395.14 1003.61L1341.4 972.335V909.576L1341.56 909.473L1395.3 878.196ZM1448.58 909.936L1395.25 878.917L1341.92 909.936V971.975L1395.25 1002.99L1448.58 971.975V909.936Z" fill="#3C3C3B"/>
<path opacity="0.6256" d="M1180.9 753.399L1181.05 753.502L1234.79 784.778V847.537L1180.9 878.917L1127 847.537V784.778L1127.15 784.675L1180.9 753.399ZM1234.18 785.087L1180.84 754.068L1127.51 785.087V847.177L1180.84 878.196L1234.18 847.177V785.087Z" fill="#3C3C3B"/>
<path opacity="0.6699" d="M1395.3 753.399L1395.45 753.502L1449.19 784.778V847.537L1395.3 878.917L1395.14 878.814L1341.4 847.537V784.778L1341.56 784.675L1395.3 753.399ZM1448.58 785.087L1395.25 754.068L1341.92 785.087V847.177L1395.25 878.196L1448.58 847.177V785.087Z" fill="#3C3C3B"/>
<path opacity="0.975" d="M1874.24 972.129C1874.24 970.226 1875.79 968.682 1877.64 968.682C1879.54 968.682 1881.09 970.226 1881.09 972.129C1881.09 974.032 1879.54 975.576 1877.64 975.576C1875.79 975.576 1874.24 974.032 1874.24 972.129Z" fill="#3C3C3B"/>
<path opacity="0.9056" d="M1820.65 1065.75C1820.65 1063.85 1822.2 1062.31 1824.1 1062.31C1826.01 1062.31 1827.5 1063.85 1827.5 1065.75C1827.5 1067.66 1825.96 1069.2 1824.1 1069.2C1822.2 1069.2 1820.65 1067.66 1820.65 1065.75Z" fill="#3C3C3B"/>
<path opacity="0.862" d="M1820.65 940.955C1820.65 939.052 1822.2 937.509 1824.1 937.509C1826.01 937.509 1827.5 939.052 1827.5 940.955C1827.5 942.859 1825.96 944.402 1824.1 944.402C1822.2 944.402 1820.65 942.859 1820.65 940.955Z" fill="#3C3C3B"/>
<path opacity="0.7249" d="M1740.25 1050.17C1740.25 1048.26 1741.79 1046.72 1743.64 1046.72C1745.55 1046.72 1747.09 1048.26 1747.09 1050.17C1747.09 1052.07 1745.55 1053.61 1743.64 1053.61C1741.79 1053.61 1740.25 1052.07 1740.25 1050.17Z" fill="#3C3C3B"/>
<path opacity="0.5437" d="M1686.66 1050.17C1686.66 1048.26 1688.2 1046.72 1690.11 1046.72C1692.01 1046.72 1693.51 1048.26 1693.51 1050.17C1693.51 1052.07 1691.96 1053.61 1690.11 1053.61C1688.2 1053.61 1686.66 1052.07 1686.66 1050.17Z" fill="#3C3C3B"/>
<path opacity="0.8559" d="M1767.07 1034.53C1767.07 1032.62 1768.61 1031.08 1770.46 1031.08C1772.37 1031.08 1773.86 1032.62 1773.86 1034.53C1773.86 1036.43 1772.32 1037.97 1770.46 1037.97C1768.56 1037.97 1767.07 1036.43 1767.07 1034.53Z" fill="#3C3C3B"/>
<path opacity="0.691" d="M1713.48 925.317C1713.48 923.414 1715.02 921.87 1716.88 921.87C1718.78 921.87 1720.32 923.414 1720.32 925.317C1720.32 927.22 1718.78 928.764 1716.88 928.764C1714.97 928.815 1713.48 927.22 1713.48 925.317Z" fill="#3C3C3B"/>
<path opacity="0.6169" d="M1820.65 940.955C1820.65 939.052 1822.2 937.509 1824.1 937.509C1826.01 937.509 1827.5 939.052 1827.5 940.955C1827.5 942.859 1825.96 944.402 1824.1 944.402C1822.2 944.402 1820.65 942.859 1820.65 940.955Z" fill="#3C3C3B"/>
<path opacity="0.5121" d="M1767.07 972.129C1767.07 970.226 1768.61 968.682 1770.46 968.682C1772.37 968.682 1773.91 970.226 1773.91 972.129C1773.91 974.032 1772.37 975.576 1770.46 975.576C1768.61 975.576 1767.07 974.032 1767.07 972.129Z" fill="#3C3C3B"/>
<path opacity="0.8706" d="M1606.25 1050.17C1606.25 1048.26 1607.8 1046.72 1609.65 1046.72C1611.55 1046.72 1613.1 1048.26 1613.1 1050.17C1613.1 1052.07 1611.55 1053.61 1609.65 1053.61C1607.8 1053.61 1606.25 1052.07 1606.25 1050.17Z" fill="#3C3C3B"/>
<path opacity="0.6625" d="M1592.87 948.723C1592.87 946.82 1594.41 945.276 1596.32 945.276C1598.22 945.276 1599.71 946.82 1599.71 948.723C1599.71 950.626 1598.17 952.17 1596.32 952.17C1594.41 952.17 1592.87 950.626 1592.87 948.723Z" fill="#3C3C3B"/>
<path opacity="0.6645" d="M1713.48 753.759C1713.48 751.856 1715.02 750.312 1716.88 750.312C1718.78 750.312 1720.32 751.856 1720.32 753.759C1720.32 755.662 1718.78 757.206 1716.88 757.206C1714.97 757.206 1713.48 755.662 1713.48 753.759Z" fill="#3C3C3B"/>
<path opacity="0.9538" d="M1606.25 816.158C1606.25 814.254 1607.8 812.711 1609.65 812.711C1611.55 812.711 1613.1 814.254 1613.1 816.158C1613.1 818.061 1611.55 819.604 1609.65 819.604C1607.8 819.604 1606.25 818.061 1606.25 816.158Z" fill="#3C3C3B"/>
<path opacity="0.6405" d="M1820.65 940.955C1820.65 939.052 1822.2 937.509 1824.1 937.509C1826.01 937.509 1827.5 939.052 1827.5 940.955C1827.5 942.859 1825.96 944.402 1824.1 944.402C1822.2 944.402 1820.65 942.859 1820.65 940.955Z" fill="#3C3C3B"/>
<path opacity="0.5246" d="M1713.48 940.955C1713.48 939.052 1715.02 937.509 1716.88 937.509C1718.78 937.509 1720.32 939.052 1720.32 940.955C1720.32 942.859 1718.78 944.402 1716.88 944.402C1714.97 944.402 1713.48 942.859 1713.48 940.955Z" fill="#3C3C3B"/>
<path opacity="0.7605" d="M1659.84 972.129C1659.84 970.226 1661.38 968.682 1663.29 968.682C1665.19 968.682 1666.69 970.226 1666.69 972.129C1666.69 974.032 1665.14 975.576 1663.29 975.576C1661.38 975.576 1659.84 974.032 1659.84 972.129Z" fill="#3C3C3B"/>
<path opacity="0.6166" d="M1659.84 1034.53C1659.84 1032.62 1661.38 1031.08 1663.29 1031.08C1665.19 1031.08 1666.69 1032.62 1666.69 1034.53C1666.69 1036.43 1665.14 1037.97 1663.29 1037.97C1661.38 1037.97 1659.84 1036.43 1659.84 1034.53Z" fill="#3C3C3B"/>
<path opacity="0.5032" d="M1579.48 956.542C1579.48 954.639 1581.03 953.096 1582.88 953.096C1584.79 953.096 1586.33 954.639 1586.33 956.542C1586.33 958.446 1584.79 959.989 1582.88 959.989C1580.98 959.989 1579.48 958.446 1579.48 956.542Z" fill="#3C3C3B"/>
<path opacity="0.9074" d="M1445.49 1034.53C1445.49 1032.62 1447.03 1031.08 1448.89 1031.08C1450.79 1031.08 1452.28 1032.62 1452.28 1034.53C1452.28 1036.43 1450.74 1037.97 1448.89 1037.97C1446.98 1037.97 1445.49 1036.43 1445.49 1034.53Z" fill="#3C3C3B"/>
<path opacity="0.6002" d="M1732.58 1071C1731.96 1070.43 1731.19 1070.13 1730.31 1070.13C1729.44 1070.13 1728.61 1070.49 1728.05 1071H1732.58Z" fill="#3C3C3B"/>
<path opacity="0.6002" d="M1499.08 1003.35C1499.08 1001.45 1500.62 999.908 1502.47 999.908C1504.33 999.908 1505.87 1001.45 1505.87 1003.35C1505.87 1005.26 1504.33 1006.8 1502.47 1006.8C1500.62 1006.8 1499.08 1005.26 1499.08 1003.35Z" fill="#3C3C3B"/>
<path opacity="0.6607" d="M1659.84 972.129C1659.84 970.226 1661.38 968.682 1663.29 968.682C1665.19 968.682 1666.69 970.226 1666.69 972.129C1666.69 974.032 1665.14 975.576 1663.29 975.576C1661.38 975.576 1659.84 974.032 1659.84 972.129Z" fill="#3C3C3B"/>
<path opacity="0.5786" d="M1579.48 738.121C1579.48 736.217 1581.03 734.674 1582.88 734.674C1584.79 734.674 1586.33 736.217 1586.33 738.121C1586.33 740.024 1584.79 741.567 1582.88 741.567C1580.98 741.567 1579.48 740.024 1579.48 738.121Z" fill="#3C3C3B"/>
<path opacity="0.9283" d="M1606.25 784.933C1606.25 783.029 1607.8 781.486 1609.65 781.486C1611.55 781.486 1613.1 783.029 1613.1 784.933C1613.1 786.836 1611.55 788.379 1609.65 788.379C1607.8 788.379 1606.25 786.836 1606.25 784.933Z" fill="#3C3C3B"/>
<path opacity="0.6334" d="M1633.07 769.346C1633.07 767.442 1634.62 765.899 1636.47 765.899C1638.37 765.899 1639.87 767.442 1639.87 769.346C1639.87 771.249 1638.32 772.792 1636.47 772.792C1634.56 772.792 1633.07 771.249 1633.07 769.346Z" fill="#3C3C3B"/>
<path opacity="0.6939" d="M1659.84 722.534C1659.84 720.63 1661.38 719.087 1663.29 719.087C1665.19 719.087 1666.69 720.63 1666.69 722.534C1666.69 724.437 1665.14 725.98 1663.29 725.98C1661.38 725.98 1659.84 724.437 1659.84 722.534Z" fill="#3C3C3B"/>
<path opacity="0.7705" d="M1606.25 1003.35C1606.25 1001.45 1607.8 999.908 1609.65 999.908C1611.55 999.908 1613.1 1001.45 1613.1 1003.35C1613.1 1005.26 1611.55 1006.8 1609.65 1006.8C1607.8 1006.8 1606.25 1005.26 1606.25 1003.35Z" fill="#3C3C3B"/>
<path opacity="0.8428" d="M1552.66 1034.53C1552.66 1032.62 1554.21 1031.08 1556.11 1031.08C1558.02 1031.08 1559.51 1032.62 1559.51 1034.53C1559.51 1036.43 1557.97 1037.97 1556.11 1037.97C1554.21 1037.97 1552.66 1036.43 1552.66 1034.53Z" fill="#3C3C3B"/>
<path opacity="0.9917" d="M1365.08 925.317C1365.08 923.414 1366.63 921.87 1368.53 921.87C1370.43 921.87 1371.93 923.414 1371.93 925.317C1371.93 927.22 1370.38 928.764 1368.53 928.764C1366.57 928.815 1365.08 927.22 1365.08 925.317Z" fill="#3C3C3B"/>
<path opacity="0.9612" d="M1365.08 956.542C1365.08 954.639 1366.63 953.096 1368.53 953.096C1370.43 953.096 1371.93 954.639 1371.93 956.542C1371.93 958.446 1370.38 959.989 1368.53 959.989C1366.57 959.989 1365.08 958.446 1365.08 956.542Z" fill="#3C3C3B"/>
<path opacity="0.6836" d="M1231.09 1034.53C1231.09 1032.62 1232.63 1031.08 1234.54 1031.08C1236.44 1031.08 1237.93 1032.62 1237.93 1034.53C1237.93 1036.43 1236.39 1037.97 1234.54 1037.97C1232.58 1037.97 1231.09 1036.43 1231.09 1034.53Z" fill="#3C3C3B"/>
<path opacity="0.9087" d="M1552.66 1034.53C1552.66 1032.62 1554.21 1031.08 1556.06 1031.08C1557.97 1031.08 1559.51 1032.62 1559.51 1034.53C1559.51 1036.43 1557.97 1037.97 1556.06 1037.97C1554.21 1037.97 1552.66 1036.43 1552.66 1034.53Z" fill="#3C3C3B"/>
<path opacity="0.7254" d="M1445.49 1034.53C1445.49 1032.62 1447.03 1031.08 1448.89 1031.08C1450.79 1031.08 1452.28 1032.62 1452.28 1034.53C1452.28 1036.43 1450.74 1037.97 1448.89 1037.97C1446.98 1037.97 1445.49 1036.43 1445.49 1034.53Z" fill="#3C3C3B"/>
<path opacity="0.5217" d="M1499.08 940.955C1499.08 939.052 1500.62 937.509 1502.47 937.509C1504.33 937.509 1505.87 939.052 1505.87 940.955C1505.87 942.859 1504.33 944.402 1502.47 944.402C1500.62 944.402 1499.08 942.859 1499.08 940.955Z" fill="#3C3C3B"/>
<path opacity="0.758" d="M1499.08 1065.75C1499.08 1063.85 1500.62 1062.31 1502.47 1062.31C1504.33 1062.31 1505.87 1063.85 1505.87 1065.75C1505.87 1067.66 1504.33 1069.2 1502.47 1069.2C1500.62 1069.2 1499.08 1067.66 1499.08 1065.75Z" fill="#3C3C3B"/>
<path opacity="0.5672" d="M1298.06 933.136C1298.06 931.233 1299.6 929.69 1301.51 929.69C1303.41 929.69 1304.9 931.233 1304.9 933.136C1304.9 935.04 1303.36 936.583 1301.51 936.583C1299.6 936.583 1298.06 935.04 1298.06 933.136Z" fill="#3C3C3B"/>
<path opacity="0.6639" d="M1271.24 948.723C1271.24 946.82 1272.78 945.276 1274.69 945.276C1276.59 945.276 1278.09 946.82 1278.09 948.723C1278.09 950.626 1276.54 952.17 1274.69 952.17C1272.78 952.17 1271.24 950.626 1271.24 948.723Z" fill="#3C3C3B"/>
<path opacity="0.7845" d="M1284.67 956.542C1284.67 954.639 1286.22 953.096 1288.07 953.096C1289.98 953.096 1291.47 954.639 1291.47 956.542C1291.47 958.446 1289.92 959.989 1288.07 959.989C1286.22 959.989 1284.67 958.446 1284.67 956.542Z" fill="#3C3C3B"/>
<path opacity="0.8686" d="M1391.85 722.534C1391.85 720.63 1393.39 719.087 1395.3 719.087C1397.2 719.087 1398.7 720.63 1398.7 722.534C1398.7 724.437 1397.15 725.98 1395.3 725.98C1393.39 725.98 1391.85 724.437 1391.85 722.534Z" fill="#3C3C3B"/>
<path opacity="0.9438" d="M1445.49 847.331C1445.49 845.428 1447.03 843.885 1448.89 843.885C1450.79 843.885 1452.28 845.428 1452.28 847.331C1452.28 849.235 1450.74 850.778 1448.89 850.778C1446.98 850.778 1445.49 849.235 1445.49 847.331Z" fill="#3C3C3B"/>
<path opacity="0.8488" d="M1499.08 878.557C1499.08 876.653 1500.62 875.11 1502.47 875.11C1504.33 875.11 1505.87 876.653 1505.87 878.557C1505.87 880.46 1504.33 882.003 1502.47 882.003C1500.62 882.003 1499.08 880.46 1499.08 878.557Z" fill="#3C3C3B"/>
<path opacity="0.5604" d="M1231.09 1034.53C1231.09 1032.62 1232.63 1031.08 1234.48 1031.08C1236.39 1031.08 1237.93 1032.62 1237.93 1034.53C1237.93 1036.43 1236.39 1037.97 1234.48 1037.97C1232.58 1037.97 1231.09 1036.43 1231.09 1034.53Z" fill="#3C3C3B"/>
<path opacity="0.8646" d="M1177.45 1003.35C1177.45 1001.45 1178.99 999.908 1180.85 999.908C1182.75 999.908 1184.24 1001.45 1184.24 1003.35C1184.24 1005.26 1182.7 1006.8 1180.85 1006.8C1178.99 1006.8 1177.45 1005.26 1177.45 1003.35Z" fill="#3C3C3B"/>
<path opacity="0.5312" d="M1284.67 972.129C1284.67 970.226 1286.22 968.682 1288.07 968.682C1289.98 968.682 1291.47 970.226 1291.47 972.129C1291.47 974.032 1289.92 975.576 1288.07 975.576C1286.22 975.576 1284.67 974.032 1284.67 972.129Z" fill="#3C3C3B"/>
<path opacity="0.7235" d="M1204.27 1050.17C1204.27 1048.26 1205.81 1046.72 1207.72 1046.72C1209.62 1046.72 1211.11 1048.26 1211.11 1050.17C1211.11 1052.07 1209.57 1053.61 1207.72 1053.61C1205.81 1053.61 1204.27 1052.07 1204.27 1050.17Z" fill="#3C3C3B"/>
<path opacity="0.5885" d="M1150.68 1050.17C1150.68 1048.26 1152.22 1046.72 1154.08 1046.72C1155.98 1046.72 1157.47 1048.26 1157.47 1050.17C1157.47 1052.07 1155.93 1053.61 1154.08 1053.61C1152.22 1053.61 1150.68 1052.07 1150.68 1050.17Z" fill="#3C3C3B"/>
<path opacity="0.8858" d="M1445.49 909.73C1445.49 907.827 1447.03 906.284 1448.89 906.284C1450.79 906.284 1452.28 907.827 1452.28 909.73C1452.28 911.634 1450.74 913.177 1448.89 913.177C1446.98 913.177 1445.49 911.634 1445.49 909.73Z" fill="#3C3C3B"/>
<path opacity="0.5875" d="M1338.26 909.73C1338.26 907.827 1339.81 906.284 1341.66 906.284C1343.56 906.284 1345.06 907.827 1345.06 909.73C1345.06 911.634 1343.51 913.177 1341.66 913.177C1339.81 913.177 1338.26 911.634 1338.26 909.73Z" fill="#3C3C3B"/>
<path opacity="0.9745" d="M1177.45 878.557C1177.45 876.653 1178.99 875.11 1180.85 875.11C1182.75 875.11 1184.24 876.653 1184.24 878.557C1184.24 880.46 1182.7 882.003 1180.85 882.003C1178.99 882.003 1177.45 880.46 1177.45 878.557Z" fill="#3C3C3B"/>
<path opacity="0.6677" d="M1391.85 753.759C1391.85 751.856 1393.39 750.312 1395.3 750.312C1397.2 750.312 1398.7 751.856 1398.7 753.759C1398.7 755.662 1397.15 757.206 1395.3 757.206C1393.39 757.206 1391.85 755.662 1391.85 753.759Z" fill="#3C3C3B"/>
<path opacity="0.779" d="M1391.85 878.557C1391.85 876.653 1393.39 875.11 1395.3 875.11C1397.2 875.11 1398.7 876.653 1398.7 878.557C1398.7 880.46 1397.15 882.003 1395.3 882.003C1393.39 882.003 1391.85 880.46 1391.85 878.557Z" fill="#3C3C3B"/>
</g>
<defs>
<clipPath id="clip0_2002_1230">
<rect width="819" height="380" fill="white" transform="matrix(-1 0 0 1 1509 0)"/>
</clipPath>
<clipPath id="clip1_2002_1230">
<rect width="819" height="380" fill="white" transform="matrix(-1 0 0 -1 800 1071)"/>
</clipPath>
<clipPath id="clip2_2002_1230">
<rect width="819" height="380" fill="white" transform="matrix(-1 0 0 -1 1946 1071)"/>
</clipPath>
</defs>
</svg>
