<svg width="1920" height="1012" viewBox="0 0 1920 1012" fill="none" xmlns="http://www.w3.org/2000/svg">
<g opacity="0.3" clip-path="url(#clip0_2002_1233)">
<path opacity="0.8516" d="M1913.72 0H1914.85L1905.53 5.40138V129.89L1920 138.275V138.944L1905.12 130.302L1904.97 130.199V5.09273L1913.72 0Z" fill="#3C3C3B"/>
<path opacity="0.9669" d="M1905.28 145.992L1918.97 138.018V122.071L1905.28 114.098L1891.58 122.071V138.018L1905.28 145.992ZM1918.4 137.709L1905.28 145.323L1892.15 137.709V122.431L1905.28 114.818L1918.4 122.431V137.709Z" fill="#3C3C3B"/>
<path opacity="0.716" d="M1896.84 0L1905.28 4.93841L1913.72 0H1914.85L1905.28 5.60715L1895.7 0H1896.84Z" fill="#3C3C3B"/>
<path opacity="0.8412" d="M1905.28 4.93835L1920 13.4777V14.1464L1905.28 5.6071L1851.95 36.6265V98.6652L1905.28 129.736L1920 121.145V121.814L1905.43 130.302L1905.28 130.405L1851.54 99.1281L1851.38 99.0253V36.2664L1905.28 4.93835Z" fill="#3C3C3B"/>
<path opacity="0.994" d="M1798.05 192.804L1851.95 161.424V98.6652L1798.05 67.2858L1744.15 98.6652V161.424L1798.05 192.804ZM1851.38 161.064L1798.05 192.083L1744.72 161.064V99.0253L1798.05 68.0059L1851.38 99.0253V161.064Z" fill="#3C3C3B"/>
<path opacity="0.9394" d="M1798.05 192.804L1851.95 161.424V98.6652L1798.05 67.2858L1744.15 98.6652V161.424L1798.05 192.804ZM1851.38 161.064L1798.05 192.083L1744.72 161.064V99.0253L1798.05 68.0059L1851.38 99.0253V161.064Z" fill="#3C3C3B"/>
<path opacity="0.9775" d="M1789.61 0L1798.05 4.93841L1806.54 0H1807.68L1798.05 5.60715L1788.48 0H1789.61Z" fill="#3C3C3B"/>
<path opacity="0.7716" d="M1798.05 130.405L1798.21 130.302L1851.95 99.0253V36.2664L1798.05 4.88696L1744.15 36.2664V99.0253L1744.31 99.1282L1798.05 130.405ZM1851.38 98.6652L1798.05 129.685L1744.72 98.6652V36.6265L1798.05 5.60715L1851.38 36.6265V98.6652Z" fill="#3C3C3B"/>
<path opacity="0.6343" d="M1789.61 0L1798.05 4.93841L1806.54 0H1807.68L1798.05 5.60715L1788.48 0H1789.61Z" fill="#3C3C3B"/>
<path opacity="0.6715" d="M1664.36 0V20.6796L1690.88 36.1121L1717.39 20.6796V0H1717.95V21.0397L1690.88 36.7808L1663.8 21.0397V0H1664.36Z" fill="#3C3C3B"/>
<path opacity="0.9459" d="M1637.55 0V36.2664L1690.88 67.3372L1744.21 36.2664V0H1744.77V36.6265L1690.88 68.006L1636.98 36.6265V0H1637.55Z" fill="#3C3C3B"/>
<path opacity="0.5261" d="M1690.88 145.992L1704.57 138.018V122.071L1690.88 114.098L1677.18 122.071V138.018L1690.88 145.992ZM1704 137.709L1690.88 145.323L1677.75 137.709V122.431L1690.88 114.818L1704 122.431V137.709Z" fill="#3C3C3B"/>
<path opacity="0.5223" d="M1798.05 130.405L1798.21 130.302L1851.95 99.0253V36.2664L1798.05 4.88696L1744.15 36.2664V99.0253L1744.31 99.1282L1798.05 130.405ZM1851.38 98.6652L1798.05 129.685L1744.72 98.6652V36.6265L1798.05 5.60715L1851.38 36.6265V98.6652Z" fill="#3C3C3B"/>
<path opacity="0.8962" d="M1570.57 0V12.8604L1583.7 20.5252L1596.78 12.8604V0H1597.34V13.2205L1583.7 21.194L1570.01 13.2205V0H1570.57Z" fill="#3C3C3B"/>
<path opacity="0.5211" d="M1583.7 145.992L1597.39 138.018V122.071L1583.7 114.098L1570.01 122.071V138.018L1583.7 145.992ZM1596.78 137.709L1583.65 145.323L1570.52 137.709V122.431L1583.65 114.818L1596.78 122.431V137.709Z" fill="#3C3C3B"/>
<path opacity="0.6374" d="M1690.88 317.601L1691.03 317.498L1798.36 255.048V129.89L1798.21 129.787L1690.88 67.2858L1690.72 67.3886L1583.39 129.89V255.048L1583.55 255.151L1690.88 317.601ZM1797.79 254.688L1690.88 316.932L1583.96 254.688V130.199L1690.88 67.9545L1797.79 130.199V254.688Z" fill="#3C3C3B"/>
<path opacity="0.5189" d="M1690.88 130.405L1691.03 130.302L1744.77 99.0253V36.2664L1690.88 4.88696L1636.98 36.2664V99.0253L1637.13 99.1282L1690.88 130.405ZM1744.21 98.6652L1690.88 129.685L1637.55 98.6652V36.6265L1690.88 5.60715L1744.21 36.6265V98.6652Z" fill="#3C3C3B"/>
<path opacity="0.5082" d="M1583.7 161.579L1610.78 145.837V114.304L1583.7 98.511L1556.62 114.304V145.837L1583.7 161.579ZM1610.21 145.477L1583.7 160.91L1557.19 145.477V114.612L1583.7 99.1797L1610.21 114.612V145.477Z" fill="#3C3C3B"/>
<path opacity="0.5792" d="M1423.14 0V36.2664L1476.47 67.3372L1529.8 36.2664V0H1530.37V36.6265L1476.47 68.006L1422.73 36.6779L1422.58 36.6265V0H1423.14Z" fill="#3C3C3B"/>
<path opacity="0.9861" d="M1583.7 130.405L1583.85 130.302L1637.6 99.0253V36.2664L1583.7 4.88696L1529.8 36.2664V99.0253L1529.96 99.1282L1583.7 130.405ZM1636.98 98.6652L1583.65 129.685L1530.32 98.6652V36.6265L1583.7 5.60715L1636.98 36.6265V98.6652Z" fill="#3C3C3B"/>
<path opacity="0.9808" d="M1677.75 0V12.8604L1690.88 20.5252L1704 12.8604V0H1704.57V13.2205L1690.88 21.194L1677.18 13.2205V0H1677.75Z" fill="#3C3C3B"/>
<path opacity="0.9699" d="M1423.14 0V36.2664L1476.47 67.3372L1529.8 36.2664V0H1530.37V36.6265L1476.47 68.006L1422.73 36.6779L1422.58 36.6265V0H1423.14Z" fill="#3C3C3B"/>
<path opacity="0.9622" d="M1690.88 192.804L1744.77 161.424V98.6652L1690.88 67.2858L1636.98 98.6652V161.424L1690.88 192.804ZM1744.21 161.064L1690.88 192.083L1637.55 161.064V99.0253L1690.88 68.0059L1744.21 99.0253V161.064Z" fill="#3C3C3B"/>
<path opacity="0.6304" d="M1690.88 192.804L1744.77 161.424V98.6652L1690.88 67.2858L1636.98 98.6652V161.424L1690.88 192.804ZM1744.21 161.064L1690.88 192.083L1637.55 161.064V99.0253L1690.88 68.0059L1744.21 99.0253V161.064Z" fill="#3C3C3B"/>
<path opacity="0.8387" d="M1583.7 348.826L1610.78 333.034V301.5L1583.7 285.759L1556.62 301.5V333.034L1583.7 348.826ZM1610.21 332.725L1583.7 348.158L1557.19 332.725V301.86L1583.7 286.428L1610.21 301.86V332.725Z" fill="#3C3C3B"/>
<path opacity="0.9051" d="M1583.7 380L1637.6 348.621V285.862L1583.7 254.482L1529.8 285.862V348.621L1583.7 380ZM1636.98 348.312L1583.65 379.331L1530.32 348.312V286.222L1583.65 255.202L1636.98 286.222V348.312Z" fill="#3C3C3B"/>
<path opacity="0.6545" d="M1530.37 0V36.2664L1583.7 67.3372L1636.98 36.2664V0H1637.55V36.6265L1583.7 68.006L1529.8 36.6265V0H1530.37Z" fill="#3C3C3B"/>
<path opacity="0.9574" d="M1468.03 0L1476.47 4.93841L1484.92 0H1486.05L1476.47 5.60715L1466.9 0H1468.03Z" fill="#3C3C3B"/>
<path opacity="0.9474" d="M1476.47 317.601L1476.63 317.498L1583.96 255.048V129.89L1583.8 129.787L1476.47 67.2858L1476.32 67.3886L1368.99 129.89V255.048L1369.14 255.151L1476.47 317.601ZM1583.39 254.688L1476.47 316.932L1369.56 254.688V130.199L1476.47 67.9545L1583.39 130.199V254.688Z" fill="#3C3C3B"/>
<path opacity="0.8086" d="M1369.3 161.579L1396.38 145.837V114.304L1369.3 98.511L1342.22 114.304V145.837L1369.3 161.579ZM1395.81 145.477L1369.3 160.91L1342.79 145.477V114.612L1369.3 99.1797L1395.81 114.612V145.477Z" fill="#3C3C3B"/>
<path opacity="0.5531" d="M1476.47 348.826L1503.55 333.034V301.5L1476.47 285.759L1449.4 301.5V333.034L1476.47 348.826ZM1502.98 332.725L1476.47 348.158L1449.96 332.725V301.86L1476.47 286.428L1502.98 301.86V332.725Z" fill="#3C3C3B"/>
<path opacity="0.9538" d="M1360.86 0L1369.3 4.93841L1377.74 0H1378.87L1369.3 5.60715L1359.67 0H1360.86Z" fill="#3C3C3B"/>
<path opacity="0.8754" d="M1208.79 0V36.2664L1262.07 67.3372L1315.4 36.2664V0H1315.97V36.6265L1262.07 68.006L1208.18 36.6265V0H1208.79Z" fill="#3C3C3B"/>
<path opacity="0.5051" d="M1423.14 0V36.2664L1476.47 67.3372L1529.8 36.2664V0H1530.37V36.6265L1476.47 68.006L1422.73 36.6779L1422.58 36.6265V0H1423.14Z" fill="#3C3C3B"/>
<path opacity="0.8517" d="M1271.7 0L1262.38 5.40138V129.89L1369.3 192.135L1476.22 129.89V5.40138L1466.9 0H1468.03L1476.63 4.98985L1476.78 5.09273V130.199L1369.4 192.701L1369.3 192.804L1261.97 130.302L1261.81 130.199V5.09273L1270.51 0H1271.7Z" fill="#3C3C3B"/>
<path opacity="0.61" d="M1262.07 145.992L1275.76 138.018V122.071L1262.07 114.098L1248.38 122.071V138.018L1262.07 145.992ZM1275.2 137.709L1262.07 145.323L1248.95 137.709V122.431L1262.07 114.818L1275.2 122.431V137.709Z" fill="#3C3C3B"/>
<path opacity="0.6181" d="M1476.47 192.804L1530.37 161.424V98.6652L1476.47 67.2858L1476.32 67.3886L1422.58 98.6652V161.424L1422.73 161.527L1476.47 192.804ZM1529.8 161.064L1476.47 192.083L1423.14 161.064V99.0253L1476.47 68.0059L1529.8 99.0253V161.064Z" fill="#3C3C3B"/>
<path opacity="0.876" d="M1369.3 317.601L1369.45 317.498L1476.78 255.048V129.89L1476.63 129.787L1369.3 67.2858L1369.14 67.3886L1261.81 129.89V255.048L1261.97 255.151L1369.3 317.601ZM1476.22 254.688L1369.3 316.932L1262.38 254.688V130.199L1369.3 67.9545L1476.22 130.199V254.688Z" fill="#3C3C3B"/>
<path opacity="0.5845" d="M1369.3 348.826L1396.38 333.034V301.5L1369.3 285.759L1342.22 301.5V333.034L1369.3 348.826ZM1395.81 332.725L1369.3 348.158L1342.79 332.725V301.86L1369.3 286.428L1395.81 301.86V332.725Z" fill="#3C3C3B"/>
<path opacity="0.5432" d="M1476.47 317.601L1476.63 317.498L1530.37 286.222V223.463L1476.47 192.083L1476.32 192.186L1422.58 223.463V286.222L1422.73 286.325L1476.47 317.601ZM1529.8 285.913L1476.47 316.933L1423.14 285.913V223.823L1476.47 192.804L1529.8 223.823V285.913Z" fill="#3C3C3B"/>
<path opacity="0.8471" d="M1101.57 0V36.2664L1154.9 67.3372L1208.18 36.2664V0H1208.79V36.6265L1154.9 68.006L1101 36.6265V0H1101.57Z" fill="#3C3C3B"/>
<path opacity="0.7774" d="M1262.07 99.1797L1289.15 83.3871V51.8533L1262.07 36.0607L1234.99 51.8533V83.3871L1262.07 99.1797ZM1288.58 83.0784L1262.07 98.5109L1235.56 83.0784V52.2134L1262.07 36.7809L1288.58 52.2134V83.0784Z" fill="#3C3C3B"/>
<path opacity="0.6187" d="M1253.63 0L1262.07 4.93841L1270.51 0H1271.7L1262.07 5.60715L1252.5 0H1253.63Z" fill="#3C3C3B"/>
<path opacity="0.6525" d="M1128.39 0V20.6796L1154.9 36.1121L1181.41 20.6796V0H1181.97V21.0397L1154.9 36.7808L1127.82 21.0397V0H1128.39Z" fill="#3C3C3B"/>
<path opacity="0.6134" d="M1101.57 0V36.2664L1154.9 67.3372L1208.18 36.2664V0H1208.79V36.6265L1154.9 68.006L1101 36.6265V0H1101.57Z" fill="#3C3C3B"/>
<path opacity="0.951" d="M1369.3 192.804L1423.19 161.424V98.6652L1369.3 67.2858L1369.14 67.3886L1315.4 98.6652V161.424L1315.56 161.527L1369.3 192.804ZM1422.58 161.064L1369.25 192.083L1315.92 161.064V99.0253L1369.25 68.0059L1422.58 99.0253V161.064Z" fill="#3C3C3B"/>
<path opacity="0.6256" d="M1154.9 317.601L1155.05 317.498L1208.79 286.222V223.463L1154.9 192.083L1101 223.463V286.222L1101.15 286.325L1154.9 317.601ZM1208.18 285.913L1154.84 316.933L1101.51 285.913V223.823L1154.84 192.804L1208.18 223.823V285.913Z" fill="#3C3C3B"/>
<path opacity="0.6699" d="M1369.3 317.601L1369.45 317.498L1423.19 286.222V223.463L1369.3 192.083L1369.14 192.186L1315.4 223.463V286.222L1315.56 286.325L1369.3 317.601ZM1422.58 285.913L1369.25 316.933L1315.92 285.913V223.823L1369.25 192.804L1422.58 223.823V285.913Z" fill="#3C3C3B"/>
<path opacity="0.6867" d="M1901.83 145.683C1901.83 147.586 1903.37 149.13 1905.23 149.13C1907.13 149.13 1908.62 147.586 1908.62 145.683C1908.62 143.78 1907.08 142.236 1905.23 142.236C1903.37 142.185 1901.83 143.78 1901.83 145.683Z" fill="#3C3C3B"/>
<path opacity="0.975" d="M1848.24 98.8709C1848.24 100.774 1849.79 102.318 1851.64 102.318C1853.54 102.318 1855.09 100.774 1855.09 98.8709C1855.09 96.9676 1853.54 95.4243 1851.64 95.4243C1849.79 95.4243 1848.24 96.9676 1848.24 98.8709Z" fill="#3C3C3B"/>
<path opacity="0.9056" d="M1794.65 5.24701C1794.65 7.15035 1796.2 8.69361 1798.1 8.69361C1800.01 8.69361 1801.5 7.15035 1801.5 5.24701C1801.5 3.34367 1799.96 1.80042 1798.1 1.80042C1796.2 1.80042 1794.65 3.34367 1794.65 5.24701Z" fill="#3C3C3B"/>
<path opacity="0.862" d="M1794.65 130.045C1794.65 131.948 1796.2 133.491 1798.1 133.491C1800.01 133.491 1801.5 131.948 1801.5 130.045C1801.5 128.141 1799.96 126.598 1798.1 126.598C1796.2 126.598 1794.65 128.141 1794.65 130.045Z" fill="#3C3C3B"/>
<path opacity="0.7249" d="M1714.25 20.8339C1714.25 22.7373 1715.79 24.2805 1717.64 24.2805C1719.55 24.2805 1721.09 22.7373 1721.09 20.8339C1721.09 18.9306 1719.55 17.3873 1717.64 17.3873C1715.79 17.3873 1714.25 18.9306 1714.25 20.8339Z" fill="#3C3C3B"/>
<path opacity="0.5437" d="M1660.66 20.8339C1660.66 22.7373 1662.2 24.2805 1664.11 24.2805C1666.01 24.2805 1667.51 22.7373 1667.51 20.8339C1667.51 18.9306 1665.96 17.3873 1664.11 17.3873C1662.2 17.3873 1660.66 18.9306 1660.66 20.8339Z" fill="#3C3C3B"/>
<path opacity="0.8559" d="M1741.07 36.4722C1741.07 38.3756 1742.61 39.9188 1744.46 39.9188C1746.37 39.9188 1747.86 38.3756 1747.86 36.4722C1747.86 34.5689 1746.32 33.0256 1744.46 33.0256C1742.56 33.0256 1741.07 34.5689 1741.07 36.4722Z" fill="#3C3C3B"/>
<path opacity="0.691" d="M1687.48 145.683C1687.48 147.586 1689.02 149.13 1690.88 149.13C1692.78 149.13 1694.32 147.586 1694.32 145.683C1694.32 143.78 1692.78 142.236 1690.88 142.236C1688.97 142.185 1687.48 143.78 1687.48 145.683Z" fill="#3C3C3B"/>
<path opacity="0.6169" d="M1794.65 130.045C1794.65 131.948 1796.2 133.491 1798.1 133.491C1800.01 133.491 1801.5 131.948 1801.5 130.045C1801.5 128.141 1799.96 126.598 1798.1 126.598C1796.2 126.598 1794.65 128.141 1794.65 130.045Z" fill="#3C3C3B"/>
<path opacity="0.5121" d="M1741.07 98.8709C1741.07 100.774 1742.61 102.318 1744.46 102.318C1746.37 102.318 1747.91 100.774 1747.91 98.8709C1747.91 96.9676 1746.37 95.4243 1744.46 95.4243C1742.61 95.4243 1741.07 96.9676 1741.07 98.8709Z" fill="#3C3C3B"/>
<path opacity="0.8706" d="M1580.25 20.8339C1580.25 22.7373 1581.8 24.2805 1583.65 24.2805C1585.55 24.2805 1587.1 22.7373 1587.1 20.8339C1587.1 18.9306 1585.55 17.3873 1583.65 17.3873C1581.8 17.3873 1580.25 18.9306 1580.25 20.8339Z" fill="#3C3C3B"/>
<path opacity="0.6625" d="M1566.87 122.277C1566.87 124.18 1568.41 125.724 1570.32 125.724C1572.22 125.724 1573.71 124.18 1573.71 122.277C1573.71 120.374 1572.17 118.83 1570.32 118.83C1568.41 118.83 1566.87 120.374 1566.87 122.277Z" fill="#3C3C3B"/>
<path opacity="0.6645" d="M1687.48 317.241C1687.48 319.144 1689.02 320.688 1690.88 320.688C1692.78 320.688 1694.32 319.144 1694.32 317.241C1694.32 315.338 1692.78 313.794 1690.88 313.794C1688.97 313.794 1687.48 315.338 1687.48 317.241Z" fill="#3C3C3B"/>
<path opacity="0.9538" d="M1580.25 254.842C1580.25 256.746 1581.8 258.289 1583.65 258.289C1585.55 258.289 1587.1 256.746 1587.1 254.842C1587.1 252.939 1585.55 251.396 1583.65 251.396C1581.8 251.396 1580.25 252.939 1580.25 254.842Z" fill="#3C3C3B"/>
<path opacity="0.6405" d="M1794.65 130.045C1794.65 131.948 1796.2 133.491 1798.1 133.491C1800.01 133.491 1801.5 131.948 1801.5 130.045C1801.5 128.141 1799.96 126.598 1798.1 126.598C1796.2 126.598 1794.65 128.141 1794.65 130.045Z" fill="#3C3C3B"/>
<path opacity="0.5246" d="M1687.48 130.045C1687.48 131.948 1689.02 133.491 1690.88 133.491C1692.78 133.491 1694.32 131.948 1694.32 130.045C1694.32 128.141 1692.78 126.598 1690.88 126.598C1688.97 126.598 1687.48 128.141 1687.48 130.045Z" fill="#3C3C3B"/>
<path opacity="0.7605" d="M1633.84 98.8709C1633.84 100.774 1635.38 102.318 1637.29 102.318C1639.19 102.318 1640.69 100.774 1640.69 98.8709C1640.69 96.9676 1639.14 95.4243 1637.29 95.4243C1635.38 95.4243 1633.84 96.9676 1633.84 98.8709Z" fill="#3C3C3B"/>
<path opacity="0.6166" d="M1633.84 36.4722C1633.84 38.3756 1635.38 39.9188 1637.29 39.9188C1639.19 39.9188 1640.69 38.3756 1640.69 36.4722C1640.69 34.5689 1639.14 33.0256 1637.29 33.0256C1635.38 33.0256 1633.84 34.5689 1633.84 36.4722Z" fill="#3C3C3B"/>
<path opacity="0.5032" d="M1553.48 114.458C1553.48 116.361 1555.03 117.904 1556.88 117.904C1558.79 117.904 1560.33 116.361 1560.33 114.458C1560.33 112.554 1558.79 111.011 1556.88 111.011C1554.98 111.011 1553.48 112.554 1553.48 114.458Z" fill="#3C3C3B"/>
<path opacity="0.9074" d="M1419.49 36.4722C1419.49 38.3756 1421.03 39.9188 1422.89 39.9188C1424.79 39.9188 1426.28 38.3756 1426.28 36.4722C1426.28 34.5689 1424.74 33.0256 1422.89 33.0256C1420.98 33.0256 1419.49 34.5689 1419.49 36.4722Z" fill="#3C3C3B"/>
<path opacity="0.6002" d="M1706.58 0C1705.96 0.565859 1705.19 0.874509 1704.31 0.874509C1703.44 0.874509 1702.61 0.514417 1702.05 0H1706.58Z" fill="#3C3C3B"/>
<path opacity="0.6002" d="M1473.08 67.6458C1473.08 69.5492 1474.62 71.0924 1476.47 71.0924C1478.33 71.0924 1479.87 69.5492 1479.87 67.6458C1479.87 65.7425 1478.33 64.1992 1476.47 64.1992C1474.62 64.1992 1473.08 65.7425 1473.08 67.6458Z" fill="#3C3C3B"/>
<path opacity="0.6607" d="M1633.84 98.8709C1633.84 100.774 1635.38 102.318 1637.29 102.318C1639.19 102.318 1640.69 100.774 1640.69 98.8709C1640.69 96.9676 1639.14 95.4243 1637.29 95.4243C1635.38 95.4243 1633.84 96.9676 1633.84 98.8709Z" fill="#3C3C3B"/>
<path opacity="0.5786" d="M1553.48 332.879C1553.48 334.783 1555.03 336.326 1556.88 336.326C1558.79 336.326 1560.33 334.783 1560.33 332.879C1560.33 330.976 1558.79 329.433 1556.88 329.433C1554.98 329.433 1553.48 330.976 1553.48 332.879Z" fill="#3C3C3B"/>
<path opacity="0.9283" d="M1580.25 286.067C1580.25 287.971 1581.8 289.514 1583.65 289.514C1585.55 289.514 1587.1 287.971 1587.1 286.067C1587.1 284.164 1585.55 282.621 1583.65 282.621C1581.8 282.621 1580.25 284.164 1580.25 286.067Z" fill="#3C3C3B"/>
<path opacity="0.6334" d="M1607.07 301.654C1607.07 303.558 1608.62 305.101 1610.47 305.101C1612.37 305.101 1613.87 303.558 1613.87 301.654C1613.87 299.751 1612.32 298.208 1610.47 298.208C1608.56 298.208 1607.07 299.751 1607.07 301.654Z" fill="#3C3C3B"/>
<path opacity="0.6939" d="M1633.84 348.466C1633.84 350.369 1635.38 351.913 1637.29 351.913C1639.19 351.913 1640.69 350.369 1640.69 348.466C1640.69 346.563 1639.14 345.02 1637.29 345.02C1635.38 345.02 1633.84 346.563 1633.84 348.466Z" fill="#3C3C3B"/>
<path opacity="0.7705" d="M1580.25 67.6458C1580.25 69.5492 1581.8 71.0924 1583.65 71.0924C1585.55 71.0924 1587.1 69.5492 1587.1 67.6458C1587.1 65.7425 1585.55 64.1992 1583.65 64.1992C1581.8 64.1992 1580.25 65.7425 1580.25 67.6458Z" fill="#3C3C3B"/>
<path opacity="0.8428" d="M1526.66 36.4722C1526.66 38.3756 1528.21 39.9188 1530.11 39.9188C1532.02 39.9188 1533.51 38.3756 1533.51 36.4722C1533.51 34.5689 1531.97 33.0256 1530.11 33.0256C1528.21 33.0256 1526.66 34.5689 1526.66 36.4722Z" fill="#3C3C3B"/>
<path opacity="0.9917" d="M1339.08 145.683C1339.08 147.586 1340.63 149.13 1342.53 149.13C1344.43 149.13 1345.93 147.586 1345.93 145.683C1345.93 143.78 1344.38 142.236 1342.53 142.236C1340.57 142.185 1339.08 143.78 1339.08 145.683Z" fill="#3C3C3B"/>
<path opacity="0.9612" d="M1339.08 114.458C1339.08 116.361 1340.63 117.904 1342.53 117.904C1344.43 117.904 1345.93 116.361 1345.93 114.458C1345.93 112.554 1344.38 111.011 1342.53 111.011C1340.57 111.011 1339.08 112.554 1339.08 114.458Z" fill="#3C3C3B"/>
<path opacity="0.6836" d="M1205.09 36.4722C1205.09 38.3756 1206.63 39.9188 1208.54 39.9188C1210.44 39.9188 1211.93 38.3756 1211.93 36.4722C1211.93 34.5689 1210.39 33.0256 1208.54 33.0256C1206.58 33.0256 1205.09 34.5689 1205.09 36.4722Z" fill="#3C3C3B"/>
<path opacity="0.9087" d="M1526.66 36.4722C1526.66 38.3756 1528.21 39.9188 1530.06 39.9188C1531.97 39.9188 1533.51 38.3756 1533.51 36.4722C1533.51 34.5689 1531.97 33.0256 1530.06 33.0256C1528.21 33.0256 1526.66 34.5689 1526.66 36.4722Z" fill="#3C3C3B"/>
<path opacity="0.7254" d="M1419.49 36.4722C1419.49 38.3756 1421.03 39.9188 1422.89 39.9188C1424.79 39.9188 1426.28 38.3756 1426.28 36.4722C1426.28 34.5689 1424.74 33.0256 1422.89 33.0256C1420.98 33.0256 1419.49 34.5689 1419.49 36.4722Z" fill="#3C3C3B"/>
<path opacity="0.5217" d="M1473.08 130.045C1473.08 131.948 1474.62 133.491 1476.47 133.491C1478.33 133.491 1479.87 131.948 1479.87 130.045C1479.87 128.141 1478.33 126.598 1476.47 126.598C1474.62 126.598 1473.08 128.141 1473.08 130.045Z" fill="#3C3C3B"/>
<path opacity="0.758" d="M1473.08 5.24701C1473.08 7.15035 1474.62 8.69361 1476.47 8.69361C1478.33 8.69361 1479.87 7.15035 1479.87 5.24701C1479.87 3.34367 1478.33 1.80042 1476.47 1.80042C1474.62 1.80042 1473.08 3.34367 1473.08 5.24701Z" fill="#3C3C3B"/>
<path opacity="0.5672" d="M1272.06 137.864C1272.06 139.767 1273.6 141.31 1275.51 141.31C1277.41 141.31 1278.9 139.767 1278.9 137.864C1278.9 135.96 1277.36 134.417 1275.51 134.417C1273.6 134.417 1272.06 135.96 1272.06 137.864Z" fill="#3C3C3B"/>
<path opacity="0.6639" d="M1245.24 122.277C1245.24 124.18 1246.78 125.724 1248.69 125.724C1250.59 125.724 1252.09 124.18 1252.09 122.277C1252.09 120.374 1250.54 118.83 1248.69 118.83C1246.78 118.83 1245.24 120.374 1245.24 122.277Z" fill="#3C3C3B"/>
<path opacity="0.7845" d="M1258.67 114.458C1258.67 116.361 1260.22 117.904 1262.07 117.904C1263.98 117.904 1265.47 116.361 1265.47 114.458C1265.47 112.554 1263.92 111.011 1262.07 111.011C1260.22 111.011 1258.67 112.554 1258.67 114.458Z" fill="#3C3C3B"/>
<path opacity="0.8686" d="M1365.85 348.466C1365.85 350.369 1367.39 351.913 1369.3 351.913C1371.2 351.913 1372.7 350.369 1372.7 348.466C1372.7 346.563 1371.15 345.02 1369.3 345.02C1367.39 345.02 1365.85 346.563 1365.85 348.466Z" fill="#3C3C3B"/>
<path opacity="0.9438" d="M1419.49 223.669C1419.49 225.572 1421.03 227.115 1422.89 227.115C1424.79 227.115 1426.28 225.572 1426.28 223.669C1426.28 221.765 1424.74 220.222 1422.89 220.222C1420.98 220.222 1419.49 221.765 1419.49 223.669Z" fill="#3C3C3B"/>
<path opacity="0.8488" d="M1473.08 192.443C1473.08 194.347 1474.62 195.89 1476.47 195.89C1478.33 195.89 1479.87 194.347 1479.87 192.443C1479.87 190.54 1478.33 188.997 1476.47 188.997C1474.62 188.997 1473.08 190.54 1473.08 192.443Z" fill="#3C3C3B"/>
<path opacity="0.5604" d="M1205.09 36.4722C1205.09 38.3756 1206.63 39.9188 1208.48 39.9188C1210.39 39.9188 1211.93 38.3756 1211.93 36.4722C1211.93 34.5689 1210.39 33.0256 1208.48 33.0256C1206.58 33.0256 1205.09 34.5689 1205.09 36.4722Z" fill="#3C3C3B"/>
<path opacity="0.8646" d="M1151.45 67.6458C1151.45 69.5492 1152.99 71.0924 1154.85 71.0924C1156.75 71.0924 1158.24 69.5492 1158.24 67.6458C1158.24 65.7425 1156.7 64.1992 1154.85 64.1992C1152.99 64.1992 1151.45 65.7425 1151.45 67.6458Z" fill="#3C3C3B"/>
<path opacity="0.5312" d="M1258.67 98.8709C1258.67 100.774 1260.22 102.318 1262.07 102.318C1263.98 102.318 1265.47 100.774 1265.47 98.8709C1265.47 96.9676 1263.92 95.4243 1262.07 95.4243C1260.22 95.4243 1258.67 96.9676 1258.67 98.8709Z" fill="#3C3C3B"/>
<path opacity="0.7235" d="M1178.27 20.8339C1178.27 22.7373 1179.81 24.2805 1181.72 24.2805C1183.62 24.2805 1185.11 22.7373 1185.11 20.8339C1185.11 18.9306 1183.57 17.3873 1181.72 17.3873C1179.81 17.3873 1178.27 18.9306 1178.27 20.8339Z" fill="#3C3C3B"/>
<path opacity="0.5885" d="M1124.68 20.8339C1124.68 22.7373 1126.22 24.2805 1128.08 24.2805C1129.98 24.2805 1131.47 22.7373 1131.47 20.8339C1131.47 18.9306 1129.93 17.3873 1128.08 17.3873C1126.22 17.3873 1124.68 18.9306 1124.68 20.8339Z" fill="#3C3C3B"/>
<path opacity="0.8858" d="M1419.49 161.27C1419.49 163.173 1421.03 164.716 1422.89 164.716C1424.79 164.716 1426.28 163.173 1426.28 161.27C1426.28 159.367 1424.74 157.823 1422.89 157.823C1420.98 157.823 1419.49 159.367 1419.49 161.27Z" fill="#3C3C3B"/>
<path opacity="0.5875" d="M1312.26 161.27C1312.26 163.173 1313.81 164.716 1315.66 164.716C1317.56 164.716 1319.06 163.173 1319.06 161.27C1319.06 159.367 1317.51 157.823 1315.66 157.823C1313.81 157.823 1312.26 159.367 1312.26 161.27Z" fill="#3C3C3B"/>
<path opacity="0.9745" d="M1151.45 192.443C1151.45 194.347 1152.99 195.89 1154.85 195.89C1156.75 195.89 1158.24 194.347 1158.24 192.443C1158.24 190.54 1156.7 188.997 1154.85 188.997C1152.99 188.997 1151.45 190.54 1151.45 192.443Z" fill="#3C3C3B"/>
<path opacity="0.6677" d="M1365.85 317.241C1365.85 319.144 1367.39 320.688 1369.3 320.688C1371.2 320.688 1372.7 319.144 1372.7 317.241C1372.7 315.338 1371.15 313.794 1369.3 313.794C1367.39 313.794 1365.85 315.338 1365.85 317.241Z" fill="#3C3C3B"/>
<path opacity="0.779" d="M1365.85 192.443C1365.85 194.347 1367.39 195.89 1369.3 195.89C1371.2 195.89 1372.7 194.347 1372.7 192.443C1372.7 190.54 1371.15 188.997 1369.3 188.997C1367.39 188.997 1365.85 190.54 1365.85 192.443Z" fill="#3C3C3B"/>
</g>
<g opacity="0.3" clip-path="url(#clip1_2002_1233)">
<path opacity="0.8516" d="M812.72 1012H813.852L804.535 1006.6V882.11L819 873.725V873.056L804.123 881.698L803.969 881.801V1006.91L812.72 1012Z" fill="#3C3C3B"/>
<path opacity="0.9669" d="M804.278 866.008L817.97 873.982V889.929L804.278 897.902L790.585 889.929V873.982L804.278 866.008ZM817.404 874.291L804.278 866.677L791.151 874.291V889.569L804.278 897.182L817.404 889.569V874.291Z" fill="#3C3C3B"/>
<path opacity="0.716" d="M795.835 1012L804.278 1007.06L812.72 1012H813.852L804.278 1006.39L794.703 1012H795.835Z" fill="#3C3C3B"/>
<path opacity="0.8412" d="M804.278 1007.06L819 998.522V997.853L804.278 1006.39L750.947 975.373V913.335L804.278 882.264L819 890.855V890.186L804.432 881.698L804.278 881.595L750.536 912.872L750.381 912.975V975.734L804.278 1007.06Z" fill="#3C3C3B"/>
<path opacity="0.994" d="M697.051 819.196L750.947 850.576V913.335L697.051 944.714L643.154 913.335V850.576L697.051 819.196ZM750.381 850.936L697.051 819.916L643.721 850.936V912.975L697.051 943.994L750.381 912.975V850.936Z" fill="#3C3C3B"/>
<path opacity="0.9394" d="M697.051 819.196L750.947 850.576V913.335L697.051 944.714L643.154 913.335V850.576L697.051 819.196ZM750.381 850.936L697.051 819.916L643.721 850.936V912.975L697.051 943.994L750.381 912.975V850.936Z" fill="#3C3C3B"/>
<path opacity="0.9775" d="M688.609 1012L697.051 1007.06L705.545 1012H706.677L697.051 1006.39L687.476 1012H688.609Z" fill="#3C3C3B"/>
<path opacity="0.7716" d="M697.051 881.595L697.205 881.698L750.947 912.975V975.734L697.051 1007.11L643.154 975.734V912.975L643.309 912.872L697.051 881.595ZM750.381 913.335L697.051 882.315L643.721 913.335V975.373L697.051 1006.39L750.381 975.373V913.335Z" fill="#3C3C3B"/>
<path opacity="0.6343" d="M688.609 1012L697.051 1007.06L705.545 1012H706.677L697.051 1006.39L687.476 1012H688.609Z" fill="#3C3C3B"/>
<path opacity="0.6715" d="M563.365 1012V991.32L589.876 975.888L616.386 991.32V1012H616.953V990.96L589.876 975.219L562.799 990.96V1012H563.365Z" fill="#3C3C3B"/>
<path opacity="0.9459" d="M536.545 1012V975.734L589.876 944.663L643.206 975.734V1012H643.772V975.374L589.876 943.994L535.979 975.374V1012H536.545Z" fill="#3C3C3B"/>
<path opacity="0.5261" d="M589.876 866.008L603.568 873.982V889.929L589.876 897.902L576.183 889.929V873.982L589.876 866.008ZM603.002 874.291L589.876 866.677L576.749 874.291V889.569L589.876 897.182L603.002 889.569V874.291Z" fill="#3C3C3B"/>
<path opacity="0.5223" d="M697.051 881.595L697.205 881.698L750.947 912.975V975.734L697.051 1007.11L643.154 975.734V912.975L643.309 912.872L697.051 881.595ZM750.381 913.335L697.051 882.315L643.721 913.335V975.373L697.051 1006.39L750.381 975.373V913.335Z" fill="#3C3C3B"/>
<path opacity="0.8962" d="M469.574 1012V999.14L482.7 991.475L495.776 999.14V1012H496.342V998.779L482.7 990.806L469.007 998.779V1012H469.574Z" fill="#3C3C3B"/>
<path opacity="0.5211" d="M482.7 866.008L496.393 873.982V889.929L482.7 897.902L469.008 889.929V873.982L482.7 866.008ZM495.776 874.291L482.649 866.677L469.522 874.291V889.569L482.649 897.182L495.776 889.569V874.291Z" fill="#3C3C3B"/>
<path opacity="0.6374" d="M589.876 694.399L590.03 694.502L697.36 756.952V882.11L697.205 882.212L589.876 944.714L589.721 944.611L482.392 882.11V756.952L482.546 756.849L589.876 694.399ZM696.793 757.312L589.876 695.067L482.958 757.312V881.801L589.876 944.045L696.793 881.801V757.312Z" fill="#3C3C3B"/>
<path opacity="0.5189" d="M589.876 881.595L590.03 881.698L643.772 912.975V975.734L589.876 1007.11L535.979 975.734V912.975L536.134 912.872L589.876 881.595ZM643.206 913.335L589.876 882.315L536.545 913.335V975.373L589.876 1006.39L643.206 975.373V913.335Z" fill="#3C3C3B"/>
<path opacity="0.5082" d="M482.7 850.421L509.777 866.163V897.696L482.7 913.489L455.623 897.696V866.163L482.7 850.421ZM509.211 866.523L482.7 851.09L456.19 866.523V897.388L482.7 912.82L509.211 897.388V866.523Z" fill="#3C3C3B"/>
<path opacity="0.5792" d="M322.143 1012V975.734L375.474 944.663L428.804 975.734V1012H429.37V975.374L375.474 943.994L321.732 975.322L321.577 975.374V1012H322.143Z" fill="#3C3C3B"/>
<path opacity="0.9861" d="M482.7 881.595L482.855 881.698L536.597 912.975V975.734L482.7 1007.11L428.804 975.734V912.975L428.958 912.872L482.7 881.595ZM535.979 913.335L482.649 882.315L429.319 913.335V975.373L482.7 1006.39L535.979 975.373V913.335Z" fill="#3C3C3B"/>
<path opacity="0.9808" d="M576.749 1012V999.14L589.876 991.475L603.002 999.14V1012H603.568V998.779L589.876 990.806L576.183 998.779V1012H576.749Z" fill="#3C3C3B"/>
<path opacity="0.9699" d="M322.143 1012V975.734L375.474 944.663L428.804 975.734V1012H429.37V975.374L375.474 943.994L321.732 975.322L321.577 975.374V1012H322.143Z" fill="#3C3C3B"/>
<path opacity="0.9622" d="M589.876 819.196L643.772 850.576V913.335L589.876 944.714L535.979 913.335V850.576L589.876 819.196ZM643.206 850.936L589.876 819.916L536.545 850.936V912.975L589.876 943.994L643.206 912.975V850.936Z" fill="#3C3C3B"/>
<path opacity="0.6304" d="M589.876 819.196L643.772 850.576V913.335L589.876 944.714L535.979 913.335V850.576L589.876 819.196ZM643.206 850.936L589.876 819.916L536.545 850.936V912.975L589.876 943.994L643.206 912.975V850.936Z" fill="#3C3C3B"/>
<path opacity="0.8387" d="M482.7 663.174L509.777 678.966V710.5L482.7 726.241L455.623 710.5V678.966L482.7 663.174ZM509.211 679.275L482.7 663.842L456.19 679.275V710.14L482.7 725.572L509.211 710.14V679.275Z" fill="#3C3C3B"/>
<path opacity="0.9051" d="M482.7 632L536.597 663.379V726.138L482.7 757.518L428.804 726.138V663.379L482.7 632ZM535.979 663.688L482.649 632.669L429.319 663.688V725.778L482.649 756.798L535.979 725.778V663.688Z" fill="#3C3C3B"/>
<path opacity="0.6545" d="M429.37 1012V975.734L482.7 944.663L535.979 975.734V1012H536.545V975.374L482.7 943.994L428.804 975.374V1012H429.37Z" fill="#3C3C3B"/>
<path opacity="0.9574" d="M367.031 1012L375.474 1007.06L383.916 1012H385.048L375.474 1006.39L365.899 1012H367.031Z" fill="#3C3C3B"/>
<path opacity="0.9474" d="M375.474 694.399L375.628 694.502L482.958 756.952V882.11L482.803 882.212L375.474 944.714L375.319 944.611L267.99 882.11V756.952L268.144 756.849L375.474 694.399ZM482.391 757.312L375.474 695.067L268.556 757.312V881.801L375.474 944.045L482.391 881.801V757.312Z" fill="#3C3C3B"/>
<path opacity="0.8086" d="M268.298 850.421L295.375 866.163V897.696L268.298 913.489L241.221 897.696V866.163L268.298 850.421ZM294.809 866.523L268.298 851.09L241.788 866.523V897.388L268.298 912.82L294.809 897.388V866.523Z" fill="#3C3C3B"/>
<path opacity="0.5531" d="M375.474 663.174L402.551 678.966V710.5L375.474 726.241L348.397 710.5V678.966L375.474 663.174ZM401.984 679.275L375.474 663.842L348.963 679.275V710.14L375.474 725.572L401.984 710.14V679.275Z" fill="#3C3C3B"/>
<path opacity="0.9538" d="M259.856 1012L268.298 1007.06L276.741 1012H277.873L268.298 1006.39L258.672 1012H259.856Z" fill="#3C3C3B"/>
<path opacity="0.8754" d="M107.793 1012V975.734L161.072 944.663L214.402 975.734V1012H214.968V975.374L161.072 943.994L107.175 975.374V1012H107.793Z" fill="#3C3C3B"/>
<path opacity="0.5051" d="M322.143 1012V975.734L375.474 944.663L428.804 975.734V1012H429.37V975.374L375.474 943.994L321.732 975.322L321.577 975.374V1012H322.143Z" fill="#3C3C3B"/>
<path opacity="0.8517" d="M170.698 1012L161.381 1006.6V882.11L268.298 819.865L375.216 882.11V1006.6L365.899 1012H367.031L375.628 1007.01L375.783 1006.91V881.801L268.401 819.299L268.298 819.196L160.969 881.698L160.814 881.801V1006.91L169.514 1012H170.698Z" fill="#3C3C3B"/>
<path opacity="0.61" d="M161.072 866.008L174.765 873.982V889.929L161.072 897.902L147.379 889.929V873.982L161.072 866.008ZM174.198 874.291L161.072 866.677L147.945 874.291V889.569L161.072 897.182L174.198 889.569V874.291Z" fill="#3C3C3B"/>
<path opacity="0.6181" d="M375.474 819.196L429.37 850.576V913.335L375.474 944.714L375.319 944.611L321.577 913.335V850.576L321.732 850.473L375.474 819.196ZM428.804 850.936L375.474 819.916L322.143 850.936V912.975L375.474 943.994L428.804 912.975V850.936Z" fill="#3C3C3B"/>
<path opacity="0.876" d="M268.298 694.399L268.453 694.502L375.783 756.952V882.11L375.628 882.212L268.298 944.714L268.144 944.611L160.814 882.11V756.952L160.969 756.849L268.298 694.399ZM375.216 757.312L268.298 695.067L161.381 757.312V881.801L268.298 944.045L375.216 881.801V757.312Z" fill="#3C3C3B"/>
<path opacity="0.5845" d="M268.298 663.174L295.375 678.966V710.5L268.298 726.241L241.221 710.5V678.966L268.298 663.174ZM294.809 679.275L268.298 663.842L241.788 679.275V710.14L268.298 725.572L294.809 710.14V679.275Z" fill="#3C3C3B"/>
<path opacity="0.5432" d="M375.474 694.399L375.628 694.502L429.37 725.778V788.537L375.474 819.917L375.319 819.814L321.577 788.537V725.778L321.732 725.675L375.474 694.399ZM428.804 726.087L375.474 695.067L322.143 726.087V788.177L375.474 819.196L428.804 788.177V726.087Z" fill="#3C3C3B"/>
<path opacity="0.8471" d="M0.566223 1012V975.734L53.8964 944.663L107.175 975.734V1012H107.793V975.374L53.8964 943.994L-1.52588e-05 975.374V1012H0.566223Z" fill="#3C3C3B"/>
<path opacity="0.7774" d="M161.072 912.82L188.149 928.613V960.147L161.072 975.939L133.995 960.147V928.613L161.072 912.82ZM187.582 928.922L161.072 913.489L134.561 928.922V959.787L161.072 975.219L187.582 959.787V928.922Z" fill="#3C3C3B"/>
<path opacity="0.6187" d="M152.63 1012L161.072 1007.06L169.514 1012H170.698L161.072 1006.39L151.497 1012H152.63Z" fill="#3C3C3B"/>
<path opacity="0.6525" d="M27.3857 1012V991.32L53.8964 975.888L80.4071 991.32V1012H80.9734V990.96L53.8964 975.219L26.8195 990.96V1012H27.3857Z" fill="#3C3C3B"/>
<path opacity="0.6134" d="M0.566223 1012V975.734L53.8964 944.663L107.175 975.734V1012H107.793V975.374L53.8964 943.994L-1.52588e-05 975.374V1012H0.566223Z" fill="#3C3C3B"/>
<path opacity="0.951" d="M268.298 819.196L322.195 850.576V913.335L268.298 944.714L268.144 944.611L214.402 913.335V850.576L214.556 850.473L268.298 819.196ZM321.577 850.936L268.247 819.916L214.917 850.936V912.975L268.247 943.994L321.577 912.975V850.936Z" fill="#3C3C3B"/>
<path opacity="0.6256" d="M53.8964 694.399L54.0509 694.502L107.793 725.778V788.537L53.8964 819.917L-1.52588e-05 788.537V725.778L0.154442 725.675L53.8964 694.399ZM107.175 726.087L53.845 695.067L0.514755 726.087V788.177L53.845 819.196L107.175 788.177V726.087Z" fill="#3C3C3B"/>
<path opacity="0.6699" d="M268.298 694.399L268.453 694.502L322.195 725.778V788.537L268.298 819.917L268.144 819.814L214.402 788.537V725.778L214.556 725.675L268.298 694.399ZM321.577 726.087L268.247 695.067L214.917 726.087V788.177L268.247 819.196L321.577 788.177V726.087Z" fill="#3C3C3B"/>
<path opacity="0.6867" d="M800.829 866.317C800.829 864.414 802.373 862.87 804.226 862.87C806.131 862.87 807.624 864.414 807.624 866.317C807.624 868.22 806.079 869.764 804.226 869.764C802.373 869.815 800.829 868.22 800.829 866.317Z" fill="#3C3C3B"/>
<path opacity="0.975" d="M747.241 913.129C747.241 911.226 748.785 909.682 750.638 909.682C752.543 909.682 754.087 911.226 754.087 913.129C754.087 915.032 752.543 916.576 750.638 916.576C748.785 916.576 747.241 915.032 747.241 913.129Z" fill="#3C3C3B"/>
<path opacity="0.9056" d="M693.653 1006.75C693.653 1004.85 695.198 1003.31 697.102 1003.31C699.007 1003.31 700.5 1004.85 700.5 1006.75C700.5 1008.66 698.956 1010.2 697.102 1010.2C695.198 1010.2 693.653 1008.66 693.653 1006.75Z" fill="#3C3C3B"/>
<path opacity="0.862" d="M693.653 881.955C693.653 880.052 695.198 878.509 697.102 878.509C699.007 878.509 700.5 880.052 700.5 881.955C700.5 883.859 698.956 885.402 697.102 885.402C695.198 885.402 693.653 883.859 693.653 881.955Z" fill="#3C3C3B"/>
<path opacity="0.7249" d="M613.246 991.166C613.246 989.263 614.791 987.72 616.644 987.72C618.548 987.72 620.093 989.263 620.093 991.166C620.093 993.07 618.548 994.613 616.644 994.613C614.791 994.613 613.246 993.07 613.246 991.166Z" fill="#3C3C3B"/>
<path opacity="0.5437" d="M559.659 991.166C559.659 989.263 561.203 987.72 563.108 987.72C565.012 987.72 566.505 989.263 566.505 991.166C566.505 993.07 564.961 994.613 563.108 994.613C561.203 994.613 559.659 993.07 559.659 991.166Z" fill="#3C3C3B"/>
<path opacity="0.8559" d="M640.066 975.528C640.066 973.624 641.61 972.081 643.463 972.081C645.368 972.081 646.861 973.624 646.861 975.528C646.861 977.431 645.316 978.974 643.463 978.974C641.559 978.974 640.066 977.431 640.066 975.528Z" fill="#3C3C3B"/>
<path opacity="0.691" d="M586.478 866.317C586.478 864.414 588.022 862.87 589.876 862.87C591.78 862.87 593.325 864.414 593.325 866.317C593.325 868.22 591.78 869.764 589.876 869.764C587.971 869.815 586.478 868.22 586.478 866.317Z" fill="#3C3C3B"/>
<path opacity="0.6169" d="M693.653 881.955C693.653 880.052 695.198 878.509 697.102 878.509C699.007 878.509 700.5 880.052 700.5 881.955C700.5 883.859 698.956 885.402 697.102 885.402C695.198 885.402 693.653 883.859 693.653 881.955Z" fill="#3C3C3B"/>
<path opacity="0.5121" d="M640.066 913.129C640.066 911.226 641.61 909.682 643.463 909.682C645.368 909.682 646.912 911.226 646.912 913.129C646.912 915.032 645.368 916.576 643.463 916.576C641.61 916.576 640.066 915.032 640.066 913.129Z" fill="#3C3C3B"/>
<path opacity="0.8706" d="M479.251 991.166C479.251 989.263 480.796 987.72 482.649 987.72C484.554 987.72 486.098 989.263 486.098 991.166C486.098 993.07 484.554 994.613 482.649 994.613C480.796 994.613 479.251 993.07 479.251 991.166Z" fill="#3C3C3B"/>
<path opacity="0.6625" d="M465.867 889.723C465.867 887.82 467.412 886.276 469.316 886.276C471.221 886.276 472.714 887.82 472.714 889.723C472.714 891.626 471.17 893.17 469.316 893.17C467.412 893.17 465.867 891.626 465.867 889.723Z" fill="#3C3C3B"/>
<path opacity="0.6645" d="M586.478 694.759C586.478 692.856 588.022 691.312 589.876 691.312C591.78 691.312 593.325 692.856 593.325 694.759C593.325 696.662 591.78 698.206 589.876 698.206C587.971 698.206 586.478 696.662 586.478 694.759Z" fill="#3C3C3B"/>
<path opacity="0.9538" d="M479.251 757.158C479.251 755.254 480.796 753.711 482.649 753.711C484.554 753.711 486.098 755.254 486.098 757.158C486.098 759.061 484.554 760.604 482.649 760.604C480.796 760.604 479.251 759.061 479.251 757.158Z" fill="#3C3C3B"/>
<path opacity="0.6405" d="M693.653 881.955C693.653 880.052 695.198 878.509 697.102 878.509C699.007 878.509 700.5 880.052 700.5 881.955C700.5 883.859 698.956 885.402 697.102 885.402C695.198 885.402 693.653 883.859 693.653 881.955Z" fill="#3C3C3B"/>
<path opacity="0.5246" d="M586.478 881.955C586.478 880.052 588.022 878.509 589.876 878.509C591.78 878.509 593.325 880.052 593.325 881.955C593.325 883.859 591.78 885.402 589.876 885.402C587.971 885.402 586.478 883.859 586.478 881.955Z" fill="#3C3C3B"/>
<path opacity="0.7605" d="M532.839 913.129C532.839 911.226 534.383 909.682 536.288 909.682C538.193 909.682 539.685 911.226 539.685 913.129C539.685 915.032 538.141 916.576 536.288 916.576C534.383 916.576 532.839 915.032 532.839 913.129Z" fill="#3C3C3B"/>
<path opacity="0.6166" d="M532.839 975.528C532.839 973.624 534.383 972.081 536.288 972.081C538.193 972.081 539.685 973.624 539.685 975.528C539.685 977.431 538.141 978.974 536.288 978.974C534.383 978.974 532.839 977.431 532.839 975.528Z" fill="#3C3C3B"/>
<path opacity="0.5032" d="M452.483 897.542C452.483 895.639 454.028 894.096 455.881 894.096C457.785 894.096 459.33 895.639 459.33 897.542C459.33 899.446 457.785 900.989 455.881 900.989C453.976 900.989 452.483 899.446 452.483 897.542Z" fill="#3C3C3B"/>
<path opacity="0.9074" d="M318.489 975.528C318.489 973.624 320.033 972.081 321.886 972.081C323.791 972.081 325.284 973.624 325.284 975.528C325.284 977.431 323.739 978.974 321.886 978.974C319.981 978.974 318.489 977.431 318.489 975.528Z" fill="#3C3C3B"/>
<path opacity="0.6002" d="M605.576 1012C604.958 1011.43 604.186 1011.13 603.311 1011.13C602.436 1011.13 601.612 1011.49 601.046 1012H605.576Z" fill="#3C3C3B"/>
<path opacity="0.6002" d="M372.076 944.354C372.076 942.451 373.621 940.908 375.474 940.908C377.327 940.908 378.871 942.451 378.871 944.354C378.871 946.258 377.327 947.801 375.474 947.801C373.621 947.801 372.076 946.258 372.076 944.354Z" fill="#3C3C3B"/>
<path opacity="0.6607" d="M532.839 913.129C532.839 911.226 534.383 909.682 536.288 909.682C538.193 909.682 539.685 911.226 539.685 913.129C539.685 915.032 538.141 916.576 536.288 916.576C534.383 916.576 532.839 915.032 532.839 913.129Z" fill="#3C3C3B"/>
<path opacity="0.5786" d="M452.483 679.121C452.483 677.217 454.028 675.674 455.881 675.674C457.785 675.674 459.33 677.217 459.33 679.121C459.33 681.024 457.785 682.567 455.881 682.567C453.976 682.567 452.483 681.024 452.483 679.121Z" fill="#3C3C3B"/>
<path opacity="0.9283" d="M479.251 725.933C479.251 724.029 480.796 722.486 482.649 722.486C484.554 722.486 486.098 724.029 486.098 725.933C486.098 727.836 484.554 729.379 482.649 729.379C480.796 729.379 479.251 727.836 479.251 725.933Z" fill="#3C3C3B"/>
<path opacity="0.6334" d="M506.071 710.346C506.071 708.442 507.615 706.899 509.468 706.899C511.373 706.899 512.866 708.442 512.866 710.346C512.866 712.249 511.322 713.792 509.468 713.792C507.564 713.792 506.071 712.249 506.071 710.346Z" fill="#3C3C3B"/>
<path opacity="0.6939" d="M532.839 663.534C532.839 661.631 534.383 660.087 536.288 660.087C538.193 660.087 539.685 661.631 539.685 663.534C539.685 665.437 538.141 666.98 536.288 666.98C534.383 666.98 532.839 665.437 532.839 663.534Z" fill="#3C3C3B"/>
<path opacity="0.7705" d="M479.251 944.354C479.251 942.451 480.796 940.908 482.649 940.908C484.554 940.908 486.098 942.451 486.098 944.354C486.098 946.258 484.554 947.801 482.649 947.801C480.796 947.801 479.251 946.258 479.251 944.354Z" fill="#3C3C3B"/>
<path opacity="0.8428" d="M425.664 975.528C425.664 973.624 427.208 972.081 429.113 972.081C431.017 972.081 432.51 973.624 432.51 975.528C432.51 977.431 430.966 978.974 429.113 978.974C427.208 978.974 425.664 977.431 425.664 975.528Z" fill="#3C3C3B"/>
<path opacity="0.9917" d="M238.081 866.317C238.081 864.414 239.626 862.87 241.53 862.87C243.435 862.87 244.928 864.414 244.928 866.317C244.928 868.22 243.383 869.764 241.53 869.764C239.574 869.815 238.081 868.22 238.081 866.317Z" fill="#3C3C3B"/>
<path opacity="0.9612" d="M238.081 897.542C238.081 895.639 239.626 894.096 241.53 894.096C243.435 894.096 244.928 895.639 244.928 897.542C244.928 899.446 243.383 900.989 241.53 900.989C239.574 900.989 238.081 899.446 238.081 897.542Z" fill="#3C3C3B"/>
<path opacity="0.6836" d="M104.087 975.528C104.087 973.624 105.631 972.081 107.536 972.081C109.44 972.081 110.933 973.624 110.933 975.528C110.933 977.431 109.389 978.974 107.536 978.974C105.58 978.974 104.087 977.431 104.087 975.528Z" fill="#3C3C3B"/>
<path opacity="0.9087" d="M425.664 975.528C425.664 973.624 427.208 972.081 429.061 972.081C430.966 972.081 432.51 973.624 432.51 975.528C432.51 977.431 430.966 978.974 429.061 978.974C427.208 978.974 425.664 977.431 425.664 975.528Z" fill="#3C3C3B"/>
<path opacity="0.7254" d="M318.489 975.528C318.489 973.624 320.033 972.081 321.886 972.081C323.791 972.081 325.284 973.624 325.284 975.528C325.284 977.431 323.739 978.974 321.886 978.974C319.981 978.974 318.489 977.431 318.489 975.528Z" fill="#3C3C3B"/>
<path opacity="0.5217" d="M372.076 881.955C372.076 880.052 373.621 878.509 375.474 878.509C377.327 878.509 378.871 880.052 378.871 881.955C378.871 883.859 377.327 885.402 375.474 885.402C373.621 885.402 372.076 883.859 372.076 881.955Z" fill="#3C3C3B"/>
<path opacity="0.758" d="M372.076 1006.75C372.076 1004.85 373.621 1003.31 375.474 1003.31C377.327 1003.31 378.871 1004.85 378.871 1006.75C378.871 1008.66 377.327 1010.2 375.474 1010.2C373.621 1010.2 372.076 1008.66 372.076 1006.75Z" fill="#3C3C3B"/>
<path opacity="0.5672" d="M171.058 874.136C171.058 872.233 172.603 870.69 174.507 870.69C176.412 870.69 177.905 872.233 177.905 874.136C177.905 876.04 176.36 877.583 174.507 877.583C172.603 877.583 171.058 876.04 171.058 874.136Z" fill="#3C3C3B"/>
<path opacity="0.6639" d="M144.239 889.723C144.239 887.82 145.783 886.276 147.688 886.276C149.592 886.276 151.085 887.82 151.085 889.723C151.085 891.626 149.541 893.17 147.688 893.17C145.783 893.17 144.239 891.626 144.239 889.723Z" fill="#3C3C3B"/>
<path opacity="0.7845" d="M157.674 897.542C157.674 895.639 159.219 894.096 161.072 894.096C162.976 894.096 164.469 895.639 164.469 897.542C164.469 899.446 162.925 900.989 161.072 900.989C159.219 900.989 157.674 899.446 157.674 897.542Z" fill="#3C3C3B"/>
<path opacity="0.8686" d="M264.849 663.534C264.849 661.631 266.394 660.087 268.298 660.087C270.203 660.087 271.696 661.631 271.696 663.534C271.696 665.437 270.152 666.98 268.298 666.98C266.394 666.98 264.849 665.437 264.849 663.534Z" fill="#3C3C3B"/>
<path opacity="0.9438" d="M318.489 788.331C318.489 786.428 320.033 784.885 321.886 784.885C323.791 784.885 325.284 786.428 325.284 788.331C325.284 790.235 323.739 791.778 321.886 791.778C319.981 791.778 318.489 790.235 318.489 788.331Z" fill="#3C3C3B"/>
<path opacity="0.8488" d="M372.076 819.557C372.076 817.653 373.621 816.11 375.474 816.11C377.327 816.11 378.871 817.653 378.871 819.557C378.871 821.46 377.327 823.003 375.474 823.003C373.621 823.003 372.076 821.46 372.076 819.557Z" fill="#3C3C3B"/>
<path opacity="0.5604" d="M104.087 975.528C104.087 973.624 105.631 972.081 107.484 972.081C109.389 972.081 110.933 973.624 110.933 975.528C110.933 977.431 109.389 978.974 107.484 978.974C105.58 978.974 104.087 977.431 104.087 975.528Z" fill="#3C3C3B"/>
<path opacity="0.8646" d="M50.4475 944.354C50.4475 942.451 51.9918 940.908 53.845 940.908C55.7496 940.908 57.2424 942.451 57.2424 944.354C57.2424 946.258 55.6981 947.801 53.845 947.801C51.9918 947.801 50.4475 946.258 50.4475 944.354Z" fill="#3C3C3B"/>
<path opacity="0.5312" d="M157.674 913.129C157.674 911.226 159.219 909.682 161.072 909.682C162.976 909.682 164.469 911.226 164.469 913.129C164.469 915.032 162.925 916.576 161.072 916.576C159.219 916.576 157.674 915.032 157.674 913.129Z" fill="#3C3C3B"/>
<path opacity="0.7235" d="M77.2671 991.166C77.2671 989.263 78.8114 987.72 80.7161 987.72C82.6207 987.72 84.1135 989.263 84.1135 991.166C84.1135 993.07 82.5692 994.613 80.7161 994.613C78.8114 994.613 77.2671 993.07 77.2671 991.166Z" fill="#3C3C3B"/>
<path opacity="0.5885" d="M23.6794 991.166C23.6794 989.263 25.2237 987.72 27.0769 987.72C28.9815 987.72 30.4744 989.263 30.4744 991.166C30.4744 993.07 28.9301 994.613 27.0769 994.613C25.2237 994.613 23.6794 993.07 23.6794 991.166Z" fill="#3C3C3B"/>
<path opacity="0.8858" d="M318.489 850.73C318.489 848.827 320.033 847.284 321.886 847.284C323.791 847.284 325.284 848.827 325.284 850.73C325.284 852.633 323.739 854.177 321.886 854.177C319.981 854.177 318.489 852.633 318.489 850.73Z" fill="#3C3C3B"/>
<path opacity="0.5875" d="M211.262 850.73C211.262 848.827 212.806 847.284 214.659 847.284C216.564 847.284 218.057 848.827 218.057 850.73C218.057 852.633 216.513 854.177 214.659 854.177C212.806 854.177 211.262 852.633 211.262 850.73Z" fill="#3C3C3B"/>
<path opacity="0.9745" d="M50.4475 819.557C50.4475 817.653 51.9918 816.11 53.845 816.11C55.7496 816.11 57.2424 817.653 57.2424 819.557C57.2424 821.46 55.6981 823.003 53.845 823.003C51.9918 823.003 50.4475 821.46 50.4475 819.557Z" fill="#3C3C3B"/>
<path opacity="0.6677" d="M264.849 694.759C264.849 692.856 266.394 691.312 268.298 691.312C270.203 691.312 271.696 692.856 271.696 694.759C271.696 696.662 270.152 698.206 268.298 698.206C266.394 698.206 264.849 696.662 264.849 694.759Z" fill="#3C3C3B"/>
<path opacity="0.779" d="M264.849 819.557C264.849 817.653 266.394 816.11 268.298 816.11C270.203 816.11 271.696 817.653 271.696 819.557C271.696 821.46 270.152 823.003 268.298 823.003C266.394 823.003 264.849 821.46 264.849 819.557Z" fill="#3C3C3B"/>
</g>
<defs>
<clipPath id="clip0_2002_1233">
<rect width="819" height="380" fill="white" transform="matrix(-1 0 0 1 1920 0)"/>
</clipPath>
<clipPath id="clip1_2002_1233">
<rect width="819" height="380" fill="white" transform="matrix(-1 0 0 -1 819 1012)"/>
</clipPath>
</defs>
</svg>
