<svg width="1920" height="1668" viewBox="0 0 1920 1668" fill="none" xmlns="http://www.w3.org/2000/svg">
<g opacity="0.3" clip-path="url(#clip0_2017_1231)">
<path opacity="0.8516" d="M812.72 1668H813.852L804.535 1662.6V1538.11L819 1529.72V1529.06L804.123 1537.7L803.969 1537.8V1662.91L812.72 1668Z" fill="#3C3C3B"/>
<path opacity="0.9669" d="M804.277 1522.01L817.97 1529.98V1545.93L804.277 1553.9L790.584 1545.93V1529.98L804.277 1522.01ZM817.404 1530.29L804.277 1522.68L791.151 1530.29V1545.57L804.277 1553.18L817.404 1545.57V1530.29Z" fill="#3C3C3B"/>
<path opacity="0.716" d="M795.835 1668L804.277 1663.06L812.72 1668H813.852L804.277 1662.39L794.703 1668H795.835Z" fill="#3C3C3B"/>
<path opacity="0.8412" d="M804.278 1663.06L819 1654.52V1653.85L804.278 1662.39L750.947 1631.37V1569.33L804.278 1538.26L819 1546.85V1546.19L804.432 1537.7L804.278 1537.6L750.536 1568.87L750.381 1568.97V1631.73L804.278 1663.06Z" fill="#3C3C3B"/>
<path opacity="0.994" d="M697.051 1475.2L750.947 1506.58V1569.33L697.051 1600.71L643.154 1569.33V1506.58L697.051 1475.2ZM750.381 1506.94L697.051 1475.92L643.721 1506.94V1568.97L697.051 1599.99L750.381 1568.97V1506.94Z" fill="#3C3C3B"/>
<path opacity="0.9394" d="M697.051 1475.2L750.947 1506.58V1569.33L697.051 1600.71L643.154 1569.33V1506.58L697.051 1475.2ZM750.381 1506.94L697.051 1475.92L643.721 1506.94V1568.97L697.051 1599.99L750.381 1568.97V1506.94Z" fill="#3C3C3B"/>
<path opacity="0.9775" d="M688.609 1668L697.051 1663.06L705.545 1668H706.677L697.051 1662.39L687.476 1668H688.609Z" fill="#3C3C3B"/>
<path opacity="0.7716" d="M697.051 1537.6L697.205 1537.7L750.947 1568.97V1631.73L697.051 1663.11L643.154 1631.73V1568.97L643.309 1568.87L697.051 1537.6ZM750.381 1569.33L697.051 1538.32L643.721 1569.33V1631.37L697.051 1662.39L750.381 1631.37V1569.33Z" fill="#3C3C3B"/>
<path opacity="0.6343" d="M688.609 1668L697.051 1663.06L705.545 1668H706.677L697.051 1662.39L687.476 1668H688.609Z" fill="#3C3C3B"/>
<path opacity="0.6715" d="M563.365 1668V1647.32L589.876 1631.89L616.386 1647.32V1668H616.953V1646.96L589.876 1631.22L562.799 1646.96V1668H563.365Z" fill="#3C3C3B"/>
<path opacity="0.9459" d="M536.545 1668V1631.73L589.875 1600.66L643.206 1631.73V1668H643.772V1631.37L589.875 1599.99L535.979 1631.37V1668H536.545Z" fill="#3C3C3B"/>
<path opacity="0.5261" d="M589.875 1522.01L603.568 1529.98V1545.93L589.875 1553.9L576.183 1545.93V1529.98L589.875 1522.01ZM603.002 1530.29L589.875 1522.68L576.749 1530.29V1545.57L589.875 1553.18L603.002 1545.57V1530.29Z" fill="#3C3C3B"/>
<path opacity="0.5223" d="M697.051 1537.6L697.205 1537.7L750.947 1568.97V1631.73L697.051 1663.11L643.154 1631.73V1568.97L643.309 1568.87L697.051 1537.6ZM750.381 1569.33L697.051 1538.32L643.721 1569.33V1631.37L697.051 1662.39L750.381 1631.37V1569.33Z" fill="#3C3C3B"/>
<path opacity="0.8962" d="M469.574 1668V1655.14L482.7 1647.47L495.776 1655.14V1668H496.342V1654.78L482.7 1646.81L469.007 1654.78V1668H469.574Z" fill="#3C3C3B"/>
<path opacity="0.5211" d="M482.7 1522.01L496.393 1529.98V1545.93L482.7 1553.9L469.007 1545.93V1529.98L482.7 1522.01ZM495.775 1530.29L482.649 1522.68L469.522 1530.29V1545.57L482.649 1553.18L495.775 1545.57V1530.29Z" fill="#3C3C3B"/>
<path opacity="0.6374" d="M589.876 1350.4L590.03 1350.5L697.36 1412.95V1538.11L697.205 1538.21L589.876 1600.71L589.721 1600.61L482.392 1538.11V1412.95L482.546 1412.85L589.876 1350.4ZM696.794 1413.31L589.876 1351.07L482.958 1413.31V1537.8L589.876 1600.05L696.794 1537.8V1413.31Z" fill="#3C3C3B"/>
<path opacity="0.5189" d="M589.875 1537.6L590.03 1537.7L643.772 1568.97V1631.73L589.875 1663.11L535.979 1631.73V1568.97L536.133 1568.87L589.875 1537.6ZM643.206 1569.33L589.875 1538.32L536.545 1569.33V1631.37L589.875 1662.39L643.206 1631.37V1569.33Z" fill="#3C3C3B"/>
<path opacity="0.5082" d="M482.7 1506.42L509.777 1522.16V1553.7L482.7 1569.49L455.623 1553.7V1522.16L482.7 1506.42ZM509.211 1522.52L482.7 1507.09L456.19 1522.52V1553.39L482.7 1568.82L509.211 1553.39V1522.52Z" fill="#3C3C3B"/>
<path opacity="0.5792" d="M322.143 1668V1631.73L375.474 1600.66L428.804 1631.73V1668H429.37V1631.37L375.474 1599.99L321.732 1631.32L321.577 1631.37V1668H322.143Z" fill="#3C3C3B"/>
<path opacity="0.9861" d="M482.7 1537.6L482.855 1537.7L536.597 1568.97V1631.73L482.7 1663.11L428.804 1631.73V1568.97L428.958 1568.87L482.7 1537.6ZM535.979 1569.33L482.649 1538.32L429.318 1569.33V1631.37L482.7 1662.39L535.979 1631.37V1569.33Z" fill="#3C3C3B"/>
<path opacity="0.9808" d="M576.749 1668V1655.14L589.875 1647.47L603.002 1655.14V1668H603.568V1654.78L589.875 1646.81L576.183 1654.78V1668H576.749Z" fill="#3C3C3B"/>
<path opacity="0.9699" d="M322.143 1668V1631.73L375.474 1600.66L428.804 1631.73V1668H429.37V1631.37L375.474 1599.99L321.732 1631.32L321.577 1631.37V1668H322.143Z" fill="#3C3C3B"/>
<path opacity="0.9622" d="M589.875 1475.2L643.772 1506.58V1569.33L589.875 1600.71L535.979 1569.33V1506.58L589.875 1475.2ZM643.206 1506.94L589.875 1475.92L536.545 1506.94V1568.97L589.875 1599.99L643.206 1568.97V1506.94Z" fill="#3C3C3B"/>
<path opacity="0.6304" d="M589.875 1475.2L643.772 1506.58V1569.33L589.875 1600.71L535.979 1569.33V1506.58L589.875 1475.2ZM643.206 1506.94L589.875 1475.92L536.545 1506.94V1568.97L589.875 1599.99L643.206 1568.97V1506.94Z" fill="#3C3C3B"/>
<path opacity="0.8387" d="M482.7 1319.17L509.777 1334.97V1366.5L482.7 1382.24L455.623 1366.5V1334.97L482.7 1319.17ZM509.211 1335.27L482.7 1319.84L456.19 1335.27V1366.14L482.7 1381.57L509.211 1366.14V1335.27Z" fill="#3C3C3B"/>
<path opacity="0.9051" d="M482.7 1288L536.597 1319.38V1382.14L482.7 1413.52L428.804 1382.14V1319.38L482.7 1288ZM535.979 1319.69L482.649 1288.67L429.318 1319.69V1381.78L482.649 1412.8L535.979 1381.78V1319.69Z" fill="#3C3C3B"/>
<path opacity="0.6545" d="M429.37 1668V1631.73L482.7 1600.66L535.979 1631.73V1668H536.545V1631.37L482.7 1599.99L428.804 1631.37V1668H429.37Z" fill="#3C3C3B"/>
<path opacity="0.9574" d="M367.031 1668L375.474 1663.06L383.916 1668H385.048L375.474 1662.39L365.899 1668H367.031Z" fill="#3C3C3B"/>
<path opacity="0.9474" d="M375.474 1350.4L375.628 1350.5L482.958 1412.95V1538.11L482.804 1538.21L375.474 1600.71L375.319 1600.61L267.99 1538.11V1412.95L268.144 1412.85L375.474 1350.4ZM482.392 1413.31L375.474 1351.07L268.556 1413.31V1537.8L375.474 1600.05L482.392 1537.8V1413.31Z" fill="#3C3C3B"/>
<path opacity="0.8086" d="M268.299 1506.42L295.375 1522.16V1553.7L268.299 1569.49L241.222 1553.7V1522.16L268.299 1506.42ZM294.809 1522.52L268.299 1507.09L241.788 1522.52V1553.39L268.299 1568.82L294.809 1553.39V1522.52Z" fill="#3C3C3B"/>
<path opacity="0.5531" d="M375.474 1319.17L402.551 1334.97V1366.5L375.474 1382.24L348.397 1366.5V1334.97L375.474 1319.17ZM401.985 1335.27L375.474 1319.84L348.963 1335.27V1366.14L375.474 1381.57L401.985 1366.14V1335.27Z" fill="#3C3C3B"/>
<path opacity="0.9538" d="M259.856 1668L268.298 1663.06L276.741 1668H277.873L268.298 1662.39L258.672 1668H259.856Z" fill="#3C3C3B"/>
<path opacity="0.8754" d="M107.793 1668V1631.73L161.072 1600.66L214.402 1631.73V1668H214.968V1631.37L161.072 1599.99L107.175 1631.37V1668H107.793Z" fill="#3C3C3B"/>
<path opacity="0.5051" d="M322.143 1668V1631.73L375.474 1600.66L428.804 1631.73V1668H429.37V1631.37L375.474 1599.99L321.732 1631.32L321.577 1631.37V1668H322.143Z" fill="#3C3C3B"/>
<path opacity="0.8517" d="M170.698 1668L161.381 1662.6V1538.11L268.299 1475.87L375.216 1538.11V1662.6L365.899 1668H367.032L375.628 1663.01L375.783 1662.91V1537.8L268.402 1475.3L268.299 1475.2L160.969 1537.7L160.815 1537.8V1662.91L169.514 1668H170.698Z" fill="#3C3C3B"/>
<path opacity="0.61" d="M161.072 1522.01L174.765 1529.98V1545.93L161.072 1553.9L147.379 1545.93V1529.98L161.072 1522.01ZM174.198 1530.29L161.072 1522.68L147.945 1530.29V1545.57L161.072 1553.18L174.198 1545.57V1530.29Z" fill="#3C3C3B"/>
<path opacity="0.6181" d="M375.474 1475.2L429.37 1506.58V1569.33L375.474 1600.71L375.319 1600.61L321.577 1569.33V1506.58L321.732 1506.47L375.474 1475.2ZM428.804 1506.94L375.474 1475.92L322.143 1506.94V1568.97L375.474 1599.99L428.804 1568.97V1506.94Z" fill="#3C3C3B"/>
<path opacity="0.876" d="M268.299 1350.4L268.453 1350.5L375.783 1412.95V1538.11L375.628 1538.21L268.299 1600.71L268.144 1600.61L160.815 1538.11V1412.95L160.969 1412.85L268.299 1350.4ZM375.216 1413.31L268.299 1351.07L161.381 1413.31V1537.8L268.299 1600.05L375.216 1537.8V1413.31Z" fill="#3C3C3B"/>
<path opacity="0.5845" d="M268.299 1319.17L295.375 1334.97V1366.5L268.299 1382.24L241.222 1366.5V1334.97L268.299 1319.17ZM294.809 1335.27L268.299 1319.84L241.788 1335.27V1366.14L268.299 1381.57L294.809 1366.14V1335.27Z" fill="#3C3C3B"/>
<path opacity="0.5432" d="M375.474 1350.4L375.628 1350.5L429.37 1381.78V1444.54L375.474 1475.92L375.319 1475.81L321.577 1444.54V1381.78L321.732 1381.68L375.474 1350.4ZM428.804 1382.09L375.474 1351.07L322.143 1382.09V1444.18L375.474 1475.2L428.804 1444.18V1382.09Z" fill="#3C3C3B"/>
<path opacity="0.8471" d="M0.566223 1668V1631.73L53.8964 1600.66L107.175 1631.73V1668H107.793V1631.37L53.8964 1599.99L-1.52588e-05 1631.37V1668H0.566223Z" fill="#3C3C3B"/>
<path opacity="0.7774" d="M161.072 1568.82L188.148 1584.61V1616.15L161.072 1631.94L133.995 1616.15V1584.61L161.072 1568.82ZM187.582 1584.92L161.072 1569.49L134.561 1584.92V1615.79L161.072 1631.22L187.582 1615.79V1584.92Z" fill="#3C3C3B"/>
<path opacity="0.6187" d="M152.629 1668L161.072 1663.06L169.514 1668H170.698L161.072 1662.39L151.497 1668H152.629Z" fill="#3C3C3B"/>
<path opacity="0.6525" d="M27.386 1668V1647.32L53.8967 1631.89L80.4073 1647.32V1668H80.9736V1646.96L53.8967 1631.22L26.8197 1646.96V1668H27.386Z" fill="#3C3C3B"/>
<path opacity="0.6134" d="M0.566223 1668V1631.73L53.8964 1600.66L107.175 1631.73V1668H107.793V1631.37L53.8964 1599.99L-1.52588e-05 1631.37V1668H0.566223Z" fill="#3C3C3B"/>
<path opacity="0.951" d="M268.298 1475.2L322.195 1506.58V1569.33L268.298 1600.71L268.144 1600.61L214.402 1569.33V1506.58L214.556 1506.47L268.298 1475.2ZM321.577 1506.94L268.247 1475.92L214.917 1506.94V1568.97L268.247 1599.99L321.577 1568.97V1506.94Z" fill="#3C3C3B"/>
<path opacity="0.6256" d="M53.8964 1350.4L54.0509 1350.5L107.793 1381.78V1444.54L53.8964 1475.92L-1.52588e-05 1444.54V1381.78L0.154442 1381.68L53.8964 1350.4ZM107.175 1382.09L53.845 1351.07L0.514755 1382.09V1444.18L53.845 1475.2L107.175 1444.18V1382.09Z" fill="#3C3C3B"/>
<path opacity="0.6699" d="M268.298 1350.4L268.453 1350.5L322.195 1381.78V1444.54L268.298 1475.92L268.144 1475.81L214.402 1444.54V1381.78L214.556 1381.68L268.298 1350.4ZM321.577 1382.09L268.247 1351.07L214.917 1382.09V1444.18L268.247 1475.2L321.577 1444.18V1382.09Z" fill="#3C3C3B"/>
<path opacity="0.6867" d="M800.829 1522.32C800.829 1520.41 802.373 1518.87 804.226 1518.87C806.131 1518.87 807.624 1520.41 807.624 1522.32C807.624 1524.22 806.079 1525.76 804.226 1525.76C802.373 1525.82 800.829 1524.22 800.829 1522.32Z" fill="#3C3C3B"/>
<path opacity="0.975" d="M747.241 1569.13C747.241 1567.23 748.785 1565.68 750.638 1565.68C752.543 1565.68 754.087 1567.23 754.087 1569.13C754.087 1571.03 752.543 1572.58 750.638 1572.58C748.785 1572.58 747.241 1571.03 747.241 1569.13Z" fill="#3C3C3B"/>
<path opacity="0.9056" d="M693.654 1662.75C693.654 1660.85 695.198 1659.31 697.103 1659.31C699.007 1659.31 700.5 1660.85 700.5 1662.75C700.5 1664.66 698.956 1666.2 697.103 1666.2C695.198 1666.2 693.654 1664.66 693.654 1662.75Z" fill="#3C3C3B"/>
<path opacity="0.862" d="M693.654 1537.96C693.654 1536.05 695.198 1534.51 697.103 1534.51C699.007 1534.51 700.5 1536.05 700.5 1537.96C700.5 1539.86 698.956 1541.4 697.103 1541.4C695.198 1541.4 693.654 1539.86 693.654 1537.96Z" fill="#3C3C3B"/>
<path opacity="0.7249" d="M613.246 1647.17C613.246 1645.26 614.791 1643.72 616.644 1643.72C618.548 1643.72 620.093 1645.26 620.093 1647.17C620.093 1649.07 618.548 1650.61 616.644 1650.61C614.791 1650.61 613.246 1649.07 613.246 1647.17Z" fill="#3C3C3B"/>
<path opacity="0.5437" d="M559.658 1647.17C559.658 1645.26 561.203 1643.72 563.107 1643.72C565.012 1643.72 566.505 1645.26 566.505 1647.17C566.505 1649.07 564.961 1650.61 563.107 1650.61C561.203 1650.61 559.658 1649.07 559.658 1647.17Z" fill="#3C3C3B"/>
<path opacity="0.8559" d="M640.066 1631.53C640.066 1629.62 641.61 1628.08 643.463 1628.08C645.368 1628.08 646.861 1629.62 646.861 1631.53C646.861 1633.43 645.317 1634.97 643.463 1634.97C641.559 1634.97 640.066 1633.43 640.066 1631.53Z" fill="#3C3C3B"/>
<path opacity="0.691" d="M586.478 1522.32C586.478 1520.41 588.023 1518.87 589.876 1518.87C591.78 1518.87 593.325 1520.41 593.325 1522.32C593.325 1524.22 591.78 1525.76 589.876 1525.76C587.971 1525.82 586.478 1524.22 586.478 1522.32Z" fill="#3C3C3B"/>
<path opacity="0.6169" d="M693.654 1537.96C693.654 1536.05 695.198 1534.51 697.103 1534.51C699.007 1534.51 700.5 1536.05 700.5 1537.96C700.5 1539.86 698.956 1541.4 697.103 1541.4C695.198 1541.4 693.654 1539.86 693.654 1537.96Z" fill="#3C3C3B"/>
<path opacity="0.5121" d="M640.066 1569.13C640.066 1567.23 641.61 1565.68 643.463 1565.68C645.368 1565.68 646.912 1567.23 646.912 1569.13C646.912 1571.03 645.368 1572.58 643.463 1572.58C641.61 1572.58 640.066 1571.03 640.066 1569.13Z" fill="#3C3C3B"/>
<path opacity="0.8706" d="M479.251 1647.17C479.251 1645.26 480.796 1643.72 482.649 1643.72C484.553 1643.72 486.098 1645.26 486.098 1647.17C486.098 1649.07 484.553 1650.61 482.649 1650.61C480.796 1650.61 479.251 1649.07 479.251 1647.17Z" fill="#3C3C3B"/>
<path opacity="0.6625" d="M465.867 1545.72C465.867 1543.82 467.412 1542.28 469.316 1542.28C471.221 1542.28 472.714 1543.82 472.714 1545.72C472.714 1547.63 471.17 1549.17 469.316 1549.17C467.412 1549.17 465.867 1547.63 465.867 1545.72Z" fill="#3C3C3B"/>
<path opacity="0.6645" d="M586.478 1350.76C586.478 1348.86 588.023 1347.31 589.876 1347.31C591.78 1347.31 593.325 1348.86 593.325 1350.76C593.325 1352.66 591.78 1354.21 589.876 1354.21C587.971 1354.21 586.478 1352.66 586.478 1350.76Z" fill="#3C3C3B"/>
<path opacity="0.9538" d="M479.251 1413.16C479.251 1411.25 480.796 1409.71 482.649 1409.71C484.553 1409.71 486.098 1411.25 486.098 1413.16C486.098 1415.06 484.553 1416.6 482.649 1416.6C480.796 1416.6 479.251 1415.06 479.251 1413.16Z" fill="#3C3C3B"/>
<path opacity="0.6405" d="M693.654 1537.96C693.654 1536.05 695.198 1534.51 697.103 1534.51C699.007 1534.51 700.5 1536.05 700.5 1537.96C700.5 1539.86 698.956 1541.4 697.103 1541.4C695.198 1541.4 693.654 1539.86 693.654 1537.96Z" fill="#3C3C3B"/>
<path opacity="0.5246" d="M586.478 1537.96C586.478 1536.05 588.023 1534.51 589.876 1534.51C591.78 1534.51 593.325 1536.05 593.325 1537.96C593.325 1539.86 591.78 1541.4 589.876 1541.4C587.971 1541.4 586.478 1539.86 586.478 1537.96Z" fill="#3C3C3B"/>
<path opacity="0.7605" d="M532.839 1569.13C532.839 1567.23 534.383 1565.68 536.288 1565.68C538.193 1565.68 539.686 1567.23 539.686 1569.13C539.686 1571.03 538.141 1572.58 536.288 1572.58C534.383 1572.58 532.839 1571.03 532.839 1569.13Z" fill="#3C3C3B"/>
<path opacity="0.6166" d="M532.839 1631.53C532.839 1629.62 534.383 1628.08 536.288 1628.08C538.193 1628.08 539.686 1629.62 539.686 1631.53C539.686 1633.43 538.141 1634.97 536.288 1634.97C534.383 1634.97 532.839 1633.43 532.839 1631.53Z" fill="#3C3C3B"/>
<path opacity="0.5032" d="M452.483 1553.54C452.483 1551.64 454.027 1550.1 455.881 1550.1C457.785 1550.1 459.33 1551.64 459.33 1553.54C459.33 1555.45 457.785 1556.99 455.881 1556.99C453.976 1556.99 452.483 1555.45 452.483 1553.54Z" fill="#3C3C3B"/>
<path opacity="0.9074" d="M318.489 1631.53C318.489 1629.62 320.033 1628.08 321.886 1628.08C323.791 1628.08 325.284 1629.62 325.284 1631.53C325.284 1633.43 323.739 1634.97 321.886 1634.97C319.982 1634.97 318.489 1633.43 318.489 1631.53Z" fill="#3C3C3B"/>
<path opacity="0.6002" d="M605.576 1668C604.958 1667.43 604.186 1667.13 603.311 1667.13C602.436 1667.13 601.612 1667.49 601.046 1668H605.576Z" fill="#3C3C3B"/>
<path opacity="0.6002" d="M372.076 1600.35C372.076 1598.45 373.62 1596.91 375.474 1596.91C377.327 1596.91 378.871 1598.45 378.871 1600.35C378.871 1602.26 377.327 1603.8 375.474 1603.8C373.62 1603.8 372.076 1602.26 372.076 1600.35Z" fill="#3C3C3B"/>
<path opacity="0.6607" d="M532.839 1569.13C532.839 1567.23 534.383 1565.68 536.288 1565.68C538.193 1565.68 539.686 1567.23 539.686 1569.13C539.686 1571.03 538.141 1572.58 536.288 1572.58C534.383 1572.58 532.839 1571.03 532.839 1569.13Z" fill="#3C3C3B"/>
<path opacity="0.5786" d="M452.483 1335.12C452.483 1333.22 454.027 1331.67 455.881 1331.67C457.785 1331.67 459.33 1333.22 459.33 1335.12C459.33 1337.02 457.785 1338.57 455.881 1338.57C453.976 1338.57 452.483 1337.02 452.483 1335.12Z" fill="#3C3C3B"/>
<path opacity="0.9283" d="M479.251 1381.93C479.251 1380.03 480.796 1378.49 482.649 1378.49C484.553 1378.49 486.098 1380.03 486.098 1381.93C486.098 1383.84 484.553 1385.38 482.649 1385.38C480.796 1385.38 479.251 1383.84 479.251 1381.93Z" fill="#3C3C3B"/>
<path opacity="0.6334" d="M506.071 1366.35C506.071 1364.44 507.615 1362.9 509.468 1362.9C511.373 1362.9 512.866 1364.44 512.866 1366.35C512.866 1368.25 511.321 1369.79 509.468 1369.79C507.564 1369.79 506.071 1368.25 506.071 1366.35Z" fill="#3C3C3B"/>
<path opacity="0.6939" d="M532.839 1319.53C532.839 1317.63 534.383 1316.09 536.288 1316.09C538.193 1316.09 539.686 1317.63 539.686 1319.53C539.686 1321.44 538.141 1322.98 536.288 1322.98C534.383 1322.98 532.839 1321.44 532.839 1319.53Z" fill="#3C3C3B"/>
<path opacity="0.7705" d="M479.251 1600.35C479.251 1598.45 480.796 1596.91 482.649 1596.91C484.553 1596.91 486.098 1598.45 486.098 1600.35C486.098 1602.26 484.553 1603.8 482.649 1603.8C480.796 1603.8 479.251 1602.26 479.251 1600.35Z" fill="#3C3C3B"/>
<path opacity="0.8428" d="M425.664 1631.53C425.664 1629.62 427.208 1628.08 429.113 1628.08C431.017 1628.08 432.51 1629.62 432.51 1631.53C432.51 1633.43 430.966 1634.97 429.113 1634.97C427.208 1634.97 425.664 1633.43 425.664 1631.53Z" fill="#3C3C3B"/>
<path opacity="0.9917" d="M238.081 1522.32C238.081 1520.41 239.626 1518.87 241.53 1518.87C243.435 1518.87 244.928 1520.41 244.928 1522.32C244.928 1524.22 243.383 1525.76 241.53 1525.76C239.574 1525.82 238.081 1524.22 238.081 1522.32Z" fill="#3C3C3B"/>
<path opacity="0.9612" d="M238.081 1553.54C238.081 1551.64 239.626 1550.1 241.53 1550.1C243.435 1550.1 244.928 1551.64 244.928 1553.54C244.928 1555.45 243.383 1556.99 241.53 1556.99C239.574 1556.99 238.081 1555.45 238.081 1553.54Z" fill="#3C3C3B"/>
<path opacity="0.6836" d="M104.087 1631.53C104.087 1629.62 105.631 1628.08 107.536 1628.08C109.44 1628.08 110.933 1629.62 110.933 1631.53C110.933 1633.43 109.389 1634.97 107.536 1634.97C105.58 1634.97 104.087 1633.43 104.087 1631.53Z" fill="#3C3C3B"/>
<path opacity="0.9087" d="M425.664 1631.53C425.664 1629.62 427.208 1628.08 429.061 1628.08C430.966 1628.08 432.51 1629.62 432.51 1631.53C432.51 1633.43 430.966 1634.97 429.061 1634.97C427.208 1634.97 425.664 1633.43 425.664 1631.53Z" fill="#3C3C3B"/>
<path opacity="0.7254" d="M318.489 1631.53C318.489 1629.62 320.033 1628.08 321.886 1628.08C323.791 1628.08 325.284 1629.62 325.284 1631.53C325.284 1633.43 323.739 1634.97 321.886 1634.97C319.982 1634.97 318.489 1633.43 318.489 1631.53Z" fill="#3C3C3B"/>
<path opacity="0.5217" d="M372.076 1537.96C372.076 1536.05 373.62 1534.51 375.474 1534.51C377.327 1534.51 378.871 1536.05 378.871 1537.96C378.871 1539.86 377.327 1541.4 375.474 1541.4C373.62 1541.4 372.076 1539.86 372.076 1537.96Z" fill="#3C3C3B"/>
<path opacity="0.758" d="M372.076 1662.75C372.076 1660.85 373.62 1659.31 375.474 1659.31C377.327 1659.31 378.871 1660.85 378.871 1662.75C378.871 1664.66 377.327 1666.2 375.474 1666.2C373.62 1666.2 372.076 1664.66 372.076 1662.75Z" fill="#3C3C3B"/>
<path opacity="0.5672" d="M171.058 1530.14C171.058 1528.23 172.603 1526.69 174.507 1526.69C176.412 1526.69 177.905 1528.23 177.905 1530.14C177.905 1532.04 176.36 1533.58 174.507 1533.58C172.603 1533.58 171.058 1532.04 171.058 1530.14Z" fill="#3C3C3B"/>
<path opacity="0.6639" d="M144.238 1545.72C144.238 1543.82 145.783 1542.28 147.687 1542.28C149.592 1542.28 151.085 1543.82 151.085 1545.72C151.085 1547.63 149.541 1549.17 147.687 1549.17C145.783 1549.17 144.238 1547.63 144.238 1545.72Z" fill="#3C3C3B"/>
<path opacity="0.7845" d="M157.674 1553.54C157.674 1551.64 159.219 1550.1 161.072 1550.1C162.976 1550.1 164.469 1551.64 164.469 1553.54C164.469 1555.45 162.925 1556.99 161.072 1556.99C159.219 1556.99 157.674 1555.45 157.674 1553.54Z" fill="#3C3C3B"/>
<path opacity="0.8686" d="M264.849 1319.53C264.849 1317.63 266.394 1316.09 268.298 1316.09C270.203 1316.09 271.696 1317.63 271.696 1319.53C271.696 1321.44 270.151 1322.98 268.298 1322.98C266.394 1322.98 264.849 1321.44 264.849 1319.53Z" fill="#3C3C3B"/>
<path opacity="0.9438" d="M318.489 1444.33C318.489 1442.43 320.033 1440.88 321.886 1440.88C323.791 1440.88 325.284 1442.43 325.284 1444.33C325.284 1446.23 323.739 1447.78 321.886 1447.78C319.982 1447.78 318.489 1446.23 318.489 1444.33Z" fill="#3C3C3B"/>
<path opacity="0.8488" d="M372.076 1475.56C372.076 1473.65 373.62 1472.11 375.474 1472.11C377.327 1472.11 378.871 1473.65 378.871 1475.56C378.871 1477.46 377.327 1479 375.474 1479C373.62 1479 372.076 1477.46 372.076 1475.56Z" fill="#3C3C3B"/>
<path opacity="0.5604" d="M104.087 1631.53C104.087 1629.62 105.631 1628.08 107.484 1628.08C109.389 1628.08 110.933 1629.62 110.933 1631.53C110.933 1633.43 109.389 1634.97 107.484 1634.97C105.58 1634.97 104.087 1633.43 104.087 1631.53Z" fill="#3C3C3B"/>
<path opacity="0.8646" d="M50.4477 1600.35C50.4477 1598.45 51.992 1596.91 53.8452 1596.91C55.7499 1596.91 57.2427 1598.45 57.2427 1600.35C57.2427 1602.26 55.6984 1603.8 53.8452 1603.8C51.992 1603.8 50.4477 1602.26 50.4477 1600.35Z" fill="#3C3C3B"/>
<path opacity="0.5312" d="M157.674 1569.13C157.674 1567.23 159.219 1565.68 161.072 1565.68C162.976 1565.68 164.469 1567.23 164.469 1569.13C164.469 1571.03 162.925 1572.58 161.072 1572.58C159.219 1572.58 157.674 1571.03 157.674 1569.13Z" fill="#3C3C3B"/>
<path opacity="0.7235" d="M77.2668 1647.17C77.2668 1645.26 78.8112 1643.72 80.7158 1643.72C82.6205 1643.72 84.1133 1645.26 84.1133 1647.17C84.1133 1649.07 82.569 1650.61 80.7158 1650.61C78.8112 1650.61 77.2668 1649.07 77.2668 1647.17Z" fill="#3C3C3B"/>
<path opacity="0.5885" d="M23.6797 1647.17C23.6797 1645.26 25.224 1643.72 27.0771 1643.72C28.9818 1643.72 30.4746 1645.26 30.4746 1647.17C30.4746 1649.07 28.9303 1650.61 27.0771 1650.61C25.224 1650.61 23.6797 1649.07 23.6797 1647.17Z" fill="#3C3C3B"/>
<path opacity="0.8858" d="M318.489 1506.73C318.489 1504.83 320.033 1503.28 321.886 1503.28C323.791 1503.28 325.284 1504.83 325.284 1506.73C325.284 1508.63 323.739 1510.18 321.886 1510.18C319.982 1510.18 318.489 1508.63 318.489 1506.73Z" fill="#3C3C3B"/>
<path opacity="0.5875" d="M211.262 1506.73C211.262 1504.83 212.806 1503.28 214.659 1503.28C216.564 1503.28 218.057 1504.83 218.057 1506.73C218.057 1508.63 216.512 1510.18 214.659 1510.18C212.806 1510.18 211.262 1508.63 211.262 1506.73Z" fill="#3C3C3B"/>
<path opacity="0.9745" d="M50.4477 1475.56C50.4477 1473.65 51.992 1472.11 53.8452 1472.11C55.7499 1472.11 57.2427 1473.65 57.2427 1475.56C57.2427 1477.46 55.6984 1479 53.8452 1479C51.992 1479 50.4477 1477.46 50.4477 1475.56Z" fill="#3C3C3B"/>
<path opacity="0.6677" d="M264.849 1350.76C264.849 1348.86 266.394 1347.31 268.298 1347.31C270.203 1347.31 271.696 1348.86 271.696 1350.76C271.696 1352.66 270.151 1354.21 268.298 1354.21C266.394 1354.21 264.849 1352.66 264.849 1350.76Z" fill="#3C3C3B"/>
<path opacity="0.779" d="M264.849 1475.56C264.849 1473.65 266.394 1472.11 268.298 1472.11C270.203 1472.11 271.696 1473.65 271.696 1475.56C271.696 1477.46 270.151 1479 268.298 1479C266.394 1479 264.849 1477.46 264.849 1475.56Z" fill="#3C3C3B"/>
</g>
<g opacity="0.3" clip-path="url(#clip1_2017_1231)">
<path opacity="0.8516" d="M1914.72 0H1915.85L1906.53 5.40138V129.89L1921 138.275V138.944L1906.12 130.302L1905.97 130.199V5.09273L1914.72 0Z" fill="#3C3C3B"/>
<path opacity="0.9669" d="M1906.28 145.992L1919.97 138.018V122.071L1906.28 114.098L1892.58 122.071V138.018L1906.28 145.992ZM1919.4 137.709L1906.28 145.323L1893.15 137.709V122.431L1906.28 114.818L1919.4 122.431V137.709Z" fill="#3C3C3B"/>
<path opacity="0.716" d="M1897.84 0L1906.28 4.93841L1914.72 0H1915.85L1906.28 5.60715L1896.7 0H1897.84Z" fill="#3C3C3B"/>
<path opacity="0.8412" d="M1906.28 4.93842L1921 13.4777V14.1465L1906.28 5.60716L1852.95 36.6265V98.6652L1906.28 129.736L1921 121.145V121.814L1906.43 130.302L1906.28 130.405L1852.54 99.1282L1852.38 99.0253V36.2664L1906.28 4.93842Z" fill="#3C3C3B"/>
<path opacity="0.994" d="M1799.05 192.804L1852.95 161.424V98.6652L1799.05 67.2858L1745.15 98.6652V161.424L1799.05 192.804ZM1852.38 161.064L1799.05 192.083L1745.72 161.064V99.0253L1799.05 68.0059L1852.38 99.0253V161.064Z" fill="#3C3C3B"/>
<path opacity="0.9394" d="M1799.05 192.804L1852.95 161.424V98.6652L1799.05 67.2858L1745.15 98.6652V161.424L1799.05 192.804ZM1852.38 161.064L1799.05 192.083L1745.72 161.064V99.0253L1799.05 68.0059L1852.38 99.0253V161.064Z" fill="#3C3C3B"/>
<path opacity="0.9775" d="M1790.61 0L1799.05 4.93841L1807.54 0H1808.68L1799.05 5.60715L1789.48 0H1790.61Z" fill="#3C3C3B"/>
<path opacity="0.7716" d="M1799.05 130.405L1799.21 130.302L1852.95 99.0253V36.2664L1799.05 4.88696L1745.15 36.2664V99.0253L1745.31 99.1282L1799.05 130.405ZM1852.38 98.6652L1799.05 129.685L1745.72 98.6652V36.6265L1799.05 5.60715L1852.38 36.6265V98.6652Z" fill="#3C3C3B"/>
<path opacity="0.6343" d="M1790.61 0L1799.05 4.93841L1807.54 0H1808.68L1799.05 5.60715L1789.48 0H1790.61Z" fill="#3C3C3B"/>
<path opacity="0.6715" d="M1665.37 0V20.6796L1691.88 36.1121L1718.39 20.6796V0H1718.95V21.0397L1691.88 36.7808L1664.8 21.0397V0H1665.37Z" fill="#3C3C3B"/>
<path opacity="0.9459" d="M1638.55 0V36.2664L1691.88 67.3372L1745.21 36.2664V0H1745.77V36.6265L1691.88 68.006L1637.98 36.6265V0H1638.55Z" fill="#3C3C3B"/>
<path opacity="0.5261" d="M1691.88 145.992L1705.57 138.018V122.071L1691.88 114.098L1678.18 122.071V138.018L1691.88 145.992ZM1705 137.709L1691.88 145.323L1678.75 137.709V122.431L1691.88 114.818L1705 122.431V137.709Z" fill="#3C3C3B"/>
<path opacity="0.5223" d="M1799.05 130.405L1799.21 130.302L1852.95 99.0253V36.2664L1799.05 4.88696L1745.15 36.2664V99.0253L1745.31 99.1282L1799.05 130.405ZM1852.38 98.6652L1799.05 129.685L1745.72 98.6652V36.6265L1799.05 5.60715L1852.38 36.6265V98.6652Z" fill="#3C3C3B"/>
<path opacity="0.8962" d="M1571.57 0V12.8604L1584.7 20.5252L1597.78 12.8604V0H1598.34V13.2205L1584.7 21.194L1571.01 13.2205V0H1571.57Z" fill="#3C3C3B"/>
<path opacity="0.5211" d="M1584.7 145.992L1598.39 138.018V122.071L1584.7 114.098L1571.01 122.071V138.018L1584.7 145.992ZM1597.78 137.709L1584.65 145.323L1571.52 137.709V122.431L1584.65 114.818L1597.78 122.431V137.709Z" fill="#3C3C3B"/>
<path opacity="0.6374" d="M1691.88 317.601L1692.03 317.498L1799.36 255.048V129.89L1799.21 129.787L1691.88 67.2858L1691.72 67.3886L1584.39 129.89V255.048L1584.55 255.151L1691.88 317.601ZM1798.79 254.688L1691.88 316.932L1584.96 254.688V130.199L1691.88 67.9545L1798.79 130.199V254.688Z" fill="#3C3C3B"/>
<path opacity="0.5189" d="M1691.88 130.405L1692.03 130.302L1745.77 99.0253V36.2664L1691.88 4.88696L1637.98 36.2664V99.0253L1638.13 99.1282L1691.88 130.405ZM1745.21 98.6652L1691.88 129.685L1638.55 98.6652V36.6265L1691.88 5.60715L1745.21 36.6265V98.6652Z" fill="#3C3C3B"/>
<path opacity="0.5082" d="M1584.7 161.578L1611.78 145.837V114.303L1584.7 98.5109L1557.62 114.303V145.837L1584.7 161.578ZM1611.21 145.477L1584.7 160.91L1558.19 145.477V114.612L1584.7 99.1796L1611.21 114.612V145.477Z" fill="#3C3C3B"/>
<path opacity="0.5792" d="M1424.14 0V36.2664L1477.47 67.3372L1530.8 36.2664V0H1531.37V36.6265L1477.47 68.006L1423.73 36.6779L1423.58 36.6265V0H1424.14Z" fill="#3C3C3B"/>
<path opacity="0.9861" d="M1584.7 130.405L1584.85 130.302L1638.6 99.0253V36.2664L1584.7 4.88696L1530.8 36.2664V99.0253L1530.96 99.1282L1584.7 130.405ZM1637.98 98.6652L1584.65 129.685L1531.32 98.6652V36.6265L1584.7 5.60715L1637.98 36.6265V98.6652Z" fill="#3C3C3B"/>
<path opacity="0.9808" d="M1678.75 0V12.8604L1691.88 20.5252L1705 12.8604V0H1705.57V13.2205L1691.88 21.194L1678.18 13.2205V0H1678.75Z" fill="#3C3C3B"/>
<path opacity="0.9699" d="M1424.14 0V36.2664L1477.47 67.3372L1530.8 36.2664V0H1531.37V36.6265L1477.47 68.006L1423.73 36.6779L1423.58 36.6265V0H1424.14Z" fill="#3C3C3B"/>
<path opacity="0.9622" d="M1691.88 192.804L1745.77 161.424V98.6652L1691.88 67.2858L1637.98 98.6652V161.424L1691.88 192.804ZM1745.21 161.064L1691.88 192.083L1638.55 161.064V99.0253L1691.88 68.0059L1745.21 99.0253V161.064Z" fill="#3C3C3B"/>
<path opacity="0.6304" d="M1691.88 192.804L1745.77 161.424V98.6652L1691.88 67.2858L1637.98 98.6652V161.424L1691.88 192.804ZM1745.21 161.064L1691.88 192.083L1638.55 161.064V99.0253L1691.88 68.0059L1745.21 99.0253V161.064Z" fill="#3C3C3B"/>
<path opacity="0.8387" d="M1584.7 348.826L1611.78 333.034V301.5L1584.7 285.759L1557.62 301.5V333.034L1584.7 348.826ZM1611.21 332.725L1584.7 348.158L1558.19 332.725V301.86L1584.7 286.428L1611.21 301.86V332.725Z" fill="#3C3C3B"/>
<path opacity="0.9051" d="M1584.7 380L1638.6 348.621V285.862L1584.7 254.482L1530.8 285.862V348.621L1584.7 380ZM1637.98 348.312L1584.65 379.331L1531.32 348.312V286.222L1584.65 255.202L1637.98 286.222V348.312Z" fill="#3C3C3B"/>
<path opacity="0.6545" d="M1531.37 0V36.2664L1584.7 67.3372L1637.98 36.2664V0H1638.55V36.6265L1584.7 68.006L1530.8 36.6265V0H1531.37Z" fill="#3C3C3B"/>
<path opacity="0.9574" d="M1469.03 0L1477.47 4.93841L1485.92 0H1487.05L1477.47 5.60715L1467.9 0H1469.03Z" fill="#3C3C3B"/>
<path opacity="0.9474" d="M1477.47 317.601L1477.63 317.498L1584.96 255.048V129.89L1584.8 129.787L1477.47 67.2858L1477.32 67.3886L1369.99 129.89V255.048L1370.14 255.151L1477.47 317.601ZM1584.39 254.688L1477.47 316.932L1370.56 254.688V130.199L1477.47 67.9545L1584.39 130.199V254.688Z" fill="#3C3C3B"/>
<path opacity="0.8086" d="M1370.3 161.578L1397.38 145.837V114.303L1370.3 98.5109L1343.22 114.303V145.837L1370.3 161.578ZM1396.81 145.477L1370.3 160.91L1343.79 145.477V114.612L1370.3 99.1796L1396.81 114.612V145.477Z" fill="#3C3C3B"/>
<path opacity="0.5531" d="M1477.47 348.826L1504.55 333.034V301.5L1477.47 285.759L1450.4 301.5V333.034L1477.47 348.826ZM1503.98 332.725L1477.47 348.158L1450.96 332.725V301.86L1477.47 286.428L1503.98 301.86V332.725Z" fill="#3C3C3B"/>
<path opacity="0.9538" d="M1361.86 0L1370.3 4.93841L1378.74 0H1379.87L1370.3 5.60715L1360.67 0H1361.86Z" fill="#3C3C3B"/>
<path opacity="0.8754" d="M1209.79 0V36.2664L1263.07 67.3372L1316.4 36.2664V0H1316.97V36.6265L1263.07 68.006L1209.18 36.6265V0H1209.79Z" fill="#3C3C3B"/>
<path opacity="0.5051" d="M1424.14 0V36.2664L1477.47 67.3372L1530.8 36.2664V0H1531.37V36.6265L1477.47 68.006L1423.73 36.6779L1423.58 36.6265V0H1424.14Z" fill="#3C3C3B"/>
<path opacity="0.8517" d="M1272.7 0L1263.38 5.40138V129.89L1370.3 192.135L1477.22 129.89V5.40138L1467.9 0H1469.03L1477.63 4.98985L1477.78 5.09273V130.199L1370.4 192.701L1370.3 192.804L1262.97 130.302L1262.81 130.199V5.09273L1271.51 0H1272.7Z" fill="#3C3C3B"/>
<path opacity="0.61" d="M1263.07 145.992L1276.76 138.018V122.071L1263.07 114.098L1249.38 122.071V138.018L1263.07 145.992ZM1276.2 137.709L1263.07 145.323L1249.95 137.709V122.431L1263.07 114.818L1276.2 122.431V137.709Z" fill="#3C3C3B"/>
<path opacity="0.6181" d="M1477.47 192.804L1531.37 161.424V98.6652L1477.47 67.2858L1477.32 67.3886L1423.58 98.6652V161.424L1423.73 161.527L1477.47 192.804ZM1530.8 161.064L1477.47 192.083L1424.14 161.064V99.0253L1477.47 68.0059L1530.8 99.0253V161.064Z" fill="#3C3C3B"/>
<path opacity="0.876" d="M1370.3 317.601L1370.45 317.498L1477.78 255.048V129.89L1477.63 129.787L1370.3 67.2858L1370.14 67.3886L1262.81 129.89V255.048L1262.97 255.151L1370.3 317.601ZM1477.22 254.688L1370.3 316.932L1263.38 254.688V130.199L1370.3 67.9545L1477.22 130.199V254.688Z" fill="#3C3C3B"/>
<path opacity="0.5845" d="M1370.3 348.826L1397.38 333.034V301.5L1370.3 285.759L1343.22 301.5V333.034L1370.3 348.826ZM1396.81 332.725L1370.3 348.158L1343.79 332.725V301.86L1370.3 286.428L1396.81 301.86V332.725Z" fill="#3C3C3B"/>
<path opacity="0.5432" d="M1477.47 317.601L1477.63 317.498L1531.37 286.222V223.463L1477.47 192.083L1477.32 192.186L1423.58 223.463V286.222L1423.73 286.325L1477.47 317.601ZM1530.8 285.913L1477.47 316.932L1424.14 285.913V223.823L1477.47 192.804L1530.8 223.823V285.913Z" fill="#3C3C3B"/>
<path opacity="0.8471" d="M1102.57 0V36.2664L1155.9 67.3372L1209.18 36.2664V0H1209.79V36.6265L1155.9 68.006L1102 36.6265V0H1102.57Z" fill="#3C3C3B"/>
<path opacity="0.7774" d="M1263.07 99.1797L1290.15 83.3871V51.8533L1263.07 36.0607L1235.99 51.8533V83.3871L1263.07 99.1797ZM1289.58 83.0784L1263.07 98.5109L1236.56 83.0784V52.2134L1263.07 36.7809L1289.58 52.2134V83.0784Z" fill="#3C3C3B"/>
<path opacity="0.6187" d="M1254.63 0L1263.07 4.93841L1271.51 0H1272.7L1263.07 5.60715L1253.5 0H1254.63Z" fill="#3C3C3B"/>
<path opacity="0.6525" d="M1129.39 0V20.6796L1155.9 36.1121L1182.41 20.6796V0H1182.97V21.0397L1155.9 36.7808L1128.82 21.0397V0H1129.39Z" fill="#3C3C3B"/>
<path opacity="0.6134" d="M1102.57 0V36.2664L1155.9 67.3372L1209.18 36.2664V0H1209.79V36.6265L1155.9 68.006L1102 36.6265V0H1102.57Z" fill="#3C3C3B"/>
<path opacity="0.951" d="M1370.3 192.804L1424.19 161.424V98.6652L1370.3 67.2858L1370.14 67.3886L1316.4 98.6652V161.424L1316.56 161.527L1370.3 192.804ZM1423.58 161.064L1370.25 192.083L1316.92 161.064V99.0253L1370.25 68.0059L1423.58 99.0253V161.064Z" fill="#3C3C3B"/>
<path opacity="0.6256" d="M1155.9 317.601L1156.05 317.498L1209.79 286.222V223.463L1155.9 192.083L1102 223.463V286.222L1102.15 286.325L1155.9 317.601ZM1209.18 285.913L1155.84 316.932L1102.51 285.913V223.823L1155.84 192.804L1209.18 223.823V285.913Z" fill="#3C3C3B"/>
<path opacity="0.6699" d="M1370.3 317.601L1370.45 317.498L1424.19 286.222V223.463L1370.3 192.083L1370.14 192.186L1316.4 223.463V286.222L1316.56 286.325L1370.3 317.601ZM1423.58 285.913L1370.25 316.932L1316.92 285.913V223.823L1370.25 192.804L1423.58 223.823V285.913Z" fill="#3C3C3B"/>
<path opacity="0.6867" d="M1902.83 145.683C1902.83 147.586 1904.37 149.13 1906.23 149.13C1908.13 149.13 1909.62 147.586 1909.62 145.683C1909.62 143.78 1908.08 142.236 1906.23 142.236C1904.37 142.185 1902.83 143.78 1902.83 145.683Z" fill="#3C3C3B"/>
<path opacity="0.975" d="M1849.24 98.871C1849.24 100.774 1850.79 102.318 1852.64 102.318C1854.54 102.318 1856.09 100.774 1856.09 98.871C1856.09 96.9676 1854.54 95.4244 1852.64 95.4244C1850.79 95.4244 1849.24 96.9676 1849.24 98.871Z" fill="#3C3C3B"/>
<path opacity="0.9056" d="M1795.65 5.24707C1795.65 7.15042 1797.2 8.69367 1799.1 8.69367C1801.01 8.69367 1802.5 7.15042 1802.5 5.24707C1802.5 3.34373 1800.96 1.80048 1799.1 1.80048C1797.2 1.80048 1795.65 3.34373 1795.65 5.24707Z" fill="#3C3C3B"/>
<path opacity="0.862" d="M1795.65 130.045C1795.65 131.948 1797.2 133.491 1799.1 133.491C1801.01 133.491 1802.5 131.948 1802.5 130.045C1802.5 128.141 1800.96 126.598 1799.1 126.598C1797.2 126.598 1795.65 128.141 1795.65 130.045Z" fill="#3C3C3B"/>
<path opacity="0.7249" d="M1715.25 20.8339C1715.25 22.7373 1716.79 24.2805 1718.64 24.2805C1720.55 24.2805 1722.09 22.7373 1722.09 20.8339C1722.09 18.9306 1720.55 17.3873 1718.64 17.3873C1716.79 17.3873 1715.25 18.9306 1715.25 20.8339Z" fill="#3C3C3B"/>
<path opacity="0.5437" d="M1661.66 20.8339C1661.66 22.7373 1663.2 24.2805 1665.11 24.2805C1667.01 24.2805 1668.5 22.7373 1668.5 20.8339C1668.5 18.9306 1666.96 17.3873 1665.11 17.3873C1663.2 17.3873 1661.66 18.9306 1661.66 20.8339Z" fill="#3C3C3B"/>
<path opacity="0.8559" d="M1742.07 36.4722C1742.07 38.3755 1743.61 39.9188 1745.46 39.9188C1747.37 39.9188 1748.86 38.3755 1748.86 36.4722C1748.86 34.5688 1747.32 33.0256 1745.46 33.0256C1743.56 33.0256 1742.07 34.5688 1742.07 36.4722Z" fill="#3C3C3B"/>
<path opacity="0.691" d="M1688.48 145.683C1688.48 147.586 1690.02 149.13 1691.88 149.13C1693.78 149.13 1695.32 147.586 1695.32 145.683C1695.32 143.78 1693.78 142.236 1691.88 142.236C1689.97 142.185 1688.48 143.78 1688.48 145.683Z" fill="#3C3C3B"/>
<path opacity="0.6169" d="M1795.65 130.045C1795.65 131.948 1797.2 133.491 1799.1 133.491C1801.01 133.491 1802.5 131.948 1802.5 130.045C1802.5 128.141 1800.96 126.598 1799.1 126.598C1797.2 126.598 1795.65 128.141 1795.65 130.045Z" fill="#3C3C3B"/>
<path opacity="0.5121" d="M1742.07 98.871C1742.07 100.774 1743.61 102.318 1745.46 102.318C1747.37 102.318 1748.91 100.774 1748.91 98.871C1748.91 96.9676 1747.37 95.4244 1745.46 95.4244C1743.61 95.4244 1742.07 96.9676 1742.07 98.871Z" fill="#3C3C3B"/>
<path opacity="0.8706" d="M1581.25 20.8339C1581.25 22.7373 1582.8 24.2805 1584.65 24.2805C1586.55 24.2805 1588.1 22.7373 1588.1 20.8339C1588.1 18.9306 1586.55 17.3873 1584.65 17.3873C1582.8 17.3873 1581.25 18.9306 1581.25 20.8339Z" fill="#3C3C3B"/>
<path opacity="0.6625" d="M1567.87 122.277C1567.87 124.18 1569.41 125.724 1571.32 125.724C1573.22 125.724 1574.71 124.18 1574.71 122.277C1574.71 120.374 1573.17 118.83 1571.32 118.83C1569.41 118.83 1567.87 120.374 1567.87 122.277Z" fill="#3C3C3B"/>
<path opacity="0.6645" d="M1688.48 317.241C1688.48 319.144 1690.02 320.688 1691.88 320.688C1693.78 320.688 1695.32 319.144 1695.32 317.241C1695.32 315.338 1693.78 313.794 1691.88 313.794C1689.97 313.794 1688.48 315.338 1688.48 317.241Z" fill="#3C3C3B"/>
<path opacity="0.9538" d="M1581.25 254.842C1581.25 256.746 1582.8 258.289 1584.65 258.289C1586.55 258.289 1588.1 256.746 1588.1 254.842C1588.1 252.939 1586.55 251.396 1584.65 251.396C1582.8 251.396 1581.25 252.939 1581.25 254.842Z" fill="#3C3C3B"/>
<path opacity="0.6405" d="M1795.65 130.045C1795.65 131.948 1797.2 133.491 1799.1 133.491C1801.01 133.491 1802.5 131.948 1802.5 130.045C1802.5 128.141 1800.96 126.598 1799.1 126.598C1797.2 126.598 1795.65 128.141 1795.65 130.045Z" fill="#3C3C3B"/>
<path opacity="0.5246" d="M1688.48 130.045C1688.48 131.948 1690.02 133.491 1691.88 133.491C1693.78 133.491 1695.32 131.948 1695.32 130.045C1695.32 128.141 1693.78 126.598 1691.88 126.598C1689.97 126.598 1688.48 128.141 1688.48 130.045Z" fill="#3C3C3B"/>
<path opacity="0.7605" d="M1634.84 98.871C1634.84 100.774 1636.38 102.318 1638.29 102.318C1640.19 102.318 1641.69 100.774 1641.69 98.871C1641.69 96.9676 1640.14 95.4244 1638.29 95.4244C1636.38 95.4244 1634.84 96.9676 1634.84 98.871Z" fill="#3C3C3B"/>
<path opacity="0.6166" d="M1634.84 36.4722C1634.84 38.3755 1636.38 39.9188 1638.29 39.9188C1640.19 39.9188 1641.69 38.3755 1641.69 36.4722C1641.69 34.5688 1640.14 33.0256 1638.29 33.0256C1636.38 33.0256 1634.84 34.5688 1634.84 36.4722Z" fill="#3C3C3B"/>
<path opacity="0.5032" d="M1554.48 114.458C1554.48 116.361 1556.03 117.904 1557.88 117.904C1559.79 117.904 1561.33 116.361 1561.33 114.458C1561.33 112.554 1559.79 111.011 1557.88 111.011C1555.98 111.011 1554.48 112.554 1554.48 114.458Z" fill="#3C3C3B"/>
<path opacity="0.9074" d="M1420.49 36.4722C1420.49 38.3755 1422.03 39.9188 1423.89 39.9188C1425.79 39.9188 1427.28 38.3755 1427.28 36.4722C1427.28 34.5688 1425.74 33.0256 1423.89 33.0256C1421.98 33.0256 1420.49 34.5688 1420.49 36.4722Z" fill="#3C3C3B"/>
<path opacity="0.6002" d="M1707.58 0C1706.96 0.565859 1706.19 0.874509 1705.31 0.874509C1704.44 0.874509 1703.61 0.514417 1703.05 0H1707.58Z" fill="#3C3C3B"/>
<path opacity="0.6002" d="M1474.08 67.6459C1474.08 69.5492 1475.62 71.0925 1477.47 71.0925C1479.33 71.0925 1480.87 69.5492 1480.87 67.6459C1480.87 65.7425 1479.33 64.1993 1477.47 64.1993C1475.62 64.1993 1474.08 65.7425 1474.08 67.6459Z" fill="#3C3C3B"/>
<path opacity="0.6607" d="M1634.84 98.871C1634.84 100.774 1636.38 102.318 1638.29 102.318C1640.19 102.318 1641.69 100.774 1641.69 98.871C1641.69 96.9676 1640.14 95.4244 1638.29 95.4244C1636.38 95.4244 1634.84 96.9676 1634.84 98.871Z" fill="#3C3C3B"/>
<path opacity="0.5786" d="M1554.48 332.879C1554.48 334.783 1556.03 336.326 1557.88 336.326C1559.79 336.326 1561.33 334.783 1561.33 332.879C1561.33 330.976 1559.79 329.433 1557.88 329.433C1555.98 329.433 1554.48 330.976 1554.48 332.879Z" fill="#3C3C3B"/>
<path opacity="0.9283" d="M1581.25 286.067C1581.25 287.971 1582.8 289.514 1584.65 289.514C1586.55 289.514 1588.1 287.971 1588.1 286.067C1588.1 284.164 1586.55 282.621 1584.65 282.621C1582.8 282.621 1581.25 284.164 1581.25 286.067Z" fill="#3C3C3B"/>
<path opacity="0.6334" d="M1608.07 301.654C1608.07 303.558 1609.62 305.101 1611.47 305.101C1613.37 305.101 1614.87 303.558 1614.87 301.654C1614.87 299.751 1613.32 298.208 1611.47 298.208C1609.56 298.208 1608.07 299.751 1608.07 301.654Z" fill="#3C3C3B"/>
<path opacity="0.6939" d="M1634.84 348.466C1634.84 350.37 1636.38 351.913 1638.29 351.913C1640.19 351.913 1641.69 350.37 1641.69 348.466C1641.69 346.563 1640.14 345.02 1638.29 345.02C1636.38 345.02 1634.84 346.563 1634.84 348.466Z" fill="#3C3C3B"/>
<path opacity="0.7705" d="M1581.25 67.6459C1581.25 69.5492 1582.8 71.0925 1584.65 71.0925C1586.55 71.0925 1588.1 69.5492 1588.1 67.6459C1588.1 65.7425 1586.55 64.1993 1584.65 64.1993C1582.8 64.1993 1581.25 65.7425 1581.25 67.6459Z" fill="#3C3C3B"/>
<path opacity="0.8428" d="M1527.66 36.4722C1527.66 38.3755 1529.21 39.9188 1531.11 39.9188C1533.02 39.9188 1534.51 38.3755 1534.51 36.4722C1534.51 34.5688 1532.97 33.0256 1531.11 33.0256C1529.21 33.0256 1527.66 34.5688 1527.66 36.4722Z" fill="#3C3C3B"/>
<path opacity="0.9917" d="M1340.08 145.683C1340.08 147.586 1341.63 149.13 1343.53 149.13C1345.43 149.13 1346.93 147.586 1346.93 145.683C1346.93 143.78 1345.38 142.236 1343.53 142.236C1341.57 142.185 1340.08 143.78 1340.08 145.683Z" fill="#3C3C3B"/>
<path opacity="0.9612" d="M1340.08 114.458C1340.08 116.361 1341.63 117.904 1343.53 117.904C1345.43 117.904 1346.93 116.361 1346.93 114.458C1346.93 112.554 1345.38 111.011 1343.53 111.011C1341.57 111.011 1340.08 112.554 1340.08 114.458Z" fill="#3C3C3B"/>
<path opacity="0.6836" d="M1206.09 36.4722C1206.09 38.3755 1207.63 39.9188 1209.54 39.9188C1211.44 39.9188 1212.93 38.3755 1212.93 36.4722C1212.93 34.5688 1211.39 33.0256 1209.54 33.0256C1207.58 33.0256 1206.09 34.5688 1206.09 36.4722Z" fill="#3C3C3B"/>
<path opacity="0.9087" d="M1527.66 36.4722C1527.66 38.3755 1529.21 39.9188 1531.06 39.9188C1532.97 39.9188 1534.51 38.3755 1534.51 36.4722C1534.51 34.5688 1532.97 33.0256 1531.06 33.0256C1529.21 33.0256 1527.66 34.5688 1527.66 36.4722Z" fill="#3C3C3B"/>
<path opacity="0.7254" d="M1420.49 36.4722C1420.49 38.3755 1422.03 39.9188 1423.89 39.9188C1425.79 39.9188 1427.28 38.3755 1427.28 36.4722C1427.28 34.5688 1425.74 33.0256 1423.89 33.0256C1421.98 33.0256 1420.49 34.5688 1420.49 36.4722Z" fill="#3C3C3B"/>
<path opacity="0.5217" d="M1474.08 130.045C1474.08 131.948 1475.62 133.491 1477.47 133.491C1479.33 133.491 1480.87 131.948 1480.87 130.045C1480.87 128.141 1479.33 126.598 1477.47 126.598C1475.62 126.598 1474.08 128.141 1474.08 130.045Z" fill="#3C3C3B"/>
<path opacity="0.758" d="M1474.08 5.24707C1474.08 7.15042 1475.62 8.69367 1477.47 8.69367C1479.33 8.69367 1480.87 7.15042 1480.87 5.24707C1480.87 3.34373 1479.33 1.80048 1477.47 1.80048C1475.62 1.80048 1474.08 3.34373 1474.08 5.24707Z" fill="#3C3C3B"/>
<path opacity="0.5672" d="M1273.06 137.864C1273.06 139.767 1274.6 141.31 1276.51 141.31C1278.41 141.31 1279.9 139.767 1279.9 137.864C1279.9 135.96 1278.36 134.417 1276.51 134.417C1274.6 134.417 1273.06 135.96 1273.06 137.864Z" fill="#3C3C3B"/>
<path opacity="0.6639" d="M1246.24 122.277C1246.24 124.18 1247.78 125.724 1249.69 125.724C1251.59 125.724 1253.08 124.18 1253.08 122.277C1253.08 120.374 1251.54 118.83 1249.69 118.83C1247.78 118.83 1246.24 120.374 1246.24 122.277Z" fill="#3C3C3B"/>
<path opacity="0.7845" d="M1259.67 114.458C1259.67 116.361 1261.22 117.904 1263.07 117.904C1264.98 117.904 1266.47 116.361 1266.47 114.458C1266.47 112.554 1264.92 111.011 1263.07 111.011C1261.22 111.011 1259.67 112.554 1259.67 114.458Z" fill="#3C3C3B"/>
<path opacity="0.8686" d="M1366.85 348.466C1366.85 350.37 1368.39 351.913 1370.3 351.913C1372.2 351.913 1373.7 350.37 1373.7 348.466C1373.7 346.563 1372.15 345.02 1370.3 345.02C1368.39 345.02 1366.85 346.563 1366.85 348.466Z" fill="#3C3C3B"/>
<path opacity="0.9438" d="M1420.49 223.669C1420.49 225.572 1422.03 227.115 1423.89 227.115C1425.79 227.115 1427.28 225.572 1427.28 223.669C1427.28 221.765 1425.74 220.222 1423.89 220.222C1421.98 220.222 1420.49 221.765 1420.49 223.669Z" fill="#3C3C3B"/>
<path opacity="0.8488" d="M1474.08 192.443C1474.08 194.347 1475.62 195.89 1477.47 195.89C1479.33 195.89 1480.87 194.347 1480.87 192.443C1480.87 190.54 1479.33 188.997 1477.47 188.997C1475.62 188.997 1474.08 190.54 1474.08 192.443Z" fill="#3C3C3B"/>
<path opacity="0.5604" d="M1206.09 36.4722C1206.09 38.3755 1207.63 39.9188 1209.48 39.9188C1211.39 39.9188 1212.93 38.3755 1212.93 36.4722C1212.93 34.5688 1211.39 33.0256 1209.48 33.0256C1207.58 33.0256 1206.09 34.5688 1206.09 36.4722Z" fill="#3C3C3B"/>
<path opacity="0.8646" d="M1152.45 67.6459C1152.45 69.5492 1153.99 71.0925 1155.85 71.0925C1157.75 71.0925 1159.24 69.5492 1159.24 67.6459C1159.24 65.7425 1157.7 64.1993 1155.85 64.1993C1153.99 64.1993 1152.45 65.7425 1152.45 67.6459Z" fill="#3C3C3B"/>
<path opacity="0.5312" d="M1259.67 98.871C1259.67 100.774 1261.22 102.318 1263.07 102.318C1264.98 102.318 1266.47 100.774 1266.47 98.871C1266.47 96.9676 1264.92 95.4244 1263.07 95.4244C1261.22 95.4244 1259.67 96.9676 1259.67 98.871Z" fill="#3C3C3B"/>
<path opacity="0.7235" d="M1179.27 20.8339C1179.27 22.7373 1180.81 24.2805 1182.72 24.2805C1184.62 24.2805 1186.11 22.7373 1186.11 20.8339C1186.11 18.9306 1184.57 17.3873 1182.72 17.3873C1180.81 17.3873 1179.27 18.9306 1179.27 20.8339Z" fill="#3C3C3B"/>
<path opacity="0.5885" d="M1125.68 20.8339C1125.68 22.7373 1127.22 24.2805 1129.08 24.2805C1130.98 24.2805 1132.47 22.7373 1132.47 20.8339C1132.47 18.9306 1130.93 17.3873 1129.08 17.3873C1127.22 17.3873 1125.68 18.9306 1125.68 20.8339Z" fill="#3C3C3B"/>
<path opacity="0.8858" d="M1420.49 161.27C1420.49 163.173 1422.03 164.716 1423.89 164.716C1425.79 164.716 1427.28 163.173 1427.28 161.27C1427.28 159.366 1425.74 157.823 1423.89 157.823C1421.98 157.823 1420.49 159.366 1420.49 161.27Z" fill="#3C3C3B"/>
<path opacity="0.5875" d="M1313.26 161.27C1313.26 163.173 1314.81 164.716 1316.66 164.716C1318.56 164.716 1320.06 163.173 1320.06 161.27C1320.06 159.366 1318.51 157.823 1316.66 157.823C1314.81 157.823 1313.26 159.366 1313.26 161.27Z" fill="#3C3C3B"/>
<path opacity="0.9745" d="M1152.45 192.443C1152.45 194.347 1153.99 195.89 1155.85 195.89C1157.75 195.89 1159.24 194.347 1159.24 192.443C1159.24 190.54 1157.7 188.997 1155.85 188.997C1153.99 188.997 1152.45 190.54 1152.45 192.443Z" fill="#3C3C3B"/>
<path opacity="0.6677" d="M1366.85 317.241C1366.85 319.144 1368.39 320.688 1370.3 320.688C1372.2 320.688 1373.7 319.144 1373.7 317.241C1373.7 315.338 1372.15 313.794 1370.3 313.794C1368.39 313.794 1366.85 315.338 1366.85 317.241Z" fill="#3C3C3B"/>
<path opacity="0.779" d="M1366.85 192.443C1366.85 194.347 1368.39 195.89 1370.3 195.89C1372.2 195.89 1373.7 194.347 1373.7 192.443C1373.7 190.54 1372.15 188.997 1370.3 188.997C1368.39 188.997 1366.85 190.54 1366.85 192.443Z" fill="#3C3C3B"/>
</g>
<defs>
<clipPath id="clip0_2017_1231">
<rect width="819" height="380" fill="white" transform="matrix(-1 0 0 -1 819 1668)"/>
</clipPath>
<clipPath id="clip1_2017_1231">
<rect width="819" height="380" fill="white" transform="matrix(-1 0 0 1 1921 0)"/>
</clipPath>
</defs>
</svg>
