<svg width="1920" height="817" viewBox="0 0 1920 817" fill="none" xmlns="http://www.w3.org/2000/svg">
<g opacity="0.3" clip-path="url(#clip0_2015_1230)">
<path opacity="0.8516" d="M812.72 817H813.852L804.535 811.599V687.11L819 678.725V678.056L804.123 686.698L803.969 686.801V811.907L812.72 817Z" fill="#3C3C3B"/>
<path opacity="0.9669" d="M804.278 671.008L817.97 678.982V694.929L804.278 702.902L790.585 694.929V678.982L804.278 671.008ZM817.404 679.29L804.278 671.677L791.151 679.29V694.569L804.278 702.182L817.404 694.569V679.29Z" fill="#3C3C3B"/>
<path opacity="0.716" d="M795.835 817L804.278 812.062L812.72 817H813.852L804.278 811.393L794.703 817H795.835Z" fill="#3C3C3B"/>
<path opacity="0.8412" d="M804.278 812.062L819 803.522V802.854L804.278 811.393L750.947 780.373V718.335L804.278 687.264L819 695.855V695.186L804.432 686.698L804.278 686.595L750.536 717.872L750.381 717.975V780.734L804.278 812.062Z" fill="#3C3C3B"/>
<path opacity="0.994" d="M697.051 624.196L750.947 655.576V718.335L697.051 749.714L643.154 718.335V655.576L697.051 624.196ZM750.381 655.936L697.051 624.917L643.721 655.936V717.975L697.051 748.994L750.381 717.975V655.936Z" fill="#3C3C3B"/>
<path opacity="0.9394" d="M697.051 624.196L750.947 655.576V718.335L697.051 749.714L643.154 718.335V655.576L697.051 624.196ZM750.381 655.936L697.051 624.917L643.721 655.936V717.975L697.051 748.994L750.381 717.975V655.936Z" fill="#3C3C3B"/>
<path opacity="0.9775" d="M688.609 817L697.051 812.062L705.545 817H706.677L697.051 811.393L687.476 817H688.609Z" fill="#3C3C3B"/>
<path opacity="0.7716" d="M697.051 686.595L697.205 686.698L750.947 717.975V780.734L697.051 812.113L643.154 780.734V717.975L643.309 717.872L697.051 686.595ZM750.381 718.335L697.051 687.315L643.721 718.335V780.373L697.051 811.393L750.381 780.373V718.335Z" fill="#3C3C3B"/>
<path opacity="0.6343" d="M688.609 817L697.051 812.062L705.545 817H706.677L697.051 811.393L687.476 817H688.609Z" fill="#3C3C3B"/>
<path opacity="0.6715" d="M563.365 817V796.32L589.876 780.888L616.386 796.32V817H616.953V795.96L589.876 780.219L562.799 795.96V817H563.365Z" fill="#3C3C3B"/>
<path opacity="0.9459" d="M536.545 817V780.734L589.875 749.663L643.206 780.734V817H643.772V780.374L589.875 748.994L535.979 780.374V817H536.545Z" fill="#3C3C3B"/>
<path opacity="0.5261" d="M589.876 671.008L603.569 678.982V694.929L589.876 702.902L576.183 694.929V678.982L589.876 671.008ZM603.002 679.29L589.876 671.677L576.749 679.29V694.569L589.876 702.182L603.002 694.569V679.29Z" fill="#3C3C3B"/>
<path opacity="0.5223" d="M697.051 686.595L697.205 686.698L750.947 717.975V780.734L697.051 812.113L643.154 780.734V717.975L643.309 717.872L697.051 686.595ZM750.381 718.335L697.051 687.315L643.721 718.335V780.373L697.051 811.393L750.381 780.373V718.335Z" fill="#3C3C3B"/>
<path opacity="0.8962" d="M469.574 817V804.14L482.7 796.475L495.776 804.14V817H496.342V803.779L482.7 795.806L469.007 803.779V817H469.574Z" fill="#3C3C3B"/>
<path opacity="0.5211" d="M482.7 671.008L496.393 678.982V694.929L482.7 702.902L469.008 694.929V678.982L482.7 671.008ZM495.776 679.29L482.649 671.677L469.522 679.29V694.569L482.649 702.182L495.776 694.569V679.29Z" fill="#3C3C3B"/>
<path opacity="0.6374" d="M589.876 499.399L590.03 499.502L697.36 561.952V687.11L697.205 687.213L589.876 749.714L589.721 749.611L482.391 687.11V561.952L482.546 561.849L589.876 499.399ZM696.793 562.312L589.876 500.068L482.958 562.312V686.801L589.876 749.045L696.793 686.801V562.312Z" fill="#3C3C3B"/>
<path opacity="0.5189" d="M589.875 686.595L590.03 686.698L643.772 717.975V780.734L589.875 812.113L535.979 780.734V717.975L536.133 717.872L589.875 686.595ZM643.206 718.335L589.875 687.315L536.545 718.335V780.373L589.875 811.393L643.206 780.373V718.335Z" fill="#3C3C3B"/>
<path opacity="0.5082" d="M482.7 655.422L509.777 671.163V702.696L482.7 718.489L455.623 702.696V671.163L482.7 655.422ZM509.211 671.523L482.7 656.09L456.19 671.523V702.388L482.7 717.82L509.211 702.388V671.523Z" fill="#3C3C3B"/>
<path opacity="0.5792" d="M322.143 817V780.734L375.474 749.663L428.804 780.734V817H429.37V780.374L375.474 748.994L321.732 780.322L321.577 780.374V817H322.143Z" fill="#3C3C3B"/>
<path opacity="0.9861" d="M482.7 686.595L482.855 686.698L536.597 717.975V780.734L482.7 812.113L428.804 780.734V717.975L428.958 717.872L482.7 686.595ZM535.979 718.335L482.649 687.315L429.319 718.335V780.373L482.7 811.393L535.979 780.373V718.335Z" fill="#3C3C3B"/>
<path opacity="0.9808" d="M576.749 817V804.14L589.876 796.475L603.002 804.14V817H603.569V803.779L589.876 795.806L576.183 803.779V817H576.749Z" fill="#3C3C3B"/>
<path opacity="0.9699" d="M322.143 817V780.734L375.474 749.663L428.804 780.734V817H429.37V780.374L375.474 748.994L321.732 780.322L321.577 780.374V817H322.143Z" fill="#3C3C3B"/>
<path opacity="0.9622" d="M589.875 624.196L643.772 655.576V718.335L589.875 749.714L535.979 718.335V655.576L589.875 624.196ZM643.206 655.936L589.875 624.917L536.545 655.936V717.975L589.875 748.994L643.206 717.975V655.936Z" fill="#3C3C3B"/>
<path opacity="0.6304" d="M589.875 624.196L643.772 655.576V718.335L589.875 749.714L535.979 718.335V655.576L589.875 624.196ZM643.206 655.936L589.875 624.917L536.545 655.936V717.975L589.875 748.994L643.206 717.975V655.936Z" fill="#3C3C3B"/>
<path opacity="0.8387" d="M482.7 468.174L509.777 483.966V515.5L482.7 531.241L455.623 515.5V483.966L482.7 468.174ZM509.211 484.275L482.7 468.842L456.19 484.275V515.14L482.7 530.573L509.211 515.14V484.275Z" fill="#3C3C3B"/>
<path opacity="0.9051" d="M482.7 437L536.597 468.379V531.138L482.7 562.518L428.804 531.138V468.379L482.7 437ZM535.979 468.688L482.649 437.669L429.319 468.688V530.778L482.649 561.798L535.979 530.778V468.688Z" fill="#3C3C3B"/>
<path opacity="0.6545" d="M429.37 817V780.734L482.7 749.663L535.979 780.734V817H536.545V780.374L482.7 748.994L428.804 780.374V817H429.37Z" fill="#3C3C3B"/>
<path opacity="0.9574" d="M367.031 817L375.474 812.062L383.916 817H385.048L375.474 811.393L365.899 817H367.031Z" fill="#3C3C3B"/>
<path opacity="0.9474" d="M375.474 499.399L375.628 499.502L482.958 561.952V687.11L482.803 687.213L375.474 749.714L375.319 749.611L267.99 687.11V561.952L268.144 561.849L375.474 499.399ZM482.391 562.312L375.474 500.068L268.556 562.312V686.801L375.474 749.045L482.391 686.801V562.312Z" fill="#3C3C3B"/>
<path opacity="0.8086" d="M268.299 655.422L295.375 671.163V702.696L268.299 718.489L241.222 702.696V671.163L268.299 655.422ZM294.809 671.523L268.299 656.09L241.788 671.523V702.388L268.299 717.82L294.809 702.388V671.523Z" fill="#3C3C3B"/>
<path opacity="0.5531" d="M375.474 468.174L402.551 483.966V515.5L375.474 531.241L348.397 515.5V483.966L375.474 468.174ZM401.984 484.275L375.474 468.842L348.963 484.275V515.14L375.474 530.573L401.984 515.14V484.275Z" fill="#3C3C3B"/>
<path opacity="0.9538" d="M259.856 817L268.298 812.062L276.741 817H277.873L268.298 811.393L258.672 817H259.856Z" fill="#3C3C3B"/>
<path opacity="0.8754" d="M107.793 817V780.734L161.072 749.663L214.402 780.734V817H214.968V780.374L161.072 748.994L107.175 780.374V817H107.793Z" fill="#3C3C3B"/>
<path opacity="0.5051" d="M322.143 817V780.734L375.474 749.663L428.804 780.734V817H429.37V780.374L375.474 748.994L321.732 780.322L321.577 780.374V817H322.143Z" fill="#3C3C3B"/>
<path opacity="0.8517" d="M170.698 817L161.381 811.599V687.11L268.298 624.865L375.216 687.11V811.599L365.899 817H367.031L375.628 812.01L375.782 811.907V686.801L268.401 624.299L268.298 624.196L160.969 686.698L160.814 686.801V811.907L169.514 817H170.698Z" fill="#3C3C3B"/>
<path opacity="0.61" d="M161.072 671.008L174.765 678.982V694.929L161.072 702.902L147.379 694.929V678.982L161.072 671.008ZM174.198 679.29L161.072 671.677L147.945 679.29V694.569L161.072 702.182L174.198 694.569V679.29Z" fill="#3C3C3B"/>
<path opacity="0.6181" d="M375.474 624.196L429.37 655.576V718.335L375.474 749.714L375.319 749.611L321.577 718.335V655.576L321.732 655.473L375.474 624.196ZM428.804 655.936L375.474 624.917L322.143 655.936V717.975L375.474 748.994L428.804 717.975V655.936Z" fill="#3C3C3B"/>
<path opacity="0.876" d="M268.298 499.399L268.453 499.502L375.782 561.952V687.11L375.628 687.213L268.298 749.714L268.144 749.611L160.814 687.11V561.952L160.969 561.849L268.298 499.399ZM375.216 562.312L268.298 500.068L161.381 562.312V686.801L268.298 749.045L375.216 686.801V562.312Z" fill="#3C3C3B"/>
<path opacity="0.5845" d="M268.299 468.174L295.375 483.966V515.5L268.299 531.241L241.222 515.5V483.966L268.299 468.174ZM294.809 484.275L268.299 468.842L241.788 484.275V515.14L268.299 530.573L294.809 515.14V484.275Z" fill="#3C3C3B"/>
<path opacity="0.5432" d="M375.474 499.399L375.628 499.502L429.37 530.778V593.537L375.474 624.917L375.319 624.814L321.577 593.537V530.778L321.732 530.675L375.474 499.399ZM428.804 531.087L375.474 500.068L322.143 531.087V593.177L375.474 624.196L428.804 593.177V531.087Z" fill="#3C3C3B"/>
<path opacity="0.8471" d="M0.566223 817V780.734L53.8964 749.663L107.175 780.734V817H107.793V780.374L53.8964 748.994L-1.52588e-05 780.374V817H0.566223Z" fill="#3C3C3B"/>
<path opacity="0.7774" d="M161.072 717.82L188.149 733.613V765.147L161.072 780.939L133.995 765.147V733.613L161.072 717.82ZM187.582 733.922L161.072 718.489L134.561 733.922V764.787L161.072 780.219L187.582 764.787V733.922Z" fill="#3C3C3B"/>
<path opacity="0.6187" d="M152.63 817L161.072 812.062L169.514 817H170.698L161.072 811.393L151.497 817H152.63Z" fill="#3C3C3B"/>
<path opacity="0.6525" d="M27.3857 817V796.32L53.8964 780.888L80.4071 796.32V817H80.9734V795.96L53.8964 780.219L26.8195 795.96V817H27.3857Z" fill="#3C3C3B"/>
<path opacity="0.6134" d="M0.566223 817V780.734L53.8964 749.663L107.175 780.734V817H107.793V780.374L53.8964 748.994L-1.52588e-05 780.374V817H0.566223Z" fill="#3C3C3B"/>
<path opacity="0.951" d="M268.298 624.196L322.195 655.576V718.335L268.298 749.714L268.144 749.611L214.402 718.335V655.576L214.556 655.473L268.298 624.196ZM321.577 655.936L268.247 624.917L214.917 655.936V717.975L268.247 748.994L321.577 717.975V655.936Z" fill="#3C3C3B"/>
<path opacity="0.6256" d="M53.8964 499.399L54.0509 499.502L107.793 530.778V593.537L53.8964 624.917L-1.52588e-05 593.537V530.778L0.154442 530.675L53.8964 499.399ZM107.175 531.087L53.845 500.068L0.514755 531.087V593.177L53.845 624.196L107.175 593.177V531.087Z" fill="#3C3C3B"/>
<path opacity="0.6699" d="M268.298 499.399L268.453 499.502L322.195 530.778V593.537L268.298 624.917L268.144 624.814L214.402 593.537V530.778L214.556 530.675L268.298 499.399ZM321.577 531.087L268.247 500.068L214.917 531.087V593.177L268.247 624.196L321.577 593.177V531.087Z" fill="#3C3C3B"/>
<path opacity="0.6867" d="M800.829 671.317C800.829 669.414 802.373 667.87 804.226 667.87C806.131 667.87 807.624 669.414 807.624 671.317C807.624 673.22 806.079 674.764 804.226 674.764C802.373 674.815 800.829 673.22 800.829 671.317Z" fill="#3C3C3B"/>
<path opacity="0.975" d="M747.241 718.129C747.241 716.226 748.785 714.682 750.638 714.682C752.543 714.682 754.087 716.226 754.087 718.129C754.087 720.032 752.543 721.576 750.638 721.576C748.785 721.576 747.241 720.032 747.241 718.129Z" fill="#3C3C3B"/>
<path opacity="0.9056" d="M693.653 811.753C693.653 809.85 695.198 808.306 697.102 808.306C699.007 808.306 700.5 809.85 700.5 811.753C700.5 813.656 698.955 815.2 697.102 815.2C695.198 815.2 693.653 813.656 693.653 811.753Z" fill="#3C3C3B"/>
<path opacity="0.862" d="M693.653 686.955C693.653 685.052 695.198 683.509 697.102 683.509C699.007 683.509 700.5 685.052 700.5 686.955C700.5 688.859 698.955 690.402 697.102 690.402C695.198 690.402 693.653 688.859 693.653 686.955Z" fill="#3C3C3B"/>
<path opacity="0.7249" d="M613.246 796.166C613.246 794.263 614.791 792.72 616.644 792.72C618.548 792.72 620.093 794.263 620.093 796.166C620.093 798.069 618.548 799.613 616.644 799.613C614.791 799.613 613.246 798.069 613.246 796.166Z" fill="#3C3C3B"/>
<path opacity="0.5437" d="M559.659 796.166C559.659 794.263 561.203 792.72 563.108 792.72C565.012 792.72 566.505 794.263 566.505 796.166C566.505 798.069 564.961 799.613 563.108 799.613C561.203 799.613 559.659 798.069 559.659 796.166Z" fill="#3C3C3B"/>
<path opacity="0.8559" d="M640.066 780.528C640.066 778.624 641.61 777.081 643.463 777.081C645.368 777.081 646.861 778.624 646.861 780.528C646.861 782.431 645.317 783.974 643.463 783.974C641.559 783.974 640.066 782.431 640.066 780.528Z" fill="#3C3C3B"/>
<path opacity="0.691" d="M586.478 671.317C586.478 669.414 588.023 667.87 589.876 667.87C591.78 667.87 593.325 669.414 593.325 671.317C593.325 673.22 591.78 674.764 589.876 674.764C587.971 674.815 586.478 673.22 586.478 671.317Z" fill="#3C3C3B"/>
<path opacity="0.6169" d="M693.653 686.955C693.653 685.052 695.198 683.509 697.102 683.509C699.007 683.509 700.5 685.052 700.5 686.955C700.5 688.859 698.955 690.402 697.102 690.402C695.198 690.402 693.653 688.859 693.653 686.955Z" fill="#3C3C3B"/>
<path opacity="0.5121" d="M640.066 718.129C640.066 716.226 641.61 714.682 643.463 714.682C645.368 714.682 646.912 716.226 646.912 718.129C646.912 720.032 645.368 721.576 643.463 721.576C641.61 721.576 640.066 720.032 640.066 718.129Z" fill="#3C3C3B"/>
<path opacity="0.8706" d="M479.251 796.166C479.251 794.263 480.796 792.72 482.649 792.72C484.554 792.72 486.098 794.263 486.098 796.166C486.098 798.069 484.554 799.613 482.649 799.613C480.796 799.613 479.251 798.069 479.251 796.166Z" fill="#3C3C3B"/>
<path opacity="0.6625" d="M465.867 694.723C465.867 692.82 467.412 691.276 469.316 691.276C471.221 691.276 472.714 692.82 472.714 694.723C472.714 696.626 471.17 698.17 469.316 698.17C467.412 698.17 465.867 696.626 465.867 694.723Z" fill="#3C3C3B"/>
<path opacity="0.6645" d="M586.478 499.759C586.478 497.856 588.023 496.312 589.876 496.312C591.78 496.312 593.325 497.856 593.325 499.759C593.325 501.662 591.78 503.206 589.876 503.206C587.971 503.206 586.478 501.662 586.478 499.759Z" fill="#3C3C3B"/>
<path opacity="0.9538" d="M479.251 562.158C479.251 560.254 480.796 558.711 482.649 558.711C484.554 558.711 486.098 560.254 486.098 562.158C486.098 564.061 484.554 565.604 482.649 565.604C480.796 565.604 479.251 564.061 479.251 562.158Z" fill="#3C3C3B"/>
<path opacity="0.6405" d="M693.653 686.955C693.653 685.052 695.198 683.509 697.102 683.509C699.007 683.509 700.5 685.052 700.5 686.955C700.5 688.859 698.955 690.402 697.102 690.402C695.198 690.402 693.653 688.859 693.653 686.955Z" fill="#3C3C3B"/>
<path opacity="0.5246" d="M586.478 686.955C586.478 685.052 588.023 683.509 589.876 683.509C591.78 683.509 593.325 685.052 593.325 686.955C593.325 688.859 591.78 690.402 589.876 690.402C587.971 690.402 586.478 688.859 586.478 686.955Z" fill="#3C3C3B"/>
<path opacity="0.7605" d="M532.839 718.129C532.839 716.226 534.383 714.682 536.288 714.682C538.193 714.682 539.686 716.226 539.686 718.129C539.686 720.032 538.141 721.576 536.288 721.576C534.383 721.576 532.839 720.032 532.839 718.129Z" fill="#3C3C3B"/>
<path opacity="0.6166" d="M532.839 780.528C532.839 778.624 534.383 777.081 536.288 777.081C538.193 777.081 539.686 778.624 539.686 780.528C539.686 782.431 538.141 783.974 536.288 783.974C534.383 783.974 532.839 782.431 532.839 780.528Z" fill="#3C3C3B"/>
<path opacity="0.5032" d="M452.483 702.542C452.483 700.639 454.028 699.096 455.881 699.096C457.786 699.096 459.33 700.639 459.33 702.542C459.33 704.446 457.786 705.989 455.881 705.989C453.976 705.989 452.483 704.446 452.483 702.542Z" fill="#3C3C3B"/>
<path opacity="0.9074" d="M318.488 780.528C318.488 778.624 320.033 777.081 321.886 777.081C323.791 777.081 325.283 778.624 325.283 780.528C325.283 782.431 323.739 783.974 321.886 783.974C319.981 783.974 318.488 782.431 318.488 780.528Z" fill="#3C3C3B"/>
<path opacity="0.6002" d="M605.576 817C604.958 816.434 604.186 816.125 603.311 816.125C602.436 816.125 601.612 816.486 601.046 817H605.576Z" fill="#3C3C3B"/>
<path opacity="0.6002" d="M372.076 749.354C372.076 747.451 373.62 745.908 375.474 745.908C377.327 745.908 378.871 747.451 378.871 749.354C378.871 751.257 377.327 752.801 375.474 752.801C373.62 752.801 372.076 751.257 372.076 749.354Z" fill="#3C3C3B"/>
<path opacity="0.6607" d="M532.839 718.129C532.839 716.226 534.383 714.682 536.288 714.682C538.193 714.682 539.686 716.226 539.686 718.129C539.686 720.032 538.141 721.576 536.288 721.576C534.383 721.576 532.839 720.032 532.839 718.129Z" fill="#3C3C3B"/>
<path opacity="0.5786" d="M452.483 484.121C452.483 482.217 454.028 480.674 455.881 480.674C457.786 480.674 459.33 482.217 459.33 484.121C459.33 486.024 457.786 487.567 455.881 487.567C453.976 487.567 452.483 486.024 452.483 484.121Z" fill="#3C3C3B"/>
<path opacity="0.9283" d="M479.251 530.933C479.251 529.029 480.796 527.486 482.649 527.486C484.554 527.486 486.098 529.029 486.098 530.933C486.098 532.836 484.554 534.379 482.649 534.379C480.796 534.379 479.251 532.836 479.251 530.933Z" fill="#3C3C3B"/>
<path opacity="0.6334" d="M506.071 515.346C506.071 513.442 507.615 511.899 509.468 511.899C511.373 511.899 512.866 513.442 512.866 515.346C512.866 517.249 511.322 518.792 509.468 518.792C507.564 518.792 506.071 517.249 506.071 515.346Z" fill="#3C3C3B"/>
<path opacity="0.6939" d="M532.839 468.534C532.839 466.63 534.383 465.087 536.288 465.087C538.193 465.087 539.686 466.63 539.686 468.534C539.686 470.437 538.141 471.98 536.288 471.98C534.383 471.98 532.839 470.437 532.839 468.534Z" fill="#3C3C3B"/>
<path opacity="0.7705" d="M479.251 749.354C479.251 747.451 480.796 745.908 482.649 745.908C484.554 745.908 486.098 747.451 486.098 749.354C486.098 751.257 484.554 752.801 482.649 752.801C480.796 752.801 479.251 751.257 479.251 749.354Z" fill="#3C3C3B"/>
<path opacity="0.8428" d="M425.664 780.528C425.664 778.624 427.208 777.081 429.113 777.081C431.017 777.081 432.51 778.624 432.51 780.528C432.51 782.431 430.966 783.974 429.113 783.974C427.208 783.974 425.664 782.431 425.664 780.528Z" fill="#3C3C3B"/>
<path opacity="0.9917" d="M238.081 671.317C238.081 669.414 239.626 667.87 241.53 667.87C243.435 667.87 244.928 669.414 244.928 671.317C244.928 673.22 243.383 674.764 241.53 674.764C239.574 674.815 238.081 673.22 238.081 671.317Z" fill="#3C3C3B"/>
<path opacity="0.9612" d="M238.081 702.542C238.081 700.639 239.626 699.096 241.53 699.096C243.435 699.096 244.928 700.639 244.928 702.542C244.928 704.446 243.383 705.989 241.53 705.989C239.574 705.989 238.081 704.446 238.081 702.542Z" fill="#3C3C3B"/>
<path opacity="0.6836" d="M104.087 780.528C104.087 778.624 105.631 777.081 107.536 777.081C109.44 777.081 110.933 778.624 110.933 780.528C110.933 782.431 109.389 783.974 107.536 783.974C105.58 783.974 104.087 782.431 104.087 780.528Z" fill="#3C3C3B"/>
<path opacity="0.9087" d="M425.664 780.528C425.664 778.624 427.208 777.081 429.061 777.081C430.966 777.081 432.51 778.624 432.51 780.528C432.51 782.431 430.966 783.974 429.061 783.974C427.208 783.974 425.664 782.431 425.664 780.528Z" fill="#3C3C3B"/>
<path opacity="0.7254" d="M318.488 780.528C318.488 778.624 320.033 777.081 321.886 777.081C323.791 777.081 325.283 778.624 325.283 780.528C325.283 782.431 323.739 783.974 321.886 783.974C319.981 783.974 318.488 782.431 318.488 780.528Z" fill="#3C3C3B"/>
<path opacity="0.5217" d="M372.076 686.955C372.076 685.052 373.62 683.509 375.474 683.509C377.327 683.509 378.871 685.052 378.871 686.955C378.871 688.859 377.327 690.402 375.474 690.402C373.62 690.402 372.076 688.859 372.076 686.955Z" fill="#3C3C3B"/>
<path opacity="0.758" d="M372.076 811.753C372.076 809.85 373.62 808.306 375.474 808.306C377.327 808.306 378.871 809.85 378.871 811.753C378.871 813.656 377.327 815.2 375.474 815.2C373.62 815.2 372.076 813.656 372.076 811.753Z" fill="#3C3C3B"/>
<path opacity="0.5672" d="M171.058 679.136C171.058 677.233 172.603 675.69 174.507 675.69C176.412 675.69 177.905 677.233 177.905 679.136C177.905 681.04 176.36 682.583 174.507 682.583C172.603 682.583 171.058 681.04 171.058 679.136Z" fill="#3C3C3B"/>
<path opacity="0.6639" d="M144.239 694.723C144.239 692.82 145.783 691.276 147.688 691.276C149.592 691.276 151.085 692.82 151.085 694.723C151.085 696.626 149.541 698.17 147.688 698.17C145.783 698.17 144.239 696.626 144.239 694.723Z" fill="#3C3C3B"/>
<path opacity="0.7845" d="M157.674 702.542C157.674 700.639 159.219 699.096 161.072 699.096C162.976 699.096 164.469 700.639 164.469 702.542C164.469 704.446 162.925 705.989 161.072 705.989C159.219 705.989 157.674 704.446 157.674 702.542Z" fill="#3C3C3B"/>
<path opacity="0.8686" d="M264.849 468.534C264.849 466.63 266.394 465.087 268.298 465.087C270.203 465.087 271.696 466.63 271.696 468.534C271.696 470.437 270.151 471.98 268.298 471.98C266.394 471.98 264.849 470.437 264.849 468.534Z" fill="#3C3C3B"/>
<path opacity="0.9438" d="M318.488 593.331C318.488 591.428 320.033 589.885 321.886 589.885C323.791 589.885 325.283 591.428 325.283 593.331C325.283 595.235 323.739 596.778 321.886 596.778C319.981 596.778 318.488 595.235 318.488 593.331Z" fill="#3C3C3B"/>
<path opacity="0.8488" d="M372.076 624.557C372.076 622.653 373.62 621.11 375.474 621.11C377.327 621.11 378.871 622.653 378.871 624.557C378.871 626.46 377.327 628.003 375.474 628.003C373.62 628.003 372.076 626.46 372.076 624.557Z" fill="#3C3C3B"/>
<path opacity="0.5604" d="M104.087 780.528C104.087 778.624 105.631 777.081 107.484 777.081C109.389 777.081 110.933 778.624 110.933 780.528C110.933 782.431 109.389 783.974 107.484 783.974C105.58 783.974 104.087 782.431 104.087 780.528Z" fill="#3C3C3B"/>
<path opacity="0.8646" d="M50.4475 749.354C50.4475 747.451 51.9918 745.908 53.845 745.908C55.7496 745.908 57.2424 747.451 57.2424 749.354C57.2424 751.257 55.6981 752.801 53.845 752.801C51.9918 752.801 50.4475 751.257 50.4475 749.354Z" fill="#3C3C3B"/>
<path opacity="0.5312" d="M157.674 718.129C157.674 716.226 159.219 714.682 161.072 714.682C162.976 714.682 164.469 716.226 164.469 718.129C164.469 720.032 162.925 721.576 161.072 721.576C159.219 721.576 157.674 720.032 157.674 718.129Z" fill="#3C3C3B"/>
<path opacity="0.7235" d="M77.2671 796.166C77.2671 794.263 78.8114 792.72 80.7161 792.72C82.6207 792.72 84.1135 794.263 84.1135 796.166C84.1135 798.069 82.5692 799.613 80.7161 799.613C78.8114 799.613 77.2671 798.069 77.2671 796.166Z" fill="#3C3C3B"/>
<path opacity="0.5885" d="M23.6794 796.166C23.6794 794.263 25.2237 792.72 27.0769 792.72C28.9815 792.72 30.4744 794.263 30.4744 796.166C30.4744 798.069 28.9301 799.613 27.0769 799.613C25.2237 799.613 23.6794 798.069 23.6794 796.166Z" fill="#3C3C3B"/>
<path opacity="0.8858" d="M318.488 655.73C318.488 653.827 320.033 652.284 321.886 652.284C323.791 652.284 325.283 653.827 325.283 655.73C325.283 657.634 323.739 659.177 321.886 659.177C319.981 659.177 318.488 657.634 318.488 655.73Z" fill="#3C3C3B"/>
<path opacity="0.5875" d="M211.262 655.73C211.262 653.827 212.806 652.284 214.659 652.284C216.564 652.284 218.057 653.827 218.057 655.73C218.057 657.634 216.513 659.177 214.659 659.177C212.806 659.177 211.262 657.634 211.262 655.73Z" fill="#3C3C3B"/>
<path opacity="0.9745" d="M50.4475 624.557C50.4475 622.653 51.9918 621.11 53.845 621.11C55.7496 621.11 57.2424 622.653 57.2424 624.557C57.2424 626.46 55.6981 628.003 53.845 628.003C51.9918 628.003 50.4475 626.46 50.4475 624.557Z" fill="#3C3C3B"/>
<path opacity="0.6677" d="M264.849 499.759C264.849 497.856 266.394 496.312 268.298 496.312C270.203 496.312 271.696 497.856 271.696 499.759C271.696 501.662 270.151 503.206 268.298 503.206C266.394 503.206 264.849 501.662 264.849 499.759Z" fill="#3C3C3B"/>
<path opacity="0.779" d="M264.849 624.557C264.849 622.653 266.394 621.11 268.298 621.11C270.203 621.11 271.696 622.653 271.696 624.557C271.696 626.46 270.151 628.003 268.298 628.003C266.394 628.003 264.849 626.46 264.849 624.557Z" fill="#3C3C3B"/>
</g>
<g opacity="0.3" clip-path="url(#clip1_2015_1230)">
<path opacity="0.8516" d="M1914.72 0H1915.85L1906.53 5.40138V129.89L1921 138.275V138.944L1906.12 130.302L1905.97 130.199V5.09273L1914.72 0Z" fill="#3C3C3B"/>
<path opacity="0.9669" d="M1906.28 145.992L1919.97 138.018V122.071L1906.28 114.098L1892.58 122.071V138.018L1906.28 145.992ZM1919.4 137.709L1906.28 145.323L1893.15 137.709V122.431L1906.28 114.818L1919.4 122.431V137.709Z" fill="#3C3C3B"/>
<path opacity="0.716" d="M1897.84 0L1906.28 4.93841L1914.72 0H1915.85L1906.28 5.60715L1896.7 0H1897.84Z" fill="#3C3C3B"/>
<path opacity="0.8412" d="M1906.28 4.93842L1921 13.4777V14.1465L1906.28 5.60716L1852.95 36.6265V98.6652L1906.28 129.736L1921 121.145V121.814L1906.43 130.302L1906.28 130.405L1852.54 99.1282L1852.38 99.0253V36.2664L1906.28 4.93842Z" fill="#3C3C3B"/>
<path opacity="0.994" d="M1799.05 192.804L1852.95 161.424V98.6652L1799.05 67.2858L1745.15 98.6652V161.424L1799.05 192.804ZM1852.38 161.064L1799.05 192.083L1745.72 161.064V99.0253L1799.05 68.0059L1852.38 99.0253V161.064Z" fill="#3C3C3B"/>
<path opacity="0.9394" d="M1799.05 192.804L1852.95 161.424V98.6652L1799.05 67.2858L1745.15 98.6652V161.424L1799.05 192.804ZM1852.38 161.064L1799.05 192.083L1745.72 161.064V99.0253L1799.05 68.0059L1852.38 99.0253V161.064Z" fill="#3C3C3B"/>
<path opacity="0.9775" d="M1790.61 0L1799.05 4.93841L1807.54 0H1808.68L1799.05 5.60715L1789.48 0H1790.61Z" fill="#3C3C3B"/>
<path opacity="0.7716" d="M1799.05 130.405L1799.21 130.302L1852.95 99.0253V36.2664L1799.05 4.88696L1745.15 36.2664V99.0253L1745.31 99.1282L1799.05 130.405ZM1852.38 98.6652L1799.05 129.685L1745.72 98.6652V36.6265L1799.05 5.60715L1852.38 36.6265V98.6652Z" fill="#3C3C3B"/>
<path opacity="0.6343" d="M1790.61 0L1799.05 4.93841L1807.54 0H1808.68L1799.05 5.60715L1789.48 0H1790.61Z" fill="#3C3C3B"/>
<path opacity="0.6715" d="M1665.37 0V20.6796L1691.88 36.1121L1718.39 20.6796V0H1718.95V21.0397L1691.88 36.7808L1664.8 21.0397V0H1665.37Z" fill="#3C3C3B"/>
<path opacity="0.9459" d="M1638.55 0V36.2664L1691.88 67.3372L1745.21 36.2664V0H1745.77V36.6265L1691.88 68.006L1637.98 36.6265V0H1638.55Z" fill="#3C3C3B"/>
<path opacity="0.5261" d="M1691.88 145.992L1705.57 138.018V122.071L1691.88 114.098L1678.18 122.071V138.018L1691.88 145.992ZM1705 137.709L1691.88 145.323L1678.75 137.709V122.431L1691.88 114.818L1705 122.431V137.709Z" fill="#3C3C3B"/>
<path opacity="0.5223" d="M1799.05 130.405L1799.21 130.302L1852.95 99.0253V36.2664L1799.05 4.88696L1745.15 36.2664V99.0253L1745.31 99.1282L1799.05 130.405ZM1852.38 98.6652L1799.05 129.685L1745.72 98.6652V36.6265L1799.05 5.60715L1852.38 36.6265V98.6652Z" fill="#3C3C3B"/>
<path opacity="0.8962" d="M1571.57 0V12.8604L1584.7 20.5252L1597.78 12.8604V0H1598.34V13.2205L1584.7 21.194L1571.01 13.2205V0H1571.57Z" fill="#3C3C3B"/>
<path opacity="0.5211" d="M1584.7 145.992L1598.39 138.018V122.071L1584.7 114.098L1571.01 122.071V138.018L1584.7 145.992ZM1597.78 137.709L1584.65 145.323L1571.52 137.709V122.431L1584.65 114.818L1597.78 122.431V137.709Z" fill="#3C3C3B"/>
<path opacity="0.6374" d="M1691.88 317.601L1692.03 317.498L1799.36 255.048V129.89L1799.21 129.787L1691.88 67.2858L1691.72 67.3886L1584.39 129.89V255.048L1584.55 255.151L1691.88 317.601ZM1798.79 254.688L1691.88 316.932L1584.96 254.688V130.199L1691.88 67.9545L1798.79 130.199V254.688Z" fill="#3C3C3B"/>
<path opacity="0.5189" d="M1691.88 130.405L1692.03 130.302L1745.77 99.0253V36.2664L1691.88 4.88696L1637.98 36.2664V99.0253L1638.13 99.1282L1691.88 130.405ZM1745.21 98.6652L1691.88 129.685L1638.55 98.6652V36.6265L1691.88 5.60715L1745.21 36.6265V98.6652Z" fill="#3C3C3B"/>
<path opacity="0.5082" d="M1584.7 161.578L1611.78 145.837V114.303L1584.7 98.5109L1557.62 114.303V145.837L1584.7 161.578ZM1611.21 145.477L1584.7 160.91L1558.19 145.477V114.612L1584.7 99.1796L1611.21 114.612V145.477Z" fill="#3C3C3B"/>
<path opacity="0.5792" d="M1424.14 0V36.2664L1477.47 67.3372L1530.8 36.2664V0H1531.37V36.6265L1477.47 68.006L1423.73 36.6779L1423.58 36.6265V0H1424.14Z" fill="#3C3C3B"/>
<path opacity="0.9861" d="M1584.7 130.405L1584.85 130.302L1638.6 99.0253V36.2664L1584.7 4.88696L1530.8 36.2664V99.0253L1530.96 99.1282L1584.7 130.405ZM1637.98 98.6652L1584.65 129.685L1531.32 98.6652V36.6265L1584.7 5.60715L1637.98 36.6265V98.6652Z" fill="#3C3C3B"/>
<path opacity="0.9808" d="M1678.75 0V12.8604L1691.88 20.5252L1705 12.8604V0H1705.57V13.2205L1691.88 21.194L1678.18 13.2205V0H1678.75Z" fill="#3C3C3B"/>
<path opacity="0.9699" d="M1424.14 0V36.2664L1477.47 67.3372L1530.8 36.2664V0H1531.37V36.6265L1477.47 68.006L1423.73 36.6779L1423.58 36.6265V0H1424.14Z" fill="#3C3C3B"/>
<path opacity="0.9622" d="M1691.88 192.804L1745.77 161.424V98.6652L1691.88 67.2858L1637.98 98.6652V161.424L1691.88 192.804ZM1745.21 161.064L1691.88 192.083L1638.55 161.064V99.0253L1691.88 68.0059L1745.21 99.0253V161.064Z" fill="#3C3C3B"/>
<path opacity="0.6304" d="M1691.88 192.804L1745.77 161.424V98.6652L1691.88 67.2858L1637.98 98.6652V161.424L1691.88 192.804ZM1745.21 161.064L1691.88 192.083L1638.55 161.064V99.0253L1691.88 68.0059L1745.21 99.0253V161.064Z" fill="#3C3C3B"/>
<path opacity="0.8387" d="M1584.7 348.826L1611.78 333.034V301.5L1584.7 285.759L1557.62 301.5V333.034L1584.7 348.826ZM1611.21 332.725L1584.7 348.158L1558.19 332.725V301.86L1584.7 286.428L1611.21 301.86V332.725Z" fill="#3C3C3B"/>
<path opacity="0.9051" d="M1584.7 380L1638.6 348.621V285.862L1584.7 254.482L1530.8 285.862V348.621L1584.7 380ZM1637.98 348.312L1584.65 379.331L1531.32 348.312V286.222L1584.65 255.202L1637.98 286.222V348.312Z" fill="#3C3C3B"/>
<path opacity="0.6545" d="M1531.37 0V36.2664L1584.7 67.3372L1637.98 36.2664V0H1638.55V36.6265L1584.7 68.006L1530.8 36.6265V0H1531.37Z" fill="#3C3C3B"/>
<path opacity="0.9574" d="M1469.03 0L1477.47 4.93841L1485.92 0H1487.05L1477.47 5.60715L1467.9 0H1469.03Z" fill="#3C3C3B"/>
<path opacity="0.9474" d="M1477.47 317.601L1477.63 317.498L1584.96 255.048V129.89L1584.8 129.787L1477.47 67.2858L1477.32 67.3886L1369.99 129.89V255.048L1370.14 255.151L1477.47 317.601ZM1584.39 254.688L1477.47 316.932L1370.56 254.688V130.199L1477.47 67.9545L1584.39 130.199V254.688Z" fill="#3C3C3B"/>
<path opacity="0.8086" d="M1370.3 161.578L1397.38 145.837V114.303L1370.3 98.5109L1343.22 114.303V145.837L1370.3 161.578ZM1396.81 145.477L1370.3 160.91L1343.79 145.477V114.612L1370.3 99.1796L1396.81 114.612V145.477Z" fill="#3C3C3B"/>
<path opacity="0.5531" d="M1477.47 348.826L1504.55 333.034V301.5L1477.47 285.759L1450.4 301.5V333.034L1477.47 348.826ZM1503.98 332.725L1477.47 348.158L1450.96 332.725V301.86L1477.47 286.428L1503.98 301.86V332.725Z" fill="#3C3C3B"/>
<path opacity="0.9538" d="M1361.86 0L1370.3 4.93841L1378.74 0H1379.87L1370.3 5.60715L1360.67 0H1361.86Z" fill="#3C3C3B"/>
<path opacity="0.8754" d="M1209.79 0V36.2664L1263.07 67.3372L1316.4 36.2664V0H1316.97V36.6265L1263.07 68.006L1209.18 36.6265V0H1209.79Z" fill="#3C3C3B"/>
<path opacity="0.5051" d="M1424.14 0V36.2664L1477.47 67.3372L1530.8 36.2664V0H1531.37V36.6265L1477.47 68.006L1423.73 36.6779L1423.58 36.6265V0H1424.14Z" fill="#3C3C3B"/>
<path opacity="0.8517" d="M1272.7 0L1263.38 5.40138V129.89L1370.3 192.135L1477.22 129.89V5.40138L1467.9 0H1469.03L1477.63 4.98985L1477.78 5.09273V130.199L1370.4 192.701L1370.3 192.804L1262.97 130.302L1262.81 130.199V5.09273L1271.51 0H1272.7Z" fill="#3C3C3B"/>
<path opacity="0.61" d="M1263.07 145.992L1276.76 138.018V122.071L1263.07 114.098L1249.38 122.071V138.018L1263.07 145.992ZM1276.2 137.709L1263.07 145.323L1249.95 137.709V122.431L1263.07 114.818L1276.2 122.431V137.709Z" fill="#3C3C3B"/>
<path opacity="0.6181" d="M1477.47 192.804L1531.37 161.424V98.6652L1477.47 67.2858L1477.32 67.3886L1423.58 98.6652V161.424L1423.73 161.527L1477.47 192.804ZM1530.8 161.064L1477.47 192.083L1424.14 161.064V99.0253L1477.47 68.0059L1530.8 99.0253V161.064Z" fill="#3C3C3B"/>
<path opacity="0.876" d="M1370.3 317.601L1370.45 317.498L1477.78 255.048V129.89L1477.63 129.787L1370.3 67.2858L1370.14 67.3886L1262.81 129.89V255.048L1262.97 255.151L1370.3 317.601ZM1477.22 254.688L1370.3 316.932L1263.38 254.688V130.199L1370.3 67.9545L1477.22 130.199V254.688Z" fill="#3C3C3B"/>
<path opacity="0.5845" d="M1370.3 348.826L1397.38 333.034V301.5L1370.3 285.759L1343.22 301.5V333.034L1370.3 348.826ZM1396.81 332.725L1370.3 348.158L1343.79 332.725V301.86L1370.3 286.428L1396.81 301.86V332.725Z" fill="#3C3C3B"/>
<path opacity="0.5432" d="M1477.47 317.601L1477.63 317.498L1531.37 286.222V223.463L1477.47 192.083L1477.32 192.186L1423.58 223.463V286.222L1423.73 286.325L1477.47 317.601ZM1530.8 285.913L1477.47 316.932L1424.14 285.913V223.823L1477.47 192.804L1530.8 223.823V285.913Z" fill="#3C3C3B"/>
<path opacity="0.8471" d="M1102.57 0V36.2664L1155.9 67.3372L1209.18 36.2664V0H1209.79V36.6265L1155.9 68.006L1102 36.6265V0H1102.57Z" fill="#3C3C3B"/>
<path opacity="0.7774" d="M1263.07 99.1797L1290.15 83.3871V51.8533L1263.07 36.0607L1235.99 51.8533V83.3871L1263.07 99.1797ZM1289.58 83.0784L1263.07 98.5109L1236.56 83.0784V52.2134L1263.07 36.7809L1289.58 52.2134V83.0784Z" fill="#3C3C3B"/>
<path opacity="0.6187" d="M1254.63 0L1263.07 4.93841L1271.51 0H1272.7L1263.07 5.60715L1253.5 0H1254.63Z" fill="#3C3C3B"/>
<path opacity="0.6525" d="M1129.39 0V20.6796L1155.9 36.1121L1182.41 20.6796V0H1182.97V21.0397L1155.9 36.7808L1128.82 21.0397V0H1129.39Z" fill="#3C3C3B"/>
<path opacity="0.6134" d="M1102.57 0V36.2664L1155.9 67.3372L1209.18 36.2664V0H1209.79V36.6265L1155.9 68.006L1102 36.6265V0H1102.57Z" fill="#3C3C3B"/>
<path opacity="0.951" d="M1370.3 192.804L1424.19 161.424V98.6652L1370.3 67.2858L1370.14 67.3886L1316.4 98.6652V161.424L1316.56 161.527L1370.3 192.804ZM1423.58 161.064L1370.25 192.083L1316.92 161.064V99.0253L1370.25 68.0059L1423.58 99.0253V161.064Z" fill="#3C3C3B"/>
<path opacity="0.6256" d="M1155.9 317.601L1156.05 317.498L1209.79 286.222V223.463L1155.9 192.083L1102 223.463V286.222L1102.15 286.325L1155.9 317.601ZM1209.18 285.913L1155.84 316.932L1102.51 285.913V223.823L1155.84 192.804L1209.18 223.823V285.913Z" fill="#3C3C3B"/>
<path opacity="0.6699" d="M1370.3 317.601L1370.45 317.498L1424.19 286.222V223.463L1370.3 192.083L1370.14 192.186L1316.4 223.463V286.222L1316.56 286.325L1370.3 317.601ZM1423.58 285.913L1370.25 316.932L1316.92 285.913V223.823L1370.25 192.804L1423.58 223.823V285.913Z" fill="#3C3C3B"/>
<path opacity="0.6867" d="M1902.83 145.683C1902.83 147.586 1904.37 149.13 1906.23 149.13C1908.13 149.13 1909.62 147.586 1909.62 145.683C1909.62 143.78 1908.08 142.236 1906.23 142.236C1904.37 142.185 1902.83 143.78 1902.83 145.683Z" fill="#3C3C3B"/>
<path opacity="0.975" d="M1849.24 98.871C1849.24 100.774 1850.79 102.318 1852.64 102.318C1854.54 102.318 1856.09 100.774 1856.09 98.871C1856.09 96.9676 1854.54 95.4244 1852.64 95.4244C1850.79 95.4244 1849.24 96.9676 1849.24 98.871Z" fill="#3C3C3B"/>
<path opacity="0.9056" d="M1795.65 5.24707C1795.65 7.15042 1797.2 8.69367 1799.1 8.69367C1801.01 8.69367 1802.5 7.15042 1802.5 5.24707C1802.5 3.34373 1800.96 1.80048 1799.1 1.80048C1797.2 1.80048 1795.65 3.34373 1795.65 5.24707Z" fill="#3C3C3B"/>
<path opacity="0.862" d="M1795.65 130.045C1795.65 131.948 1797.2 133.491 1799.1 133.491C1801.01 133.491 1802.5 131.948 1802.5 130.045C1802.5 128.141 1800.96 126.598 1799.1 126.598C1797.2 126.598 1795.65 128.141 1795.65 130.045Z" fill="#3C3C3B"/>
<path opacity="0.7249" d="M1715.25 20.8339C1715.25 22.7373 1716.79 24.2805 1718.64 24.2805C1720.55 24.2805 1722.09 22.7373 1722.09 20.8339C1722.09 18.9306 1720.55 17.3873 1718.64 17.3873C1716.79 17.3873 1715.25 18.9306 1715.25 20.8339Z" fill="#3C3C3B"/>
<path opacity="0.5437" d="M1661.66 20.8339C1661.66 22.7373 1663.2 24.2805 1665.11 24.2805C1667.01 24.2805 1668.5 22.7373 1668.5 20.8339C1668.5 18.9306 1666.96 17.3873 1665.11 17.3873C1663.2 17.3873 1661.66 18.9306 1661.66 20.8339Z" fill="#3C3C3B"/>
<path opacity="0.8559" d="M1742.07 36.4722C1742.07 38.3755 1743.61 39.9188 1745.46 39.9188C1747.37 39.9188 1748.86 38.3755 1748.86 36.4722C1748.86 34.5688 1747.32 33.0256 1745.46 33.0256C1743.56 33.0256 1742.07 34.5688 1742.07 36.4722Z" fill="#3C3C3B"/>
<path opacity="0.691" d="M1688.48 145.683C1688.48 147.586 1690.02 149.13 1691.88 149.13C1693.78 149.13 1695.32 147.586 1695.32 145.683C1695.32 143.78 1693.78 142.236 1691.88 142.236C1689.97 142.185 1688.48 143.78 1688.48 145.683Z" fill="#3C3C3B"/>
<path opacity="0.6169" d="M1795.65 130.045C1795.65 131.948 1797.2 133.491 1799.1 133.491C1801.01 133.491 1802.5 131.948 1802.5 130.045C1802.5 128.141 1800.96 126.598 1799.1 126.598C1797.2 126.598 1795.65 128.141 1795.65 130.045Z" fill="#3C3C3B"/>
<path opacity="0.5121" d="M1742.07 98.871C1742.07 100.774 1743.61 102.318 1745.46 102.318C1747.37 102.318 1748.91 100.774 1748.91 98.871C1748.91 96.9676 1747.37 95.4244 1745.46 95.4244C1743.61 95.4244 1742.07 96.9676 1742.07 98.871Z" fill="#3C3C3B"/>
<path opacity="0.8706" d="M1581.25 20.8339C1581.25 22.7373 1582.8 24.2805 1584.65 24.2805C1586.55 24.2805 1588.1 22.7373 1588.1 20.8339C1588.1 18.9306 1586.55 17.3873 1584.65 17.3873C1582.8 17.3873 1581.25 18.9306 1581.25 20.8339Z" fill="#3C3C3B"/>
<path opacity="0.6625" d="M1567.87 122.277C1567.87 124.18 1569.41 125.724 1571.32 125.724C1573.22 125.724 1574.71 124.18 1574.71 122.277C1574.71 120.374 1573.17 118.83 1571.32 118.83C1569.41 118.83 1567.87 120.374 1567.87 122.277Z" fill="#3C3C3B"/>
<path opacity="0.6645" d="M1688.48 317.241C1688.48 319.144 1690.02 320.688 1691.88 320.688C1693.78 320.688 1695.32 319.144 1695.32 317.241C1695.32 315.338 1693.78 313.794 1691.88 313.794C1689.97 313.794 1688.48 315.338 1688.48 317.241Z" fill="#3C3C3B"/>
<path opacity="0.9538" d="M1581.25 254.842C1581.25 256.746 1582.8 258.289 1584.65 258.289C1586.55 258.289 1588.1 256.746 1588.1 254.842C1588.1 252.939 1586.55 251.396 1584.65 251.396C1582.8 251.396 1581.25 252.939 1581.25 254.842Z" fill="#3C3C3B"/>
<path opacity="0.6405" d="M1795.65 130.045C1795.65 131.948 1797.2 133.491 1799.1 133.491C1801.01 133.491 1802.5 131.948 1802.5 130.045C1802.5 128.141 1800.96 126.598 1799.1 126.598C1797.2 126.598 1795.65 128.141 1795.65 130.045Z" fill="#3C3C3B"/>
<path opacity="0.5246" d="M1688.48 130.045C1688.48 131.948 1690.02 133.491 1691.88 133.491C1693.78 133.491 1695.32 131.948 1695.32 130.045C1695.32 128.141 1693.78 126.598 1691.88 126.598C1689.97 126.598 1688.48 128.141 1688.48 130.045Z" fill="#3C3C3B"/>
<path opacity="0.7605" d="M1634.84 98.871C1634.84 100.774 1636.38 102.318 1638.29 102.318C1640.19 102.318 1641.69 100.774 1641.69 98.871C1641.69 96.9676 1640.14 95.4244 1638.29 95.4244C1636.38 95.4244 1634.84 96.9676 1634.84 98.871Z" fill="#3C3C3B"/>
<path opacity="0.6166" d="M1634.84 36.4722C1634.84 38.3755 1636.38 39.9188 1638.29 39.9188C1640.19 39.9188 1641.69 38.3755 1641.69 36.4722C1641.69 34.5688 1640.14 33.0256 1638.29 33.0256C1636.38 33.0256 1634.84 34.5688 1634.84 36.4722Z" fill="#3C3C3B"/>
<path opacity="0.5032" d="M1554.48 114.458C1554.48 116.361 1556.03 117.904 1557.88 117.904C1559.79 117.904 1561.33 116.361 1561.33 114.458C1561.33 112.554 1559.79 111.011 1557.88 111.011C1555.98 111.011 1554.48 112.554 1554.48 114.458Z" fill="#3C3C3B"/>
<path opacity="0.9074" d="M1420.49 36.4722C1420.49 38.3755 1422.03 39.9188 1423.89 39.9188C1425.79 39.9188 1427.28 38.3755 1427.28 36.4722C1427.28 34.5688 1425.74 33.0256 1423.89 33.0256C1421.98 33.0256 1420.49 34.5688 1420.49 36.4722Z" fill="#3C3C3B"/>
<path opacity="0.6002" d="M1707.58 0C1706.96 0.565859 1706.19 0.874509 1705.31 0.874509C1704.44 0.874509 1703.61 0.514417 1703.05 0H1707.58Z" fill="#3C3C3B"/>
<path opacity="0.6002" d="M1474.08 67.6459C1474.08 69.5492 1475.62 71.0925 1477.47 71.0925C1479.33 71.0925 1480.87 69.5492 1480.87 67.6459C1480.87 65.7425 1479.33 64.1993 1477.47 64.1993C1475.62 64.1993 1474.08 65.7425 1474.08 67.6459Z" fill="#3C3C3B"/>
<path opacity="0.6607" d="M1634.84 98.871C1634.84 100.774 1636.38 102.318 1638.29 102.318C1640.19 102.318 1641.69 100.774 1641.69 98.871C1641.69 96.9676 1640.14 95.4244 1638.29 95.4244C1636.38 95.4244 1634.84 96.9676 1634.84 98.871Z" fill="#3C3C3B"/>
<path opacity="0.5786" d="M1554.48 332.879C1554.48 334.783 1556.03 336.326 1557.88 336.326C1559.79 336.326 1561.33 334.783 1561.33 332.879C1561.33 330.976 1559.79 329.433 1557.88 329.433C1555.98 329.433 1554.48 330.976 1554.48 332.879Z" fill="#3C3C3B"/>
<path opacity="0.9283" d="M1581.25 286.067C1581.25 287.971 1582.8 289.514 1584.65 289.514C1586.55 289.514 1588.1 287.971 1588.1 286.067C1588.1 284.164 1586.55 282.621 1584.65 282.621C1582.8 282.621 1581.25 284.164 1581.25 286.067Z" fill="#3C3C3B"/>
<path opacity="0.6334" d="M1608.07 301.654C1608.07 303.558 1609.62 305.101 1611.47 305.101C1613.37 305.101 1614.87 303.558 1614.87 301.654C1614.87 299.751 1613.32 298.208 1611.47 298.208C1609.56 298.208 1608.07 299.751 1608.07 301.654Z" fill="#3C3C3B"/>
<path opacity="0.6939" d="M1634.84 348.466C1634.84 350.37 1636.38 351.913 1638.29 351.913C1640.19 351.913 1641.69 350.37 1641.69 348.466C1641.69 346.563 1640.14 345.02 1638.29 345.02C1636.38 345.02 1634.84 346.563 1634.84 348.466Z" fill="#3C3C3B"/>
<path opacity="0.7705" d="M1581.25 67.6459C1581.25 69.5492 1582.8 71.0925 1584.65 71.0925C1586.55 71.0925 1588.1 69.5492 1588.1 67.6459C1588.1 65.7425 1586.55 64.1993 1584.65 64.1993C1582.8 64.1993 1581.25 65.7425 1581.25 67.6459Z" fill="#3C3C3B"/>
<path opacity="0.8428" d="M1527.66 36.4722C1527.66 38.3755 1529.21 39.9188 1531.11 39.9188C1533.02 39.9188 1534.51 38.3755 1534.51 36.4722C1534.51 34.5688 1532.97 33.0256 1531.11 33.0256C1529.21 33.0256 1527.66 34.5688 1527.66 36.4722Z" fill="#3C3C3B"/>
<path opacity="0.9917" d="M1340.08 145.683C1340.08 147.586 1341.63 149.13 1343.53 149.13C1345.43 149.13 1346.93 147.586 1346.93 145.683C1346.93 143.78 1345.38 142.236 1343.53 142.236C1341.57 142.185 1340.08 143.78 1340.08 145.683Z" fill="#3C3C3B"/>
<path opacity="0.9612" d="M1340.08 114.458C1340.08 116.361 1341.63 117.904 1343.53 117.904C1345.43 117.904 1346.93 116.361 1346.93 114.458C1346.93 112.554 1345.38 111.011 1343.53 111.011C1341.57 111.011 1340.08 112.554 1340.08 114.458Z" fill="#3C3C3B"/>
<path opacity="0.6836" d="M1206.09 36.4722C1206.09 38.3755 1207.63 39.9188 1209.54 39.9188C1211.44 39.9188 1212.93 38.3755 1212.93 36.4722C1212.93 34.5688 1211.39 33.0256 1209.54 33.0256C1207.58 33.0256 1206.09 34.5688 1206.09 36.4722Z" fill="#3C3C3B"/>
<path opacity="0.9087" d="M1527.66 36.4722C1527.66 38.3755 1529.21 39.9188 1531.06 39.9188C1532.97 39.9188 1534.51 38.3755 1534.51 36.4722C1534.51 34.5688 1532.97 33.0256 1531.06 33.0256C1529.21 33.0256 1527.66 34.5688 1527.66 36.4722Z" fill="#3C3C3B"/>
<path opacity="0.7254" d="M1420.49 36.4722C1420.49 38.3755 1422.03 39.9188 1423.89 39.9188C1425.79 39.9188 1427.28 38.3755 1427.28 36.4722C1427.28 34.5688 1425.74 33.0256 1423.89 33.0256C1421.98 33.0256 1420.49 34.5688 1420.49 36.4722Z" fill="#3C3C3B"/>
<path opacity="0.5217" d="M1474.08 130.045C1474.08 131.948 1475.62 133.491 1477.47 133.491C1479.33 133.491 1480.87 131.948 1480.87 130.045C1480.87 128.141 1479.33 126.598 1477.47 126.598C1475.62 126.598 1474.08 128.141 1474.08 130.045Z" fill="#3C3C3B"/>
<path opacity="0.758" d="M1474.08 5.24707C1474.08 7.15042 1475.62 8.69367 1477.47 8.69367C1479.33 8.69367 1480.87 7.15042 1480.87 5.24707C1480.87 3.34373 1479.33 1.80048 1477.47 1.80048C1475.62 1.80048 1474.08 3.34373 1474.08 5.24707Z" fill="#3C3C3B"/>
<path opacity="0.5672" d="M1273.06 137.864C1273.06 139.767 1274.6 141.31 1276.51 141.31C1278.41 141.31 1279.9 139.767 1279.9 137.864C1279.9 135.96 1278.36 134.417 1276.51 134.417C1274.6 134.417 1273.06 135.96 1273.06 137.864Z" fill="#3C3C3B"/>
<path opacity="0.6639" d="M1246.24 122.277C1246.24 124.18 1247.78 125.724 1249.69 125.724C1251.59 125.724 1253.09 124.18 1253.09 122.277C1253.09 120.374 1251.54 118.83 1249.69 118.83C1247.78 118.83 1246.24 120.374 1246.24 122.277Z" fill="#3C3C3B"/>
<path opacity="0.7845" d="M1259.67 114.458C1259.67 116.361 1261.22 117.904 1263.07 117.904C1264.98 117.904 1266.47 116.361 1266.47 114.458C1266.47 112.554 1264.92 111.011 1263.07 111.011C1261.22 111.011 1259.67 112.554 1259.67 114.458Z" fill="#3C3C3B"/>
<path opacity="0.8686" d="M1366.85 348.466C1366.85 350.37 1368.39 351.913 1370.3 351.913C1372.2 351.913 1373.7 350.37 1373.7 348.466C1373.7 346.563 1372.15 345.02 1370.3 345.02C1368.39 345.02 1366.85 346.563 1366.85 348.466Z" fill="#3C3C3B"/>
<path opacity="0.9438" d="M1420.49 223.669C1420.49 225.572 1422.03 227.115 1423.89 227.115C1425.79 227.115 1427.28 225.572 1427.28 223.669C1427.28 221.765 1425.74 220.222 1423.89 220.222C1421.98 220.222 1420.49 221.765 1420.49 223.669Z" fill="#3C3C3B"/>
<path opacity="0.8488" d="M1474.08 192.443C1474.08 194.347 1475.62 195.89 1477.47 195.89C1479.33 195.89 1480.87 194.347 1480.87 192.443C1480.87 190.54 1479.33 188.997 1477.47 188.997C1475.62 188.997 1474.08 190.54 1474.08 192.443Z" fill="#3C3C3B"/>
<path opacity="0.5604" d="M1206.09 36.4722C1206.09 38.3755 1207.63 39.9188 1209.48 39.9188C1211.39 39.9188 1212.93 38.3755 1212.93 36.4722C1212.93 34.5688 1211.39 33.0256 1209.48 33.0256C1207.58 33.0256 1206.09 34.5688 1206.09 36.4722Z" fill="#3C3C3B"/>
<path opacity="0.8646" d="M1152.45 67.6459C1152.45 69.5492 1153.99 71.0925 1155.84 71.0925C1157.75 71.0925 1159.24 69.5492 1159.24 67.6459C1159.24 65.7425 1157.7 64.1993 1155.84 64.1993C1153.99 64.1993 1152.45 65.7425 1152.45 67.6459Z" fill="#3C3C3B"/>
<path opacity="0.5312" d="M1259.67 98.871C1259.67 100.774 1261.22 102.318 1263.07 102.318C1264.98 102.318 1266.47 100.774 1266.47 98.871C1266.47 96.9676 1264.92 95.4244 1263.07 95.4244C1261.22 95.4244 1259.67 96.9676 1259.67 98.871Z" fill="#3C3C3B"/>
<path opacity="0.7235" d="M1179.27 20.8339C1179.27 22.7373 1180.81 24.2805 1182.72 24.2805C1184.62 24.2805 1186.11 22.7373 1186.11 20.8339C1186.11 18.9306 1184.57 17.3873 1182.72 17.3873C1180.81 17.3873 1179.27 18.9306 1179.27 20.8339Z" fill="#3C3C3B"/>
<path opacity="0.5885" d="M1125.68 20.8339C1125.68 22.7373 1127.22 24.2805 1129.08 24.2805C1130.98 24.2805 1132.47 22.7373 1132.47 20.8339C1132.47 18.9306 1130.93 17.3873 1129.08 17.3873C1127.22 17.3873 1125.68 18.9306 1125.68 20.8339Z" fill="#3C3C3B"/>
<path opacity="0.8858" d="M1420.49 161.27C1420.49 163.173 1422.03 164.716 1423.89 164.716C1425.79 164.716 1427.28 163.173 1427.28 161.27C1427.28 159.366 1425.74 157.823 1423.89 157.823C1421.98 157.823 1420.49 159.366 1420.49 161.27Z" fill="#3C3C3B"/>
<path opacity="0.5875" d="M1313.26 161.27C1313.26 163.173 1314.81 164.716 1316.66 164.716C1318.56 164.716 1320.06 163.173 1320.06 161.27C1320.06 159.366 1318.51 157.823 1316.66 157.823C1314.81 157.823 1313.26 159.366 1313.26 161.27Z" fill="#3C3C3B"/>
<path opacity="0.9745" d="M1152.45 192.443C1152.45 194.347 1153.99 195.89 1155.84 195.89C1157.75 195.89 1159.24 194.347 1159.24 192.443C1159.24 190.54 1157.7 188.997 1155.84 188.997C1153.99 188.997 1152.45 190.54 1152.45 192.443Z" fill="#3C3C3B"/>
<path opacity="0.6677" d="M1366.85 317.241C1366.85 319.144 1368.39 320.688 1370.3 320.688C1372.2 320.688 1373.7 319.144 1373.7 317.241C1373.7 315.338 1372.15 313.794 1370.3 313.794C1368.39 313.794 1366.85 315.338 1366.85 317.241Z" fill="#3C3C3B"/>
<path opacity="0.779" d="M1366.85 192.443C1366.85 194.347 1368.39 195.89 1370.3 195.89C1372.2 195.89 1373.7 194.347 1373.7 192.443C1373.7 190.54 1372.15 188.997 1370.3 188.997C1368.39 188.997 1366.85 190.54 1366.85 192.443Z" fill="#3C3C3B"/>
</g>
<defs>
<clipPath id="clip0_2015_1230">
<rect width="819" height="380" fill="white" transform="matrix(-1 0 0 -1 819 817)"/>
</clipPath>
<clipPath id="clip1_2015_1230">
<rect width="819" height="380" fill="white" transform="matrix(-1 0 0 1 1921 0)"/>
</clipPath>
</defs>
</svg>
