<svg width="1882" height="1555" viewBox="0 0 1882 1555" fill="none" xmlns="http://www.w3.org/2000/svg">
<g opacity="0.3" clip-path="url(#clip0_2022_1230)">
<path opacity="0.8516" d="M1813.72 0H1814.85L1805.53 5.40138V129.89L1820 138.275V138.944L1805.12 130.302L1804.97 130.199V5.09273L1813.72 0Z" fill="#3C3C3B"/>
<path opacity="0.9669" d="M1805.28 145.992L1818.97 138.018V122.071L1805.28 114.098L1791.58 122.071V138.018L1805.28 145.992ZM1818.4 137.709L1805.28 145.323L1792.15 137.709V122.431L1805.28 114.818L1818.4 122.431V137.709Z" fill="#3C3C3B"/>
<path opacity="0.716" d="M1796.83 0L1805.28 4.93841L1813.72 0H1814.85L1805.28 5.60715L1795.7 0H1796.83Z" fill="#3C3C3B"/>
<path opacity="0.8412" d="M1805.28 4.9384L1820 13.4777V14.1465L1805.28 5.60714L1751.95 36.6265V98.6652L1805.28 129.736L1820 121.145V121.814L1805.43 130.302L1805.28 130.405L1751.54 99.1282L1751.38 99.0253V36.2664L1805.28 4.9384Z" fill="#3C3C3B"/>
<path opacity="0.994" d="M1698.05 192.804L1751.95 161.424V98.6652L1698.05 67.2858L1644.15 98.6652V161.424L1698.05 192.804ZM1751.38 161.064L1698.05 192.083L1644.72 161.064V99.0253L1698.05 68.0059L1751.38 99.0253V161.064Z" fill="#3C3C3B"/>
<path opacity="0.9394" d="M1698.05 192.804L1751.95 161.424V98.6652L1698.05 67.2858L1644.15 98.6652V161.424L1698.05 192.804ZM1751.38 161.064L1698.05 192.083L1644.72 161.064V99.0253L1698.05 68.0059L1751.38 99.0253V161.064Z" fill="#3C3C3B"/>
<path opacity="0.9775" d="M1689.61 0L1698.05 4.93841L1706.55 0H1707.68L1698.05 5.60715L1688.48 0H1689.61Z" fill="#3C3C3B"/>
<path opacity="0.7716" d="M1698.05 130.405L1698.21 130.302L1751.95 99.0253V36.2664L1698.05 4.88696L1644.15 36.2664V99.0253L1644.31 99.1282L1698.05 130.405ZM1751.38 98.6652L1698.05 129.685L1644.72 98.6652V36.6265L1698.05 5.60715L1751.38 36.6265V98.6652Z" fill="#3C3C3B"/>
<path opacity="0.6343" d="M1689.61 0L1698.05 4.93841L1706.55 0H1707.68L1698.05 5.60715L1688.48 0H1689.61Z" fill="#3C3C3B"/>
<path opacity="0.6715" d="M1564.37 0V20.6796L1590.88 36.1121L1617.39 20.6796V0H1617.95V21.0397L1590.88 36.7808L1563.8 21.0397V0H1564.37Z" fill="#3C3C3B"/>
<path opacity="0.9459" d="M1537.54 0V36.2664L1590.88 67.3372L1644.21 36.2664V0H1644.77V36.6265L1590.88 68.006L1536.98 36.6265V0H1537.54Z" fill="#3C3C3B"/>
<path opacity="0.5261" d="M1590.88 145.992L1604.57 138.018V122.071L1590.88 114.098L1577.18 122.071V138.018L1590.88 145.992ZM1604 137.709L1590.88 145.323L1577.75 137.709V122.431L1590.88 114.818L1604 122.431V137.709Z" fill="#3C3C3B"/>
<path opacity="0.5223" d="M1698.05 130.405L1698.21 130.302L1751.95 99.0253V36.2664L1698.05 4.88696L1644.15 36.2664V99.0253L1644.31 99.1282L1698.05 130.405ZM1751.38 98.6652L1698.05 129.685L1644.72 98.6652V36.6265L1698.05 5.60715L1751.38 36.6265V98.6652Z" fill="#3C3C3B"/>
<path opacity="0.8962" d="M1470.57 0V12.8604L1483.7 20.5252L1496.78 12.8604V0H1497.34V13.2205L1483.7 21.194L1470.01 13.2205V0H1470.57Z" fill="#3C3C3B"/>
<path opacity="0.5211" d="M1483.7 145.992L1497.39 138.018V122.071L1483.7 114.098L1470.01 122.071V138.018L1483.7 145.992ZM1496.77 137.709L1483.65 145.323L1470.52 137.709V122.431L1483.65 114.818L1496.77 122.431V137.709Z" fill="#3C3C3B"/>
<path opacity="0.6374" d="M1590.88 317.601L1591.03 317.498L1698.36 255.048V129.89L1698.2 129.787L1590.88 67.2858L1590.72 67.3886L1483.39 129.89V255.048L1483.55 255.151L1590.88 317.601ZM1697.79 254.688L1590.88 316.932L1483.96 254.688V130.199L1590.88 67.9545L1697.79 130.199V254.688Z" fill="#3C3C3B"/>
<path opacity="0.5189" d="M1590.88 130.405L1591.03 130.302L1644.77 99.0253V36.2664L1590.88 4.88696L1536.98 36.2664V99.0253L1537.13 99.1282L1590.88 130.405ZM1644.21 98.6652L1590.88 129.685L1537.54 98.6652V36.6265L1590.88 5.60715L1644.21 36.6265V98.6652Z" fill="#3C3C3B"/>
<path opacity="0.5082" d="M1483.7 161.578L1510.78 145.837V114.304L1483.7 98.5109L1456.62 114.304V145.837L1483.7 161.578ZM1510.21 145.477L1483.7 160.91L1457.19 145.477V114.612L1483.7 99.1796L1510.21 114.612V145.477Z" fill="#3C3C3B"/>
<path opacity="0.5792" d="M1323.14 0V36.2664L1376.47 67.3372L1429.8 36.2664V0H1430.37V36.6265L1376.47 68.006L1322.73 36.6779L1322.58 36.6265V0H1323.14Z" fill="#3C3C3B"/>
<path opacity="0.9861" d="M1483.7 130.405L1483.86 130.302L1537.6 99.0253V36.2664L1483.7 4.88696L1429.8 36.2664V99.0253L1429.96 99.1282L1483.7 130.405ZM1536.98 98.6652L1483.65 129.685L1430.32 98.6652V36.6265L1483.7 5.60715L1536.98 36.6265V98.6652Z" fill="#3C3C3B"/>
<path opacity="0.9808" d="M1577.75 0V12.8604L1590.88 20.5252L1604 12.8604V0H1604.57V13.2205L1590.88 21.194L1577.18 13.2205V0H1577.75Z" fill="#3C3C3B"/>
<path opacity="0.9699" d="M1323.14 0V36.2664L1376.47 67.3372L1429.8 36.2664V0H1430.37V36.6265L1376.47 68.006L1322.73 36.6779L1322.58 36.6265V0H1323.14Z" fill="#3C3C3B"/>
<path opacity="0.9622" d="M1590.88 192.804L1644.77 161.424V98.6652L1590.88 67.2858L1536.98 98.6652V161.424L1590.88 192.804ZM1644.21 161.064L1590.88 192.083L1537.54 161.064V99.0253L1590.88 68.0059L1644.21 99.0253V161.064Z" fill="#3C3C3B"/>
<path opacity="0.6304" d="M1590.88 192.804L1644.77 161.424V98.6652L1590.88 67.2858L1536.98 98.6652V161.424L1590.88 192.804ZM1644.21 161.064L1590.88 192.083L1537.54 161.064V99.0253L1590.88 68.0059L1644.21 99.0253V161.064Z" fill="#3C3C3B"/>
<path opacity="0.8387" d="M1483.7 348.826L1510.78 333.034V301.5L1483.7 285.759L1456.62 301.5V333.034L1483.7 348.826ZM1510.21 332.725L1483.7 348.158L1457.19 332.725V301.86L1483.7 286.427L1510.21 301.86V332.725Z" fill="#3C3C3B"/>
<path opacity="0.9051" d="M1483.7 380L1537.6 348.621V285.862L1483.7 254.482L1429.8 285.862V348.621L1483.7 380ZM1536.98 348.312L1483.65 379.331L1430.32 348.312V286.222L1483.65 255.202L1536.98 286.222V348.312Z" fill="#3C3C3B"/>
<path opacity="0.6545" d="M1430.37 0V36.2664L1483.7 67.3372L1536.98 36.2664V0H1537.54V36.6265L1483.7 68.006L1429.8 36.6265V0H1430.37Z" fill="#3C3C3B"/>
<path opacity="0.9574" d="M1368.03 0L1376.47 4.93841L1384.92 0H1386.05L1376.47 5.60715L1366.9 0H1368.03Z" fill="#3C3C3B"/>
<path opacity="0.9474" d="M1376.47 317.601L1376.63 317.498L1483.96 255.048V129.89L1483.8 129.787L1376.47 67.2858L1376.32 67.3886L1268.99 129.89V255.048L1269.14 255.151L1376.47 317.601ZM1483.39 254.688L1376.47 316.932L1269.56 254.688V130.199L1376.47 67.9545L1483.39 130.199V254.688Z" fill="#3C3C3B"/>
<path opacity="0.8086" d="M1269.3 161.578L1296.38 145.837V114.304L1269.3 98.5109L1242.22 114.304V145.837L1269.3 161.578ZM1295.81 145.477L1269.3 160.91L1242.79 145.477V114.612L1269.3 99.1796L1295.81 114.612V145.477Z" fill="#3C3C3B"/>
<path opacity="0.5531" d="M1376.47 348.826L1403.55 333.034V301.5L1376.47 285.759L1349.4 301.5V333.034L1376.47 348.826ZM1402.98 332.725L1376.47 348.158L1349.96 332.725V301.86L1376.47 286.427L1402.98 301.86V332.725Z" fill="#3C3C3B"/>
<path opacity="0.9538" d="M1260.86 0L1269.3 4.93841L1277.74 0H1278.87L1269.3 5.60715L1259.67 0H1260.86Z" fill="#3C3C3B"/>
<path opacity="0.8754" d="M1108.79 0V36.2664L1162.07 67.3372L1215.4 36.2664V0H1215.97V36.6265L1162.07 68.006L1108.18 36.6265V0H1108.79Z" fill="#3C3C3B"/>
<path opacity="0.5051" d="M1323.14 0V36.2664L1376.47 67.3372L1429.8 36.2664V0H1430.37V36.6265L1376.47 68.006L1322.73 36.6779L1322.58 36.6265V0H1323.14Z" fill="#3C3C3B"/>
<path opacity="0.8517" d="M1171.7 0L1162.38 5.40138V129.89L1269.3 192.135L1376.22 129.89V5.40138L1366.9 0H1368.03L1376.63 4.98985L1376.78 5.09273V130.199L1269.4 192.701L1269.3 192.804L1161.97 130.302L1161.82 130.199V5.09273L1170.51 0H1171.7Z" fill="#3C3C3B"/>
<path opacity="0.61" d="M1162.07 145.992L1175.76 138.018V122.071L1162.07 114.098L1148.38 122.071V138.018L1162.07 145.992ZM1175.2 137.709L1162.07 145.323L1148.94 137.709V122.431L1162.07 114.818L1175.2 122.431V137.709Z" fill="#3C3C3B"/>
<path opacity="0.6181" d="M1376.47 192.804L1430.37 161.424V98.6652L1376.47 67.2858L1376.32 67.3886L1322.58 98.6652V161.424L1322.73 161.527L1376.47 192.804ZM1429.8 161.064L1376.47 192.083L1323.14 161.064V99.0253L1376.47 68.0059L1429.8 99.0253V161.064Z" fill="#3C3C3B"/>
<path opacity="0.876" d="M1269.3 317.601L1269.45 317.498L1376.78 255.048V129.89L1376.63 129.787L1269.3 67.2858L1269.14 67.3886L1161.82 129.89V255.048L1161.97 255.151L1269.3 317.601ZM1376.22 254.688L1269.3 316.932L1162.38 254.688V130.199L1269.3 67.9545L1376.22 130.199V254.688Z" fill="#3C3C3B"/>
<path opacity="0.5845" d="M1269.3 348.826L1296.38 333.034V301.5L1269.3 285.759L1242.22 301.5V333.034L1269.3 348.826ZM1295.81 332.725L1269.3 348.158L1242.79 332.725V301.86L1269.3 286.427L1295.81 301.86V332.725Z" fill="#3C3C3B"/>
<path opacity="0.5432" d="M1376.47 317.601L1376.63 317.498L1430.37 286.222V223.463L1376.47 192.083L1376.32 192.186L1322.58 223.463V286.222L1322.73 286.325L1376.47 317.601ZM1429.8 285.913L1376.47 316.932L1323.14 285.913V223.823L1376.47 192.804L1429.8 223.823V285.913Z" fill="#3C3C3B"/>
<path opacity="0.8471" d="M1001.57 0V36.2664L1054.9 67.3372L1108.18 36.2664V0H1108.79V36.6265L1054.9 68.006L1001 36.6265V0H1001.57Z" fill="#3C3C3B"/>
<path opacity="0.7774" d="M1162.07 99.1796L1189.15 83.387V51.8532L1162.07 36.0606L1134.99 51.8532V83.387L1162.07 99.1796ZM1188.58 83.0784L1162.07 98.5109L1135.56 83.0784V52.2133L1162.07 36.7808L1188.58 52.2133V83.0784Z" fill="#3C3C3B"/>
<path opacity="0.6187" d="M1153.63 0L1162.07 4.93841L1170.51 0H1171.7L1162.07 5.60715L1152.5 0H1153.63Z" fill="#3C3C3B"/>
<path opacity="0.6525" d="M1028.38 0V20.6796L1054.9 36.1121L1081.41 20.6796V0H1081.97V21.0397L1054.9 36.7808L1027.82 21.0397V0H1028.38Z" fill="#3C3C3B"/>
<path opacity="0.6134" d="M1001.57 0V36.2664L1054.9 67.3372L1108.18 36.2664V0H1108.79V36.6265L1054.9 68.006L1001 36.6265V0H1001.57Z" fill="#3C3C3B"/>
<path opacity="0.951" d="M1269.3 192.804L1323.2 161.424V98.6652L1269.3 67.2858L1269.14 67.3886L1215.4 98.6652V161.424L1215.56 161.527L1269.3 192.804ZM1322.58 161.064L1269.25 192.083L1215.92 161.064V99.0253L1269.25 68.0059L1322.58 99.0253V161.064Z" fill="#3C3C3B"/>
<path opacity="0.6256" d="M1054.9 317.601L1055.05 317.498L1108.79 286.222V223.463L1054.9 192.083L1001 223.463V286.222L1001.15 286.325L1054.9 317.601ZM1108.18 285.913L1054.84 316.932L1001.51 285.913V223.823L1054.84 192.804L1108.18 223.823V285.913Z" fill="#3C3C3B"/>
<path opacity="0.6699" d="M1269.3 317.601L1269.45 317.498L1323.2 286.222V223.463L1269.3 192.083L1269.14 192.186L1215.4 223.463V286.222L1215.56 286.325L1269.3 317.601ZM1322.58 285.913L1269.25 316.932L1215.92 285.913V223.823L1269.25 192.804L1322.58 223.823V285.913Z" fill="#3C3C3B"/>
<path opacity="0.6867" d="M1801.83 145.683C1801.83 147.586 1803.37 149.13 1805.23 149.13C1807.13 149.13 1808.62 147.586 1808.62 145.683C1808.62 143.78 1807.08 142.236 1805.23 142.236C1803.37 142.185 1801.83 143.78 1801.83 145.683Z" fill="#3C3C3B"/>
<path opacity="0.975" d="M1748.24 98.871C1748.24 100.774 1749.79 102.318 1751.64 102.318C1753.54 102.318 1755.09 100.774 1755.09 98.871C1755.09 96.9676 1753.54 95.4244 1751.64 95.4244C1749.79 95.4244 1748.24 96.9676 1748.24 98.871Z" fill="#3C3C3B"/>
<path opacity="0.9056" d="M1694.65 5.24706C1694.65 7.1504 1696.2 8.69365 1698.1 8.69365C1700.01 8.69365 1701.5 7.1504 1701.5 5.24706C1701.5 3.34371 1699.96 1.80046 1698.1 1.80046C1696.2 1.80046 1694.65 3.34371 1694.65 5.24706Z" fill="#3C3C3B"/>
<path opacity="0.862" d="M1694.65 130.045C1694.65 131.948 1696.2 133.491 1698.1 133.491C1700.01 133.491 1701.5 131.948 1701.5 130.045C1701.5 128.141 1699.96 126.598 1698.1 126.598C1696.2 126.598 1694.65 128.141 1694.65 130.045Z" fill="#3C3C3B"/>
<path opacity="0.7249" d="M1614.25 20.8339C1614.25 22.7372 1615.79 24.2805 1617.64 24.2805C1619.55 24.2805 1621.09 22.7372 1621.09 20.8339C1621.09 18.9306 1619.55 17.3873 1617.64 17.3873C1615.79 17.3873 1614.25 18.9306 1614.25 20.8339Z" fill="#3C3C3B"/>
<path opacity="0.5437" d="M1560.66 20.8339C1560.66 22.7372 1562.2 24.2805 1564.11 24.2805C1566.01 24.2805 1567.51 22.7372 1567.51 20.8339C1567.51 18.9306 1565.96 17.3873 1564.11 17.3873C1562.2 17.3873 1560.66 18.9306 1560.66 20.8339Z" fill="#3C3C3B"/>
<path opacity="0.8559" d="M1641.07 36.4722C1641.07 38.3755 1642.61 39.9188 1644.46 39.9188C1646.37 39.9188 1647.86 38.3755 1647.86 36.4722C1647.86 34.5688 1646.32 33.0256 1644.46 33.0256C1642.56 33.0256 1641.07 34.5688 1641.07 36.4722Z" fill="#3C3C3B"/>
<path opacity="0.691" d="M1587.48 145.683C1587.48 147.586 1589.02 149.13 1590.88 149.13C1592.78 149.13 1594.32 147.586 1594.32 145.683C1594.32 143.78 1592.78 142.236 1590.88 142.236C1588.97 142.185 1587.48 143.78 1587.48 145.683Z" fill="#3C3C3B"/>
<path opacity="0.6169" d="M1694.65 130.045C1694.65 131.948 1696.2 133.491 1698.1 133.491C1700.01 133.491 1701.5 131.948 1701.5 130.045C1701.5 128.141 1699.96 126.598 1698.1 126.598C1696.2 126.598 1694.65 128.141 1694.65 130.045Z" fill="#3C3C3B"/>
<path opacity="0.5121" d="M1641.07 98.871C1641.07 100.774 1642.61 102.318 1644.46 102.318C1646.37 102.318 1647.91 100.774 1647.91 98.871C1647.91 96.9676 1646.37 95.4244 1644.46 95.4244C1642.61 95.4244 1641.07 96.9676 1641.07 98.871Z" fill="#3C3C3B"/>
<path opacity="0.8706" d="M1480.25 20.8339C1480.25 22.7372 1481.8 24.2805 1483.65 24.2805C1485.55 24.2805 1487.1 22.7372 1487.1 20.8339C1487.1 18.9306 1485.55 17.3873 1483.65 17.3873C1481.8 17.3873 1480.25 18.9306 1480.25 20.8339Z" fill="#3C3C3B"/>
<path opacity="0.6625" d="M1466.87 122.277C1466.87 124.18 1468.41 125.724 1470.32 125.724C1472.22 125.724 1473.71 124.18 1473.71 122.277C1473.71 120.374 1472.17 118.83 1470.32 118.83C1468.41 118.83 1466.87 120.374 1466.87 122.277Z" fill="#3C3C3B"/>
<path opacity="0.6645" d="M1587.48 317.241C1587.48 319.144 1589.02 320.688 1590.88 320.688C1592.78 320.688 1594.32 319.144 1594.32 317.241C1594.32 315.338 1592.78 313.794 1590.88 313.794C1588.97 313.794 1587.48 315.338 1587.48 317.241Z" fill="#3C3C3B"/>
<path opacity="0.9538" d="M1480.25 254.842C1480.25 256.746 1481.8 258.289 1483.65 258.289C1485.55 258.289 1487.1 256.746 1487.1 254.842C1487.1 252.939 1485.55 251.396 1483.65 251.396C1481.8 251.396 1480.25 252.939 1480.25 254.842Z" fill="#3C3C3B"/>
<path opacity="0.6405" d="M1694.65 130.045C1694.65 131.948 1696.2 133.491 1698.1 133.491C1700.01 133.491 1701.5 131.948 1701.5 130.045C1701.5 128.141 1699.96 126.598 1698.1 126.598C1696.2 126.598 1694.65 128.141 1694.65 130.045Z" fill="#3C3C3B"/>
<path opacity="0.5246" d="M1587.48 130.045C1587.48 131.948 1589.02 133.491 1590.88 133.491C1592.78 133.491 1594.32 131.948 1594.32 130.045C1594.32 128.141 1592.78 126.598 1590.88 126.598C1588.97 126.598 1587.48 128.141 1587.48 130.045Z" fill="#3C3C3B"/>
<path opacity="0.7605" d="M1533.84 98.871C1533.84 100.774 1535.38 102.318 1537.29 102.318C1539.19 102.318 1540.69 100.774 1540.69 98.871C1540.69 96.9676 1539.14 95.4244 1537.29 95.4244C1535.38 95.4244 1533.84 96.9676 1533.84 98.871Z" fill="#3C3C3B"/>
<path opacity="0.6166" d="M1533.84 36.4722C1533.84 38.3755 1535.38 39.9188 1537.29 39.9188C1539.19 39.9188 1540.69 38.3755 1540.69 36.4722C1540.69 34.5688 1539.14 33.0256 1537.29 33.0256C1535.38 33.0256 1533.84 34.5688 1533.84 36.4722Z" fill="#3C3C3B"/>
<path opacity="0.5032" d="M1453.48 114.458C1453.48 116.361 1455.03 117.904 1456.88 117.904C1458.79 117.904 1460.33 116.361 1460.33 114.458C1460.33 112.554 1458.79 111.011 1456.88 111.011C1454.98 111.011 1453.48 112.554 1453.48 114.458Z" fill="#3C3C3B"/>
<path opacity="0.9074" d="M1319.49 36.4722C1319.49 38.3755 1321.03 39.9188 1322.89 39.9188C1324.79 39.9188 1326.28 38.3755 1326.28 36.4722C1326.28 34.5688 1324.74 33.0256 1322.89 33.0256C1320.98 33.0256 1319.49 34.5688 1319.49 36.4722Z" fill="#3C3C3B"/>
<path opacity="0.6002" d="M1606.58 0C1605.96 0.565859 1605.19 0.874509 1604.31 0.874509C1603.44 0.874509 1602.61 0.514417 1602.05 0H1606.58Z" fill="#3C3C3B"/>
<path opacity="0.6002" d="M1373.08 67.6459C1373.08 69.5492 1374.62 71.0925 1376.47 71.0925C1378.33 71.0925 1379.87 69.5492 1379.87 67.6459C1379.87 65.7425 1378.33 64.1993 1376.47 64.1993C1374.62 64.1993 1373.08 65.7425 1373.08 67.6459Z" fill="#3C3C3B"/>
<path opacity="0.6607" d="M1533.84 98.871C1533.84 100.774 1535.38 102.318 1537.29 102.318C1539.19 102.318 1540.69 100.774 1540.69 98.871C1540.69 96.9676 1539.14 95.4244 1537.29 95.4244C1535.38 95.4244 1533.84 96.9676 1533.84 98.871Z" fill="#3C3C3B"/>
<path opacity="0.5786" d="M1453.48 332.879C1453.48 334.783 1455.03 336.326 1456.88 336.326C1458.79 336.326 1460.33 334.783 1460.33 332.879C1460.33 330.976 1458.79 329.433 1456.88 329.433C1454.98 329.433 1453.48 330.976 1453.48 332.879Z" fill="#3C3C3B"/>
<path opacity="0.9283" d="M1480.25 286.067C1480.25 287.971 1481.8 289.514 1483.65 289.514C1485.55 289.514 1487.1 287.971 1487.1 286.067C1487.1 284.164 1485.55 282.621 1483.65 282.621C1481.8 282.621 1480.25 284.164 1480.25 286.067Z" fill="#3C3C3B"/>
<path opacity="0.6334" d="M1507.07 301.654C1507.07 303.558 1508.61 305.101 1510.47 305.101C1512.37 305.101 1513.87 303.558 1513.87 301.654C1513.87 299.751 1512.32 298.208 1510.47 298.208C1508.56 298.208 1507.07 299.751 1507.07 301.654Z" fill="#3C3C3B"/>
<path opacity="0.6939" d="M1533.84 348.466C1533.84 350.37 1535.38 351.913 1537.29 351.913C1539.19 351.913 1540.69 350.37 1540.69 348.466C1540.69 346.563 1539.14 345.02 1537.29 345.02C1535.38 345.02 1533.84 346.563 1533.84 348.466Z" fill="#3C3C3B"/>
<path opacity="0.7705" d="M1480.25 67.6459C1480.25 69.5492 1481.8 71.0925 1483.65 71.0925C1485.55 71.0925 1487.1 69.5492 1487.1 67.6459C1487.1 65.7425 1485.55 64.1993 1483.65 64.1993C1481.8 64.1993 1480.25 65.7425 1480.25 67.6459Z" fill="#3C3C3B"/>
<path opacity="0.8428" d="M1426.66 36.4722C1426.66 38.3755 1428.21 39.9188 1430.11 39.9188C1432.02 39.9188 1433.51 38.3755 1433.51 36.4722C1433.51 34.5688 1431.97 33.0256 1430.11 33.0256C1428.21 33.0256 1426.66 34.5688 1426.66 36.4722Z" fill="#3C3C3B"/>
<path opacity="0.9917" d="M1239.08 145.683C1239.08 147.586 1240.63 149.13 1242.53 149.13C1244.43 149.13 1245.93 147.586 1245.93 145.683C1245.93 143.78 1244.38 142.236 1242.53 142.236C1240.57 142.185 1239.08 143.78 1239.08 145.683Z" fill="#3C3C3B"/>
<path opacity="0.9612" d="M1239.08 114.458C1239.08 116.361 1240.63 117.904 1242.53 117.904C1244.43 117.904 1245.93 116.361 1245.93 114.458C1245.93 112.554 1244.38 111.011 1242.53 111.011C1240.57 111.011 1239.08 112.554 1239.08 114.458Z" fill="#3C3C3B"/>
<path opacity="0.6836" d="M1105.09 36.4722C1105.09 38.3755 1106.63 39.9188 1108.54 39.9188C1110.44 39.9188 1111.93 38.3755 1111.93 36.4722C1111.93 34.5688 1110.39 33.0256 1108.54 33.0256C1106.58 33.0256 1105.09 34.5688 1105.09 36.4722Z" fill="#3C3C3B"/>
<path opacity="0.9087" d="M1426.66 36.4722C1426.66 38.3755 1428.21 39.9188 1430.06 39.9188C1431.97 39.9188 1433.51 38.3755 1433.51 36.4722C1433.51 34.5688 1431.97 33.0256 1430.06 33.0256C1428.21 33.0256 1426.66 34.5688 1426.66 36.4722Z" fill="#3C3C3B"/>
<path opacity="0.7254" d="M1319.49 36.4722C1319.49 38.3755 1321.03 39.9188 1322.89 39.9188C1324.79 39.9188 1326.28 38.3755 1326.28 36.4722C1326.28 34.5688 1324.74 33.0256 1322.89 33.0256C1320.98 33.0256 1319.49 34.5688 1319.49 36.4722Z" fill="#3C3C3B"/>
<path opacity="0.5217" d="M1373.08 130.045C1373.08 131.948 1374.62 133.491 1376.47 133.491C1378.33 133.491 1379.87 131.948 1379.87 130.045C1379.87 128.141 1378.33 126.598 1376.47 126.598C1374.62 126.598 1373.08 128.141 1373.08 130.045Z" fill="#3C3C3B"/>
<path opacity="0.758" d="M1373.08 5.24706C1373.08 7.1504 1374.62 8.69365 1376.47 8.69365C1378.33 8.69365 1379.87 7.1504 1379.87 5.24706C1379.87 3.34371 1378.33 1.80046 1376.47 1.80046C1374.62 1.80046 1373.08 3.34371 1373.08 5.24706Z" fill="#3C3C3B"/>
<path opacity="0.5672" d="M1172.06 137.864C1172.06 139.767 1173.6 141.31 1175.51 141.31C1177.41 141.31 1178.9 139.767 1178.9 137.864C1178.9 135.96 1177.36 134.417 1175.51 134.417C1173.6 134.417 1172.06 135.96 1172.06 137.864Z" fill="#3C3C3B"/>
<path opacity="0.6639" d="M1145.24 122.277C1145.24 124.18 1146.78 125.724 1148.69 125.724C1150.59 125.724 1152.09 124.18 1152.09 122.277C1152.09 120.374 1150.54 118.83 1148.69 118.83C1146.78 118.83 1145.24 120.374 1145.24 122.277Z" fill="#3C3C3B"/>
<path opacity="0.7845" d="M1158.67 114.458C1158.67 116.361 1160.22 117.904 1162.07 117.904C1163.98 117.904 1165.47 116.361 1165.47 114.458C1165.47 112.554 1163.92 111.011 1162.07 111.011C1160.22 111.011 1158.67 112.554 1158.67 114.458Z" fill="#3C3C3B"/>
<path opacity="0.8686" d="M1265.85 348.466C1265.85 350.37 1267.39 351.913 1269.3 351.913C1271.2 351.913 1272.7 350.37 1272.7 348.466C1272.7 346.563 1271.15 345.02 1269.3 345.02C1267.39 345.02 1265.85 346.563 1265.85 348.466Z" fill="#3C3C3B"/>
<path opacity="0.9438" d="M1319.49 223.669C1319.49 225.572 1321.03 227.115 1322.89 227.115C1324.79 227.115 1326.28 225.572 1326.28 223.669C1326.28 221.765 1324.74 220.222 1322.89 220.222C1320.98 220.222 1319.49 221.765 1319.49 223.669Z" fill="#3C3C3B"/>
<path opacity="0.8488" d="M1373.08 192.443C1373.08 194.347 1374.62 195.89 1376.47 195.89C1378.33 195.89 1379.87 194.347 1379.87 192.443C1379.87 190.54 1378.33 188.997 1376.47 188.997C1374.62 188.997 1373.08 190.54 1373.08 192.443Z" fill="#3C3C3B"/>
<path opacity="0.5604" d="M1105.09 36.4722C1105.09 38.3755 1106.63 39.9188 1108.48 39.9188C1110.39 39.9188 1111.93 38.3755 1111.93 36.4722C1111.93 34.5688 1110.39 33.0256 1108.48 33.0256C1106.58 33.0256 1105.09 34.5688 1105.09 36.4722Z" fill="#3C3C3B"/>
<path opacity="0.8646" d="M1051.45 67.6459C1051.45 69.5492 1052.99 71.0925 1054.84 71.0925C1056.75 71.0925 1058.24 69.5492 1058.24 67.6459C1058.24 65.7425 1056.7 64.1993 1054.84 64.1993C1052.99 64.1993 1051.45 65.7425 1051.45 67.6459Z" fill="#3C3C3B"/>
<path opacity="0.5312" d="M1158.67 98.871C1158.67 100.774 1160.22 102.318 1162.07 102.318C1163.98 102.318 1165.47 100.774 1165.47 98.871C1165.47 96.9676 1163.92 95.4244 1162.07 95.4244C1160.22 95.4244 1158.67 96.9676 1158.67 98.871Z" fill="#3C3C3B"/>
<path opacity="0.7235" d="M1078.27 20.8339C1078.27 22.7372 1079.81 24.2805 1081.72 24.2805C1083.62 24.2805 1085.11 22.7372 1085.11 20.8339C1085.11 18.9306 1083.57 17.3873 1081.72 17.3873C1079.81 17.3873 1078.27 18.9306 1078.27 20.8339Z" fill="#3C3C3B"/>
<path opacity="0.5885" d="M1024.68 20.8339C1024.68 22.7372 1026.22 24.2805 1028.08 24.2805C1029.98 24.2805 1031.47 22.7372 1031.47 20.8339C1031.47 18.9306 1029.93 17.3873 1028.08 17.3873C1026.22 17.3873 1024.68 18.9306 1024.68 20.8339Z" fill="#3C3C3B"/>
<path opacity="0.8858" d="M1319.49 161.27C1319.49 163.173 1321.03 164.716 1322.89 164.716C1324.79 164.716 1326.28 163.173 1326.28 161.27C1326.28 159.366 1324.74 157.823 1322.89 157.823C1320.98 157.823 1319.49 159.366 1319.49 161.27Z" fill="#3C3C3B"/>
<path opacity="0.5875" d="M1212.26 161.27C1212.26 163.173 1213.81 164.716 1215.66 164.716C1217.56 164.716 1219.06 163.173 1219.06 161.27C1219.06 159.366 1217.51 157.823 1215.66 157.823C1213.81 157.823 1212.26 159.366 1212.26 161.27Z" fill="#3C3C3B"/>
<path opacity="0.9745" d="M1051.45 192.443C1051.45 194.347 1052.99 195.89 1054.84 195.89C1056.75 195.89 1058.24 194.347 1058.24 192.443C1058.24 190.54 1056.7 188.997 1054.84 188.997C1052.99 188.997 1051.45 190.54 1051.45 192.443Z" fill="#3C3C3B"/>
<path opacity="0.6677" d="M1265.85 317.241C1265.85 319.144 1267.39 320.688 1269.3 320.688C1271.2 320.688 1272.7 319.144 1272.7 317.241C1272.7 315.338 1271.15 313.794 1269.3 313.794C1267.39 313.794 1265.85 315.338 1265.85 317.241Z" fill="#3C3C3B"/>
<path opacity="0.779" d="M1265.85 192.443C1265.85 194.347 1267.39 195.89 1269.3 195.89C1271.2 195.89 1272.7 194.347 1272.7 192.443C1272.7 190.54 1271.15 188.997 1269.3 188.997C1267.39 188.997 1265.85 190.54 1265.85 192.443Z" fill="#3C3C3B"/>
</g>
<g opacity="0.3" clip-path="url(#clip1_2022_1230)">
<path opacity="0.8516" d="M706.72 1555H707.852L698.535 1549.6V1425.11L713 1416.72V1416.06L698.123 1424.7L697.969 1424.8V1549.91L706.72 1555Z" fill="#3C3C3B"/>
<path opacity="0.9669" d="M698.278 1409.01L711.971 1416.98V1432.93L698.278 1440.9L684.585 1432.93V1416.98L698.278 1409.01ZM711.404 1417.29L698.278 1409.68L685.151 1417.29V1432.57L698.278 1440.18L711.404 1432.57V1417.29Z" fill="#3C3C3B"/>
<path opacity="0.716" d="M689.835 1555L698.277 1550.06L706.719 1555H707.852L698.277 1549.39L688.702 1555H689.835Z" fill="#3C3C3B"/>
<path opacity="0.8412" d="M698.278 1550.06L713 1541.52V1540.85L698.278 1549.39L644.947 1518.37V1456.33L698.278 1425.26L713 1433.85V1433.19L698.432 1424.7L698.278 1424.6L644.536 1455.87L644.381 1455.97V1518.73L698.278 1550.06Z" fill="#3C3C3B"/>
<path opacity="0.994" d="M591.051 1362.2L644.947 1393.58V1456.33L591.051 1487.71L537.154 1456.33V1393.58L591.051 1362.2ZM644.381 1393.94L591.051 1362.92L537.721 1393.94V1455.97L591.051 1486.99L644.381 1455.97V1393.94Z" fill="#3C3C3B"/>
<path opacity="0.9394" d="M591.051 1362.2L644.947 1393.58V1456.33L591.051 1487.71L537.154 1456.33V1393.58L591.051 1362.2ZM644.381 1393.94L591.051 1362.92L537.721 1393.94V1455.97L591.051 1486.99L644.381 1455.97V1393.94Z" fill="#3C3C3B"/>
<path opacity="0.9775" d="M582.609 1555L591.052 1550.06L599.545 1555H600.678L591.052 1549.39L581.477 1555H582.609Z" fill="#3C3C3B"/>
<path opacity="0.7716" d="M591.051 1424.6L591.205 1424.7L644.947 1455.97V1518.73L591.051 1550.11L537.154 1518.73V1455.97L537.309 1455.87L591.051 1424.6ZM644.381 1456.33L591.051 1425.32L537.721 1456.33V1518.37L591.051 1549.39L644.381 1518.37V1456.33Z" fill="#3C3C3B"/>
<path opacity="0.6343" d="M582.609 1555L591.052 1550.06L599.545 1555H600.678L591.052 1549.39L581.477 1555H582.609Z" fill="#3C3C3B"/>
<path opacity="0.6715" d="M457.366 1555V1534.32L483.876 1518.89L510.387 1534.32V1555H510.953V1533.96L483.876 1518.22L456.799 1533.96V1555H457.366Z" fill="#3C3C3B"/>
<path opacity="0.9459" d="M430.545 1555V1518.73L483.875 1487.66L537.205 1518.73V1555H537.771V1518.37L483.875 1486.99L429.979 1518.37V1555H430.545Z" fill="#3C3C3B"/>
<path opacity="0.5261" d="M483.875 1409.01L497.568 1416.98V1432.93L483.875 1440.9L470.183 1432.93V1416.98L483.875 1409.01ZM497.002 1417.29L483.875 1409.68L470.749 1417.29V1432.57L483.875 1440.18L497.002 1432.57V1417.29Z" fill="#3C3C3B"/>
<path opacity="0.5223" d="M591.051 1424.6L591.205 1424.7L644.947 1455.97V1518.73L591.051 1550.11L537.154 1518.73V1455.97L537.309 1455.87L591.051 1424.6ZM644.381 1456.33L591.051 1425.32L537.721 1456.33V1518.37L591.051 1549.39L644.381 1518.37V1456.33Z" fill="#3C3C3B"/>
<path opacity="0.8962" d="M363.574 1555V1542.14L376.7 1534.47L389.776 1542.14V1555H390.342V1541.78L376.7 1533.81L363.007 1541.78V1555H363.574Z" fill="#3C3C3B"/>
<path opacity="0.5211" d="M376.7 1409.01L390.393 1416.98V1432.93L376.7 1440.9L363.007 1432.93V1416.98L376.7 1409.01ZM389.775 1417.29L376.648 1409.68L363.522 1417.29V1432.57L376.648 1440.18L389.775 1432.57V1417.29Z" fill="#3C3C3B"/>
<path opacity="0.6374" d="M483.875 1237.4L484.03 1237.5L591.359 1299.95V1425.11L591.205 1425.21L483.875 1487.71L483.721 1487.61L376.391 1425.11V1299.95L376.546 1299.85L483.875 1237.4ZM590.793 1300.31L483.875 1238.07L376.957 1300.31V1424.8L483.875 1487.05L590.793 1424.8V1300.31Z" fill="#3C3C3B"/>
<path opacity="0.5189" d="M483.875 1424.6L484.029 1424.7L537.771 1455.97V1518.73L483.875 1550.11L429.979 1518.73V1455.97L430.133 1455.87L483.875 1424.6ZM537.205 1456.33L483.875 1425.32L430.545 1456.33V1518.37L483.875 1549.39L537.205 1518.37V1456.33Z" fill="#3C3C3B"/>
<path opacity="0.5082" d="M376.7 1393.42L403.777 1409.16V1440.7L376.7 1456.49L349.623 1440.7V1409.16L376.7 1393.42ZM403.211 1409.52L376.7 1394.09L350.19 1409.52V1440.39L376.7 1455.82L403.211 1440.39V1409.52Z" fill="#3C3C3B"/>
<path opacity="0.5792" d="M216.144 1555V1518.73L269.475 1487.66L322.805 1518.73V1555H323.371V1518.37L269.475 1486.99L215.733 1518.32L215.578 1518.37V1555H216.144Z" fill="#3C3C3B"/>
<path opacity="0.9861" d="M376.701 1424.6L376.856 1424.7L430.598 1455.97V1518.73L376.701 1550.11L322.805 1518.73V1455.97L322.959 1455.87L376.701 1424.6ZM429.98 1456.33L376.65 1425.32L323.319 1456.33V1518.37L376.701 1549.39L429.98 1518.37V1456.33Z" fill="#3C3C3B"/>
<path opacity="0.9808" d="M470.749 1555V1542.14L483.875 1534.47L497.002 1542.14V1555H497.568V1541.78L483.875 1533.81L470.183 1541.78V1555H470.749Z" fill="#3C3C3B"/>
<path opacity="0.9699" d="M216.144 1555V1518.73L269.475 1487.66L322.805 1518.73V1555H323.371V1518.37L269.475 1486.99L215.733 1518.32L215.578 1518.37V1555H216.144Z" fill="#3C3C3B"/>
<path opacity="0.9622" d="M483.875 1362.2L537.771 1393.58V1456.33L483.875 1487.71L429.979 1456.33V1393.58L483.875 1362.2ZM537.205 1393.94L483.875 1362.92L430.545 1393.94V1455.97L483.875 1486.99L537.205 1455.97V1393.94Z" fill="#3C3C3B"/>
<path opacity="0.6304" d="M483.875 1362.2L537.771 1393.58V1456.33L483.875 1487.71L429.979 1456.33V1393.58L483.875 1362.2ZM537.205 1393.94L483.875 1362.92L430.545 1393.94V1455.97L483.875 1486.99L537.205 1455.97V1393.94Z" fill="#3C3C3B"/>
<path opacity="0.8387" d="M376.7 1206.17L403.777 1221.97V1253.5L376.7 1269.24L349.623 1253.5V1221.97L376.7 1206.17ZM403.211 1222.27L376.7 1206.84L350.19 1222.27V1253.14L376.7 1268.57L403.211 1253.14V1222.27Z" fill="#3C3C3B"/>
<path opacity="0.9051" d="M376.701 1175L430.598 1206.38V1269.14L376.701 1300.52L322.805 1269.14V1206.38L376.701 1175ZM429.98 1206.69L376.65 1175.67L323.319 1206.69V1268.78L376.65 1299.8L429.98 1268.78V1206.69Z" fill="#3C3C3B"/>
<path opacity="0.6545" d="M323.37 1555V1518.73L376.7 1487.66L429.979 1518.73V1555H430.545V1518.37L376.7 1486.99L322.803 1518.37V1555H323.37Z" fill="#3C3C3B"/>
<path opacity="0.9574" d="M261.032 1555L269.474 1550.06L277.916 1555H279.049L269.474 1549.39L259.899 1555H261.032Z" fill="#3C3C3B"/>
<path opacity="0.9474" d="M269.473 1237.4L269.627 1237.5L376.957 1299.95V1425.11L376.803 1425.21L269.473 1487.71L269.318 1487.61L161.989 1425.11V1299.95L162.143 1299.85L269.473 1237.4ZM376.391 1300.31L269.473 1238.07L162.555 1300.31V1424.8L269.473 1487.05L376.391 1424.8V1300.31Z" fill="#3C3C3B"/>
<path opacity="0.8086" d="M162.298 1393.42L189.375 1409.16V1440.7L162.298 1456.49L135.221 1440.7V1409.16L162.298 1393.42ZM188.809 1409.52L162.298 1394.09L135.787 1409.52V1440.39L162.298 1455.82L188.809 1440.39V1409.52Z" fill="#3C3C3B"/>
<path opacity="0.5531" d="M269.474 1206.17L296.551 1221.97V1253.5L269.474 1269.24L242.397 1253.5V1221.97L269.474 1206.17ZM295.985 1222.27L269.474 1206.84L242.963 1222.27V1253.14L269.474 1268.57L295.985 1253.14V1222.27Z" fill="#3C3C3B"/>
<path opacity="0.9538" d="M153.856 1555L162.298 1550.06L170.741 1555H171.873L162.298 1549.39L152.672 1555H153.856Z" fill="#3C3C3B"/>
<path opacity="0.8754" d="M1.79353 1555V1518.73L55.0723 1487.66L108.403 1518.73V1555H108.969V1518.37L55.0723 1486.99L1.17577 1518.37V1555H1.79353Z" fill="#3C3C3B"/>
<path opacity="0.5051" d="M216.144 1555V1518.73L269.475 1487.66L322.805 1518.73V1555H323.371V1518.37L269.475 1486.99L215.733 1518.32L215.578 1518.37V1555H216.144Z" fill="#3C3C3B"/>
<path opacity="0.8517" d="M64.6986 1555L55.3813 1549.6V1425.11L162.299 1362.87L269.217 1425.11V1549.6L259.9 1555H261.032L269.629 1550.01L269.783 1549.91V1424.8L162.402 1362.3L162.299 1362.2L54.9694 1424.7L54.815 1424.8V1549.91L63.5147 1555H64.6986Z" fill="#3C3C3B"/>
<path opacity="0.61" d="M55.0708 1409.01L68.7637 1416.98V1432.93L55.0708 1440.9L41.3779 1432.93V1416.98L55.0708 1409.01ZM68.1974 1417.29L55.0708 1409.68L41.9441 1417.29V1432.57L55.0708 1440.18L68.1974 1432.57V1417.29Z" fill="#3C3C3B"/>
<path opacity="0.6181" d="M269.475 1362.2L323.371 1393.58V1456.33L269.475 1487.71L269.32 1487.61L215.578 1456.33V1393.58L215.733 1393.47L269.475 1362.2ZM322.805 1393.94L269.475 1362.92L216.144 1393.94V1455.97L269.475 1486.99L322.805 1455.97V1393.94Z" fill="#3C3C3B"/>
<path opacity="0.876" d="M162.299 1237.4L162.454 1237.5L269.783 1299.95V1425.11L269.629 1425.21L162.299 1487.71L162.145 1487.61L54.815 1425.11V1299.95L54.9694 1299.85L162.299 1237.4ZM269.217 1300.31L162.299 1238.07L55.3813 1300.31V1424.8L162.299 1487.05L269.217 1424.8V1300.31Z" fill="#3C3C3B"/>
<path opacity="0.5845" d="M162.298 1206.17L189.375 1221.97V1253.5L162.298 1269.24L135.221 1253.5V1221.97L162.298 1206.17ZM188.809 1222.27L162.298 1206.84L135.787 1222.27V1253.14L162.298 1268.57L188.809 1253.14V1222.27Z" fill="#3C3C3B"/>
<path opacity="0.5432" d="M269.475 1237.4L269.629 1237.5L323.371 1268.78V1331.54L269.475 1362.92L269.32 1362.81L215.578 1331.54V1268.78L215.733 1268.68L269.475 1237.4ZM322.805 1269.09L269.475 1238.07L216.144 1269.09V1331.18L269.475 1362.2L322.805 1331.18V1269.09Z" fill="#3C3C3B"/>
<path opacity="0.8471" d="M-105.434 1555V1518.73L-52.1036 1487.66L1.17521 1518.73V1555H1.79297V1518.37L-52.1036 1486.99L-106 1518.37V1555H-105.434Z" fill="#3C3C3B"/>
<path opacity="0.7774" d="M55.0715 1455.82L82.1484 1471.61V1503.15L55.0715 1518.94L27.9946 1503.15V1471.61L55.0715 1455.82ZM81.5822 1471.92L55.0715 1456.49L28.5608 1471.92V1502.79L55.0715 1518.22L81.5822 1502.79V1471.92Z" fill="#3C3C3B"/>
<path opacity="0.6187" d="M46.6288 1555L55.0711 1550.06L63.5133 1555H64.6973L55.0711 1549.39L45.4964 1555H46.6288Z" fill="#3C3C3B"/>
<path opacity="0.6134" d="M-105.434 1555V1518.73L-52.1036 1487.66L1.17521 1518.73V1555H1.79297V1518.37L-52.1036 1486.99L-106 1518.37V1555H-105.434Z" fill="#3C3C3B"/>
<path opacity="0.951" d="M162.299 1362.2L216.195 1393.58V1456.33L162.299 1487.71L162.144 1487.61L108.402 1456.33V1393.58L108.557 1393.47L162.299 1362.2ZM215.578 1393.94L162.247 1362.92L108.917 1393.94V1455.97L162.247 1486.99L215.578 1455.97V1393.94Z" fill="#3C3C3B"/>
<path opacity="0.6256" d="M-52.1036 1237.4L-51.9491 1237.5L1.79297 1268.78V1331.54L-52.1036 1362.92L-106 1331.54V1268.78L-105.846 1268.68L-52.1036 1237.4ZM1.17521 1269.09L-52.155 1238.07L-105.485 1269.09V1331.18L-52.155 1362.2L1.17521 1331.18V1269.09Z" fill="#3C3C3B"/>
<path opacity="0.6699" d="M162.299 1237.4L162.453 1237.5L216.195 1268.78V1331.54L162.299 1362.92L162.144 1362.81L108.402 1331.54V1268.78L108.557 1268.68L162.299 1237.4ZM215.578 1269.09L162.247 1238.07L108.917 1269.09V1331.18L162.247 1362.2L215.578 1331.18V1269.09Z" fill="#3C3C3B"/>
<path opacity="0.6867" d="M694.828 1409.32C694.828 1407.41 696.372 1405.87 698.226 1405.87C700.13 1405.87 701.623 1407.41 701.623 1409.32C701.623 1411.22 700.079 1412.76 698.226 1412.76C696.372 1412.82 694.828 1411.22 694.828 1409.32Z" fill="#3C3C3B"/>
<path opacity="0.975" d="M641.241 1456.13C641.241 1454.23 642.786 1452.68 644.639 1452.68C646.544 1452.68 648.088 1454.23 648.088 1456.13C648.088 1458.03 646.544 1459.58 644.639 1459.58C642.786 1459.58 641.241 1458.03 641.241 1456.13Z" fill="#3C3C3B"/>
<path opacity="0.9056" d="M587.654 1549.75C587.654 1547.85 589.198 1546.31 591.103 1546.31C593.007 1546.31 594.5 1547.85 594.5 1549.75C594.5 1551.66 592.956 1553.2 591.103 1553.2C589.198 1553.2 587.654 1551.66 587.654 1549.75Z" fill="#3C3C3B"/>
<path opacity="0.862" d="M587.654 1424.96C587.654 1423.05 589.198 1421.51 591.103 1421.51C593.007 1421.51 594.5 1423.05 594.5 1424.96C594.5 1426.86 592.956 1428.4 591.103 1428.4C589.198 1428.4 587.654 1426.86 587.654 1424.96Z" fill="#3C3C3B"/>
<path opacity="0.7249" d="M507.245 1534.17C507.245 1532.26 508.79 1530.72 510.643 1530.72C512.547 1530.72 514.092 1532.26 514.092 1534.17C514.092 1536.07 512.547 1537.61 510.643 1537.61C508.79 1537.61 507.245 1536.07 507.245 1534.17Z" fill="#3C3C3B"/>
<path opacity="0.5437" d="M453.659 1534.17C453.659 1532.26 455.204 1530.72 457.108 1530.72C459.013 1530.72 460.506 1532.26 460.506 1534.17C460.506 1536.07 458.962 1537.61 457.108 1537.61C455.204 1537.61 453.659 1536.07 453.659 1534.17Z" fill="#3C3C3B"/>
<path opacity="0.8559" d="M534.066 1518.53C534.066 1516.62 535.611 1515.08 537.464 1515.08C539.368 1515.08 540.861 1516.62 540.861 1518.53C540.861 1520.43 539.317 1521.97 537.464 1521.97C535.559 1521.97 534.066 1520.43 534.066 1518.53Z" fill="#3C3C3B"/>
<path opacity="0.691" d="M480.478 1409.32C480.478 1407.41 482.022 1405.87 483.875 1405.87C485.78 1405.87 487.324 1407.41 487.324 1409.32C487.324 1411.22 485.78 1412.76 483.875 1412.76C481.971 1412.82 480.478 1411.22 480.478 1409.32Z" fill="#3C3C3B"/>
<path opacity="0.6169" d="M587.654 1424.96C587.654 1423.05 589.198 1421.51 591.103 1421.51C593.007 1421.51 594.5 1423.05 594.5 1424.96C594.5 1426.86 592.956 1428.4 591.103 1428.4C589.198 1428.4 587.654 1426.86 587.654 1424.96Z" fill="#3C3C3B"/>
<path opacity="0.5121" d="M534.066 1456.13C534.066 1454.23 535.61 1452.68 537.463 1452.68C539.368 1452.68 540.912 1454.23 540.912 1456.13C540.912 1458.03 539.368 1459.58 537.463 1459.58C535.61 1459.58 534.066 1458.03 534.066 1456.13Z" fill="#3C3C3B"/>
<path opacity="0.8706" d="M373.251 1534.17C373.251 1532.26 374.796 1530.72 376.649 1530.72C378.553 1530.72 380.098 1532.26 380.098 1534.17C380.098 1536.07 378.553 1537.61 376.649 1537.61C374.796 1537.61 373.251 1536.07 373.251 1534.17Z" fill="#3C3C3B"/>
<path opacity="0.6625" d="M359.866 1432.72C359.866 1430.82 361.411 1429.28 363.315 1429.28C365.22 1429.28 366.713 1430.82 366.713 1432.72C366.713 1434.63 365.169 1436.17 363.315 1436.17C361.411 1436.17 359.866 1434.63 359.866 1432.72Z" fill="#3C3C3B"/>
<path opacity="0.6645" d="M480.478 1237.76C480.478 1235.86 482.022 1234.31 483.875 1234.31C485.78 1234.31 487.324 1235.86 487.324 1237.76C487.324 1239.66 485.78 1241.21 483.875 1241.21C481.971 1241.21 480.478 1239.66 480.478 1237.76Z" fill="#3C3C3B"/>
<path opacity="0.9538" d="M373.251 1300.16C373.251 1298.25 374.796 1296.71 376.649 1296.71C378.553 1296.71 380.098 1298.25 380.098 1300.16C380.098 1302.06 378.553 1303.6 376.649 1303.6C374.796 1303.6 373.251 1302.06 373.251 1300.16Z" fill="#3C3C3B"/>
<path opacity="0.6405" d="M587.654 1424.96C587.654 1423.05 589.198 1421.51 591.103 1421.51C593.007 1421.51 594.5 1423.05 594.5 1424.96C594.5 1426.86 592.956 1428.4 591.103 1428.4C589.198 1428.4 587.654 1426.86 587.654 1424.96Z" fill="#3C3C3B"/>
<path opacity="0.5246" d="M480.478 1424.96C480.478 1423.05 482.022 1421.51 483.875 1421.51C485.78 1421.51 487.324 1423.05 487.324 1424.96C487.324 1426.86 485.78 1428.4 483.875 1428.4C481.971 1428.4 480.478 1426.86 480.478 1424.96Z" fill="#3C3C3B"/>
<path opacity="0.7605" d="M426.839 1456.13C426.839 1454.23 428.383 1452.68 430.288 1452.68C432.193 1452.68 433.686 1454.23 433.686 1456.13C433.686 1458.03 432.141 1459.58 430.288 1459.58C428.383 1459.58 426.839 1458.03 426.839 1456.13Z" fill="#3C3C3B"/>
<path opacity="0.6166" d="M426.839 1518.53C426.839 1516.62 428.383 1515.08 430.288 1515.08C432.193 1515.08 433.686 1516.62 433.686 1518.53C433.686 1520.43 432.141 1521.97 430.288 1521.97C428.383 1521.97 426.839 1520.43 426.839 1518.53Z" fill="#3C3C3B"/>
<path opacity="0.5032" d="M346.484 1440.54C346.484 1438.64 348.028 1437.1 349.881 1437.1C351.786 1437.1 353.33 1438.64 353.33 1440.54C353.33 1442.45 351.786 1443.99 349.881 1443.99C347.976 1443.99 346.484 1442.45 346.484 1440.54Z" fill="#3C3C3B"/>
<path opacity="0.9074" d="M212.488 1518.53C212.488 1516.62 214.033 1515.08 215.886 1515.08C217.79 1515.08 219.283 1516.62 219.283 1518.53C219.283 1520.43 217.739 1521.97 215.886 1521.97C213.981 1521.97 212.488 1520.43 212.488 1518.53Z" fill="#3C3C3B"/>
<path opacity="0.6002" d="M499.576 1555C498.958 1554.43 498.186 1554.13 497.311 1554.13C496.436 1554.13 495.612 1554.49 495.046 1555H499.576Z" fill="#3C3C3B"/>
<path opacity="0.6002" d="M266.076 1487.35C266.076 1485.45 267.62 1483.91 269.474 1483.91C271.327 1483.91 272.871 1485.45 272.871 1487.35C272.871 1489.26 271.327 1490.8 269.474 1490.8C267.62 1490.8 266.076 1489.26 266.076 1487.35Z" fill="#3C3C3B"/>
<path opacity="0.6607" d="M426.839 1456.13C426.839 1454.23 428.383 1452.68 430.288 1452.68C432.193 1452.68 433.686 1454.23 433.686 1456.13C433.686 1458.03 432.141 1459.58 430.288 1459.58C428.383 1459.58 426.839 1458.03 426.839 1456.13Z" fill="#3C3C3B"/>
<path opacity="0.5786" d="M346.484 1222.12C346.484 1220.22 348.028 1218.67 349.881 1218.67C351.786 1218.67 353.33 1220.22 353.33 1222.12C353.33 1224.02 351.786 1225.57 349.881 1225.57C347.976 1225.57 346.484 1224.02 346.484 1222.12Z" fill="#3C3C3B"/>
<path opacity="0.9283" d="M373.251 1268.93C373.251 1267.03 374.796 1265.49 376.649 1265.49C378.553 1265.49 380.098 1267.03 380.098 1268.93C380.098 1270.84 378.553 1272.38 376.649 1272.38C374.796 1272.38 373.251 1270.84 373.251 1268.93Z" fill="#3C3C3B"/>
<path opacity="0.6334" d="M400.07 1253.35C400.07 1251.44 401.615 1249.9 403.468 1249.9C405.372 1249.9 406.865 1251.44 406.865 1253.35C406.865 1255.25 405.321 1256.79 403.468 1256.79C401.563 1256.79 400.07 1255.25 400.07 1253.35Z" fill="#3C3C3B"/>
<path opacity="0.6939" d="M426.839 1206.53C426.839 1204.63 428.383 1203.09 430.288 1203.09C432.193 1203.09 433.686 1204.63 433.686 1206.53C433.686 1208.44 432.141 1209.98 430.288 1209.98C428.383 1209.98 426.839 1208.44 426.839 1206.53Z" fill="#3C3C3B"/>
<path opacity="0.7705" d="M373.251 1487.35C373.251 1485.45 374.796 1483.91 376.649 1483.91C378.553 1483.91 380.098 1485.45 380.098 1487.35C380.098 1489.26 378.553 1490.8 376.649 1490.8C374.796 1490.8 373.251 1489.26 373.251 1487.35Z" fill="#3C3C3B"/>
<path opacity="0.8428" d="M319.663 1518.53C319.663 1516.62 321.208 1515.08 323.112 1515.08C325.017 1515.08 326.51 1516.62 326.51 1518.53C326.51 1520.43 324.965 1521.97 323.112 1521.97C321.208 1521.97 319.663 1520.43 319.663 1518.53Z" fill="#3C3C3B"/>
<path opacity="0.9917" d="M132.081 1409.32C132.081 1407.41 133.626 1405.87 135.53 1405.87C137.435 1405.87 138.928 1407.41 138.928 1409.32C138.928 1411.22 137.383 1412.76 135.53 1412.76C133.574 1412.82 132.081 1411.22 132.081 1409.32Z" fill="#3C3C3B"/>
<path opacity="0.9612" d="M132.081 1440.54C132.081 1438.64 133.626 1437.1 135.53 1437.1C137.435 1437.1 138.928 1438.64 138.928 1440.54C138.928 1442.45 137.383 1443.99 135.53 1443.99C133.574 1443.99 132.081 1442.45 132.081 1440.54Z" fill="#3C3C3B"/>
<path opacity="0.6836" d="M-1.91288 1518.53C-1.91288 1516.62 -0.368531 1515.08 1.53612 1515.08C3.44077 1515.08 4.93359 1516.62 4.93359 1518.53C4.93359 1520.43 3.38929 1521.97 1.53612 1521.97C-0.420008 1521.97 -1.91288 1520.43 -1.91288 1518.53Z" fill="#3C3C3B"/>
<path opacity="0.9087" d="M319.663 1518.53C319.663 1516.62 321.208 1515.08 323.061 1515.08C324.965 1515.08 326.51 1516.62 326.51 1518.53C326.51 1520.43 324.965 1521.97 323.061 1521.97C321.208 1521.97 319.663 1520.43 319.663 1518.53Z" fill="#3C3C3B"/>
<path opacity="0.7254" d="M212.488 1518.53C212.488 1516.62 214.033 1515.08 215.886 1515.08C217.79 1515.08 219.283 1516.62 219.283 1518.53C219.283 1520.43 217.739 1521.97 215.886 1521.97C213.981 1521.97 212.488 1520.43 212.488 1518.53Z" fill="#3C3C3B"/>
<path opacity="0.5217" d="M266.076 1424.96C266.076 1423.05 267.62 1421.51 269.474 1421.51C271.327 1421.51 272.871 1423.05 272.871 1424.96C272.871 1426.86 271.327 1428.4 269.474 1428.4C267.62 1428.4 266.076 1426.86 266.076 1424.96Z" fill="#3C3C3B"/>
<path opacity="0.758" d="M266.076 1549.75C266.076 1547.85 267.62 1546.31 269.474 1546.31C271.327 1546.31 272.871 1547.85 272.871 1549.75C272.871 1551.66 271.327 1553.2 269.474 1553.2C267.62 1553.2 266.076 1551.66 266.076 1549.75Z" fill="#3C3C3B"/>
<path opacity="0.5672" d="M65.0579 1417.14C65.0579 1415.23 66.6022 1413.69 68.5068 1413.69C70.4115 1413.69 71.9043 1415.23 71.9043 1417.14C71.9043 1419.04 70.36 1420.58 68.5068 1420.58C66.6022 1420.58 65.0579 1419.04 65.0579 1417.14Z" fill="#3C3C3B"/>
<path opacity="0.6639" d="M38.2395 1432.72C38.2395 1430.82 39.7838 1429.28 41.6885 1429.28C43.5931 1429.28 45.0859 1430.82 45.0859 1432.72C45.0859 1434.63 43.5416 1436.17 41.6885 1436.17C39.7838 1436.17 38.2395 1434.63 38.2395 1432.72Z" fill="#3C3C3B"/>
<path opacity="0.7845" d="M51.6738 1440.54C51.6738 1438.64 53.2181 1437.1 55.0713 1437.1C56.9759 1437.1 58.4688 1438.64 58.4688 1440.54C58.4688 1442.45 56.9245 1443.99 55.0713 1443.99C53.2181 1443.99 51.6738 1442.45 51.6738 1440.54Z" fill="#3C3C3B"/>
<path opacity="0.8686" d="M158.849 1206.53C158.849 1204.63 160.393 1203.09 162.298 1203.09C164.202 1203.09 165.695 1204.63 165.695 1206.53C165.695 1208.44 164.151 1209.98 162.298 1209.98C160.393 1209.98 158.849 1208.44 158.849 1206.53Z" fill="#3C3C3B"/>
<path opacity="0.9438" d="M212.488 1331.33C212.488 1329.43 214.033 1327.88 215.886 1327.88C217.79 1327.88 219.283 1329.43 219.283 1331.33C219.283 1333.23 217.739 1334.78 215.886 1334.78C213.981 1334.78 212.488 1333.23 212.488 1331.33Z" fill="#3C3C3B"/>
<path opacity="0.8488" d="M266.076 1362.56C266.076 1360.65 267.62 1359.11 269.474 1359.11C271.327 1359.11 272.871 1360.65 272.871 1362.56C272.871 1364.46 271.327 1366 269.474 1366C267.62 1366 266.076 1364.46 266.076 1362.56Z" fill="#3C3C3B"/>
<path opacity="0.5604" d="M-1.91288 1518.53C-1.91288 1516.62 -0.368518 1515.08 1.48466 1515.08C3.38931 1515.08 4.93359 1516.62 4.93359 1518.53C4.93359 1520.43 3.38931 1521.97 1.48466 1521.97C-0.419995 1521.97 -1.91288 1520.43 -1.91288 1518.53Z" fill="#3C3C3B"/>
<path opacity="0.5312" d="M51.6738 1456.13C51.6738 1454.23 53.2181 1452.68 55.0713 1452.68C56.9759 1452.68 58.4688 1454.23 58.4688 1456.13C58.4688 1458.03 56.9245 1459.58 55.0713 1459.58C53.2181 1459.58 51.6738 1458.03 51.6738 1456.13Z" fill="#3C3C3B"/>
<path opacity="0.8858" d="M212.488 1393.73C212.488 1391.83 214.033 1390.28 215.886 1390.28C217.79 1390.28 219.283 1391.83 219.283 1393.73C219.283 1395.63 217.739 1397.18 215.886 1397.18C213.981 1397.18 212.488 1395.63 212.488 1393.73Z" fill="#3C3C3B"/>
<path opacity="0.5875" d="M105.262 1393.73C105.262 1391.83 106.806 1390.28 108.659 1390.28C110.564 1390.28 112.057 1391.83 112.057 1393.73C112.057 1395.63 110.512 1397.18 108.659 1397.18C106.806 1397.18 105.262 1395.63 105.262 1393.73Z" fill="#3C3C3B"/>
<path opacity="0.6677" d="M158.849 1237.76C158.849 1235.86 160.393 1234.31 162.298 1234.31C164.202 1234.31 165.695 1235.86 165.695 1237.76C165.695 1239.66 164.151 1241.21 162.298 1241.21C160.393 1241.21 158.849 1239.66 158.849 1237.76Z" fill="#3C3C3B"/>
<path opacity="0.779" d="M158.849 1362.56C158.849 1360.65 160.393 1359.11 162.298 1359.11C164.202 1359.11 165.695 1360.65 165.695 1362.56C165.695 1364.46 164.151 1366 162.298 1366C160.393 1366 158.849 1364.46 158.849 1362.56Z" fill="#3C3C3B"/>
</g>
<g opacity="0.3" clip-path="url(#clip2_2022_1230)">
<path opacity="0.8516" d="M1875.72 1555H1876.85L1867.53 1549.6V1425.11L1882 1416.72V1416.06L1867.12 1424.7L1866.97 1424.8V1549.91L1875.72 1555Z" fill="#3C3C3B"/>
<path opacity="0.9669" d="M1867.28 1409.01L1880.97 1416.98V1432.93L1867.28 1440.9L1853.58 1432.93V1416.98L1867.28 1409.01ZM1880.4 1417.29L1867.28 1409.68L1854.15 1417.29V1432.57L1867.28 1440.18L1880.4 1432.57V1417.29Z" fill="#3C3C3B"/>
<path opacity="0.716" d="M1858.83 1555L1867.28 1550.06L1875.72 1555H1876.85L1867.28 1549.39L1857.7 1555H1858.83Z" fill="#3C3C3B"/>
<path opacity="0.8412" d="M1867.28 1550.06L1882 1541.52V1540.85L1867.28 1549.39L1813.95 1518.37V1456.33L1867.28 1425.26L1882 1433.85V1433.19L1867.43 1424.7L1867.28 1424.6L1813.54 1455.87L1813.38 1455.97V1518.73L1867.28 1550.06Z" fill="#3C3C3B"/>
<path opacity="0.994" d="M1760.05 1362.2L1813.95 1393.58V1456.33L1760.05 1487.71L1706.15 1456.33V1393.58L1760.05 1362.2ZM1813.38 1393.94L1760.05 1362.92L1706.72 1393.94V1455.97L1760.05 1486.99L1813.38 1455.97V1393.94Z" fill="#3C3C3B"/>
<path opacity="0.9394" d="M1760.05 1362.2L1813.95 1393.58V1456.33L1760.05 1487.71L1706.15 1456.33V1393.58L1760.05 1362.2ZM1813.38 1393.94L1760.05 1362.92L1706.72 1393.94V1455.97L1760.05 1486.99L1813.38 1455.97V1393.94Z" fill="#3C3C3B"/>
<path opacity="0.9775" d="M1751.61 1555L1760.05 1550.06L1768.55 1555H1769.68L1760.05 1549.39L1750.48 1555H1751.61Z" fill="#3C3C3B"/>
<path opacity="0.7716" d="M1760.05 1424.6L1760.21 1424.7L1813.95 1455.97V1518.73L1760.05 1550.11L1706.15 1518.73V1455.97L1706.31 1455.87L1760.05 1424.6ZM1813.38 1456.33L1760.05 1425.32L1706.72 1456.33V1518.37L1760.05 1549.39L1813.38 1518.37V1456.33Z" fill="#3C3C3B"/>
<path opacity="0.6343" d="M1751.61 1555L1760.05 1550.06L1768.55 1555H1769.68L1760.05 1549.39L1750.48 1555H1751.61Z" fill="#3C3C3B"/>
<path opacity="0.6715" d="M1626.37 1555V1534.32L1652.88 1518.89L1679.39 1534.32V1555H1679.95V1533.96L1652.88 1518.22L1625.8 1533.96V1555H1626.37Z" fill="#3C3C3B"/>
<path opacity="0.9459" d="M1599.54 1555V1518.73L1652.88 1487.66L1706.21 1518.73V1555H1706.77V1518.37L1652.88 1486.99L1598.98 1518.37V1555H1599.54Z" fill="#3C3C3B"/>
<path opacity="0.5261" d="M1652.88 1409.01L1666.57 1416.98V1432.93L1652.88 1440.9L1639.18 1432.93V1416.98L1652.88 1409.01ZM1666 1417.29L1652.88 1409.68L1639.75 1417.29V1432.57L1652.88 1440.18L1666 1432.57V1417.29Z" fill="#3C3C3B"/>
<path opacity="0.5223" d="M1760.05 1424.6L1760.21 1424.7L1813.95 1455.97V1518.73L1760.05 1550.11L1706.15 1518.73V1455.97L1706.31 1455.87L1760.05 1424.6ZM1813.38 1456.33L1760.05 1425.32L1706.72 1456.33V1518.37L1760.05 1549.39L1813.38 1518.37V1456.33Z" fill="#3C3C3B"/>
<path opacity="0.8962" d="M1532.57 1555V1542.14L1545.7 1534.47L1558.78 1542.14V1555H1559.34V1541.78L1545.7 1533.81L1532.01 1541.78V1555H1532.57Z" fill="#3C3C3B"/>
<path opacity="0.5211" d="M1545.7 1409.01L1559.39 1416.98V1432.93L1545.7 1440.9L1532.01 1432.93V1416.98L1545.7 1409.01ZM1558.77 1417.29L1545.65 1409.68L1532.52 1417.29V1432.57L1545.65 1440.18L1558.77 1432.57V1417.29Z" fill="#3C3C3B"/>
<path opacity="0.6374" d="M1652.88 1237.4L1653.03 1237.5L1760.36 1299.95V1425.11L1760.2 1425.21L1652.88 1487.71L1652.72 1487.61L1545.39 1425.11V1299.95L1545.55 1299.85L1652.88 1237.4ZM1759.79 1300.31L1652.88 1238.07L1545.96 1300.31V1424.8L1652.88 1487.05L1759.79 1424.8V1300.31Z" fill="#3C3C3B"/>
<path opacity="0.5189" d="M1652.88 1424.6L1653.03 1424.7L1706.77 1455.97V1518.73L1652.88 1550.11L1598.98 1518.73V1455.97L1599.13 1455.87L1652.88 1424.6ZM1706.21 1456.33L1652.88 1425.32L1599.54 1456.33V1518.37L1652.88 1549.39L1706.21 1518.37V1456.33Z" fill="#3C3C3B"/>
<path opacity="0.5082" d="M1545.7 1393.42L1572.78 1409.16V1440.7L1545.7 1456.49L1518.62 1440.7V1409.16L1545.7 1393.42ZM1572.21 1409.52L1545.7 1394.09L1519.19 1409.52V1440.39L1545.7 1455.82L1572.21 1440.39V1409.52Z" fill="#3C3C3B"/>
<path opacity="0.5792" d="M1385.14 1555V1518.73L1438.47 1487.66L1491.8 1518.73V1555H1492.37V1518.37L1438.47 1486.99L1384.73 1518.32L1384.58 1518.37V1555H1385.14Z" fill="#3C3C3B"/>
<path opacity="0.9861" d="M1545.7 1424.6L1545.86 1424.7L1599.6 1455.97V1518.73L1545.7 1550.11L1491.8 1518.73V1455.97L1491.96 1455.87L1545.7 1424.6ZM1598.98 1456.33L1545.65 1425.32L1492.32 1456.33V1518.37L1545.7 1549.39L1598.98 1518.37V1456.33Z" fill="#3C3C3B"/>
<path opacity="0.9808" d="M1639.75 1555V1542.14L1652.88 1534.47L1666 1542.14V1555H1666.57V1541.78L1652.88 1533.81L1639.18 1541.78V1555H1639.75Z" fill="#3C3C3B"/>
<path opacity="0.9699" d="M1385.14 1555V1518.73L1438.47 1487.66L1491.8 1518.73V1555H1492.37V1518.37L1438.47 1486.99L1384.73 1518.32L1384.58 1518.37V1555H1385.14Z" fill="#3C3C3B"/>
<path opacity="0.9622" d="M1652.88 1362.2L1706.77 1393.58V1456.33L1652.88 1487.71L1598.98 1456.33V1393.58L1652.88 1362.2ZM1706.21 1393.94L1652.88 1362.92L1599.54 1393.94V1455.97L1652.88 1486.99L1706.21 1455.97V1393.94Z" fill="#3C3C3B"/>
<path opacity="0.6304" d="M1652.88 1362.2L1706.77 1393.58V1456.33L1652.88 1487.71L1598.98 1456.33V1393.58L1652.88 1362.2ZM1706.21 1393.94L1652.88 1362.92L1599.54 1393.94V1455.97L1652.88 1486.99L1706.21 1455.97V1393.94Z" fill="#3C3C3B"/>
<path opacity="0.8387" d="M1545.7 1206.17L1572.78 1221.97V1253.5L1545.7 1269.24L1518.62 1253.5V1221.97L1545.7 1206.17ZM1572.21 1222.27L1545.7 1206.84L1519.19 1222.27V1253.14L1545.7 1268.57L1572.21 1253.14V1222.27Z" fill="#3C3C3B"/>
<path opacity="0.9051" d="M1545.7 1175L1599.6 1206.38V1269.14L1545.7 1300.52L1491.8 1269.14V1206.38L1545.7 1175ZM1598.98 1206.69L1545.65 1175.67L1492.32 1206.69V1268.78L1545.65 1299.8L1598.98 1268.78V1206.69Z" fill="#3C3C3B"/>
<path opacity="0.6545" d="M1492.37 1555V1518.73L1545.7 1487.66L1598.98 1518.73V1555H1599.54V1518.37L1545.7 1486.99L1491.8 1518.37V1555H1492.37Z" fill="#3C3C3B"/>
<path opacity="0.9574" d="M1430.03 1555L1438.47 1550.06L1446.92 1555H1448.05L1438.47 1549.39L1428.9 1555H1430.03Z" fill="#3C3C3B"/>
<path opacity="0.9474" d="M1438.47 1237.4L1438.63 1237.5L1545.96 1299.95V1425.11L1545.8 1425.21L1438.47 1487.71L1438.32 1487.61L1330.99 1425.11V1299.95L1331.14 1299.85L1438.47 1237.4ZM1545.39 1300.31L1438.47 1238.07L1331.56 1300.31V1424.8L1438.47 1487.05L1545.39 1424.8V1300.31Z" fill="#3C3C3B"/>
<path opacity="0.8086" d="M1331.3 1393.42L1358.38 1409.16V1440.7L1331.3 1456.49L1304.22 1440.7V1409.16L1331.3 1393.42ZM1357.81 1409.52L1331.3 1394.09L1304.79 1409.52V1440.39L1331.3 1455.82L1357.81 1440.39V1409.52Z" fill="#3C3C3B"/>
<path opacity="0.5531" d="M1438.47 1206.17L1465.55 1221.97V1253.5L1438.47 1269.24L1411.4 1253.5V1221.97L1438.47 1206.17ZM1464.98 1222.27L1438.47 1206.84L1411.96 1222.27V1253.14L1438.47 1268.57L1464.98 1253.14V1222.27Z" fill="#3C3C3B"/>
<path opacity="0.9538" d="M1322.86 1555L1331.3 1550.06L1339.74 1555H1340.87L1331.3 1549.39L1321.67 1555H1322.86Z" fill="#3C3C3B"/>
<path opacity="0.8754" d="M1170.79 1555V1518.73L1224.07 1487.66L1277.4 1518.73V1555H1277.97V1518.37L1224.07 1486.99L1170.18 1518.37V1555H1170.79Z" fill="#3C3C3B"/>
<path opacity="0.5051" d="M1385.14 1555V1518.73L1438.47 1487.66L1491.8 1518.73V1555H1492.37V1518.37L1438.47 1486.99L1384.73 1518.32L1384.58 1518.37V1555H1385.14Z" fill="#3C3C3B"/>
<path opacity="0.8517" d="M1233.7 1555L1224.38 1549.6V1425.11L1331.3 1362.87L1438.22 1425.11V1549.6L1428.9 1555H1430.03L1438.63 1550.01L1438.78 1549.91V1424.8L1331.4 1362.3L1331.3 1362.2L1223.97 1424.7L1223.82 1424.8V1549.91L1232.51 1555H1233.7Z" fill="#3C3C3B"/>
<path opacity="0.61" d="M1224.07 1409.01L1237.76 1416.98V1432.93L1224.07 1440.9L1210.38 1432.93V1416.98L1224.07 1409.01ZM1237.2 1417.29L1224.07 1409.68L1210.94 1417.29V1432.57L1224.07 1440.18L1237.2 1432.57V1417.29Z" fill="#3C3C3B"/>
<path opacity="0.6181" d="M1438.47 1362.2L1492.37 1393.58V1456.33L1438.47 1487.71L1438.32 1487.61L1384.58 1456.33V1393.58L1384.73 1393.47L1438.47 1362.2ZM1491.8 1393.94L1438.47 1362.92L1385.14 1393.94V1455.97L1438.47 1486.99L1491.8 1455.97V1393.94Z" fill="#3C3C3B"/>
<path opacity="0.876" d="M1331.3 1237.4L1331.45 1237.5L1438.78 1299.95V1425.11L1438.63 1425.21L1331.3 1487.71L1331.14 1487.61L1223.82 1425.11V1299.95L1223.97 1299.85L1331.3 1237.4ZM1438.22 1300.31L1331.3 1238.07L1224.38 1300.31V1424.8L1331.3 1487.05L1438.22 1424.8V1300.31Z" fill="#3C3C3B"/>
<path opacity="0.5845" d="M1331.3 1206.17L1358.38 1221.97V1253.5L1331.3 1269.24L1304.22 1253.5V1221.97L1331.3 1206.17ZM1357.81 1222.27L1331.3 1206.84L1304.79 1222.27V1253.14L1331.3 1268.57L1357.81 1253.14V1222.27Z" fill="#3C3C3B"/>
<path opacity="0.5432" d="M1438.47 1237.4L1438.63 1237.5L1492.37 1268.78V1331.54L1438.47 1362.92L1438.32 1362.81L1384.58 1331.54V1268.78L1384.73 1268.68L1438.47 1237.4ZM1491.8 1269.09L1438.47 1238.07L1385.14 1269.09V1331.18L1438.47 1362.2L1491.8 1331.18V1269.09Z" fill="#3C3C3B"/>
<path opacity="0.8471" d="M1063.57 1555V1518.73L1116.9 1487.66L1170.18 1518.73V1555H1170.79V1518.37L1116.9 1486.99L1063 1518.37V1555H1063.57Z" fill="#3C3C3B"/>
<path opacity="0.7774" d="M1224.07 1455.82L1251.15 1471.61V1503.15L1224.07 1518.94L1196.99 1503.15V1471.61L1224.07 1455.82ZM1250.58 1471.92L1224.07 1456.49L1197.56 1471.92V1502.79L1224.07 1518.22L1250.58 1502.79V1471.92Z" fill="#3C3C3B"/>
<path opacity="0.6187" d="M1215.63 1555L1224.07 1550.06L1232.51 1555H1233.7L1224.07 1549.39L1214.5 1555H1215.63Z" fill="#3C3C3B"/>
<path opacity="0.6525" d="M1090.38 1555V1534.32L1116.9 1518.89L1143.41 1534.32V1555H1143.97V1533.96L1116.9 1518.22L1089.82 1533.96V1555H1090.38Z" fill="#3C3C3B"/>
<path opacity="0.6134" d="M1063.57 1555V1518.73L1116.9 1487.66L1170.18 1518.73V1555H1170.79V1518.37L1116.9 1486.99L1063 1518.37V1555H1063.57Z" fill="#3C3C3B"/>
<path opacity="0.951" d="M1331.3 1362.2L1385.2 1393.58V1456.33L1331.3 1487.71L1331.14 1487.61L1277.4 1456.33V1393.58L1277.56 1393.47L1331.3 1362.2ZM1384.58 1393.94L1331.25 1362.92L1277.92 1393.94V1455.97L1331.25 1486.99L1384.58 1455.97V1393.94Z" fill="#3C3C3B"/>
<path opacity="0.6256" d="M1116.9 1237.4L1117.05 1237.5L1170.79 1268.78V1331.54L1116.9 1362.92L1063 1331.54V1268.78L1063.15 1268.68L1116.9 1237.4ZM1170.18 1269.09L1116.84 1238.07L1063.51 1269.09V1331.18L1116.84 1362.2L1170.18 1331.18V1269.09Z" fill="#3C3C3B"/>
<path opacity="0.6699" d="M1331.3 1237.4L1331.45 1237.5L1385.2 1268.78V1331.54L1331.3 1362.92L1331.14 1362.81L1277.4 1331.54V1268.78L1277.56 1268.68L1331.3 1237.4ZM1384.58 1269.09L1331.25 1238.07L1277.92 1269.09V1331.18L1331.25 1362.2L1384.58 1331.18V1269.09Z" fill="#3C3C3B"/>
<path opacity="0.6867" d="M1863.83 1409.32C1863.83 1407.41 1865.37 1405.87 1867.23 1405.87C1869.13 1405.87 1870.62 1407.41 1870.62 1409.32C1870.62 1411.22 1869.08 1412.76 1867.23 1412.76C1865.37 1412.82 1863.83 1411.22 1863.83 1409.32Z" fill="#3C3C3B"/>
<path opacity="0.975" d="M1810.24 1456.13C1810.24 1454.23 1811.79 1452.68 1813.64 1452.68C1815.54 1452.68 1817.09 1454.23 1817.09 1456.13C1817.09 1458.03 1815.54 1459.58 1813.64 1459.58C1811.79 1459.58 1810.24 1458.03 1810.24 1456.13Z" fill="#3C3C3B"/>
<path opacity="0.9056" d="M1756.65 1549.75C1756.65 1547.85 1758.2 1546.31 1760.1 1546.31C1762.01 1546.31 1763.5 1547.85 1763.5 1549.75C1763.5 1551.66 1761.96 1553.2 1760.1 1553.2C1758.2 1553.2 1756.65 1551.66 1756.65 1549.75Z" fill="#3C3C3B"/>
<path opacity="0.862" d="M1756.65 1424.96C1756.65 1423.05 1758.2 1421.51 1760.1 1421.51C1762.01 1421.51 1763.5 1423.05 1763.5 1424.96C1763.5 1426.86 1761.96 1428.4 1760.1 1428.4C1758.2 1428.4 1756.65 1426.86 1756.65 1424.96Z" fill="#3C3C3B"/>
<path opacity="0.7249" d="M1676.25 1534.17C1676.25 1532.26 1677.79 1530.72 1679.64 1530.72C1681.55 1530.72 1683.09 1532.26 1683.09 1534.17C1683.09 1536.07 1681.55 1537.61 1679.64 1537.61C1677.79 1537.61 1676.25 1536.07 1676.25 1534.17Z" fill="#3C3C3B"/>
<path opacity="0.5437" d="M1622.66 1534.17C1622.66 1532.26 1624.2 1530.72 1626.11 1530.72C1628.01 1530.72 1629.51 1532.26 1629.51 1534.17C1629.51 1536.07 1627.96 1537.61 1626.11 1537.61C1624.2 1537.61 1622.66 1536.07 1622.66 1534.17Z" fill="#3C3C3B"/>
<path opacity="0.8559" d="M1703.07 1518.53C1703.07 1516.62 1704.61 1515.08 1706.46 1515.08C1708.37 1515.08 1709.86 1516.62 1709.86 1518.53C1709.86 1520.43 1708.32 1521.97 1706.46 1521.97C1704.56 1521.97 1703.07 1520.43 1703.07 1518.53Z" fill="#3C3C3B"/>
<path opacity="0.691" d="M1649.48 1409.32C1649.48 1407.41 1651.02 1405.87 1652.88 1405.87C1654.78 1405.87 1656.32 1407.41 1656.32 1409.32C1656.32 1411.22 1654.78 1412.76 1652.88 1412.76C1650.97 1412.82 1649.48 1411.22 1649.48 1409.32Z" fill="#3C3C3B"/>
<path opacity="0.6169" d="M1756.65 1424.96C1756.65 1423.05 1758.2 1421.51 1760.1 1421.51C1762.01 1421.51 1763.5 1423.05 1763.5 1424.96C1763.5 1426.86 1761.96 1428.4 1760.1 1428.4C1758.2 1428.4 1756.65 1426.86 1756.65 1424.96Z" fill="#3C3C3B"/>
<path opacity="0.5121" d="M1703.07 1456.13C1703.07 1454.23 1704.61 1452.68 1706.46 1452.68C1708.37 1452.68 1709.91 1454.23 1709.91 1456.13C1709.91 1458.03 1708.37 1459.58 1706.46 1459.58C1704.61 1459.58 1703.07 1458.03 1703.07 1456.13Z" fill="#3C3C3B"/>
<path opacity="0.8706" d="M1542.25 1534.17C1542.25 1532.26 1543.8 1530.72 1545.65 1530.72C1547.55 1530.72 1549.1 1532.26 1549.1 1534.17C1549.1 1536.07 1547.55 1537.61 1545.65 1537.61C1543.8 1537.61 1542.25 1536.07 1542.25 1534.17Z" fill="#3C3C3B"/>
<path opacity="0.6625" d="M1528.87 1432.72C1528.87 1430.82 1530.41 1429.28 1532.32 1429.28C1534.22 1429.28 1535.71 1430.82 1535.71 1432.72C1535.71 1434.63 1534.17 1436.17 1532.32 1436.17C1530.41 1436.17 1528.87 1434.63 1528.87 1432.72Z" fill="#3C3C3B"/>
<path opacity="0.6645" d="M1649.48 1237.76C1649.48 1235.86 1651.02 1234.31 1652.88 1234.31C1654.78 1234.31 1656.32 1235.86 1656.32 1237.76C1656.32 1239.66 1654.78 1241.21 1652.88 1241.21C1650.97 1241.21 1649.48 1239.66 1649.48 1237.76Z" fill="#3C3C3B"/>
<path opacity="0.9538" d="M1542.25 1300.16C1542.25 1298.25 1543.8 1296.71 1545.65 1296.71C1547.55 1296.71 1549.1 1298.25 1549.1 1300.16C1549.1 1302.06 1547.55 1303.6 1545.65 1303.6C1543.8 1303.6 1542.25 1302.06 1542.25 1300.16Z" fill="#3C3C3B"/>
<path opacity="0.6405" d="M1756.65 1424.96C1756.65 1423.05 1758.2 1421.51 1760.1 1421.51C1762.01 1421.51 1763.5 1423.05 1763.5 1424.96C1763.5 1426.86 1761.96 1428.4 1760.1 1428.4C1758.2 1428.4 1756.65 1426.86 1756.65 1424.96Z" fill="#3C3C3B"/>
<path opacity="0.5246" d="M1649.48 1424.96C1649.48 1423.05 1651.02 1421.51 1652.88 1421.51C1654.78 1421.51 1656.32 1423.05 1656.32 1424.96C1656.32 1426.86 1654.78 1428.4 1652.88 1428.4C1650.97 1428.4 1649.48 1426.86 1649.48 1424.96Z" fill="#3C3C3B"/>
<path opacity="0.7605" d="M1595.84 1456.13C1595.84 1454.23 1597.38 1452.68 1599.29 1452.68C1601.19 1452.68 1602.69 1454.23 1602.69 1456.13C1602.69 1458.03 1601.14 1459.58 1599.29 1459.58C1597.38 1459.58 1595.84 1458.03 1595.84 1456.13Z" fill="#3C3C3B"/>
<path opacity="0.6166" d="M1595.84 1518.53C1595.84 1516.62 1597.38 1515.08 1599.29 1515.08C1601.19 1515.08 1602.69 1516.62 1602.69 1518.53C1602.69 1520.43 1601.14 1521.97 1599.29 1521.97C1597.38 1521.97 1595.84 1520.43 1595.84 1518.53Z" fill="#3C3C3B"/>
<path opacity="0.5032" d="M1515.48 1440.54C1515.48 1438.64 1517.03 1437.1 1518.88 1437.1C1520.79 1437.1 1522.33 1438.64 1522.33 1440.54C1522.33 1442.45 1520.79 1443.99 1518.88 1443.99C1516.98 1443.99 1515.48 1442.45 1515.48 1440.54Z" fill="#3C3C3B"/>
<path opacity="0.9074" d="M1381.49 1518.53C1381.49 1516.62 1383.03 1515.08 1384.89 1515.08C1386.79 1515.08 1388.28 1516.62 1388.28 1518.53C1388.28 1520.43 1386.74 1521.97 1384.89 1521.97C1382.98 1521.97 1381.49 1520.43 1381.49 1518.53Z" fill="#3C3C3B"/>
<path opacity="0.6002" d="M1668.58 1555C1667.96 1554.43 1667.19 1554.13 1666.31 1554.13C1665.44 1554.13 1664.61 1554.49 1664.05 1555H1668.58Z" fill="#3C3C3B"/>
<path opacity="0.6002" d="M1435.08 1487.35C1435.08 1485.45 1436.62 1483.91 1438.47 1483.91C1440.33 1483.91 1441.87 1485.45 1441.87 1487.35C1441.87 1489.26 1440.33 1490.8 1438.47 1490.8C1436.62 1490.8 1435.08 1489.26 1435.08 1487.35Z" fill="#3C3C3B"/>
<path opacity="0.6607" d="M1595.84 1456.13C1595.84 1454.23 1597.38 1452.68 1599.29 1452.68C1601.19 1452.68 1602.69 1454.23 1602.69 1456.13C1602.69 1458.03 1601.14 1459.58 1599.29 1459.58C1597.38 1459.58 1595.84 1458.03 1595.84 1456.13Z" fill="#3C3C3B"/>
<path opacity="0.5786" d="M1515.48 1222.12C1515.48 1220.22 1517.03 1218.67 1518.88 1218.67C1520.79 1218.67 1522.33 1220.22 1522.33 1222.12C1522.33 1224.02 1520.79 1225.57 1518.88 1225.57C1516.98 1225.57 1515.48 1224.02 1515.48 1222.12Z" fill="#3C3C3B"/>
<path opacity="0.9283" d="M1542.25 1268.93C1542.25 1267.03 1543.8 1265.49 1545.65 1265.49C1547.55 1265.49 1549.1 1267.03 1549.1 1268.93C1549.1 1270.84 1547.55 1272.38 1545.65 1272.38C1543.8 1272.38 1542.25 1270.84 1542.25 1268.93Z" fill="#3C3C3B"/>
<path opacity="0.6334" d="M1569.07 1253.35C1569.07 1251.44 1570.61 1249.9 1572.47 1249.9C1574.37 1249.9 1575.87 1251.44 1575.87 1253.35C1575.87 1255.25 1574.32 1256.79 1572.47 1256.79C1570.56 1256.79 1569.07 1255.25 1569.07 1253.35Z" fill="#3C3C3B"/>
<path opacity="0.6939" d="M1595.84 1206.53C1595.84 1204.63 1597.38 1203.09 1599.29 1203.09C1601.19 1203.09 1602.69 1204.63 1602.69 1206.53C1602.69 1208.44 1601.14 1209.98 1599.29 1209.98C1597.38 1209.98 1595.84 1208.44 1595.84 1206.53Z" fill="#3C3C3B"/>
<path opacity="0.7705" d="M1542.25 1487.35C1542.25 1485.45 1543.8 1483.91 1545.65 1483.91C1547.55 1483.91 1549.1 1485.45 1549.1 1487.35C1549.1 1489.26 1547.55 1490.8 1545.65 1490.8C1543.8 1490.8 1542.25 1489.26 1542.25 1487.35Z" fill="#3C3C3B"/>
<path opacity="0.8428" d="M1488.66 1518.53C1488.66 1516.62 1490.21 1515.08 1492.11 1515.08C1494.02 1515.08 1495.51 1516.62 1495.51 1518.53C1495.51 1520.43 1493.97 1521.97 1492.11 1521.97C1490.21 1521.97 1488.66 1520.43 1488.66 1518.53Z" fill="#3C3C3B"/>
<path opacity="0.9917" d="M1301.08 1409.32C1301.08 1407.41 1302.63 1405.87 1304.53 1405.87C1306.43 1405.87 1307.93 1407.41 1307.93 1409.32C1307.93 1411.22 1306.38 1412.76 1304.53 1412.76C1302.57 1412.82 1301.08 1411.22 1301.08 1409.32Z" fill="#3C3C3B"/>
<path opacity="0.9612" d="M1301.08 1440.54C1301.08 1438.64 1302.63 1437.1 1304.53 1437.1C1306.43 1437.1 1307.93 1438.64 1307.93 1440.54C1307.93 1442.45 1306.38 1443.99 1304.53 1443.99C1302.57 1443.99 1301.08 1442.45 1301.08 1440.54Z" fill="#3C3C3B"/>
<path opacity="0.6836" d="M1167.09 1518.53C1167.09 1516.62 1168.63 1515.08 1170.54 1515.08C1172.44 1515.08 1173.93 1516.62 1173.93 1518.53C1173.93 1520.43 1172.39 1521.97 1170.54 1521.97C1168.58 1521.97 1167.09 1520.43 1167.09 1518.53Z" fill="#3C3C3B"/>
<path opacity="0.9087" d="M1488.66 1518.53C1488.66 1516.62 1490.21 1515.08 1492.06 1515.08C1493.97 1515.08 1495.51 1516.62 1495.51 1518.53C1495.51 1520.43 1493.97 1521.97 1492.06 1521.97C1490.21 1521.97 1488.66 1520.43 1488.66 1518.53Z" fill="#3C3C3B"/>
<path opacity="0.7254" d="M1381.49 1518.53C1381.49 1516.62 1383.03 1515.08 1384.89 1515.08C1386.79 1515.08 1388.28 1516.62 1388.28 1518.53C1388.28 1520.43 1386.74 1521.97 1384.89 1521.97C1382.98 1521.97 1381.49 1520.43 1381.49 1518.53Z" fill="#3C3C3B"/>
<path opacity="0.5217" d="M1435.08 1424.96C1435.08 1423.05 1436.62 1421.51 1438.47 1421.51C1440.33 1421.51 1441.87 1423.05 1441.87 1424.96C1441.87 1426.86 1440.33 1428.4 1438.47 1428.4C1436.62 1428.4 1435.08 1426.86 1435.08 1424.96Z" fill="#3C3C3B"/>
<path opacity="0.758" d="M1435.08 1549.75C1435.08 1547.85 1436.62 1546.31 1438.47 1546.31C1440.33 1546.31 1441.87 1547.85 1441.87 1549.75C1441.87 1551.66 1440.33 1553.2 1438.47 1553.2C1436.62 1553.2 1435.08 1551.66 1435.08 1549.75Z" fill="#3C3C3B"/>
<path opacity="0.5672" d="M1234.06 1417.14C1234.06 1415.23 1235.6 1413.69 1237.51 1413.69C1239.41 1413.69 1240.9 1415.23 1240.9 1417.14C1240.9 1419.04 1239.36 1420.58 1237.51 1420.58C1235.6 1420.58 1234.06 1419.04 1234.06 1417.14Z" fill="#3C3C3B"/>
<path opacity="0.6639" d="M1207.24 1432.72C1207.24 1430.82 1208.78 1429.28 1210.69 1429.28C1212.59 1429.28 1214.09 1430.82 1214.09 1432.72C1214.09 1434.63 1212.54 1436.17 1210.69 1436.17C1208.78 1436.17 1207.24 1434.63 1207.24 1432.72Z" fill="#3C3C3B"/>
<path opacity="0.7845" d="M1220.67 1440.54C1220.67 1438.64 1222.22 1437.1 1224.07 1437.1C1225.98 1437.1 1227.47 1438.64 1227.47 1440.54C1227.47 1442.45 1225.92 1443.99 1224.07 1443.99C1222.22 1443.99 1220.67 1442.45 1220.67 1440.54Z" fill="#3C3C3B"/>
<path opacity="0.8686" d="M1327.85 1206.53C1327.85 1204.63 1329.39 1203.09 1331.3 1203.09C1333.2 1203.09 1334.7 1204.63 1334.7 1206.53C1334.7 1208.44 1333.15 1209.98 1331.3 1209.98C1329.39 1209.98 1327.85 1208.44 1327.85 1206.53Z" fill="#3C3C3B"/>
<path opacity="0.9438" d="M1381.49 1331.33C1381.49 1329.43 1383.03 1327.88 1384.89 1327.88C1386.79 1327.88 1388.28 1329.43 1388.28 1331.33C1388.28 1333.23 1386.74 1334.78 1384.89 1334.78C1382.98 1334.78 1381.49 1333.23 1381.49 1331.33Z" fill="#3C3C3B"/>
<path opacity="0.8488" d="M1435.08 1362.56C1435.08 1360.65 1436.62 1359.11 1438.47 1359.11C1440.33 1359.11 1441.87 1360.65 1441.87 1362.56C1441.87 1364.46 1440.33 1366 1438.47 1366C1436.62 1366 1435.08 1364.46 1435.08 1362.56Z" fill="#3C3C3B"/>
<path opacity="0.5604" d="M1167.09 1518.53C1167.09 1516.62 1168.63 1515.08 1170.48 1515.08C1172.39 1515.08 1173.93 1516.62 1173.93 1518.53C1173.93 1520.43 1172.39 1521.97 1170.48 1521.97C1168.58 1521.97 1167.09 1520.43 1167.09 1518.53Z" fill="#3C3C3B"/>
<path opacity="0.8646" d="M1113.45 1487.35C1113.45 1485.45 1114.99 1483.91 1116.84 1483.91C1118.75 1483.91 1120.24 1485.45 1120.24 1487.35C1120.24 1489.26 1118.7 1490.8 1116.84 1490.8C1114.99 1490.8 1113.45 1489.26 1113.45 1487.35Z" fill="#3C3C3B"/>
<path opacity="0.5312" d="M1220.67 1456.13C1220.67 1454.23 1222.22 1452.68 1224.07 1452.68C1225.98 1452.68 1227.47 1454.23 1227.47 1456.13C1227.47 1458.03 1225.92 1459.58 1224.07 1459.58C1222.22 1459.58 1220.67 1458.03 1220.67 1456.13Z" fill="#3C3C3B"/>
<path opacity="0.7235" d="M1140.27 1534.17C1140.27 1532.26 1141.81 1530.72 1143.72 1530.72C1145.62 1530.72 1147.11 1532.26 1147.11 1534.17C1147.11 1536.07 1145.57 1537.61 1143.72 1537.61C1141.81 1537.61 1140.27 1536.07 1140.27 1534.17Z" fill="#3C3C3B"/>
<path opacity="0.5885" d="M1086.68 1534.17C1086.68 1532.26 1088.22 1530.72 1090.08 1530.72C1091.98 1530.72 1093.47 1532.26 1093.47 1534.17C1093.47 1536.07 1091.93 1537.61 1090.08 1537.61C1088.22 1537.61 1086.68 1536.07 1086.68 1534.17Z" fill="#3C3C3B"/>
<path opacity="0.8858" d="M1381.49 1393.73C1381.49 1391.83 1383.03 1390.28 1384.89 1390.28C1386.79 1390.28 1388.28 1391.83 1388.28 1393.73C1388.28 1395.63 1386.74 1397.18 1384.89 1397.18C1382.98 1397.18 1381.49 1395.63 1381.49 1393.73Z" fill="#3C3C3B"/>
<path opacity="0.5875" d="M1274.26 1393.73C1274.26 1391.83 1275.81 1390.28 1277.66 1390.28C1279.56 1390.28 1281.06 1391.83 1281.06 1393.73C1281.06 1395.63 1279.51 1397.18 1277.66 1397.18C1275.81 1397.18 1274.26 1395.63 1274.26 1393.73Z" fill="#3C3C3B"/>
<path opacity="0.9745" d="M1113.45 1362.56C1113.45 1360.65 1114.99 1359.11 1116.84 1359.11C1118.75 1359.11 1120.24 1360.65 1120.24 1362.56C1120.24 1364.46 1118.7 1366 1116.84 1366C1114.99 1366 1113.45 1364.46 1113.45 1362.56Z" fill="#3C3C3B"/>
<path opacity="0.6677" d="M1327.85 1237.76C1327.85 1235.86 1329.39 1234.31 1331.3 1234.31C1333.2 1234.31 1334.7 1235.86 1334.7 1237.76C1334.7 1239.66 1333.15 1241.21 1331.3 1241.21C1329.39 1241.21 1327.85 1239.66 1327.85 1237.76Z" fill="#3C3C3B"/>
<path opacity="0.779" d="M1327.85 1362.56C1327.85 1360.65 1329.39 1359.11 1331.3 1359.11C1333.2 1359.11 1334.7 1360.65 1334.7 1362.56C1334.7 1364.46 1333.15 1366 1331.3 1366C1329.39 1366 1327.85 1364.46 1327.85 1362.56Z" fill="#3C3C3B"/>
</g>
<defs>
<clipPath id="clip0_2022_1230">
<rect width="819" height="380" fill="white" transform="matrix(-1 0 0 1 1820 0)"/>
</clipPath>
<clipPath id="clip1_2022_1230">
<rect width="819" height="380" fill="white" transform="matrix(-1 0 0 -1 713 1555)"/>
</clipPath>
<clipPath id="clip2_2022_1230">
<rect width="819" height="380" fill="white" transform="matrix(-1 0 0 -1 1882 1555)"/>
</clipPath>
</defs>
</svg>
