<svg width="1920" height="971" viewBox="0 0 1920 971" fill="none" xmlns="http://www.w3.org/2000/svg">
<rect y="1" width="1920" height="970" fill="#F8FAF7"/>
<g opacity="0.3" clip-path="url(#clip0_2011_1234)">
<path opacity="0.8516" d="M1918.31 0H1919.34L1910.89 4.88967V117.585L1924 125.176V125.781L1910.52 117.957L1910.38 117.864V4.61026L1918.31 0Z" fill="#3C3C3B"/>
<path opacity="0.9669" d="M1910.66 132.161L1923.07 124.943V110.507L1910.66 103.288L1898.26 110.507V124.943L1910.66 132.161ZM1922.55 124.663L1910.66 131.555L1898.77 124.663V110.833L1910.66 103.94L1922.55 110.833V124.663Z" fill="#3C3C3B"/>
<path opacity="0.716" d="M1903.01 0L1910.66 4.47056L1918.31 0H1919.34L1910.66 5.07594L1901.99 0H1903.01Z" fill="#3C3C3B"/>
<path opacity="0.8412" d="M1910.66 4.47058L1924 12.2009V12.8063L1910.66 5.07597L1862.35 33.1567V89.318L1910.66 117.445L1924 109.668V110.274L1910.8 117.958L1910.66 118.051L1861.97 89.7371L1861.83 89.644V32.8307L1910.66 4.47058Z" fill="#3C3C3B"/>
<path opacity="0.994" d="M1813.52 174.538L1862.35 146.131V89.318L1813.52 60.9114L1764.69 89.318V146.131L1813.52 174.538ZM1861.83 145.805L1813.52 173.886L1765.2 145.805V89.644L1813.52 61.5633L1861.83 89.644V145.805Z" fill="#3C3C3B"/>
<path opacity="0.9394" d="M1813.52 174.538L1862.35 146.131V89.318L1813.52 60.9114L1764.69 89.318V146.131L1813.52 174.538ZM1861.83 145.805L1813.52 173.886L1765.2 145.805V89.644L1813.52 61.5633L1861.83 89.644V145.805Z" fill="#3C3C3B"/>
<path opacity="0.9775" d="M1805.87 0L1813.52 4.47056L1821.21 0H1822.24L1813.52 5.07594L1804.84 0H1805.87Z" fill="#3C3C3B"/>
<path opacity="0.7716" d="M1813.52 118.051L1813.66 117.957L1862.35 89.6439V32.8306L1813.52 4.42395L1764.69 32.8306V89.6439L1764.83 89.7371L1813.52 118.051ZM1861.83 89.318L1813.52 117.399L1765.2 89.318V33.1566L1813.52 5.07591L1861.83 33.1566V89.318Z" fill="#3C3C3B"/>
<path opacity="0.6343" d="M1805.87 0L1813.52 4.47056L1821.21 0H1822.24L1813.52 5.07594L1804.84 0H1805.87Z" fill="#3C3C3B"/>
<path opacity="0.6715" d="M1692.4 0V18.7205L1716.42 32.6909L1740.44 18.7205V0H1740.95V19.0464L1716.42 33.2963L1691.89 19.0464V0H1692.4Z" fill="#3C3C3B"/>
<path opacity="0.9459" d="M1668.1 0V32.8306L1716.42 60.9579L1764.73 32.8306V0H1765.25V33.1566L1716.42 61.5633L1667.59 33.1566V0H1668.1Z" fill="#3C3C3B"/>
<path opacity="0.5261" d="M1716.42 132.161L1728.82 124.943V110.507L1716.42 103.288L1704.01 110.507V124.943L1716.42 132.161ZM1728.31 124.663L1716.42 131.555L1704.52 124.663V110.833L1716.42 103.94L1728.31 110.833V124.663Z" fill="#3C3C3B"/>
<path opacity="0.5223" d="M1813.52 118.051L1813.66 117.957L1862.35 89.6439V32.8306L1813.52 4.42395L1764.69 32.8306V89.6439L1764.83 89.7371L1813.52 118.051ZM1861.83 89.318L1813.52 117.399L1765.2 89.318V33.1566L1813.52 5.07591L1861.83 33.1566V89.318Z" fill="#3C3C3B"/>
<path opacity="0.8962" d="M1607.43 0V11.6421L1619.32 18.5808L1631.16 11.6421V0H1631.68V11.9681L1619.32 19.1861L1606.91 11.9681V0H1607.43Z" fill="#3C3C3B"/>
<path opacity="0.5211" d="M1619.32 132.161L1631.72 124.943V110.507L1619.32 103.288L1606.91 110.507V124.943L1619.32 132.161ZM1631.16 124.663L1619.27 131.555L1607.38 124.663V110.833L1619.27 103.94L1631.16 110.833V124.663Z" fill="#3C3C3B"/>
<path opacity="0.6374" d="M1716.42 287.513L1716.56 287.42L1813.8 230.886V117.585L1813.66 117.492L1716.42 60.9114L1716.28 61.0045L1619.04 117.585V230.886L1619.18 230.979L1716.42 287.513ZM1813.28 230.56L1716.42 286.907L1619.55 230.56V117.864L1716.42 61.5168L1813.28 117.864V230.56Z" fill="#3C3C3B"/>
<path opacity="0.5189" d="M1716.42 118.051L1716.56 117.957L1765.25 89.6439V32.8306L1716.42 4.42395L1667.59 32.8306V89.6439L1667.73 89.7371L1716.42 118.051ZM1764.73 89.318L1716.42 117.399L1668.1 89.318V33.1566L1716.42 5.07591L1764.73 33.1566V89.318Z" fill="#3C3C3B"/>
<path opacity="0.5082" d="M1619.32 146.271L1643.85 132.021V103.475L1619.32 89.1782L1594.79 103.475V132.021L1619.32 146.271ZM1643.34 131.695L1619.32 145.666L1595.3 131.695V103.754L1619.32 89.7836L1643.34 103.754V131.695Z" fill="#3C3C3B"/>
<path opacity="0.5792" d="M1473.86 0V32.8306L1522.17 60.9579L1570.49 32.8306V0H1571V33.1566L1522.17 61.5633L1473.48 33.2032L1473.34 33.1566V0H1473.86Z" fill="#3C3C3B"/>
<path opacity="0.9861" d="M1619.32 118.051L1619.46 117.957L1668.15 89.6439V32.8306L1619.32 4.42395L1570.49 32.8306V89.6439L1570.63 89.7371L1619.32 118.051ZM1667.59 89.318L1619.27 117.399L1570.96 89.318V33.1566L1619.32 5.07591L1667.59 33.1566V89.318Z" fill="#3C3C3B"/>
<path opacity="0.9808" d="M1704.52 0V11.6421L1716.42 18.5808L1728.31 11.6421V0H1728.82V11.9681L1716.42 19.1861L1704.01 11.9681V0H1704.52Z" fill="#3C3C3B"/>
<path opacity="0.9699" d="M1473.86 0V32.8306L1522.17 60.9579L1570.49 32.8306V0H1571V33.1566L1522.17 61.5633L1473.48 33.2032L1473.34 33.1566V0H1473.86Z" fill="#3C3C3B"/>
<path opacity="0.9622" d="M1716.42 174.538L1765.25 146.131V89.318L1716.42 60.9114L1667.59 89.318V146.131L1716.42 174.538ZM1764.73 145.805L1716.42 173.886L1668.1 145.805V89.644L1716.42 61.5633L1764.73 89.644V145.805Z" fill="#3C3C3B"/>
<path opacity="0.6304" d="M1716.42 174.538L1765.25 146.131V89.318L1716.42 60.9114L1667.59 89.318V146.131L1716.42 174.538ZM1764.73 145.805L1716.42 173.886L1668.1 145.805V89.644L1716.42 61.5633L1764.73 89.644V145.805Z" fill="#3C3C3B"/>
<path opacity="0.8387" d="M1619.32 315.78L1643.85 301.483V272.937L1619.32 258.687L1594.79 272.937V301.483L1619.32 315.78ZM1643.34 301.204L1619.32 315.174L1595.3 301.204V273.263L1619.32 259.292L1643.34 273.263V301.204Z" fill="#3C3C3B"/>
<path opacity="0.9051" d="M1619.32 344L1668.15 315.593V258.78L1619.32 230.373L1570.49 258.78V315.593L1619.32 344ZM1667.59 315.314L1619.27 343.395L1570.96 315.314V259.106L1619.27 231.025L1667.59 259.106V315.314Z" fill="#3C3C3B"/>
<path opacity="0.6545" d="M1571 0V32.8306L1619.32 60.9579L1667.59 32.8306V0H1668.1V33.1566L1619.32 61.5633L1570.49 33.1566V0H1571Z" fill="#3C3C3B"/>
<path opacity="0.9574" d="M1514.52 0L1522.17 4.47056L1529.82 0H1530.85L1522.17 5.07594L1513.5 0H1514.52Z" fill="#3C3C3B"/>
<path opacity="0.9474" d="M1522.17 287.513L1522.31 287.42L1619.55 230.886V117.585L1619.41 117.492L1522.17 60.9114L1522.03 61.0045L1424.79 117.585V230.886L1424.93 230.979L1522.17 287.513ZM1619.04 230.56L1522.17 286.907L1425.31 230.56V117.864L1522.17 61.5168L1619.04 117.864V230.56Z" fill="#3C3C3B"/>
<path opacity="0.8086" d="M1425.07 146.271L1449.61 132.021V103.475L1425.07 89.1782L1400.54 103.475V132.021L1425.07 146.271ZM1449.09 131.695L1425.07 145.666L1401.06 131.695V103.754L1425.07 89.7836L1449.09 103.754V131.695Z" fill="#3C3C3B"/>
<path opacity="0.5531" d="M1522.17 315.78L1546.7 301.483V272.937L1522.17 258.687L1497.64 272.937V301.483L1522.17 315.78ZM1546.19 301.204L1522.17 315.174L1498.15 301.204V273.263L1522.17 259.292L1546.19 273.263V301.204Z" fill="#3C3C3B"/>
<path opacity="0.9538" d="M1417.42 0L1425.07 4.47056L1432.72 0H1433.75L1425.07 5.07594L1416.35 0H1417.42Z" fill="#3C3C3B"/>
<path opacity="0.8754" d="M1279.66 0V32.8306L1327.93 60.9579L1376.24 32.8306V0H1376.76V33.1566L1327.93 61.5633L1279.1 33.1566V0H1279.66Z" fill="#3C3C3B"/>
<path opacity="0.5051" d="M1473.86 0V32.8306L1522.17 60.9579L1570.49 32.8306V0H1571V33.1566L1522.17 61.5633L1473.48 33.2032L1473.34 33.1566V0H1473.86Z" fill="#3C3C3B"/>
<path opacity="0.8517" d="M1336.65 0L1328.21 4.88967V117.585L1425.07 173.933L1521.94 117.585V4.88967L1513.5 0H1514.52L1522.31 4.51712L1522.45 4.61026V117.864L1425.17 174.445L1425.07 174.538L1327.83 117.957L1327.69 117.864V4.61026L1335.58 0H1336.65Z" fill="#3C3C3B"/>
<path opacity="0.61" d="M1327.93 132.161L1340.33 124.943V110.507L1327.93 103.288L1315.52 110.507V124.943L1327.93 132.161ZM1339.82 124.663L1327.93 131.555L1316.04 124.663V110.833L1327.93 103.94L1339.82 110.833V124.663Z" fill="#3C3C3B"/>
<path opacity="0.6181" d="M1522.17 174.538L1571 146.131V89.318L1522.17 60.9114L1522.03 61.0045L1473.34 89.318V146.131L1473.48 146.224L1522.17 174.538ZM1570.49 145.805L1522.17 173.886L1473.86 145.805V89.644L1522.17 61.5633L1570.49 89.644V145.805Z" fill="#3C3C3B"/>
<path opacity="0.876" d="M1425.07 287.513L1425.21 287.42L1522.45 230.886V117.585L1522.31 117.492L1425.07 60.9114L1424.93 61.0045L1327.69 117.585V230.886L1327.83 230.979L1425.07 287.513ZM1521.94 230.56L1425.07 286.907L1328.21 230.56V117.864L1425.07 61.5168L1521.94 117.864V230.56Z" fill="#3C3C3B"/>
<path opacity="0.5845" d="M1425.07 315.78L1449.61 301.483V272.937L1425.07 258.687L1400.54 272.937V301.483L1425.07 315.78ZM1449.09 301.204L1425.07 315.174L1401.06 301.204V273.263L1425.07 259.292L1449.09 273.263V301.204Z" fill="#3C3C3B"/>
<path opacity="0.5432" d="M1522.17 287.513L1522.31 287.42L1571 259.106V202.293L1522.17 173.886L1522.03 173.979L1473.34 202.293V259.106L1473.48 259.199L1522.17 287.513ZM1570.49 258.827L1522.17 286.907L1473.86 258.827V202.619L1522.17 174.538L1570.49 202.619V258.827Z" fill="#3C3C3B"/>
<path opacity="0.8471" d="M1182.51 0V32.8306L1230.83 60.9579L1279.1 32.8306V0H1279.66V33.1566L1230.83 61.5633L1182 33.1566V0H1182.51Z" fill="#3C3C3B"/>
<path opacity="0.7774" d="M1327.93 89.7837L1352.46 75.4872V46.9409L1327.93 32.6444L1303.4 46.9409V75.4872L1327.93 89.7837ZM1351.95 75.2078L1327.93 89.1783L1303.91 75.2078V47.2669L1327.93 33.2964L1351.95 47.2669V75.2078Z" fill="#3C3C3B"/>
<path opacity="0.6187" d="M1320.28 0L1327.93 4.47056L1335.58 0H1336.65L1327.93 5.07594L1319.25 0H1320.28Z" fill="#3C3C3B"/>
<path opacity="0.6525" d="M1206.81 0V18.7205L1230.83 32.6909L1254.85 18.7205V0H1255.36V19.0464L1230.83 33.2963L1206.3 19.0464V0H1206.81Z" fill="#3C3C3B"/>
<path opacity="0.6134" d="M1182.51 0V32.8306L1230.83 60.9579L1279.1 32.8306V0H1279.66V33.1566L1230.83 61.5633L1182 33.1566V0H1182.51Z" fill="#3C3C3B"/>
<path opacity="0.951" d="M1425.07 174.538L1473.9 146.131V89.318L1425.07 60.9114L1424.93 61.0045L1376.24 89.318V146.131L1376.38 146.224L1425.07 174.538ZM1473.34 145.805L1425.03 173.886L1376.71 145.805V89.644L1425.03 61.5633L1473.34 89.644V145.805Z" fill="#3C3C3B"/>
<path opacity="0.6256" d="M1230.83 287.513L1230.97 287.42L1279.66 259.106V202.293L1230.83 173.886L1182 202.293V259.106L1182.14 259.199L1230.83 287.513ZM1279.1 258.827L1230.78 286.907L1182.47 258.827V202.619L1230.78 174.538L1279.1 202.619V258.827Z" fill="#3C3C3B"/>
<path opacity="0.6699" d="M1425.07 287.513L1425.21 287.42L1473.9 259.106V202.293L1425.07 173.886L1424.93 173.979L1376.24 202.293V259.106L1376.38 259.199L1425.07 287.513ZM1473.34 258.827L1425.03 286.907L1376.71 258.827V202.619L1425.03 174.538L1473.34 202.619V258.827Z" fill="#3C3C3B"/>
<path opacity="0.6867" d="M1907.54 131.881C1907.54 133.604 1908.94 135.001 1910.62 135.001C1912.34 135.001 1913.69 133.604 1913.69 131.881C1913.69 130.158 1912.29 128.761 1910.62 128.761C1908.94 128.715 1907.54 130.158 1907.54 131.881Z" fill="#3C3C3B"/>
<path opacity="0.975" d="M1858.99 89.5042C1858.99 91.2273 1860.39 92.6243 1862.07 92.6243C1863.79 92.6243 1865.19 91.2273 1865.19 89.5042C1865.19 87.7812 1863.79 86.3842 1862.07 86.3842C1860.39 86.3842 1858.99 87.7812 1858.99 89.5042Z" fill="#3C3C3B"/>
<path opacity="0.9056" d="M1810.44 4.74996C1810.44 6.47299 1811.84 7.87003 1813.56 7.87003C1815.29 7.87003 1816.64 6.47299 1816.64 4.74996C1816.64 3.02693 1815.24 1.62988 1813.56 1.62988C1811.84 1.62988 1810.44 3.02693 1810.44 4.74996Z" fill="#3C3C3B"/>
<path opacity="0.862" d="M1810.44 117.725C1810.44 119.448 1811.84 120.845 1813.56 120.845C1815.29 120.845 1816.64 119.448 1816.64 117.725C1816.64 116.002 1815.24 114.605 1813.56 114.605C1811.84 114.605 1810.44 116.002 1810.44 117.725Z" fill="#3C3C3B"/>
<path opacity="0.7249" d="M1737.59 18.8602C1737.59 20.5832 1738.99 21.9803 1740.67 21.9803C1742.39 21.9803 1743.79 20.5832 1743.79 18.8602C1743.79 17.1372 1742.39 15.7401 1740.67 15.7401C1738.99 15.7401 1737.59 17.1372 1737.59 18.8602Z" fill="#3C3C3B"/>
<path opacity="0.5437" d="M1689.04 18.8602C1689.04 20.5832 1690.44 21.9803 1692.17 21.9803C1693.89 21.9803 1695.24 20.5832 1695.24 18.8602C1695.24 17.1372 1693.85 15.7401 1692.17 15.7401C1690.44 15.7401 1689.04 17.1372 1689.04 18.8602Z" fill="#3C3C3B"/>
<path opacity="0.8559" d="M1761.89 33.0169C1761.89 34.74 1763.29 36.137 1764.97 36.137C1766.69 36.137 1768.04 34.74 1768.04 33.0169C1768.04 31.2939 1766.65 29.8969 1764.97 29.8969C1763.24 29.8969 1761.89 31.2939 1761.89 33.0169Z" fill="#3C3C3B"/>
<path opacity="0.691" d="M1713.34 131.881C1713.34 133.604 1714.74 135.001 1716.42 135.001C1718.14 135.001 1719.54 133.604 1719.54 131.881C1719.54 130.158 1718.14 128.761 1716.42 128.761C1714.69 128.715 1713.34 130.158 1713.34 131.881Z" fill="#3C3C3B"/>
<path opacity="0.6169" d="M1810.44 117.725C1810.44 119.448 1811.84 120.845 1813.56 120.845C1815.29 120.845 1816.64 119.448 1816.64 117.725C1816.64 116.002 1815.24 114.605 1813.56 114.605C1811.84 114.605 1810.44 116.002 1810.44 117.725Z" fill="#3C3C3B"/>
<path opacity="0.5121" d="M1761.89 89.5042C1761.89 91.2273 1763.29 92.6243 1764.97 92.6243C1766.69 92.6243 1768.09 91.2273 1768.09 89.5042C1768.09 87.7812 1766.69 86.3842 1764.97 86.3842C1763.29 86.3842 1761.89 87.7812 1761.89 89.5042Z" fill="#3C3C3B"/>
<path opacity="0.8706" d="M1616.19 18.8602C1616.19 20.5832 1617.59 21.9803 1619.27 21.9803C1621 21.9803 1622.4 20.5832 1622.4 18.8602C1622.4 17.1372 1621 15.7401 1619.27 15.7401C1617.59 15.7401 1616.19 17.1372 1616.19 18.8602Z" fill="#3C3C3B"/>
<path opacity="0.6625" d="M1604.07 110.693C1604.07 112.416 1605.47 113.813 1607.19 113.813C1608.92 113.813 1610.27 112.416 1610.27 110.693C1610.27 108.97 1608.87 107.573 1607.19 107.573C1605.47 107.573 1604.07 108.97 1604.07 110.693Z" fill="#3C3C3B"/>
<path opacity="0.6645" d="M1713.34 287.187C1713.34 288.91 1714.74 290.307 1716.42 290.307C1718.14 290.307 1719.54 288.91 1719.54 287.187C1719.54 285.464 1718.14 284.067 1716.42 284.067C1714.69 284.067 1713.34 285.464 1713.34 287.187Z" fill="#3C3C3B"/>
<path opacity="0.9538" d="M1616.19 230.699C1616.19 232.422 1617.59 233.819 1619.27 233.819C1621 233.819 1622.4 232.422 1622.4 230.699C1622.4 228.976 1621 227.579 1619.27 227.579C1617.59 227.579 1616.19 228.976 1616.19 230.699Z" fill="#3C3C3B"/>
<path opacity="0.6405" d="M1810.44 117.725C1810.44 119.448 1811.84 120.845 1813.56 120.845C1815.29 120.845 1816.64 119.448 1816.64 117.725C1816.64 116.002 1815.24 114.605 1813.56 114.605C1811.84 114.605 1810.44 116.002 1810.44 117.725Z" fill="#3C3C3B"/>
<path opacity="0.5246" d="M1713.34 117.725C1713.34 119.448 1714.74 120.845 1716.42 120.845C1718.14 120.845 1719.54 119.448 1719.54 117.725C1719.54 116.002 1718.14 114.605 1716.42 114.605C1714.69 114.605 1713.34 116.002 1713.34 117.725Z" fill="#3C3C3B"/>
<path opacity="0.7605" d="M1664.74 89.5042C1664.74 91.2273 1666.14 92.6243 1667.87 92.6243C1669.59 92.6243 1670.95 91.2273 1670.95 89.5042C1670.95 87.7812 1669.55 86.3842 1667.87 86.3842C1666.14 86.3842 1664.74 87.7812 1664.74 89.5042Z" fill="#3C3C3B"/>
<path opacity="0.6166" d="M1664.74 33.0169C1664.74 34.74 1666.14 36.137 1667.87 36.137C1669.59 36.137 1670.95 34.74 1670.95 33.0169C1670.95 31.2939 1669.55 29.8969 1667.87 29.8969C1666.14 29.8969 1664.74 31.2939 1664.74 33.0169Z" fill="#3C3C3B"/>
<path opacity="0.5032" d="M1591.94 103.614C1591.94 105.337 1593.34 106.735 1595.02 106.735C1596.75 106.735 1598.14 105.337 1598.14 103.614C1598.14 101.891 1596.75 100.494 1595.02 100.494C1593.29 100.494 1591.94 101.891 1591.94 103.614Z" fill="#3C3C3B"/>
<path opacity="0.9074" d="M1470.55 33.0169C1470.55 34.74 1471.94 36.137 1473.62 36.137C1475.35 36.137 1476.7 34.74 1476.7 33.0169C1476.7 31.2939 1475.3 29.8969 1473.62 29.8969C1471.9 29.8969 1470.55 31.2939 1470.55 33.0169Z" fill="#3C3C3B"/>
<path opacity="0.6002" d="M1730.64 0C1730.08 0.512251 1729.38 0.791661 1728.59 0.791661C1727.8 0.791661 1727.05 0.465683 1726.54 0H1730.64Z" fill="#3C3C3B"/>
<path opacity="0.6002" d="M1519.09 61.2373C1519.09 62.9603 1520.49 64.3573 1522.17 64.3573C1523.85 64.3573 1525.25 62.9603 1525.25 61.2373C1525.25 59.5142 1523.85 58.1172 1522.17 58.1172C1520.49 58.1172 1519.09 59.5142 1519.09 61.2373Z" fill="#3C3C3B"/>
<path opacity="0.6607" d="M1664.74 89.5042C1664.74 91.2273 1666.14 92.6243 1667.87 92.6243C1669.59 92.6243 1670.95 91.2273 1670.95 89.5042C1670.95 87.7812 1669.55 86.3842 1667.87 86.3842C1666.14 86.3842 1664.74 87.7812 1664.74 89.5042Z" fill="#3C3C3B"/>
<path opacity="0.5786" d="M1591.94 301.343C1591.94 303.066 1593.34 304.464 1595.02 304.464C1596.75 304.464 1598.14 303.066 1598.14 301.343C1598.14 299.62 1596.75 298.223 1595.02 298.223C1593.29 298.223 1591.94 299.62 1591.94 301.343Z" fill="#3C3C3B"/>
<path opacity="0.9283" d="M1616.19 258.966C1616.19 260.689 1617.59 262.086 1619.27 262.086C1621 262.086 1622.4 260.689 1622.4 258.966C1622.4 257.243 1621 255.846 1619.27 255.846C1617.59 255.846 1616.19 257.243 1616.19 258.966Z" fill="#3C3C3B"/>
<path opacity="0.6334" d="M1640.49 273.077C1640.49 274.8 1641.89 276.197 1643.57 276.197C1645.29 276.197 1646.65 274.8 1646.65 273.077C1646.65 271.354 1645.25 269.957 1643.57 269.957C1641.84 269.957 1640.49 271.354 1640.49 273.077Z" fill="#3C3C3B"/>
<path opacity="0.6939" d="M1664.74 315.454C1664.74 317.177 1666.14 318.574 1667.87 318.574C1669.59 318.574 1670.95 317.177 1670.95 315.454C1670.95 313.731 1669.55 312.333 1667.87 312.333C1666.14 312.333 1664.74 313.731 1664.74 315.454Z" fill="#3C3C3B"/>
<path opacity="0.7705" d="M1616.19 61.2373C1616.19 62.9603 1617.59 64.3573 1619.27 64.3573C1621 64.3573 1622.4 62.9603 1622.4 61.2373C1622.4 59.5142 1621 58.1172 1619.27 58.1172C1617.59 58.1172 1616.19 59.5142 1616.19 61.2373Z" fill="#3C3C3B"/>
<path opacity="0.8428" d="M1567.64 33.0169C1567.64 34.74 1569.04 36.137 1570.77 36.137C1572.49 36.137 1573.85 34.74 1573.85 33.0169C1573.85 31.2939 1572.45 29.8969 1570.77 29.8969C1569.04 29.8969 1567.64 31.2939 1567.64 33.0169Z" fill="#3C3C3B"/>
<path opacity="0.9917" d="M1397.7 131.881C1397.7 133.604 1399.1 135.001 1400.82 135.001C1402.55 135.001 1403.9 133.604 1403.9 131.881C1403.9 130.158 1402.5 128.761 1400.82 128.761C1399.05 128.715 1397.7 130.158 1397.7 131.881Z" fill="#3C3C3B"/>
<path opacity="0.9612" d="M1397.7 103.614C1397.7 105.337 1399.1 106.735 1400.82 106.735C1402.55 106.735 1403.9 105.337 1403.9 103.614C1403.9 101.891 1402.5 100.494 1400.82 100.494C1399.05 100.494 1397.7 101.891 1397.7 103.614Z" fill="#3C3C3B"/>
<path opacity="0.6836" d="M1276.3 33.0169C1276.3 34.74 1277.7 36.137 1279.43 36.137C1281.15 36.137 1282.5 34.74 1282.5 33.0169C1282.5 31.2939 1281.1 29.8969 1279.43 29.8969C1277.65 29.8969 1276.3 31.2939 1276.3 33.0169Z" fill="#3C3C3B"/>
<path opacity="0.9087" d="M1567.64 33.0169C1567.64 34.74 1569.04 36.137 1570.72 36.137C1572.45 36.137 1573.85 34.74 1573.85 33.0169C1573.85 31.2939 1572.45 29.8969 1570.72 29.8969C1569.04 29.8969 1567.64 31.2939 1567.64 33.0169Z" fill="#3C3C3B"/>
<path opacity="0.7254" d="M1470.55 33.0169C1470.55 34.74 1471.94 36.137 1473.62 36.137C1475.35 36.137 1476.7 34.74 1476.7 33.0169C1476.7 31.2939 1475.3 29.8969 1473.62 29.8969C1471.9 29.8969 1470.55 31.2939 1470.55 33.0169Z" fill="#3C3C3B"/>
<path opacity="0.5217" d="M1519.09 117.725C1519.09 119.448 1520.49 120.845 1522.17 120.845C1523.85 120.845 1525.25 119.448 1525.25 117.725C1525.25 116.002 1523.85 114.605 1522.17 114.605C1520.49 114.605 1519.09 116.002 1519.09 117.725Z" fill="#3C3C3B"/>
<path opacity="0.758" d="M1519.09 4.74996C1519.09 6.47299 1520.49 7.87003 1522.17 7.87003C1523.85 7.87003 1525.25 6.47299 1525.25 4.74996C1525.25 3.02693 1523.85 1.62988 1522.17 1.62988C1520.49 1.62988 1519.09 3.02693 1519.09 4.74996Z" fill="#3C3C3B"/>
<path opacity="0.5672" d="M1336.98 124.803C1336.98 126.526 1338.38 127.923 1340.1 127.923C1341.83 127.923 1343.18 126.526 1343.18 124.803C1343.18 123.08 1341.78 121.683 1340.1 121.683C1338.38 121.683 1336.98 123.08 1336.98 124.803Z" fill="#3C3C3B"/>
<path opacity="0.6639" d="M1312.68 110.693C1312.68 112.416 1314.08 113.813 1315.8 113.813C1317.53 113.813 1318.88 112.416 1318.88 110.693C1318.88 108.97 1317.48 107.573 1315.8 107.573C1314.08 107.573 1312.68 108.97 1312.68 110.693Z" fill="#3C3C3B"/>
<path opacity="0.7845" d="M1324.85 103.614C1324.85 105.337 1326.25 106.735 1327.93 106.735C1329.65 106.735 1331.01 105.337 1331.01 103.614C1331.01 101.891 1329.61 100.494 1327.93 100.494C1326.25 100.494 1324.85 101.891 1324.85 103.614Z" fill="#3C3C3B"/>
<path opacity="0.8686" d="M1421.95 315.454C1421.95 317.177 1423.35 318.574 1425.07 318.574C1426.8 318.574 1428.15 317.177 1428.15 315.454C1428.15 313.731 1426.75 312.333 1425.07 312.333C1423.35 312.333 1421.95 313.731 1421.95 315.454Z" fill="#3C3C3B"/>
<path opacity="0.9438" d="M1470.55 202.479C1470.55 204.202 1471.94 205.599 1473.62 205.599C1475.35 205.599 1476.7 204.202 1476.7 202.479C1476.7 200.756 1475.3 199.359 1473.62 199.359C1471.9 199.359 1470.55 200.756 1470.55 202.479Z" fill="#3C3C3B"/>
<path opacity="0.8488" d="M1519.09 174.212C1519.09 175.935 1520.49 177.332 1522.17 177.332C1523.85 177.332 1525.25 175.935 1525.25 174.212C1525.25 172.489 1523.85 171.092 1522.17 171.092C1520.49 171.092 1519.09 172.489 1519.09 174.212Z" fill="#3C3C3B"/>
<path opacity="0.5604" d="M1276.3 33.0169C1276.3 34.74 1277.7 36.137 1279.38 36.137C1281.1 36.137 1282.5 34.74 1282.5 33.0169C1282.5 31.2939 1281.1 29.8969 1279.38 29.8969C1277.65 29.8969 1276.3 31.2939 1276.3 33.0169Z" fill="#3C3C3B"/>
<path opacity="0.8646" d="M1227.7 61.2373C1227.7 62.9603 1229.1 64.3573 1230.78 64.3573C1232.51 64.3573 1233.86 62.9603 1233.86 61.2373C1233.86 59.5142 1232.46 58.1172 1230.78 58.1172C1229.1 58.1172 1227.7 59.5142 1227.7 61.2373Z" fill="#3C3C3B"/>
<path opacity="0.5312" d="M1324.85 89.5042C1324.85 91.2273 1326.25 92.6243 1327.93 92.6243C1329.65 92.6243 1331.01 91.2273 1331.01 89.5042C1331.01 87.7812 1329.61 86.3842 1327.93 86.3842C1326.25 86.3842 1324.85 87.7812 1324.85 89.5042Z" fill="#3C3C3B"/>
<path opacity="0.7235" d="M1252 18.8602C1252 20.5832 1253.4 21.9803 1255.13 21.9803C1256.85 21.9803 1258.21 20.5832 1258.21 18.8602C1258.21 17.1372 1256.81 15.7401 1255.13 15.7401C1253.4 15.7401 1252 17.1372 1252 18.8602Z" fill="#3C3C3B"/>
<path opacity="0.5885" d="M1203.45 18.8602C1203.45 20.5832 1204.85 21.9803 1206.53 21.9803C1208.26 21.9803 1209.61 20.5832 1209.61 18.8602C1209.61 17.1372 1208.21 15.7401 1206.53 15.7401C1204.85 15.7401 1203.45 17.1372 1203.45 18.8602Z" fill="#3C3C3B"/>
<path opacity="0.8858" d="M1470.55 145.992C1470.55 147.715 1471.94 149.112 1473.62 149.112C1475.35 149.112 1476.7 147.715 1476.7 145.992C1476.7 144.269 1475.3 142.872 1473.62 142.872C1471.9 142.872 1470.55 144.269 1470.55 145.992Z" fill="#3C3C3B"/>
<path opacity="0.5875" d="M1373.4 145.992C1373.4 147.715 1374.8 149.112 1376.48 149.112C1378.2 149.112 1379.56 147.715 1379.56 145.992C1379.56 144.269 1378.16 142.872 1376.48 142.872C1374.8 142.872 1373.4 144.269 1373.4 145.992Z" fill="#3C3C3B"/>
<path opacity="0.9745" d="M1227.7 174.212C1227.7 175.935 1229.1 177.332 1230.78 177.332C1232.51 177.332 1233.86 175.935 1233.86 174.212C1233.86 172.489 1232.46 171.092 1230.78 171.092C1229.1 171.092 1227.7 172.489 1227.7 174.212Z" fill="#3C3C3B"/>
<path opacity="0.6677" d="M1421.95 287.187C1421.95 288.91 1423.35 290.307 1425.07 290.307C1426.8 290.307 1428.15 288.91 1428.15 287.187C1428.15 285.464 1426.75 284.067 1425.07 284.067C1423.35 284.067 1421.95 285.464 1421.95 287.187Z" fill="#3C3C3B"/>
<path opacity="0.779" d="M1421.95 174.212C1421.95 175.935 1423.35 177.332 1425.07 177.332C1426.8 177.332 1428.15 175.935 1428.15 174.212C1428.15 172.489 1426.75 171.092 1425.07 171.092C1423.35 171.092 1421.95 172.489 1421.95 174.212Z" fill="#3C3C3B"/>
</g>
<g opacity="0.3" clip-path="url(#clip1_2011_1234)">
<path opacity="0.9459" d="M10.313 952V918.788L-38.4591 890.333L-87.2312 918.788V952H-87.749V918.458L-38.4591 889.721L10.8309 918.458V952H10.313Z" fill="#3C3C3B"/>
<path opacity="0.8962" d="M71.5603 952V940.223L59.5556 933.203L47.5979 940.223V952H47.0801V939.893L59.5556 932.591L72.0781 939.893V952H71.5603Z" fill="#3C3C3B"/>
<path opacity="0.5211" d="M59.5558 818.302L47.0332 825.604V840.208L59.5558 847.51L72.0783 840.208V825.604L59.5558 818.302ZM47.5981 825.887L59.6028 818.915L71.6076 825.887V839.879L59.6028 846.851L47.5981 839.879V825.887Z" fill="#3C3C3B"/>
<path opacity="0.6374" d="M-38.4584 661.144L-38.5997 661.238L-136.756 718.43L-136.756 833.048L-136.615 833.142L-38.4584 890.38L-38.3172 890.286L59.839 833.048L59.839 718.43L59.6978 718.335L-38.4584 661.144ZM-136.238 718.759L-38.4584 661.757L59.3211 718.759L59.3211 832.765L-38.4584 889.768L-136.238 832.765L-136.238 718.759Z" fill="#3C3C3B"/>
<path opacity="0.5189" d="M-38.4591 832.577L-38.6003 832.671L-87.749 861.314L-87.749 918.788L-38.4591 947.525L10.8309 918.788L10.8309 861.314L10.6896 861.22L-38.4591 832.577ZM-87.2312 861.644L-38.4591 833.236L10.313 861.644L10.313 918.458L-38.4591 946.865L-87.2312 918.458L-87.2312 861.644Z" fill="#3C3C3B"/>
<path opacity="0.5082" d="M59.5556 804.028L34.793 818.444L34.793 847.322L59.5556 861.785L84.3183 847.322V818.444L59.5556 804.028ZM35.3108 818.773L59.5556 804.64L83.8004 818.773V847.039L59.5556 861.172L35.3108 847.039L35.3108 818.773Z" fill="#3C3C3B"/>
<path opacity="0.5792" d="M206.39 952V918.788L157.618 890.333L108.846 918.788V952H108.328V918.458L157.618 889.721L206.767 918.411L206.908 918.458V952H206.39Z" fill="#3C3C3B"/>
<path opacity="0.9861" d="M59.5556 832.577L59.4144 832.671L10.2656 861.314L10.2656 918.788L59.5556 947.525L108.846 918.788L108.846 861.314L108.704 861.22L59.5556 832.577ZM10.8306 861.644L59.6027 833.236L108.375 861.644L108.375 918.458L59.5556 946.865L10.8306 918.458L10.8306 861.644Z" fill="#3C3C3B"/>
<path opacity="0.9699" d="M206.39 952V918.788L157.618 890.333L108.846 918.788V952H108.328V918.458L157.618 889.721L206.767 918.411L206.908 918.458V952H206.39Z" fill="#3C3C3B"/>
<path opacity="0.9622" d="M-38.4591 775.432L-87.749 804.169L-87.749 861.643L-38.4591 890.38L10.8309 861.643L10.8309 804.169L-38.4591 775.432ZM-87.2312 804.499L-38.4591 776.092L10.313 804.499L10.313 861.314L-38.4591 889.721L-87.2312 861.314L-87.2312 804.499Z" fill="#3C3C3B"/>
<path opacity="0.6304" d="M-38.4591 775.432L-87.749 804.169L-87.749 861.643L-38.4591 890.38L10.8309 861.643L10.8309 804.169L-38.4591 775.432ZM-87.2312 804.499L-38.4591 776.092L10.313 804.499L10.313 861.314L-38.4591 889.721L-87.2312 861.314L-87.2312 804.499Z" fill="#3C3C3B"/>
<path opacity="0.8387" d="M59.5556 632.549L34.793 647.011L34.793 675.89L59.5556 690.305L84.3183 675.89V647.011L59.5556 632.549ZM35.3108 647.294L59.5556 633.161L83.8004 647.294V675.56L59.5556 689.693L35.3108 675.56L35.3108 647.294Z" fill="#3C3C3B"/>
<path opacity="0.9051" d="M59.5556 604L10.2656 632.737L10.2656 690.211L59.5556 718.948L108.846 690.211L108.846 632.737L59.5556 604ZM10.8306 633.02L59.6027 604.613L108.375 633.02L108.375 689.881L59.6027 718.288L10.8306 689.881L10.8306 633.02Z" fill="#3C3C3B"/>
<path opacity="0.6545" d="M108.328 952V918.788L59.5563 890.333L10.8313 918.788L10.8313 952H10.3135L10.3135 918.458L59.5563 889.721L108.846 918.458V952H108.328Z" fill="#3C3C3B"/>
<path opacity="0.9574" d="M165.338 952L157.618 947.477L149.897 952H148.861L157.618 946.865L166.374 952H165.338Z" fill="#3C3C3B"/>
<path opacity="0.9474" d="M157.618 661.144L157.477 661.238L59.3203 718.43L59.3203 833.048L59.4615 833.142L157.618 890.38L157.759 890.286L255.915 833.048L255.915 718.43L255.774 718.335L157.618 661.144ZM59.8382 718.759L157.618 661.757L255.397 718.759L255.397 832.765L157.618 889.768L59.8382 832.765L59.8382 718.759Z" fill="#3C3C3B"/>
<path opacity="0.8086" d="M255.633 804.028L230.87 818.444V847.322L255.633 861.785L280.395 847.322V818.444L255.633 804.028ZM231.388 818.773L255.633 804.64L279.878 818.773V847.039L255.633 861.172L231.388 847.039V818.773Z" fill="#3C3C3B"/>
<path opacity="0.5531" d="M157.618 632.549L132.855 647.011V675.89L157.618 690.305L182.381 675.89V647.011L157.618 632.549ZM133.373 647.294L157.618 633.161L181.863 647.294V675.56L157.618 689.693L133.373 675.56V647.294Z" fill="#3C3C3B"/>
<path opacity="0.9538" d="M263.354 952L255.633 947.477L247.913 952H246.877L255.633 946.865L264.437 952H263.354Z" fill="#3C3C3B"/>
<path opacity="0.8754" d="M402.42 952V918.788L353.695 890.333L304.923 918.788V952H304.405V918.458L353.695 889.721L402.985 918.458V952H402.42Z" fill="#3C3C3B"/>
<path opacity="0.5051" d="M206.39 952V918.788L157.618 890.333L108.846 918.788V952H108.328V918.458L157.618 889.721L206.767 918.411L206.908 918.458V952H206.39Z" fill="#3C3C3B"/>
<path opacity="0.8517" d="M344.892 952L353.413 947.053V833.048L255.633 776.045L157.854 833.048L157.854 947.053L166.375 952H165.339L157.477 947.43L157.336 947.336L157.336 832.765L255.539 775.527L255.633 775.433L353.79 832.671L353.931 832.765V947.336L345.975 952H344.892Z" fill="#3C3C3B"/>
<path opacity="0.61" d="M353.695 818.302L341.173 825.604V840.208L353.695 847.51L366.218 840.208V825.604L353.695 818.302ZM341.691 825.887L353.695 818.915L365.7 825.887V839.879L353.695 846.851L341.691 839.879V825.887Z" fill="#3C3C3B"/>
<path opacity="0.6181" d="M157.618 775.432L108.328 804.169L108.328 861.643L157.618 890.38L157.759 890.286L206.908 861.643V804.169L206.767 804.075L157.618 775.432ZM108.846 804.499L157.618 776.092L206.39 804.499V861.314L157.618 889.721L108.846 861.314L108.846 804.499Z" fill="#3C3C3B"/>
<path opacity="0.876" d="M255.633 661.144L255.492 661.238L157.336 718.43L157.336 833.048L157.477 833.142L255.633 890.38L255.775 890.286L353.931 833.048V718.43L353.79 718.335L255.633 661.144ZM157.854 718.759L255.633 661.757L353.413 718.759V832.765L255.633 889.768L157.854 832.765L157.854 718.759Z" fill="#3C3C3B"/>
<path opacity="0.5845" d="M255.633 632.549L230.87 647.011V675.89L255.633 690.305L280.395 675.89V647.011L255.633 632.549ZM231.388 647.294L255.633 633.161L279.878 647.294V675.56L255.633 689.693L231.388 675.56V647.294Z" fill="#3C3C3B"/>
<path opacity="0.5432" d="M157.618 661.144L157.477 661.238L108.328 689.881L108.328 747.355L157.618 776.092L157.759 775.998L206.908 747.355V689.881L206.767 689.787L157.618 661.144ZM108.846 690.164L157.618 661.757L206.39 690.164V747.025L157.618 775.433L108.846 747.025L108.846 690.164Z" fill="#3C3C3B"/>
<path opacity="0.8471" d="M500.482 952V918.788L451.71 890.333L402.985 918.788V952H402.42V918.458L451.71 889.721L501 918.458V952H500.482Z" fill="#3C3C3B"/>
<path opacity="0.7774" d="M353.695 861.172L328.933 875.635V904.513L353.695 918.976L378.458 904.513V875.635L353.695 861.172ZM329.45 875.918L353.695 861.785L377.94 875.918V904.184L353.695 918.317L329.45 904.184V875.918Z" fill="#3C3C3B"/>
<path opacity="0.6187" d="M361.416 952L353.695 947.477L345.974 952H344.892L353.695 946.865L362.451 952H361.416Z" fill="#3C3C3B"/>
<path opacity="0.6525" d="M475.955 952V933.062L451.71 918.929L427.465 933.062V952H426.947V932.732L451.71 918.317L476.473 932.732V952H475.955Z" fill="#3C3C3B"/>
<path opacity="0.6134" d="M500.482 952V918.788L451.71 890.333L402.985 918.788V952H402.42V918.458L451.71 889.721L501 918.458V952H500.482Z" fill="#3C3C3B"/>
<path opacity="0.951" d="M255.633 775.432L206.343 804.169V861.643L255.633 890.38L255.774 890.286L304.923 861.643V804.169L304.781 804.075L255.633 775.432ZM206.908 804.499L255.68 776.092L304.452 804.499V861.314L255.68 889.721L206.908 861.314V804.499Z" fill="#3C3C3B"/>
<path opacity="0.6256" d="M451.71 661.144L451.569 661.238L402.42 689.881V747.355L451.71 776.092L501 747.355V689.881L500.859 689.787L451.71 661.144ZM402.985 690.164L451.757 661.757L500.529 690.164V747.025L451.757 775.433L402.985 747.025V690.164Z" fill="#3C3C3B"/>
<path opacity="0.6699" d="M255.633 661.144L255.492 661.238L206.343 689.881V747.355L255.633 776.092L255.774 775.998L304.923 747.355V689.881L304.781 689.787L255.633 661.144ZM206.908 690.164L255.68 661.757L304.452 690.164V747.025L255.68 775.433L206.908 747.025V690.164Z" fill="#3C3C3B"/>
<path opacity="0.8706" d="M62.7105 932.921C62.7105 931.177 61.2982 929.764 59.6034 929.764C57.8615 929.764 56.4492 931.177 56.4492 932.921C56.4492 934.664 57.8615 936.077 59.6034 936.077C61.2982 936.077 62.7105 934.664 62.7105 932.921Z" fill="#3C3C3B"/>
<path opacity="0.6625" d="M74.9507 840.02C74.9507 838.277 73.5384 836.864 71.7965 836.864C70.0547 836.864 68.6895 838.277 68.6895 840.02C68.6895 841.763 70.1018 843.176 71.7965 843.176C73.5384 843.176 74.9507 841.763 74.9507 840.02Z" fill="#3C3C3B"/>
<path opacity="0.9538" d="M62.7105 718.618C62.7105 716.875 61.2982 715.462 59.6034 715.462C57.8615 715.462 56.4492 716.875 56.4492 718.618C56.4492 720.361 57.8615 721.774 59.6034 721.774C61.2982 721.774 62.7105 720.361 62.7105 718.618Z" fill="#3C3C3B"/>
<path opacity="0.7605" d="M13.7027 861.455C13.7027 859.712 12.2904 858.299 10.5485 858.299C8.80667 858.299 7.44141 859.712 7.44141 861.455C7.44141 863.198 8.85374 864.611 10.5485 864.611C12.2904 864.611 13.7027 863.198 13.7027 861.455Z" fill="#3C3C3B"/>
<path opacity="0.6166" d="M13.7027 918.599C13.7027 916.856 12.2904 915.443 10.5485 915.443C8.80667 915.443 7.44141 916.856 7.44141 918.599C7.44141 920.342 8.85374 921.756 10.5485 921.756C12.2904 921.756 13.7027 920.342 13.7027 918.599Z" fill="#3C3C3B"/>
<path opacity="0.5032" d="M87.19 847.181C87.19 845.438 85.7777 844.024 84.0829 844.024C82.341 844.024 80.9287 845.438 80.9287 847.181C80.9287 848.924 82.341 850.337 84.0829 850.337C85.8248 850.337 87.19 848.924 87.19 847.181Z" fill="#3C3C3B"/>
<path opacity="0.9074" d="M209.733 918.599C209.733 916.856 208.32 915.443 206.626 915.443C204.884 915.443 203.519 916.856 203.519 918.599C203.519 920.342 204.931 921.756 206.626 921.756C208.368 921.756 209.733 920.342 209.733 918.599Z" fill="#3C3C3B"/>
<path opacity="0.6002" d="M160.725 890.051C160.725 888.308 159.313 886.894 157.618 886.894C155.923 886.894 154.511 888.308 154.511 890.051C154.511 891.794 155.923 893.207 157.618 893.207C159.313 893.207 160.725 891.794 160.725 890.051Z" fill="#3C3C3B"/>
<path opacity="0.6607" d="M13.7027 861.455C13.7027 859.712 12.2904 858.299 10.5485 858.299C8.80667 858.299 7.44141 859.712 7.44141 861.455C7.44141 863.198 8.85374 864.611 10.5485 864.611C12.2904 864.611 13.7027 863.198 13.7027 861.455Z" fill="#3C3C3B"/>
<path opacity="0.5786" d="M87.19 647.153C87.19 645.409 85.7777 643.996 84.0829 643.996C82.341 643.996 80.9287 645.409 80.9287 647.153C80.9287 648.896 82.341 650.309 84.0829 650.309C85.8248 650.309 87.19 648.896 87.19 647.153Z" fill="#3C3C3B"/>
<path opacity="0.9283" d="M62.7105 690.022C62.7105 688.279 61.2982 686.866 59.6034 686.866C57.8615 686.866 56.4492 688.279 56.4492 690.022C56.4492 691.765 57.8615 693.179 59.6034 693.179C61.2982 693.179 62.7105 691.765 62.7105 690.022Z" fill="#3C3C3B"/>
<path opacity="0.6334" d="M38.183 675.748C38.183 674.005 36.7706 672.592 35.0758 672.592C33.334 672.592 31.9688 674.005 31.9688 675.748C31.9688 677.491 33.3811 678.905 35.0758 678.905C36.8177 678.905 38.183 677.491 38.183 675.748Z" fill="#3C3C3B"/>
<path opacity="0.6939" d="M13.7027 632.878C13.7027 631.135 12.2904 629.722 10.5485 629.722C8.80667 629.722 7.44141 631.135 7.44141 632.878C7.44141 634.621 8.85374 636.035 10.5485 636.035C12.2904 636.035 13.7027 634.621 13.7027 632.878Z" fill="#3C3C3B"/>
<path opacity="0.7705" d="M62.7105 890.051C62.7105 888.308 61.2982 886.894 59.6034 886.894C57.8615 886.894 56.4492 888.308 56.4492 890.051C56.4492 891.794 57.8615 893.207 59.6034 893.207C61.2982 893.207 62.7105 891.794 62.7105 890.051Z" fill="#3C3C3B"/>
<path opacity="0.8428" d="M111.717 918.599C111.717 916.856 110.305 915.443 108.563 915.443C106.821 915.443 105.456 916.856 105.456 918.599C105.456 920.342 106.868 921.756 108.563 921.756C110.305 921.756 111.717 920.342 111.717 918.599Z" fill="#3C3C3B"/>
<path opacity="0.9917" d="M283.267 818.585C283.267 816.842 281.855 815.429 280.113 815.429C278.371 815.429 277.006 816.842 277.006 818.585C277.006 820.328 278.418 821.741 280.113 821.741C281.902 821.788 283.267 820.328 283.267 818.585Z" fill="#3C3C3B"/>
<path opacity="0.9612" d="M283.267 847.181C283.267 845.438 281.855 844.024 280.113 844.024C278.371 844.024 277.006 845.438 277.006 847.181C277.006 848.924 278.418 850.337 280.113 850.337C281.902 850.337 283.267 848.924 283.267 847.181Z" fill="#3C3C3B"/>
<path opacity="0.6836" d="M405.81 918.599C405.81 916.856 404.398 915.443 402.656 915.443C400.914 915.443 399.549 916.856 399.549 918.599C399.549 920.342 400.961 921.756 402.656 921.756C404.445 921.756 405.81 920.342 405.81 918.599Z" fill="#3C3C3B"/>
<path opacity="0.9087" d="M111.717 918.599C111.717 916.856 110.305 915.443 108.61 915.443C106.868 915.443 105.456 916.856 105.456 918.599C105.456 920.342 106.868 921.756 108.61 921.756C110.305 921.756 111.717 920.342 111.717 918.599Z" fill="#3C3C3B"/>
<path opacity="0.7254" d="M209.733 918.599C209.733 916.856 208.32 915.443 206.626 915.443C204.884 915.443 203.519 916.856 203.519 918.599C203.519 920.342 204.931 921.756 206.626 921.756C208.368 921.756 209.733 920.342 209.733 918.599Z" fill="#3C3C3B"/>
<path opacity="0.5217" d="M160.725 832.906C160.725 831.163 159.313 829.75 157.618 829.75C155.923 829.75 154.511 831.163 154.511 832.906C154.511 834.649 155.923 836.063 157.618 836.063C159.313 836.063 160.725 834.649 160.725 832.906Z" fill="#3C3C3B"/>
<path opacity="0.758" d="M160.725 947.195C160.725 945.452 159.313 944.038 157.618 944.038C155.923 944.038 154.511 945.452 154.511 947.195C154.511 948.938 155.923 950.351 157.618 950.351C159.313 950.351 160.725 948.938 160.725 947.195Z" fill="#3C3C3B"/>
<path opacity="0.5672" d="M344.562 825.746C344.562 824.003 343.15 822.589 341.408 822.589C339.666 822.589 338.301 824.003 338.301 825.746C338.301 827.489 339.713 828.902 341.408 828.902C343.15 828.902 344.562 827.489 344.562 825.746Z" fill="#3C3C3B"/>
<path opacity="0.6639" d="M369.089 840.02C369.089 838.277 367.677 836.864 365.935 836.864C364.193 836.864 362.828 838.277 362.828 840.02C362.828 841.763 364.24 843.176 365.935 843.176C367.677 843.176 369.089 841.763 369.089 840.02Z" fill="#3C3C3B"/>
<path opacity="0.7845" d="M356.802 847.181C356.802 845.438 355.39 844.024 353.695 844.024C351.953 844.024 350.588 845.438 350.588 847.181C350.588 848.924 352 850.337 353.695 850.337C355.39 850.337 356.802 848.924 356.802 847.181Z" fill="#3C3C3B"/>
<path opacity="0.8686" d="M258.788 632.878C258.788 631.135 257.375 629.722 255.634 629.722C253.892 629.722 252.526 631.135 252.526 632.878C252.526 634.621 253.939 636.035 255.634 636.035C257.375 636.035 258.788 634.621 258.788 632.878Z" fill="#3C3C3B"/>
<path opacity="0.9438" d="M209.733 747.167C209.733 745.424 208.32 744.01 206.626 744.01C204.884 744.01 203.519 745.424 203.519 747.167C203.519 748.91 204.931 750.323 206.626 750.323C208.368 750.323 209.733 748.91 209.733 747.167Z" fill="#3C3C3B"/>
<path opacity="0.8488" d="M160.725 775.762C160.725 774.019 159.313 772.606 157.618 772.606C155.923 772.606 154.511 774.019 154.511 775.762C154.511 777.505 155.923 778.919 157.618 778.919C159.313 778.919 160.725 777.505 160.725 775.762Z" fill="#3C3C3B"/>
<path opacity="0.5604" d="M405.81 918.599C405.81 916.856 404.398 915.443 402.703 915.443C400.961 915.443 399.549 916.856 399.549 918.599C399.549 920.342 400.961 921.756 402.703 921.756C404.445 921.756 405.81 920.342 405.81 918.599Z" fill="#3C3C3B"/>
<path opacity="0.8646" d="M454.865 890.051C454.865 888.308 453.452 886.894 451.757 886.894C450.016 886.894 448.65 888.308 448.65 890.051C448.65 891.794 450.063 893.207 451.757 893.207C453.452 893.207 454.865 891.794 454.865 890.051Z" fill="#3C3C3B"/>
<path opacity="0.5312" d="M356.802 861.455C356.802 859.712 355.39 858.299 353.695 858.299C351.953 858.299 350.588 859.712 350.588 861.455C350.588 863.198 352 864.611 353.695 864.611C355.39 864.611 356.802 863.198 356.802 861.455Z" fill="#3C3C3B"/>
<path opacity="0.7235" d="M430.337 932.921C430.337 931.177 428.925 929.764 427.183 929.764C425.441 929.764 424.076 931.177 424.076 932.921C424.076 934.664 425.488 936.077 427.183 936.077C428.925 936.077 430.337 934.664 430.337 932.921Z" fill="#3C3C3B"/>
<path opacity="0.5885" d="M479.344 932.921C479.344 931.177 477.932 929.764 476.237 929.764C474.495 929.764 473.13 931.177 473.13 932.921C473.13 934.664 474.542 936.077 476.237 936.077C477.932 936.077 479.344 934.664 479.344 932.921Z" fill="#3C3C3B"/>
<path opacity="0.8858" d="M209.733 804.311C209.733 802.568 208.32 801.155 206.626 801.155C204.884 801.155 203.519 802.568 203.519 804.311C203.519 806.054 204.931 807.467 206.626 807.467C208.368 807.467 209.733 806.054 209.733 804.311Z" fill="#3C3C3B"/>
<path opacity="0.5875" d="M307.794 804.311C307.794 802.568 306.382 801.155 304.687 801.155C302.945 801.155 301.58 802.568 301.58 804.311C301.58 806.054 302.992 807.467 304.687 807.467C306.382 807.467 307.794 806.054 307.794 804.311Z" fill="#3C3C3B"/>
<path opacity="0.9745" d="M454.865 775.762C454.865 774.019 453.452 772.606 451.757 772.606C450.016 772.606 448.65 774.019 448.65 775.762C448.65 777.505 450.063 778.919 451.757 778.919C453.452 778.919 454.865 777.505 454.865 775.762Z" fill="#3C3C3B"/>
<path opacity="0.6677" d="M258.788 661.474C258.788 659.731 257.375 658.318 255.634 658.318C253.892 658.318 252.526 659.731 252.526 661.474C252.526 663.217 253.939 664.63 255.634 664.63C257.375 664.63 258.788 663.217 258.788 661.474Z" fill="#3C3C3B"/>
<path opacity="0.779" d="M258.788 775.762C258.788 774.019 257.375 772.606 255.634 772.606C253.892 772.606 252.526 774.019 252.526 775.762C252.526 777.505 253.939 778.919 255.634 778.919C257.375 778.919 258.788 777.505 258.788 775.762Z" fill="#3C3C3B"/>
</g>
<defs>
<clipPath id="clip0_2011_1234">
<rect width="742" height="344" fill="white" transform="matrix(-1 0 0 1 1924 0)"/>
</clipPath>
<clipPath id="clip1_2011_1234">
<rect width="749" height="348" fill="white" transform="matrix(1 0 0 -1 -248 952)"/>
</clipPath>
</defs>
</svg>
