<svg width="569" height="569" viewBox="0 0 569 569" fill="none" xmlns="http://www.w3.org/2000/svg">
<g filter="url(#filter0_ii_2010_1232)">
<path d="M274.5 5.7735C280.688 2.20085 288.312 2.20085 294.5 5.7735L520.884 136.477C527.072 140.049 530.884 146.652 530.884 153.797V415.203C530.884 422.348 527.072 428.951 520.884 432.523L294.5 563.227C288.312 566.799 280.688 566.799 274.5 563.227L48.1158 432.523C41.9277 428.951 38.1158 422.348 38.1158 415.203V153.797C38.1158 146.652 41.9277 140.049 48.1158 136.477L274.5 5.7735Z" fill="url(#paint0_linear_2010_1232)"/>
</g>
<g filter="url(#filter1_d_2010_1232)">
<path d="M402 319.249C402 351.955 391.846 377.393 372.262 394.836C352.679 412.279 322.941 421 284.5 421C246.059 421 216.321 412.279 196.738 394.836C177.154 377.393 167 351.955 167 319.976V147L235.904 194.968V316.342C235.904 334.512 239.531 348.321 247.509 357.769C255.488 366.491 267.818 371.578 285.225 371.578C302.633 371.578 314.963 367.217 322.941 358.496C330.92 349.775 334.546 335.966 334.546 317.069V194.968L402 147V319.249Z" fill="white"/>
</g>
<defs>
<filter id="filter0_ii_2010_1232" x="38.1162" y="-0.906006" width="492.768" height="570.812" filterUnits="userSpaceOnUse" color-interpolation-filters="sRGB">
<feFlood flood-opacity="0" result="BackgroundImageFix"/>
<feBlend mode="normal" in="SourceGraphic" in2="BackgroundImageFix" result="shape"/>
<feColorMatrix in="SourceAlpha" type="matrix" values="0 0 0 0 0 0 0 0 0 0 0 0 0 0 0 0 0 0 127 0" result="hardAlpha"/>
<feOffset dy="10"/>
<feGaussianBlur stdDeviation="2"/>
<feComposite in2="hardAlpha" operator="arithmetic" k2="-1" k3="1"/>
<feColorMatrix type="matrix" values="0 0 0 0 0.212813 0 0 0 0 0.796078 0 0 0 0 0.181285 0 0 0 0.6 0"/>
<feBlend mode="normal" in2="shape" result="effect1_innerShadow_2010_1232"/>
<feColorMatrix in="SourceAlpha" type="matrix" values="0 0 0 0 0 0 0 0 0 0 0 0 0 0 0 0 0 0 127 0" result="hardAlpha"/>
<feOffset dy="-10"/>
<feGaussianBlur stdDeviation="2"/>
<feComposite in2="hardAlpha" operator="arithmetic" k2="-1" k3="1"/>
<feColorMatrix type="matrix" values="0 0 0 0 0.14902 0 0 0 0 0.54902 0 0 0 0 0.12549 0 0 0 0.5 0"/>
<feBlend mode="normal" in2="effect1_innerShadow_2010_1232" result="effect2_innerShadow_2010_1232"/>
</filter>
<filter id="filter1_d_2010_1232" x="157" y="147" width="295" height="334" filterUnits="userSpaceOnUse" color-interpolation-filters="sRGB">
<feFlood flood-opacity="0" result="BackgroundImageFix"/>
<feColorMatrix in="SourceAlpha" type="matrix" values="0 0 0 0 0 0 0 0 0 0 0 0 0 0 0 0 0 0 127 0" result="hardAlpha"/>
<feOffset dx="20" dy="30"/>
<feGaussianBlur stdDeviation="15"/>
<feComposite in2="hardAlpha" operator="out"/>
<feColorMatrix type="matrix" values="0 0 0 0 0.212813 0 0 0 0 0.796078 0 0 0 0 0.181285 0 0 0 0.7 0"/>
<feBlend mode="color-dodge" in2="BackgroundImageFix" result="effect1_dropShadow_2010_1232"/>
<feBlend mode="normal" in="SourceGraphic" in2="effect1_dropShadow_2010_1232" result="shape"/>
</filter>
<linearGradient id="paint0_linear_2010_1232" x1="169" y1="68" x2="417" y2="482" gradientUnits="userSpaceOnUse">
<stop stop-color="#268C20"/>
<stop offset="0.557241" stop-color="#33CE62"/>
<stop offset="1" stop-color="#36CB2E"/>
</linearGradient>
</defs>
</svg>
