<svg width="30" height="30" viewBox="0 0 30 30" fill="none" xmlns="http://www.w3.org/2000/svg">
<g clip-path="url(#clip0_138_531)">
<path d="M2.5 24.3625V17.65C1.3575 16.7325 0.625 15.3263 0.625 13.75C0.625 10.9925 2.8675 8.75 5.625 8.75C8.3825 8.75 10.625 10.9925 10.625 13.75C10.625 15.3263 9.8925 16.7325 8.75 17.65V24.3625L5.625 21.2375L2.5 24.3625ZM23.75 0.7325V6.25H29.2675L23.75 0.7325ZM21.25 8.75V0H8.75C6.67875 0 5 1.67875 5 3.75V6.27625C5.20625 6.25875 5.415 6.25 5.625 6.25C9.76 6.25 13.125 9.61375 13.125 13.75C13.125 14.1763 13.0888 14.5938 13.02 15H23.75V17.5H12.1187C11.8687 17.9312 11.5775 18.3337 11.25 18.705V20H23.75V22.5H11.25V26.25H7.1025L5 24.1475V30H30V8.75H21.25Z" fill="black"/>
<path d="M2.5 24.3625V17.65C1.3575 16.7325 0.625 15.3263 0.625 13.75C0.625 10.9925 2.8675 8.75 5.625 8.75C8.3825 8.75 10.625 10.9925 10.625 13.75C10.625 15.3263 9.8925 16.7325 8.75 17.65V24.3625L5.625 21.2375L2.5 24.3625ZM23.75 0.7325V6.25H29.2675L23.75 0.7325ZM21.25 8.75V0H8.75C6.67875 0 5 1.67875 5 3.75V6.27625C5.20625 6.25875 5.415 6.25 5.625 6.25C9.76 6.25 13.125 9.61375 13.125 13.75C13.125 14.1763 13.0888 14.5938 13.02 15H23.75V17.5H12.1187C11.8687 17.9312 11.5775 18.3337 11.25 18.705V20H23.75V22.5H11.25V26.25H7.1025L5 24.1475V30H30V8.75H21.25Z" fill="url(#paint0_linear_138_531)"/>
</g>
<defs>
<linearGradient id="paint0_linear_138_531" x1="15.3125" y1="0" x2="15.3125" y2="30" gradientUnits="userSpaceOnUse">
<stop stop-color="#279428"/>
<stop offset="1" stop-color="#4ADE4F"/>
</linearGradient>
<clipPath id="clip0_138_531">
<rect width="30" height="30" fill="white"/>
</clipPath>
</defs>
</svg>
