<svg width="30" height="30" viewBox="0 0 30 30" fill="none" xmlns="http://www.w3.org/2000/svg">
<g clip-path="url(#clip0_138_525)">
<path d="M28.75 13.75C28.4185 13.75 28.1005 13.6183 27.8661 13.3839C27.6317 13.1495 27.5 12.8315 27.5 12.5C27.4974 9.84865 26.4429 7.30665 24.5681 5.43186C22.6934 3.55707 20.1514 2.50265 17.5 2.5C17.1685 2.5 16.8505 2.36831 16.6161 2.13389C16.3817 1.89947 16.25 1.58152 16.25 1.25C16.25 0.918482 16.3817 0.600539 16.6161 0.366119C16.8505 0.131698 17.1685 2.31643e-06 17.5 2.31643e-06C20.8141 0.00364181 23.9914 1.32177 26.3348 3.66519C28.6782 6.0086 29.9964 9.18591 30 12.5C30 12.8315 29.8683 13.1495 29.6339 13.3839C29.3995 13.6183 29.0815 13.75 28.75 13.75ZM25 12.5C25 10.5109 24.2098 8.60322 22.8033 7.1967C21.3968 5.79018 19.4891 5 17.5 5C17.1685 5 16.8505 5.1317 16.6161 5.36612C16.3817 5.60054 16.25 5.91848 16.25 6.25C16.25 6.58152 16.3817 6.89947 16.6161 7.13389C16.8505 7.36831 17.1685 7.5 17.5 7.5C18.8261 7.5 20.0979 8.02679 21.0355 8.96447C21.9732 9.90215 22.5 11.1739 22.5 12.5C22.5 12.8315 22.6317 13.1495 22.8661 13.3839C23.1005 13.6183 23.4185 13.75 23.75 13.75C24.0815 13.75 24.3995 13.6183 24.6339 13.3839C24.8683 13.1495 25 12.8315 25 12.5ZM27.7288 27.705L28.8663 26.3938C29.5903 25.6674 29.9968 24.6837 29.9968 23.6581C29.9968 22.6326 29.5903 21.6488 28.8663 20.9225C28.8275 20.8838 25.82 18.57 25.82 18.57C25.0982 17.8829 24.1394 17.5003 23.1429 17.5017C22.1463 17.5031 21.1886 17.8884 20.4688 18.5775L18.0863 20.585C16.1415 19.7801 14.3749 18.599 12.8879 17.1094C11.4009 15.6198 10.2228 13.8512 9.42125 11.905L11.4213 9.53C12.1109 8.81022 12.4966 7.85235 12.4983 6.85551C12.4999 5.85866 12.1173 4.89954 11.43 4.1775C11.43 4.1775 9.11375 1.17375 9.075 1.135C8.36182 0.417188 7.39486 0.00877984 6.38304 -0.0019792C5.37122 -0.0127382 4.39579 0.375015 3.6675 1.0775L2.23 2.3275C-6.2625 12.18 12.025 30.3263 22.2025 30C23.2302 30.006 24.2487 29.8059 25.1979 29.4118C26.147 29.0176 27.0076 28.4373 27.7288 27.705Z" fill="url(#paint0_linear_138_525)"/>
</g>
<defs>
<linearGradient id="paint0_linear_138_525" x1="15.0218" y1="-0.00219727" x2="15.0218" y2="30.0043" gradientUnits="userSpaceOnUse">
<stop stop-color="#279428"/>
<stop offset="1" stop-color="#4ADE4F"/>
</linearGradient>
<clipPath id="clip0_138_525">
<rect width="30" height="30" fill="white"/>
</clipPath>
</defs>
</svg>
