<svg width="30" height="30" viewBox="0 0 30 30" fill="none" xmlns="http://www.w3.org/2000/svg">
<g clip-path="url(#clip0_138_537)">
<path d="M6.1775 25C6.91125 29.9425 -0.6625 29.94 0.0725 25H6.1775ZM28 8.81375C27.7514 8.06818 27.2748 7.41956 26.6376 6.95952C26.0003 6.49949 25.2347 6.2513 24.4487 6.25H20V13.75H29.6513L28 8.81375ZM8.8225 25C8.08875 29.9425 15.6625 29.94 14.9275 25H8.8225ZM13.75 1.25H3.75C2.75544 1.25 1.80161 1.64509 1.09835 2.34835C0.395088 3.05161 0 4.00544 0 5L0 22.5H17.5V5C17.5 4.00544 17.1049 3.05161 16.4017 2.34835C15.6984 1.64509 14.7446 1.25 13.75 1.25ZM30 16.25H20V22.5H30V16.25ZM21.3225 25C20.5888 29.9425 28.1625 29.94 27.4275 25H21.3225Z" fill="black"/>
<path d="M6.1775 25C6.91125 29.9425 -0.6625 29.94 0.0725 25H6.1775ZM28 8.81375C27.7514 8.06818 27.2748 7.41956 26.6376 6.95952C26.0003 6.49949 25.2347 6.2513 24.4487 6.25H20V13.75H29.6513L28 8.81375ZM8.8225 25C8.08875 29.9425 15.6625 29.94 14.9275 25H8.8225ZM13.75 1.25H3.75C2.75544 1.25 1.80161 1.64509 1.09835 2.34835C0.395088 3.05161 0 4.00544 0 5L0 22.5H17.5V5C17.5 4.00544 17.1049 3.05161 16.4017 2.34835C15.6984 1.64509 14.7446 1.25 13.75 1.25ZM30 16.25H20V22.5H30V16.25ZM21.3225 25C20.5888 29.9425 28.1625 29.94 27.4275 25H21.3225Z" fill="url(#paint0_linear_138_537)"/>
</g>
<defs>
<linearGradient id="paint0_linear_138_537" x1="15" y1="1.25" x2="15" y2="28.7059" gradientUnits="userSpaceOnUse">
<stop stop-color="#279428"/>
<stop offset="1" stop-color="#4ADE4F"/>
</linearGradient>
<clipPath id="clip0_138_537">
<rect width="30" height="30" fill="white"/>
</clipPath>
</defs>
</svg>
