<svg width="30" height="30" viewBox="0 0 30 30" fill="none" xmlns="http://www.w3.org/2000/svg">
<g clip-path="url(#clip0_138_516)">
<path d="M11.555 9.78758C12.5765 9.11098 13.7747 8.75018 15 8.75018C16.2253 8.75018 17.4235 9.11098 18.445 9.78758L24.68 3.55258C21.976 1.25914 18.5456 0.000244141 15 0.000244141C11.4544 0.000244141 8.02396 1.25914 5.32 3.55258L11.555 9.78758Z" fill="black"/>
<path d="M11.555 9.78758C12.5765 9.11098 13.7747 8.75018 15 8.75018C16.2253 8.75018 17.4235 9.11098 18.445 9.78758L24.68 3.55258C21.976 1.25914 18.5456 0.000244141 15 0.000244141C11.4544 0.000244141 8.02396 1.25914 5.32 3.55258L11.555 9.78758Z" fill="url(#paint0_linear_138_516)"/>
<path d="M26.4475 5.32007L20.2125 11.5551C20.8891 12.5766 21.2499 13.7748 21.2499 15.0001C21.2499 16.2254 20.8891 17.4235 20.2125 18.4451L26.4475 24.6801C28.7409 21.9761 29.9998 18.5457 29.9998 15.0001C29.9998 11.4545 28.7409 8.02403 26.4475 5.32007Z" fill="black"/>
<path d="M26.4475 5.32007L20.2125 11.5551C20.8891 12.5766 21.2499 13.7748 21.2499 15.0001C21.2499 16.2254 20.8891 17.4235 20.2125 18.4451L26.4475 24.6801C28.7409 21.9761 29.9998 18.5457 29.9998 15.0001C29.9998 11.4545 28.7409 8.02403 26.4475 5.32007Z" fill="url(#paint1_linear_138_516)"/>
<path d="M18.445 20.2124C17.4235 20.889 16.2253 21.2498 15 21.2498C13.7747 21.2498 12.5765 20.889 11.555 20.2124L5.32 26.4474C8.02396 28.7409 11.4544 29.9997 15 29.9997C18.5456 29.9997 21.976 28.7409 24.68 26.4474L18.445 20.2124Z" fill="black"/>
<path d="M18.445 20.2124C17.4235 20.889 16.2253 21.2498 15 21.2498C13.7747 21.2498 12.5765 20.889 11.555 20.2124L5.32 26.4474C8.02396 28.7409 11.4544 29.9997 15 29.9997C18.5456 29.9997 21.976 28.7409 24.68 26.4474L18.445 20.2124Z" fill="url(#paint2_linear_138_516)"/>
<path d="M9.7875 18.4451C9.1109 17.4235 8.75009 16.2254 8.75009 15.0001C8.75009 13.7748 9.1109 12.5766 9.7875 11.5551L3.5525 5.32007C1.25905 8.02403 0.000160217 11.4545 0.000160217 15.0001C0.000160217 18.5457 1.25905 21.9761 3.5525 24.6801L9.7875 18.4451Z" fill="black"/>
<path d="M9.7875 18.4451C9.1109 17.4235 8.75009 16.2254 8.75009 15.0001C8.75009 13.7748 9.1109 12.5766 9.7875 11.5551L3.5525 5.32007C1.25905 8.02403 0.000160217 11.4545 0.000160217 15.0001C0.000160217 18.5457 1.25905 21.9761 3.5525 24.6801L9.7875 18.4451Z" fill="url(#paint3_linear_138_516)"/>
</g>
<defs>
<linearGradient id="paint0_linear_138_516" x1="15" y1="0.000244141" x2="15" y2="9.78758" gradientUnits="userSpaceOnUse">
<stop stop-color="#279428"/>
<stop offset="1" stop-color="#4ADE4F"/>
</linearGradient>
<linearGradient id="paint1_linear_138_516" x1="25.1062" y1="5.32007" x2="25.1062" y2="24.6801" gradientUnits="userSpaceOnUse">
<stop stop-color="#279428"/>
<stop offset="1" stop-color="#4ADE4F"/>
</linearGradient>
<linearGradient id="paint2_linear_138_516" x1="15" y1="20.2124" x2="15" y2="29.9997" gradientUnits="userSpaceOnUse">
<stop stop-color="#279428"/>
<stop offset="1" stop-color="#4ADE4F"/>
</linearGradient>
<linearGradient id="paint3_linear_138_516" x1="4.89383" y1="5.32007" x2="4.89383" y2="24.6801" gradientUnits="userSpaceOnUse">
<stop stop-color="#279428"/>
<stop offset="1" stop-color="#4ADE4F"/>
</linearGradient>
<clipPath id="clip0_138_516">
<rect width="30" height="30" fill="white"/>
</clipPath>
</defs>
</svg>
