<svg width="30" height="30" viewBox="0 0 30 30" fill="none" xmlns="http://www.w3.org/2000/svg">
<g clip-path="url(#clip0_138_510)">
<path d="M26.25 7.5H6.25C5.17625 7.5 4.16 7.035 3.45625 6.25125C4.14375 5.48375 5.1425 5 6.25 5H28.75C30.385 4.9925 30.3838 2.50625 28.75 2.5H6.25C2.79875 2.5 0 5.29875 0 8.75V21.25C0 24.7013 2.79875 27.5 6.25 27.5H26.25C28.3212 27.5 30 25.8212 30 23.75V11.25C30 9.17875 28.3212 7.5 26.25 7.5ZM25 18.75C23.365 18.7425 23.365 16.2575 25 16.25C26.635 16.2575 26.635 18.7425 25 18.75Z" fill="black"/>
<path d="M26.25 7.5H6.25C5.17625 7.5 4.16 7.035 3.45625 6.25125C4.14375 5.48375 5.1425 5 6.25 5H28.75C30.385 4.9925 30.3838 2.50625 28.75 2.5H6.25C2.79875 2.5 0 5.29875 0 8.75V21.25C0 24.7013 2.79875 27.5 6.25 27.5H26.25C28.3212 27.5 30 25.8212 30 23.75V11.25C30 9.17875 28.3212 7.5 26.25 7.5ZM25 18.75C23.365 18.7425 23.365 16.2575 25 16.25C26.635 16.2575 26.635 18.7425 25 18.75Z" fill="url(#paint0_linear_138_510)"/>
</g>
<defs>
<linearGradient id="paint0_linear_138_510" x1="15" y1="2.5" x2="15" y2="27.5" gradientUnits="userSpaceOnUse">
<stop stop-color="#279428"/>
<stop offset="1" stop-color="#4ADE4F"/>
</linearGradient>
<clipPath id="clip0_138_510">
<rect width="30" height="30" fill="white"/>
</clipPath>
</defs>
</svg>
