<svg width="38" height="39" viewBox="0 0 38 39" fill="none" xmlns="http://www.w3.org/2000/svg">
<g clip-path="url(#clip0_286_1238)">
<path d="M17.5083 0.60144C16.4173 0.868629 15.4302 1.43269 14.636 2.24168C13.8642 3.02839 13.4263 3.778 13.0849 4.88386L12.8771 5.53699L12.8548 12.7733L12.8325 20.0096L12.5282 20.2323C12.0606 20.5811 10.9845 21.7389 10.5614 22.355C9.75244 23.5276 9.11416 25.0936 8.87666 26.4964C8.7208 27.4093 8.7208 29.0124 8.87666 29.9253C9.21807 31.9366 10.1458 33.7772 11.5634 35.2764C12.9513 36.7385 14.5618 37.6737 16.5954 38.2081C17.3599 38.4085 17.486 38.4159 19.0001 38.4159C20.4845 38.4159 20.6478 38.401 21.3825 38.2155C25.472 37.1764 28.4259 34.0073 29.1235 29.9253C29.2794 29.0124 29.2794 27.4093 29.1235 26.4964C28.8786 25.0714 28.2626 23.5573 27.4462 22.3624C27.0157 21.7389 25.9396 20.5811 25.472 20.2323L25.1677 20.0096L25.1454 12.7733L25.1231 5.53699L24.9153 4.88386C24.5739 3.79285 24.136 3.03582 23.4013 2.28621C22.5478 1.41785 21.6052 0.876049 20.4622 0.60144C19.6532 0.408474 18.3024 0.408474 17.5083 0.60144ZM20.3806 3.64441C21.3157 4.10456 21.9985 4.99519 22.1915 6.01199C22.236 6.26433 22.2657 9.14402 22.2657 13.9534L22.2731 21.494L22.9856 22.0135C23.9134 22.6889 24.5962 23.3718 25.1157 24.1436C25.5907 24.871 25.8282 25.3757 26.1028 26.2737C26.2884 26.86 26.3032 27.0159 26.3032 28.2108C26.3032 29.4057 26.2884 29.5616 26.1028 30.1776C25.4794 32.2409 24.0989 33.896 22.2286 34.8163C21.3306 35.2542 20.5513 35.4768 19.6606 35.551C18.2356 35.6624 17.0407 35.4397 15.7716 34.8163C13.9013 33.896 12.5356 32.2632 11.8974 30.1776C11.7118 29.5616 11.697 29.4132 11.697 28.2108C11.697 27.0159 11.7118 26.86 11.8974 26.2737C12.454 24.4553 13.3595 23.2159 15.0146 22.0135L15.7271 21.494L15.7345 13.9534C15.7345 9.20339 15.7642 6.26433 15.8087 6.01941C15.972 5.15105 16.4915 4.35691 17.1966 3.88933C17.8497 3.45144 18.2579 3.34011 19.1188 3.36238C19.7942 3.38464 19.913 3.41433 20.3806 3.64441Z" fill="black"/>
<path d="M17.5083 0.60144C16.4173 0.868629 15.4302 1.43269 14.636 2.24168C13.8642 3.02839 13.4263 3.778 13.0849 4.88386L12.8771 5.53699L12.8548 12.7733L12.8325 20.0096L12.5282 20.2323C12.0606 20.5811 10.9845 21.7389 10.5614 22.355C9.75244 23.5276 9.11416 25.0936 8.87666 26.4964C8.7208 27.4093 8.7208 29.0124 8.87666 29.9253C9.21807 31.9366 10.1458 33.7772 11.5634 35.2764C12.9513 36.7385 14.5618 37.6737 16.5954 38.2081C17.3599 38.4085 17.486 38.4159 19.0001 38.4159C20.4845 38.4159 20.6478 38.401 21.3825 38.2155C25.472 37.1764 28.4259 34.0073 29.1235 29.9253C29.2794 29.0124 29.2794 27.4093 29.1235 26.4964C28.8786 25.0714 28.2626 23.5573 27.4462 22.3624C27.0157 21.7389 25.9396 20.5811 25.472 20.2323L25.1677 20.0096L25.1454 12.7733L25.1231 5.53699L24.9153 4.88386C24.5739 3.79285 24.136 3.03582 23.4013 2.28621C22.5478 1.41785 21.6052 0.876049 20.4622 0.60144C19.6532 0.408474 18.3024 0.408474 17.5083 0.60144ZM20.3806 3.64441C21.3157 4.10456 21.9985 4.99519 22.1915 6.01199C22.236 6.26433 22.2657 9.14402 22.2657 13.9534L22.2731 21.494L22.9856 22.0135C23.9134 22.6889 24.5962 23.3718 25.1157 24.1436C25.5907 24.871 25.8282 25.3757 26.1028 26.2737C26.2884 26.86 26.3032 27.0159 26.3032 28.2108C26.3032 29.4057 26.2884 29.5616 26.1028 30.1776C25.4794 32.2409 24.0989 33.896 22.2286 34.8163C21.3306 35.2542 20.5513 35.4768 19.6606 35.551C18.2356 35.6624 17.0407 35.4397 15.7716 34.8163C13.9013 33.896 12.5356 32.2632 11.8974 30.1776C11.7118 29.5616 11.697 29.4132 11.697 28.2108C11.697 27.0159 11.7118 26.86 11.8974 26.2737C12.454 24.4553 13.3595 23.2159 15.0146 22.0135L15.7271 21.494L15.7345 13.9534C15.7345 9.20339 15.7642 6.26433 15.8087 6.01941C15.972 5.15105 16.4915 4.35691 17.1966 3.88933C17.8497 3.45144 18.2579 3.34011 19.1188 3.36238C19.7942 3.38464 19.913 3.41433 20.3806 3.64441Z" fill="url(#paint0_linear_286_1238)"/>
<path d="M18.3172 10.3983C18.1687 10.4799 17.9684 10.6506 17.8719 10.7842L17.7012 11.0292L17.6789 17.0112L17.6641 22.9932L17.1965 23.1639C15.6602 23.7131 14.4207 24.9823 13.8937 26.5557C13.723 27.0753 13.7008 27.2534 13.6934 28.2108C13.6934 29.146 13.7156 29.3538 13.8641 29.7991C14.3687 31.3057 15.2742 32.3522 16.6844 33.0647C17.9832 33.7253 20.0168 33.7253 21.3156 33.0647C22.7258 32.3522 23.6312 31.3057 24.1359 29.7991C24.2844 29.3538 24.3066 29.146 24.3066 28.2108C24.2992 27.2534 24.277 27.0753 24.1062 26.5557C23.5793 24.9823 22.3398 23.7131 20.8035 23.1639L20.3359 22.9932V17.0854V11.1776L20.1652 10.8807C19.8312 10.2944 18.9555 10.0643 18.3172 10.3983Z" fill="black"/>
<path d="M18.3172 10.3983C18.1687 10.4799 17.9684 10.6506 17.8719 10.7842L17.7012 11.0292L17.6789 17.0112L17.6641 22.9932L17.1965 23.1639C15.6602 23.7131 14.4207 24.9823 13.8937 26.5557C13.723 27.0753 13.7008 27.2534 13.6934 28.2108C13.6934 29.146 13.7156 29.3538 13.8641 29.7991C14.3687 31.3057 15.2742 32.3522 16.6844 33.0647C17.9832 33.7253 20.0168 33.7253 21.3156 33.0647C22.7258 32.3522 23.6312 31.3057 24.1359 29.7991C24.2844 29.3538 24.3066 29.146 24.3066 28.2108C24.2992 27.2534 24.277 27.0753 24.1062 26.5557C23.5793 24.9823 22.3398 23.7131 20.8035 23.1639L20.3359 22.9932V17.0854V11.1776L20.1652 10.8807C19.8312 10.2944 18.9555 10.0643 18.3172 10.3983Z" fill="url(#paint1_linear_286_1238)"/>
<path d="M27.3801 5.3737C27.0684 5.58151 26.8086 5.96003 26.7493 6.28659C26.6528 6.82097 26.8977 7.38503 27.3801 7.70417L27.6325 7.87487H30.7422C34.2157 7.87487 34.186 7.88229 34.5719 7.37018C34.7501 7.14011 34.7723 7.04362 34.7723 6.53893C34.7723 6.03425 34.7501 5.93776 34.5719 5.70768C34.186 5.19557 34.2157 5.203 30.7422 5.203H27.6325L27.3801 5.3737Z" fill="black"/>
<path d="M27.3801 5.3737C27.0684 5.58151 26.8086 5.96003 26.7493 6.28659C26.6528 6.82097 26.8977 7.38503 27.3801 7.70417L27.6325 7.87487H30.7422C34.2157 7.87487 34.186 7.88229 34.5719 7.37018C34.7501 7.14011 34.7723 7.04362 34.7723 6.53893C34.7723 6.03425 34.7501 5.93776 34.5719 5.70768C34.186 5.19557 34.2157 5.203 30.7422 5.203H27.6325L27.3801 5.3737Z" fill="url(#paint2_linear_286_1238)"/>
<path d="M27.4975 11.0366C27.1636 11.2073 27.0077 11.3706 26.8593 11.6971C26.5995 12.2538 26.7554 12.9143 27.2304 13.3151C27.5866 13.612 27.8983 13.6639 29.4272 13.6639C31.2753 13.6639 31.6686 13.5526 31.9878 12.9218C32.3218 12.2686 32.0843 11.4225 31.4831 11.0811C31.2011 10.9253 31.112 10.9178 29.4569 10.9178C28.0245 10.9178 27.6831 10.9401 27.4975 11.0366Z" fill="black"/>
<path d="M27.4975 11.0366C27.1636 11.2073 27.0077 11.3706 26.8593 11.6971C26.5995 12.2538 26.7554 12.9143 27.2304 13.3151C27.5866 13.612 27.8983 13.6639 29.4272 13.6639C31.2753 13.6639 31.6686 13.5526 31.9878 12.9218C32.3218 12.2686 32.0843 11.4225 31.4831 11.0811C31.2011 10.9253 31.112 10.9178 29.4569 10.9178C28.0245 10.9178 27.6831 10.9401 27.4975 11.0366Z" fill="url(#paint3_linear_286_1238)"/>
<path d="M27.4244 16.8034C26.3853 17.3897 26.5857 18.978 27.7361 19.2972C28.1146 19.4011 33.4881 19.4085 33.8592 19.3046C34.1857 19.2081 34.5494 18.9187 34.6978 18.6292C34.7572 18.5179 34.8092 18.2284 34.8092 17.9983C34.8092 17.4343 34.5642 17.0038 34.1189 16.7886C33.8072 16.6401 33.6959 16.6327 30.7568 16.6327C27.7435 16.6327 27.7213 16.6401 27.4244 16.8034Z" fill="black"/>
<path d="M27.4244 16.8034C26.3853 17.3897 26.5857 18.978 27.7361 19.2972C28.1146 19.4011 33.4881 19.4085 33.8592 19.3046C34.1857 19.2081 34.5494 18.9187 34.6978 18.6292C34.7572 18.5179 34.8092 18.2284 34.8092 17.9983C34.8092 17.4343 34.5642 17.0038 34.1189 16.7886C33.8072 16.6401 33.6959 16.6327 30.7568 16.6327C27.7435 16.6327 27.7213 16.6401 27.4244 16.8034Z" fill="url(#paint4_linear_286_1238)"/>
</g>
<defs>
<linearGradient id="paint0_linear_286_1238" x1="19.0001" y1="38.4159" x2="19.0001" y2="0.456715" gradientUnits="userSpaceOnUse">
<stop stop-color="#279428"/>
<stop offset="1" stop-color="#4ADE4F"/>
</linearGradient>
<linearGradient id="paint1_linear_286_1238" x1="19" y1="33.5601" x2="19" y2="10.2441" gradientUnits="userSpaceOnUse">
<stop stop-color="#279428"/>
<stop offset="1" stop-color="#4ADE4F"/>
</linearGradient>
<linearGradient id="paint2_linear_286_1238" x1="30.7504" y1="7.87488" x2="30.7504" y2="5.20299" gradientUnits="userSpaceOnUse">
<stop stop-color="#279428"/>
<stop offset="1" stop-color="#4ADE4F"/>
</linearGradient>
<linearGradient id="paint3_linear_286_1238" x1="29.4371" y1="13.6639" x2="29.4371" y2="10.9178" gradientUnits="userSpaceOnUse">
<stop stop-color="#279428"/>
<stop offset="1" stop-color="#4ADE4F"/>
</linearGradient>
<linearGradient id="paint4_linear_286_1238" x1="30.7786" y1="19.3789" x2="30.7786" y2="16.6327" gradientUnits="userSpaceOnUse">
<stop stop-color="#279428"/>
<stop offset="1" stop-color="#4ADE4F"/>
</linearGradient>
<clipPath id="clip0_286_1238">
<rect width="38" height="38" fill="white" transform="translate(0 0.453003)"/>
</clipPath>
</defs>
</svg>
