<svg width="36" height="37" viewBox="0 0 36 37" fill="none" xmlns="http://www.w3.org/2000/svg">
<path d="M15.8358 0.529982C12.5912 0.895682 9.24809 2.30925 6.61584 4.41906C5.7783 5.0942 4.2088 6.71172 3.57537 7.55565C2.09736 9.5248 1.0346 11.7612 0.457478 14.1031C0.056305 15.7347 0 16.2762 0 18.4141C0 20.4817 0.0422288 20.9248 0.365982 22.3876C1.62581 28.1052 5.79238 33.0281 11.2047 35.1801C13.471 36.0803 15.4628 36.453 17.9824 36.453C20.9525 36.453 23.5073 35.8623 26.034 34.5964C27.9484 33.6329 29.4123 32.5569 30.9326 30.9956C33.6985 28.1474 35.4088 24.5959 35.8944 20.6998C36.0352 19.5534 36.0352 17.3452 35.8944 16.1988C35.4792 12.8583 34.0856 9.61623 31.9531 7.02116C31.2141 6.12098 29.7431 4.70037 28.8845 4.05336C26.3578 2.15454 23.3525 0.937878 20.2346 0.55108C19.2704 0.431524 16.793 0.417459 15.8358 0.529982ZM19.3267 3.82128C25.3584 4.4261 30.4399 8.62462 32.0938 14.3633C32.5091 15.812 32.6499 16.8177 32.6499 18.4141C32.6569 20.8685 32.2276 22.7463 31.1789 24.8912C30.461 26.354 29.6657 27.4722 28.3284 28.8788L27.6739 29.568L26.1326 28.0349L24.5982 26.5017L26.0411 25.06L26.8364 25.8477L27.6317 26.6424L27.8428 26.3962C28.5818 25.5383 29.5038 23.8926 29.9331 22.6619C30.1865 21.9445 30.4821 20.6435 30.5525 19.9754L30.6018 19.5042H28.3988V17.3944H30.6018L30.5525 16.9162C30.4821 16.2692 30.2569 15.2424 30.0106 14.4758C29.6023 13.2381 28.5959 11.3885 27.8428 10.5023L27.6317 10.2562L26.8364 11.0439L26.0411 11.8386L25.3161 11.1212L24.5982 10.3969L25.3935 9.60216L26.1818 8.80747L25.9355 8.59649C25.1754 7.94948 23.7114 7.10555 22.5501 6.64843C21.6352 6.28273 19.8545 5.86077 19.2422 5.86077H19.0381V8.0409H16.9267V5.83967L16.4551 5.8889C15.7935 5.95922 14.7589 6.1913 14.0059 6.43745C12.739 6.85238 10.9161 7.84399 10.0293 8.59649L9.78299 8.80747L10.5713 9.60216L11.3666 10.3969L10.6487 11.1212L9.92375 11.8386L9.12845 11.0439L8.33314 10.2562L8.12199 10.5023C7.47449 11.2619 6.62991 12.7247 6.17243 13.8851C5.80645 14.7993 5.38416 16.5786 5.38416 17.1904V17.3944H7.56598V19.5042H5.36305L5.41232 19.9754C5.47566 20.6435 5.7783 21.9445 6.03167 22.6619C6.44692 23.8645 7.39707 25.5523 8.12199 26.3962L8.33314 26.6424L9.12845 25.8477L9.92375 25.06L11.3666 26.5017L9.83226 28.0349L8.29091 29.568L7.63636 28.8788C6.79883 27.9997 6.27097 27.3457 5.75015 26.565C2.03402 21.0092 2.57595 13.6038 7.0522 8.66681C10.2264 5.17156 14.7941 3.37119 19.3267 3.82128ZM19.0381 15.1791L19.4815 15.383C20.4176 15.8191 21.1918 16.8669 21.3677 17.9429C21.6633 19.7152 20.3683 21.4945 18.5455 21.825C16.3214 22.2259 14.2311 20.1723 14.5971 17.9429C14.773 16.8669 15.5472 15.8191 16.4833 15.383L16.9267 15.1791V10.5023H19.0381V15.1791ZM22.4868 32.8663H13.478V26.1853H22.4868V32.8663Z" fill="black"/>
<path d="M15.8358 0.529982C12.5912 0.895682 9.24809 2.30925 6.61584 4.41906C5.7783 5.0942 4.2088 6.71172 3.57537 7.55565C2.09736 9.5248 1.0346 11.7612 0.457478 14.1031C0.056305 15.7347 0 16.2762 0 18.4141C0 20.4817 0.0422288 20.9248 0.365982 22.3876C1.62581 28.1052 5.79238 33.0281 11.2047 35.1801C13.471 36.0803 15.4628 36.453 17.9824 36.453C20.9525 36.453 23.5073 35.8623 26.034 34.5964C27.9484 33.6329 29.4123 32.5569 30.9326 30.9956C33.6985 28.1474 35.4088 24.5959 35.8944 20.6998C36.0352 19.5534 36.0352 17.3452 35.8944 16.1988C35.4792 12.8583 34.0856 9.61623 31.9531 7.02116C31.2141 6.12098 29.7431 4.70037 28.8845 4.05336C26.3578 2.15454 23.3525 0.937878 20.2346 0.55108C19.2704 0.431524 16.793 0.417459 15.8358 0.529982ZM19.3267 3.82128C25.3584 4.4261 30.4399 8.62462 32.0938 14.3633C32.5091 15.812 32.6499 16.8177 32.6499 18.4141C32.6569 20.8685 32.2276 22.7463 31.1789 24.8912C30.461 26.354 29.6657 27.4722 28.3284 28.8788L27.6739 29.568L26.1326 28.0349L24.5982 26.5017L26.0411 25.06L26.8364 25.8477L27.6317 26.6424L27.8428 26.3962C28.5818 25.5383 29.5038 23.8926 29.9331 22.6619C30.1865 21.9445 30.4821 20.6435 30.5525 19.9754L30.6018 19.5042H28.3988V17.3944H30.6018L30.5525 16.9162C30.4821 16.2692 30.2569 15.2424 30.0106 14.4758C29.6023 13.2381 28.5959 11.3885 27.8428 10.5023L27.6317 10.2562L26.8364 11.0439L26.0411 11.8386L25.3161 11.1212L24.5982 10.3969L25.3935 9.60216L26.1818 8.80747L25.9355 8.59649C25.1754 7.94948 23.7114 7.10555 22.5501 6.64843C21.6352 6.28273 19.8545 5.86077 19.2422 5.86077H19.0381V8.0409H16.9267V5.83967L16.4551 5.8889C15.7935 5.95922 14.7589 6.1913 14.0059 6.43745C12.739 6.85238 10.9161 7.84399 10.0293 8.59649L9.78299 8.80747L10.5713 9.60216L11.3666 10.3969L10.6487 11.1212L9.92375 11.8386L9.12845 11.0439L8.33314 10.2562L8.12199 10.5023C7.47449 11.2619 6.62991 12.7247 6.17243 13.8851C5.80645 14.7993 5.38416 16.5786 5.38416 17.1904V17.3944H7.56598V19.5042H5.36305L5.41232 19.9754C5.47566 20.6435 5.7783 21.9445 6.03167 22.6619C6.44692 23.8645 7.39707 25.5523 8.12199 26.3962L8.33314 26.6424L9.12845 25.8477L9.92375 25.06L11.3666 26.5017L9.83226 28.0349L8.29091 29.568L7.63636 28.8788C6.79883 27.9997 6.27097 27.3457 5.75015 26.565C2.03402 21.0092 2.57595 13.6038 7.0522 8.66681C10.2264 5.17156 14.7941 3.37119 19.3267 3.82128ZM19.0381 15.1791L19.4815 15.383C20.4176 15.8191 21.1918 16.8669 21.3677 17.9429C21.6633 19.7152 20.3683 21.4945 18.5455 21.825C16.3214 22.2259 14.2311 20.1723 14.5971 17.9429C14.773 16.8669 15.5472 15.8191 16.4833 15.383L16.9267 15.1791V10.5023H19.0381V15.1791ZM22.4868 32.8663H13.478V26.1853H22.4868V32.8663Z" fill="url(#paint0_linear_273_1243)"/>
<path d="M17.4897 17.1342C16.9408 17.31 16.5044 18.0414 16.5959 18.6251C16.6944 19.237 17.0534 19.6378 17.6516 19.7925C18.6862 20.0738 19.6153 19.1033 19.3197 18.0484C19.1015 17.2959 18.285 16.881 17.4897 17.1342Z" fill="black"/>
<path d="M17.4897 17.1342C16.9408 17.31 16.5044 18.0414 16.5959 18.6251C16.6944 19.237 17.0534 19.6378 17.6516 19.7925C18.6862 20.0738 19.6153 19.1033 19.3197 18.0484C19.1015 17.2959 18.285 16.881 17.4897 17.1342Z" fill="url(#paint1_linear_273_1243)"/>
<path d="M15.5191 30.7565H20.4457V28.2247H15.5191V30.7565Z" fill="black"/>
<path d="M15.5191 30.7565H20.4457V28.2247H15.5191V30.7565Z" fill="url(#paint2_linear_273_1243)"/>
<defs>
<linearGradient id="paint0_linear_273_1243" x1="18" y1="0.453003" x2="18" y2="36.453" gradientUnits="userSpaceOnUse">
<stop stop-color="#279428"/>
<stop offset="1" stop-color="#4ADE4F"/>
</linearGradient>
<linearGradient id="paint1_linear_273_1243" x1="18" y1="0.453003" x2="18" y2="36.453" gradientUnits="userSpaceOnUse">
<stop stop-color="#279428"/>
<stop offset="1" stop-color="#4ADE4F"/>
</linearGradient>
<linearGradient id="paint2_linear_273_1243" x1="18" y1="0.453003" x2="18" y2="36.453" gradientUnits="userSpaceOnUse">
<stop stop-color="#279428"/>
<stop offset="1" stop-color="#4ADE4F"/>
</linearGradient>
</defs>
</svg>
