<svg width="36" height="37" viewBox="0 0 36 37" fill="none" xmlns="http://www.w3.org/2000/svg">
<path d="M15.7348 0.564144C12.3679 1.02819 9.32422 2.32893 6.68125 4.43823C5.91506 5.04993 4.59358 6.37176 3.98204 7.13814C2.18256 9.38806 0.868105 12.1723 0.326857 14.8722C-0.108952 17.0589 -0.108952 19.8572 0.326857 22.0439C0.868105 24.7508 2.18959 27.5421 3.98907 29.778C4.65684 30.6147 5.87992 31.831 6.75154 32.5201C9.19067 34.4606 11.9602 35.6981 15.0811 36.2535C16.1496 36.4434 18.659 36.5137 19.8399 36.3941C23.9449 35.9653 27.7899 34.1302 30.7281 31.1912C33.2024 28.7093 34.9527 25.4961 35.6415 22.1493C36.1195 19.815 36.1195 17.0589 35.6415 14.7527C35.0862 12.0739 33.7928 9.36696 32.0145 7.13814C31.3959 6.37176 30.0814 5.05696 29.3152 4.43823C27.0729 2.64532 24.2894 1.32349 21.5831 0.782108C19.9594 0.451649 17.2742 0.353214 15.7348 0.564144ZM18.3427 4.8179C19.0667 4.91634 19.6642 5.20461 20.1843 5.7249C20.9435 6.48425 21.1543 7.20141 21.1543 8.9662C21.1543 10.731 20.9435 11.4481 20.1843 12.2075C19.39 13.002 18.5606 13.227 16.6276 13.1707C15.5169 13.1426 15.299 13.0653 15.0249 12.6223C14.8703 12.3762 14.8703 12.3481 14.8703 8.9662C14.8703 5.8374 14.8773 5.53507 14.9968 5.33117C15.1374 5.06399 15.3764 4.89524 15.6997 4.8179C16.023 4.74056 17.7311 4.74056 18.3427 4.8179ZM5.88695 15.505C6.16811 15.6738 6.32979 15.9761 6.32979 16.3488C6.32979 16.6862 6.25247 16.862 5.95724 17.1714L5.73933 17.4034H10.4137L15.0811 17.3964L15.2498 17.0308C15.4959 16.5105 16.1285 15.8988 16.7119 15.6246C17.1618 15.4136 17.2321 15.3996 17.9982 15.3996C18.7644 15.3996 18.8347 15.4136 19.2846 15.6246C19.868 15.8988 20.5006 16.5105 20.7467 17.0308L20.9154 17.3964L25.5827 17.4034H30.2572L30.0392 17.1714C29.744 16.862 29.6667 16.6862 29.6667 16.3488C29.6667 15.9761 29.8284 15.6738 30.1095 15.505C30.3626 15.3503 30.8546 15.3222 31.0936 15.4418C31.3115 15.5542 33.5257 17.755 33.6452 17.9799C33.7788 18.2331 33.7717 18.7393 33.6312 18.9502C33.4414 19.2385 31.3326 21.3408 31.1288 21.4533C30.8617 21.5939 30.3766 21.5798 30.1095 21.4111C29.8284 21.2423 29.6667 20.94 29.6667 20.5674C29.6667 20.2299 29.744 20.0541 30.0392 19.7377L30.2572 19.5127H25.5827L20.9154 19.5197L20.7467 19.8853C20.5006 20.4056 19.868 21.0173 19.2846 21.2915C18.8347 21.5025 18.7644 21.5165 17.9982 21.5165C17.218 21.5165 17.1688 21.5095 16.6978 21.2775C16.1004 20.9822 15.4888 20.3986 15.2498 19.8853L15.0811 19.5197L10.4137 19.5127H5.73933L5.95724 19.7377C6.25247 20.0541 6.32979 20.2299 6.32979 20.5814C6.32979 20.947 6.13297 21.2915 5.84477 21.4462C5.59875 21.5728 5.12077 21.5869 4.90286 21.4744C4.68496 21.3619 2.47076 19.1612 2.35126 18.9362C2.29503 18.8307 2.25286 18.6198 2.25286 18.4581C2.25286 18.2963 2.29503 18.0854 2.35126 17.9799C2.46373 17.769 4.6709 15.5613 4.8888 15.4418C5.12077 15.3222 5.64093 15.3503 5.88695 15.505Z" fill="black"/>
<path d="M15.7348 0.564144C12.3679 1.02819 9.32422 2.32893 6.68125 4.43823C5.91506 5.04993 4.59358 6.37176 3.98204 7.13814C2.18256 9.38806 0.868105 12.1723 0.326857 14.8722C-0.108952 17.0589 -0.108952 19.8572 0.326857 22.0439C0.868105 24.7508 2.18959 27.5421 3.98907 29.778C4.65684 30.6147 5.87992 31.831 6.75154 32.5201C9.19067 34.4606 11.9602 35.6981 15.0811 36.2535C16.1496 36.4434 18.659 36.5137 19.8399 36.3941C23.9449 35.9653 27.7899 34.1302 30.7281 31.1912C33.2024 28.7093 34.9527 25.4961 35.6415 22.1493C36.1195 19.815 36.1195 17.0589 35.6415 14.7527C35.0862 12.0739 33.7928 9.36696 32.0145 7.13814C31.3959 6.37176 30.0814 5.05696 29.3152 4.43823C27.0729 2.64532 24.2894 1.32349 21.5831 0.782108C19.9594 0.451649 17.2742 0.353214 15.7348 0.564144ZM18.3427 4.8179C19.0667 4.91634 19.6642 5.20461 20.1843 5.7249C20.9435 6.48425 21.1543 7.20141 21.1543 8.9662C21.1543 10.731 20.9435 11.4481 20.1843 12.2075C19.39 13.002 18.5606 13.227 16.6276 13.1707C15.5169 13.1426 15.299 13.0653 15.0249 12.6223C14.8703 12.3762 14.8703 12.3481 14.8703 8.9662C14.8703 5.8374 14.8773 5.53507 14.9968 5.33117C15.1374 5.06399 15.3764 4.89524 15.6997 4.8179C16.023 4.74056 17.7311 4.74056 18.3427 4.8179ZM5.88695 15.505C6.16811 15.6738 6.32979 15.9761 6.32979 16.3488C6.32979 16.6862 6.25247 16.862 5.95724 17.1714L5.73933 17.4034H10.4137L15.0811 17.3964L15.2498 17.0308C15.4959 16.5105 16.1285 15.8988 16.7119 15.6246C17.1618 15.4136 17.2321 15.3996 17.9982 15.3996C18.7644 15.3996 18.8347 15.4136 19.2846 15.6246C19.868 15.8988 20.5006 16.5105 20.7467 17.0308L20.9154 17.3964L25.5827 17.4034H30.2572L30.0392 17.1714C29.744 16.862 29.6667 16.6862 29.6667 16.3488C29.6667 15.9761 29.8284 15.6738 30.1095 15.505C30.3626 15.3503 30.8546 15.3222 31.0936 15.4418C31.3115 15.5542 33.5257 17.755 33.6452 17.9799C33.7788 18.2331 33.7717 18.7393 33.6312 18.9502C33.4414 19.2385 31.3326 21.3408 31.1288 21.4533C30.8617 21.5939 30.3766 21.5798 30.1095 21.4111C29.8284 21.2423 29.6667 20.94 29.6667 20.5674C29.6667 20.2299 29.744 20.0541 30.0392 19.7377L30.2572 19.5127H25.5827L20.9154 19.5197L20.7467 19.8853C20.5006 20.4056 19.868 21.0173 19.2846 21.2915C18.8347 21.5025 18.7644 21.5165 17.9982 21.5165C17.218 21.5165 17.1688 21.5095 16.6978 21.2775C16.1004 20.9822 15.4888 20.3986 15.2498 19.8853L15.0811 19.5197L10.4137 19.5127H5.73933L5.95724 19.7377C6.25247 20.0541 6.32979 20.2299 6.32979 20.5814C6.32979 20.947 6.13297 21.2915 5.84477 21.4462C5.59875 21.5728 5.12077 21.5869 4.90286 21.4744C4.68496 21.3619 2.47076 19.1612 2.35126 18.9362C2.29503 18.8307 2.25286 18.6198 2.25286 18.4581C2.25286 18.2963 2.29503 18.0854 2.35126 17.9799C2.46373 17.769 4.6709 15.5613 4.8888 15.4418C5.12077 15.3222 5.64093 15.3503 5.88695 15.505Z" fill="url(#paint0_linear_286_1234)"/>
<path d="M16.9434 8.9662V11.0755H17.6676C18.455 11.0755 18.6589 10.9982 18.9191 10.6115C19.0386 10.4286 19.0527 10.2599 19.0527 8.9662C19.0527 7.67249 19.0386 7.50375 18.9191 7.32094C18.6589 6.93424 18.455 6.8569 17.6676 6.8569H16.9434V8.9662Z" fill="black"/>
<path d="M16.9434 8.9662V11.0755H17.6676C18.455 11.0755 18.6589 10.9982 18.9191 10.6115C19.0386 10.4286 19.0527 10.2599 19.0527 8.9662C19.0527 7.67249 19.0386 7.50375 18.9191 7.32094C18.6589 6.93424 18.455 6.8569 17.6676 6.8569H16.9434V8.9662Z" fill="url(#paint1_linear_286_1234)"/>
<defs>
<linearGradient id="paint0_linear_286_1234" x1="18" y1="36.453" x2="18" y2="0.453003" gradientUnits="userSpaceOnUse">
<stop stop-color="#279428"/>
<stop offset="1" stop-color="#4ADE4F"/>
</linearGradient>
<linearGradient id="paint1_linear_286_1234" x1="17.998" y1="11.0755" x2="17.998" y2="6.8569" gradientUnits="userSpaceOnUse">
<stop stop-color="#279428"/>
<stop offset="1" stop-color="#4ADE4F"/>
</linearGradient>
</defs>
</svg>
