<svg width="36" height="37" viewBox="0 0 36 37" fill="none" xmlns="http://www.w3.org/2000/svg">
<g clip-path="url(#clip0_255_1847)">
<path d="M19 26L27.6603 33.5H10.3397L19 26Z" fill="#D9D9D9"/>
<path d="M19 26L27.6603 33.5H10.3397L19 26Z" fill="url(#paint0_linear_255_1847)"/>
<rect x="36" y="21.453" width="34" height="6" transform="rotate(-180 36 21.453)" fill="#D9D9D9"/>
<rect x="36" y="21.453" width="34" height="6" transform="rotate(-180 36 21.453)" fill="url(#paint1_linear_255_1847)"/>
<path d="M19 11L27.6603 3.5H10.3397L19 11Z" fill="#D9D9D9"/>
<path d="M19 11L27.6603 3.5H10.3397L19 11Z" fill="url(#paint2_linear_255_1847)"/>
</g>
<defs>
<linearGradient id="paint0_linear_255_1847" x1="19" y1="26" x2="19" y2="36" gradientUnits="userSpaceOnUse">
<stop stop-color="#279428"/>
<stop offset="1" stop-color="#4ADE4F"/>
</linearGradient>
<linearGradient id="paint1_linear_255_1847" x1="53" y1="21.453" x2="53" y2="27.453" gradientUnits="userSpaceOnUse">
<stop stop-color="#279428"/>
<stop offset="1" stop-color="#4ADE4F"/>
</linearGradient>
<linearGradient id="paint2_linear_255_1847" x1="19" y1="11" x2="19" y2="1" gradientUnits="userSpaceOnUse">
<stop stop-color="#279428"/>
<stop offset="1" stop-color="#4ADE4F"/>
</linearGradient>
<clipPath id="clip0_255_1847">
<rect width="36" height="36" fill="white" transform="translate(36 0.453003) rotate(90)"/>
</clipPath>
</defs>
</svg>
