<svg width="124" height="30" viewBox="0 0 124 30" fill="none" xmlns="http://www.w3.org/2000/svg">
<g clip-path="url(#clip0_89_3007)">
<path d="M25.3476 18.8594C25.3476 22.4403 24.2524 25.2255 22.1401 27.1353C20.0278 29.0451 16.8202 30 12.6738 30C8.52744 30 5.31987 29.0451 3.20757 27.1353C1.09527 25.2255 0 22.4403 0 18.939V0L7.43218 5.25199V18.5411C7.43218 20.5305 7.82334 22.0424 8.68391 23.0769C9.54448 24.0318 10.8744 24.5889 12.752 24.5889C14.6297 24.5889 15.9596 24.1114 16.8202 23.1565C17.6808 22.2016 18.0719 20.6897 18.0719 18.6207V5.25199L25.3476 0V18.8594Z" fill="white"/>
<path d="M67.4372 21.4057C67.4372 23.9521 66.4202 26.0211 64.3079 27.6126C62.1956 29.2041 59.3009 29.9999 55.7022 29.9999C53.5899 29.9999 51.7905 29.8407 50.2259 29.4429C48.6612 29.045 47.1748 28.5675 45.8448 28.0105V21.8832H46.5489C47.8789 22.9972 49.3653 23.793 51.0864 24.4296C52.7293 24.9866 54.3722 25.3049 55.9369 25.3049C56.3281 25.3049 56.8757 25.3049 57.5016 25.2253C58.1274 25.1458 58.6751 25.0662 59.0662 24.907C59.5356 24.6683 60.005 24.4296 60.318 24.1113C60.6309 23.793 60.7874 23.3155 60.7874 22.7585C60.7874 22.2015 60.5527 21.724 60.0833 21.3261C59.6139 20.9283 58.9098 20.61 58.0492 20.3712C57.1104 20.1325 56.0934 19.8938 54.9981 19.7346C53.9028 19.4959 52.964 19.2572 52.0252 18.9389C49.9129 18.2227 48.3483 17.2678 47.4095 16.0742C46.4707 14.8805 46.0013 13.3686 46.0013 11.6179C46.0013 9.23065 47.0183 7.24126 49.1306 5.72932C51.2429 4.21739 53.9811 3.42163 57.2669 3.42163C58.9098 3.42163 60.5527 3.58078 62.1956 3.89908C63.8385 4.21739 65.2467 4.61526 66.4202 5.17229V11.0609H65.7161C64.699 10.2651 63.4473 9.54895 61.9609 8.99192C60.4744 8.43489 58.988 8.11659 57.4233 8.11659C56.8757 8.11659 56.3281 8.11659 55.7804 8.19617C55.2328 8.27574 54.7634 8.43489 54.2158 8.59404C53.7464 8.7532 53.4334 8.99192 53.0423 9.3898C52.7293 9.7081 52.5729 10.106 52.5729 10.5834C52.5729 11.2996 52.8076 11.7771 53.3552 12.1749C53.9028 12.5728 54.8416 12.8911 56.2498 13.1299C57.1886 13.289 58.0492 13.5277 58.9098 13.6869C59.7703 13.846 60.7091 14.1643 61.6479 14.4826C63.6038 15.1192 65.012 15.9946 65.9508 17.1086C66.9678 18.1431 67.4372 19.6551 67.4372 21.4057Z" fill="white"/>
<path d="M90.3596 20.9284H76.3558C76.434 22.4403 76.9817 23.6339 78.0769 24.4297C79.094 25.2255 80.6586 25.6233 82.6927 25.6233C84.0227 25.6233 85.1962 25.3846 86.4479 24.9071C87.6214 24.4297 88.6385 23.9522 89.3426 23.3952H90.0467V28.4085C88.6385 28.9655 87.3867 29.3634 86.135 29.6021C84.8832 29.8408 83.5533 30 82.0668 30C78.2334 30 75.3388 29.1247 73.3047 27.374C71.2706 25.6233 70.2536 23.1565 70.2536 19.8939C70.2536 16.7109 71.1924 14.1644 73.1482 12.2546C75.1041 10.3448 77.6858 9.46948 81.0498 9.46948C84.1791 9.46948 86.4479 10.2652 88.0126 11.8568C89.5773 13.4483 90.3596 15.756 90.3596 18.7003V20.9284ZM84.2574 17.2679C84.2574 15.9947 83.9444 14.9602 83.3186 14.3236C82.6927 13.687 81.7539 13.3687 80.5022 13.3687C79.3287 13.3687 78.3899 13.687 77.6075 14.3236C76.8252 14.9602 76.434 15.9151 76.3558 17.3475H84.2574V17.2679Z" fill="white"/>
<path d="M106.163 27.4536C105.85 27.6923 105.459 28.0106 104.911 28.4085C104.442 28.7268 103.972 29.0451 103.503 29.2838C102.877 29.5226 102.251 29.7613 101.625 29.9204C100.999 30.0796 100.295 30.0796 99.5129 30.0796C97.7136 30.0796 96.1489 29.5226 94.9754 28.4085C93.7237 27.2944 93.176 25.7825 93.176 24.0318C93.176 22.5995 93.489 21.4854 94.1148 20.5305C94.7407 19.6552 95.6013 18.939 96.7748 18.382C97.87 17.8249 99.2782 17.5066 100.999 17.2679C102.642 17.0292 104.442 16.87 106.241 16.7905V16.7109C106.241 15.6764 105.85 14.8807 104.989 14.4828C104.129 14.0849 102.877 13.8462 101.156 13.8462C100.139 13.8462 99.0435 14.0053 97.9483 14.4032C96.7748 14.8011 95.9924 15.0398 95.523 15.2785H94.9754V10.5836C95.6013 10.4244 96.6965 10.1857 98.1047 9.94696C99.5912 9.70824 100.999 9.62866 102.486 9.62866C105.928 9.62866 108.432 10.1857 109.996 11.2997C111.561 12.4138 112.343 14.0849 112.343 16.3926V29.443H106.319V27.4536H106.163ZM106.163 24.4297V20.3714C105.302 20.4509 104.442 20.5305 103.503 20.6897C102.564 20.8488 101.782 20.9284 101.312 21.0875C100.686 21.2467 100.217 21.565 99.9041 21.9629C99.5912 22.3608 99.4347 22.8382 99.4347 23.3952C99.4347 23.7931 99.4347 24.1114 99.5129 24.3501C99.5912 24.5889 99.7476 24.8276 100.061 25.0663C100.295 25.3051 100.608 25.4642 100.999 25.5438C101.391 25.6234 101.938 25.7029 102.721 25.7029C103.346 25.7029 103.972 25.5438 104.598 25.3051C105.146 25.1459 105.693 24.8276 106.163 24.4297Z" fill="white"/>
<path d="M124 29.443H117.898V2.62598H124V29.443Z" fill="white"/>
<path d="M39.8991 14.4033C39.8991 16.711 38.0215 18.6208 35.7527 18.6208C33.4839 18.6208 31.6063 16.711 31.6063 14.4033C31.6063 12.0956 33.4839 10.1858 35.7527 10.1858C38.0215 10.1858 39.8991 12.016 39.8991 14.4033Z" fill="#5A941F"/>
</g>
<defs>
<clipPath id="clip0_89_3007">
<rect width="124" height="30" fill="white"/>
</clipPath>
</defs>
</svg>
