<svg width="47" height="47" viewBox="0 0 47 47" fill="none" xmlns="http://www.w3.org/2000/svg">
<path d="M19.5 2.3094C21.9752 0.880338 25.0248 0.880339 27.5 2.3094L39.8516 9.4406C42.3268 10.8697 43.8516 13.5107 43.8516 16.3688V30.6312C43.8516 33.4893 42.3268 36.1303 39.8516 37.5594L27.5 44.6906C25.0248 46.1197 21.9752 46.1197 19.5 44.6906L7.1484 37.5594C4.67319 36.1303 3.1484 33.4893 3.1484 30.6312V16.3688C3.1484 13.5107 4.67319 10.8697 7.1484 9.4406L19.5 2.3094Z" fill="#279428"/>
<g clip-path="url(#clip0_146_627)">
<path d="M34 26.0875C34 28.9523 33.0926 31.1804 31.3426 32.7082C29.5926 34.2361 26.9352 35 23.5 35C20.0648 35 17.4074 34.2361 15.6574 32.7082C13.9074 31.1804 13 28.9523 13 26.1512V11L19.1574 15.2016V25.8329C19.1574 27.4244 19.4815 28.634 20.1944 29.4615C20.9074 30.2255 22.0093 30.6711 23.5648 30.6711C25.1204 30.6711 26.2222 30.2891 26.9352 29.5252C27.6481 28.7613 27.9722 27.5517 27.9722 25.8966V15.2016L34 11V26.0875Z" fill="white"/>
</g>
<defs>
<clipPath id="clip0_146_627">
<rect width="21" height="24" fill="white" transform="translate(13 11)"/>
</clipPath>
</defs>
</svg>
