<svg width="272" height="310" viewBox="0 0 272 310" fill="none" xmlns="http://www.w3.org/2000/svg">
<path d="M130.533 1.33974C133.627 -0.446584 137.439 -0.44658 140.533 1.33975L266.066 73.8162C269.16 75.6026 271.066 78.9038 271.066 82.4765V227.43C271.066 231.002 269.16 234.303 266.066 236.09L140.533 308.566C137.439 310.353 133.627 310.353 130.533 308.566L4.99999 236.09C1.90598 234.303 0 231.002 0 227.429V82.4765C0 78.9038 1.90599 75.6026 5 73.8162L130.533 1.33974Z" fill="black" fill-opacity="0.2"/>
<path d="M130.533 1.33974C133.627 -0.446584 137.439 -0.44658 140.533 1.33975L266.066 73.8162C269.16 75.6026 271.066 78.9038 271.066 82.4765V227.43C271.066 231.002 269.16 234.303 266.066 236.09L140.533 308.566C137.439 310.353 133.627 310.353 130.533 308.566L4.99999 236.09C1.90598 234.303 0 231.002 0 227.429V82.4765C0 78.9038 1.90599 75.6026 5 73.8162L130.533 1.33974Z" fill="#EBF2E4"/>
</svg>
