<svg width="48" height="48" viewBox="0 0 48 48" fill="none" xmlns="http://www.w3.org/2000/svg">
<circle cx="24" cy="24" r="24" fill="#1393E2"/>
<g clip-path="url(#clip0_89_3039)">
<path d="M29.8375 17.1559L15.6265 22.8011C15.6265 22.8011 14.9523 23.0322 15.0054 23.4623C15.0585 23.8925 15.6053 24.0914 15.6053 24.0914L19.1779 25.3118L19.1833 25.3172V25.3118L27.7619 19.7903C27.7619 19.7903 28.2556 19.4838 28.2397 19.7903C28.2397 19.7903 28.3299 19.8441 28.0645 20.0968C27.799 20.3494 21.3226 26.2419 21.3226 26.2419L21.312 26.3548L27.1408 30.8817C28.1123 31.3118 28.4679 30.414 28.4679 30.414L31.0001 17.4946C31.0001 16.6344 29.8322 17.1559 29.8375 17.1559Z" fill="white"/>
<path d="M23.5415 28.086L21.2323 30.2204C21.2323 30.2204 21.0518 30.3602 20.8553 30.2742L21.296 26.3118" fill="white"/>
</g>
<defs>
<clipPath id="clip0_89_3039">
<rect width="16" height="14" fill="white" transform="translate(15 17)"/>
</clipPath>
</defs>
</svg>
