<svg width="527" height="527" viewBox="0 0 527 527" fill="none" xmlns="http://www.w3.org/2000/svg">
<path d="M259.5 2.3094C261.975 0.880338 265.025 0.880339 267.5 2.3094L487.698 129.441C490.173 130.87 491.698 133.511 491.698 136.369V390.631C491.698 393.489 490.173 396.13 487.698 397.559L267.5 524.691C265.025 526.12 261.975 526.12 259.5 524.691L39.3023 397.559C36.8271 396.13 35.3023 393.489 35.3023 390.631V136.369C35.3023 133.511 36.8271 130.87 39.3023 129.441L259.5 2.3094Z" fill="#279428"/>
<g clip-path="url(#clip0_163_1781)">
<g filter="url(#filter0_i_163_1781)">
<path d="M381.234 292.514C381.234 324.635 371.059 349.618 351.437 366.75C331.814 383.881 302.018 392.447 263.5 392.447C224.982 392.447 195.185 383.881 175.563 366.75C155.94 349.618 145.766 324.635 145.766 293.227V123.341L214.807 170.452V289.658C214.807 307.504 218.441 321.066 226.435 330.345C234.43 338.911 246.784 343.908 264.226 343.908C281.668 343.908 294.023 339.625 302.018 331.059C310.012 322.494 313.646 308.931 313.646 290.372V170.452L381.234 123.341V292.514Z" fill="white"/>
</g>
</g>
<defs>
<filter id="filter0_i_163_1781" x="145.766" y="123.341" width="235.468" height="273.106" filterUnits="userSpaceOnUse" color-interpolation-filters="sRGB">
<feFlood flood-opacity="0" result="BackgroundImageFix"/>
<feBlend mode="normal" in="SourceGraphic" in2="BackgroundImageFix" result="shape"/>
<feColorMatrix in="SourceAlpha" type="matrix" values="0 0 0 0 0 0 0 0 0 0 0 0 0 0 0 0 0 0 127 0" result="hardAlpha"/>
<feOffset dy="4"/>
<feGaussianBlur stdDeviation="5"/>
<feComposite in2="hardAlpha" operator="arithmetic" k2="-1" k3="1"/>
<feColorMatrix type="matrix" values="0 0 0 0 0 0 0 0 0 0 0 0 0 0 0 0 0 0 0.25 0"/>
<feBlend mode="normal" in2="shape" result="effect1_innerShadow_163_1781"/>
</filter>
<clipPath id="clip0_163_1781">
<rect width="235.468" height="269.106" fill="white" transform="translate(145.766 123.341)"/>
</clipPath>
</defs>
</svg>
