<svg width="48" height="48" viewBox="0 0 48 48" fill="none" xmlns="http://www.w3.org/2000/svg">
<circle cx="24" cy="24" r="24" fill="#33CE62"/>
<g clip-path="url(#clip0_89_3027)">
<path d="M30.372 17.6149C28.68 15.9313 26.43 15 24.036 15C19.104 15 15.072 18.994 15.072 23.9194C15.072 25.4955 15.486 27.0179 16.26 28.3791L15 33L19.752 31.7642C21.066 32.4806 22.542 32.8567 24.036 32.8567C28.968 32.8567 33 28.8627 33 23.9373C33 21.5373 32.064 19.2985 30.372 17.6149ZM24.036 31.3343C22.704 31.3343 21.39 30.9761 20.238 30.2955L19.968 30.1343L17.16 30.8866L17.916 28.1463L17.736 27.8597C16.998 26.6776 16.602 25.3164 16.602 23.9194C16.584 19.8358 19.932 16.5045 24.036 16.5045C26.034 16.5045 27.888 17.2746 29.31 18.6716C30.714 20.0687 31.488 21.9313 31.488 23.9194C31.488 28.003 28.14 31.3343 24.036 31.3343ZM28.122 25.7821C27.906 25.6746 26.79 25.1373 26.592 25.0657C26.394 24.994 26.232 24.9582 26.088 25.1731C25.944 25.3881 25.512 25.8896 25.386 26.0507C25.26 26.194 25.116 26.2119 24.9 26.1045C24.684 25.997 23.946 25.7642 23.1 24.994C22.434 24.403 21.984 23.6687 21.858 23.4537C21.732 23.2388 21.84 23.1134 21.948 23.006C22.056 22.8985 22.164 22.7373 22.29 22.6119C22.398 22.4866 22.434 22.397 22.506 22.2358C22.578 22.0925 22.542 21.9493 22.488 21.8418C22.434 21.7343 21.984 20.6418 21.804 20.194C21.624 19.7642 21.444 19.8179 21.3 19.8179C21.174 19.8179 21.012 19.8179 20.868 19.8179C20.724 19.8179 20.472 19.8716 20.274 20.1045C20.076 20.3194 19.482 20.8746 19.482 21.9672C19.482 23.0597 20.292 24.1164 20.4 24.2776C20.508 24.4209 21.984 26.6776 24.234 27.6448C24.774 27.8776 25.188 28.003 25.512 28.1104C26.052 28.2716 26.538 28.2537 26.916 28.2C27.348 28.1284 28.248 27.6627 28.428 27.1433C28.608 26.6239 28.608 26.1761 28.554 26.0866C28.5 25.9433 28.356 25.8896 28.122 25.7821Z" fill="white"/>
</g>
<defs>
<clipPath id="clip0_89_3027">
<rect width="18" height="18" fill="white" transform="translate(15 15)"/>
</clipPath>
</defs>
</svg>
